<?xml-stylesheet type="text/css" href="../css/app.css"?>
<svg class="pointerCursor" version="1.1" viewBox="0 0 79.4 79.3" xmlns="http://www.w3.org/2000/svg">
  <path class="airbnb" d="M28 56h-1v7.8l1 .1h1.1v-.1V56h-1zM48.7 56a3.3 3.3 0 0 0-1.2.3l-.4.2v-.1l-.1-.2h-.2L46 56h-.7l-.2.1a175.2 175.2 0 0 0 .2 7.9h1.8v-5.6l.3-.2c.2-.2.5-.4.9-.5h1l.6.3.4.5v2.9l.1 2.6h2v-2.7a63.8 63.8 0 0 0-.1-3.4c0-.3-.2-.5-.3-.7l-.5-.6a3 3 0 0 0-.6-.5L50 56c-.5-.1-1-.2-1.4 0zM34.4 56a2.5 2.5 0 0 0-1.6.5h-.2-.1c0-.2 0-.3-.2-.3h-1.9V64l1.1.1h1v-5.6l.4-.3c.2-.2.5-.3.8-.3l1-.1h.6V57v-.6l-.1-.3h-.8zM21.8 56a4 4 0 0 0-2.7.8 4 4 0 0 0-1.5 3.3c0 .5 0 1 .2 1.4a4.2 4.2 0 0 0 1 1.6 4 4 0 0 0 1.5 1l1.3.2c.5 0 1 0 1.2-.2l.6-.3.3-.2v.2l.2.3h1.9v-7.9h-1.9v.2c-.2 0-.2.2-.2.2l-.3-.2-.7-.3-1-.2zm.3 1.8l.7.2c.3 0 .5.2.7.4l.2.2v3l-.3.3-.4.3a2 2 0 0 1-.5.2H22l-.8-.1a2.4 2.4 0 0 1-1.1-.7l-.4-.9a2 2 0 0 1 0-.9c0-.3 0-.6.2-.9l.6-.6.8-.4h.8zM27.8 52.2a1.3 1.3 0 0 0-.7.4 1.4 1.4 0 0 0-.4.8v.4l.1.4.4.4a1.4 1.4 0 0 0 1 .3h.4a1.4 1.4 0 0 0 .6-2.1 1.4 1.4 0 0 0-1.4-.6zM36.3 52.2l-.1 1v10.9H38l.1-.3.1-.2.4.2.7.4h2.1l.6-.3a4.6 4.6 0 0 0 1.3-1 3.6 3.6 0 0 0 .8-1.4 4.9 4.9 0 0 0 .2-1.9 4.4 4.4 0 0 0-1-2.3 3.9 3.9 0 0 0-1.3-1 4.1 4.1 0 0 0-2.3-.4 3 3 0 0 0-1.1.5l-.4.1a26.7 26.7 0 0 1 0-3.9l-.1-.4h-1.8zm4 5.6c.4 0 .7.1.9.3l.6.5.4.6a2.6 2.6 0 0 1-.2 2 2 2 0 0 1-.4.5l-.5.4-.5.2h-1.3c-.2 0-.3-.2-.5-.3-.2 0-.3-.2-.4-.3l-.2-.2v-2.9l.3-.3c.2-.2.5-.4.9-.5h1zM55.6 52.2h-1.8V64h1.8v-.2l.2-.2.2.1.8.4 1 .1 1.3-.1 1-.5a4 4 0 0 0 1.4-1.6 4.3 4.3 0 0 0-1.8-5.7 4.2 4.2 0 0 0-2.9-.3l-.8.4-.2.1v-2.1-1.8l-.2-.4zm2 5.6h.6l.6.3c.2 0 .3.2.4.3l.4.5.2 1v1c-.2.3-.3.6-.6.8l-.8.5a3 3 0 0 1-1 .1l-.7-.1-.7-.4-.2-.2v-2.9l.1-.2c.1-.2.4-.4.7-.5l.5-.2h.5zM40 12a9.2 9.2 0 0 0-1.3 0l-.7.2a6.5 6.5 0 0 0-3.5 2.8l-2.1 4-3.5 7-3.4 7.1a69.4 69.4 0 0 0-2.4 6 8.6 8.6 0 0 0 .2 4 7.5 7.5 0 0 0 3 3.9 8.2 8.2 0 0 0 3.3 1.3H32.2a9.3 9.3 0 0 0 2.5-1 13 13 0 0 0 2.5-1.6c.4-.2 1-.9 1.6-1.4l1-1 1 1A22.5 22.5 0 0 0 44 47a10.8 10.8 0 0 0 3.2 1.3 8.2 8.2 0 0 0 4.7-.4 7.9 7.9 0 0 0 3.6-3.1 7.8 7.8 0 0 0 1-2.6 8.7 8.7 0 0 0 .1-2.7c0-.3 0-.5-.2-.9l-.4-1.1-2.2-5A528.3 528.3 0 0 0 45 15a8.2 8.2 0 0 0-2-2.1 5 5 0 0 0-2-.8 6 6 0 0 0-1-.1zm-.2 2.3h.3a4 4 0 0 1 1.8.6l.8.7.7.9 3.2 6.4 4.3 8.6a136 136 0 0 1 3.4 8l.1 1v1a5.6 5.6 0 0 1-1.3 2.8 5.5 5.5 0 0 1-5.5 1.7l-1.3-.4a14.3 14.3 0 0 1-4.9-4l.6-.8a24.7 24.7 0 0 0 3.3-5.7l.5-1.8a9.6 9.6 0 0 0-.1-3.8 5.5 5.5 0 0 0-1.3-2.2 6.3 6.3 0 0 0-2-1.4 6 6 0 0 0-2.6-.5 7 7 0 0 0-3 .7 6.1 6.1 0 0 0-2.2 2 6 6 0 0 0-1 3.4c0 .6 0 1.3.2 1.7a15.7 15.7 0 0 0 2.4 5.6 32 32 0 0 0 2 2.9l-.9 1c-.5.4-1 1-1.4 1.2-.6.5-1.2 1-1.9 1.3a8 8 0 0 1-1.8.8 6.7 6.7 0 0 1-2.6 0 5.8 5.8 0 0 1-2.6-1.2 5.2 5.2 0 0 1-1.6-2.4 5.5 5.5 0 0 1-.2-2 5.7 5.7 0 0 1 .4-2l2.1-4.5a541 541 0 0 1 8.8-17.6 4.5 4.5 0 0 1 1.6-1.5 3.8 3.8 0 0 1 1.7-.5zm0 13.3a4.6 4.6 0 0 1 1.6.3 3.6 3.6 0 0 1 1.7 1.5l.4.8.1.8v.9c0 .5 0 1-.2 1.5a11.5 11.5 0 0 1-1.5 3.3 28.5 28.5 0 0 1-2.1 3l-.2-.2a27.6 27.6 0 0 1-3-5.2A10.3 10.3 0 0 1 36 32a5.4 5.4 0 0 1 .2-1.8 3.7 3.7 0 0 1 1.4-2 3.7 3.7 0 0 1 2.2-.6z" paint-order="markers fill stroke"/>
</svg>
