<?xml-stylesheet type="text/css" href="../css/app.css"?>
<svg version="1.1" viewBox="0 0 38.7 23.8" xmlns="http://www.w3.org/2000/svg">
 <g fill="none">
  <path class="beeBody" d="M30.1 10.6c-.4-.6.2-1.4.6-2 .4-.4 1-.6 1.4-.9l1.4-.6 2-.4s-.3 1.6-.7 2.3c-.2.4-.6.6-1 .9-.3.3-.7.7-1.2.9-.8.2-2 .5-2.5-.2z"/>
  <path class="outlineFillColor" d="M29.8 2.5c-.5.3-.7.9-.4 1.5.3.8 1.4 2 2.3 2.5 1.4.8 2.2.8 2.3 0 .2-.8-.9-2-2.1-2.7-.5-.2-.4-.1.3.4 1.4 1.1 2 2.3 1.4 2.7-.3.2-1.5-.3-2.5-1-.9-.8-1.6-2-1.6-2.5.1-.9 1.2-1 2.7-.3 1.4.6 2.1 1.3 2.6 2.7.3.9.4 1.1.2 2L34.7 9l-.2.5-.4-.3a2 2 0 0 1-.6-.8c-.2-.5-.2-.6 0-.8.2-.1-.3 0-1 .4-1.5.7-2.1 1.3-2.5 2.3-.4 1.1-.2 1.4 1.1 1.5.4 0 .8-.2 1.6-.5a4 4 0 0 0 1.7-1.3A4.3 4.3 0 0 0 35 5c-.5-1-1.2-1.6-2.4-2.2-1-.4-1.7-.6-2.5-.4l-.2.1zm7.3 1.4l-.2.1c0 .2 0 .2.2 0 .2-.1.2-.2 0-.2zm.6-.3s-.1.1 0 .2c0 .1 0 .3-.2.4-.2.1-.2.1 0 0 .3 0 .5-.5.2-.6zm-1 .7v.2c-.2.1-.2.3-.2.3l.2-.3v-.2zm-.1.9c-.2 0-.8 1.2-.7 1.4 0 .3.9-.5 1-1 0-.3-.1-.5-.3-.4zm1.4-.5l-.1.1c-.1 0 0 .1 0 0 .2 0 .3 0 .2-.1zm.4-.2v.1s0 .1 0 0l.3.1c0 .1 0 .2-.2.2l-.2.1c.1.2.4 0 .5-.3 0-.2 0-.2-.2-.2h-.2zM33 8c.2 0 .3 0 .3.2 0 .7.2 1.1.7 1.4l.5.2-.6.6-1 .7c-1 .4-2.3-1.2-1.6-2 .5-.6.6-.5.7.1.1.6.2.7.6 1 .3.3.6.4.8.3h.3l-.4-.2c-.5-.2-.7-.6-1-1.3-.2-.5-.2-.5.4-.8l.3-.2zm1.4-.6l-.1.1c-.1.1 0 .1.1 0h.1c0-.1 0-.1 0 0zm-3.6 2.1v.5c.2.7.5 1.2.9 1.3.5.1.2.3-.5.2-.8 0-1-.5-.6-1.5z"/>
  <path class="dashed outlineStrokeColor" d="M1 24a7.6 7.6 0 0 1 .7-8.3 6.8 6.8 0 0 1 5-2.6c1 0 2 .3 3 .7.8.5 1.5 1.2 2 2 .3.5.5 1 .5 1.6.1.5 0 1-.1 1.5-.2.5-.5 1-1 1.3-.4.3-1 .4-1.5.4-.3 0-.7-.2-1-.4l-.7-1c-.2-.4-.3-1-.2-1.6.1-.5.4-1 .7-1.5.7-.9 1.7-1.5 2.7-2 2.7-1.3 5.6-2 8.3-3 1.7-.7 3.3-1.5 4.5-2.9A6 6 0 0 0 25.2 6c.2-.8.3-1.8 0-2.6A4 4 0 0 0 21 .5"/>
 </g>
</svg>
