<?xml-stylesheet type="text/css" href="../css/app.css"?>
<svg version="1.1" viewBox="0 0 98.6 87.7" xmlns="http://www.w3.org/2000/svg">
 <g fill="none">
  <path class="flowerBackPetals" d="M5 63.8c-1.3-.4-3-2.4-3-2.4s2.1-1.8 3.3-2.4c2.5-1.2 8.1-2 8.1-2S8.6 54.8 6.9 53c-1-1.2-1.9-4-1.9-4s2.4-1 3.6-1c1 0 1.8.7 2.8.9 1.6.3 5 .6 5 .6s-2.5-4.8-2.5-7.4c0-1.3.8-2.6 1.3-3.8l1.2-1.8s1.8 2 2.5 3l1.5 2.7c.8 1.4 2.7 4.1 2.7 4.1s2.3-3.7 3.6-5.4c1.2-1.5 4-4 4-4s.7 2.5.8 3.7v2.6l-.4 5.7s3.2-3 5.1-3.7c1.7-.7 5.5-.8 5.5-.8l-1.3 3.2-1 2.4c-1.1 1.9-3.7 5.3-3.7 5.3s3.9-.6 5.7 0c1.7.5 4.5 3.3 4.5 3.3s-2.4 2.1-3.9 2.8c-1.8.8-5.9 1.3-5.9 1.3s3.6 2.3 4.9 4c1 1.4 2 4.8 2 4.8s-4.2.3-6.2-.1c-2.1-.5-5.8-3-5.8-3s2 5 2.2 7.6c0 1.2 0 2.4-.4 3.4-.3.9-1.5 2.3-1.5 2.3s-2.5-2.8-3.6-4.3c-1.2-1.5-3-4.9-3-4.9s-1.4 5.1-3.2 6.9c-1.3 1.3-5 2.3-5 2.3l.3-5.3 1-7.8s-4 2.5-6.2 3.2c-1.6.6-5 1-5 1s1-3.2 2-4.5c1.5-2 5.5-4.8 5.5-4.8s-6.3 1.4-9.1.4z"/>
  <path class="flowerFrontPetals" d="M42.8 66c-4.2.8-6 .6-8-.7-.9-.5-1.2-.6-1.4-.4-.1.3.1.6 1.1 1.2 1.3.8 1.4 1 1.9 2.7.2 1 .5 3.2.6 5 0 1.9.2 3.7.3 4.2l.1.8-1.6-1.2a26.3 26.3 0 0 1-7.3-7.9c0-.5-.6-1-.8-.7l.2 1.8c.5 2.1.4 4-.2 6.5-.5 2-2.8 7.7-3 7.8-.2 0-.4-.4-.7-1-1.9-4.6-2.5-8.7-2-12.7.2-1.2.3-2.3.1-2.4-.4-.3-.6.2-.8 1.7a6.3 6.3 0 0 1-2.8 4.4c-1.8 1.1-7 3.9-7.2 3.7-.4-.2 0-3.6.7-5.3.3-.9 1-2.5 1.8-3.7a7.5 7.5 0 0 1 3-3c1.5-1 1.6-1.2 1.2-1.4-.3-.2-.6 0-1 .3-.3.3-1.3 1-2.3 1.3a14.6 14.6 0 0 1-9.3.6c-2.8-.6-2.8-.6-1-2 3.9-3.1 7.3-4.7 9.7-4.3 2 .3 2-.4.1-.8h-2.4c-1 .2-2 .2-2.5 0s-2.2-1.2-4-2.4l-3-2.2 3-1.3c1.6-.7 3.5-1.4 4.1-1.5 1.5-.4 4 0 5.8.9 2 .9 2.1.4.3-.8-1.6-1-2.5-2.3-3.7-5a21 21 0 0 1-1.7-6.9 21 21 0 0 1 5.3 2.5c2.3 1.5 4.3 3.8 4.8 5.6.2.8.6 1.2.8.9.1-.3-.3-1.6-1-3-.4-1-.4-1.4-.2-2.3.4-1.1 4.4-7.6 4.8-7.7.3 0 1.4 2 2.3 4.4 1 2.4 1.1 4.5.5 5.5-.7 1-1 2.4-.5 2.7.4.2.4.2.5-.7.1-1 1.3-2.7 3.4-4.6 1.6-1.5 6-4.6 6-4.4.2.3-.8 6.2-1.3 8-.3 1-.8 1.9-1.7 3.1-.7 1-1.2 1.9-1.1 2 .2.1.8-.3 1.8-1.6.9-1.1 1-1.2 2.7-1.3 2.4-.2 9 .6 8.7 1-.3.5-4.7 4.2-6 5-.9.6-2.3 1.2-3.2 1.4l-1.6.7c0 .1.7.3 1.5.4 1.4.1 1.6.2 5.1 2.5l4.3 3.1.7.7z"/>
  <path class="flowerCenterOutside" d="M31.1 65.6c-.1 0-.3.2-.4.5 0 .3-.3.5-.5.5-.3 0-.5.2-.6.6-.2.4-.3.5-.8.4-.5-.1-.6 0-.8.4-.2.5-.2.5-.7 0-.4-.3-.4-.3-.6.1-.3.5-.3.5-.8.1-.4-.3-.5-.3-.8.1-.3.6-.7.6-.8.2-.1-.5-.3-.5-.6 0-.3.4-.8.4-1 0 0-.5-.3-.6-.7-.3-.4.3-1-.1-1-.7l.2-.4-.6.1c-.5.1-.7 0-.8-.2 0-.3-.2-.4-.7-.5-.6-.1-.8-.2-.8-.5-.1-.3-.4-.5-.8-.6-.5-.2-.6-.3-.5-.7.1-.3 0-.4-.4-.6-.6-.2-1-.8-.8-1.2 0-.1 0-.5-.3-.8l-.3-.8.2-.4v-.7-1c0-.1.2-.6.1-1l.1-1c.1-.1.2-.5.1-.7 0-.4 0-.6.4-.8.3-.3.5-.5.5-1 .1-.4.2-.6.4-.6l.5-.7c.2-.6.4-.7.8-.8.4 0 .5-.2.7-.6.2-.3.3-.5.7-.5l.8-.4c.2-.3.4-.4.8-.2.3 0 .5 0 .8-.4.4-.4.4-.4.8-.1.3.3.4.3.7 0 .2-.2.4-.2.9 0 .4.3.6.3.7.2l.6-.2c.4 0 .5.1.5.4 0 .4.1.4.6.2.6-.3 1-.1 1.1.4 0 .2.2.3.6.2.5 0 .5 0 .7.5 0 .4.2.6.3.5.4-.2.9.3.9.9 0 .6 0 .6.3.3.5-.3.8 0 1 .7 0 .3.2.8.5 1 .3.3.5.7.4.9 0 .2.1.5.3.7.1.1.1.5 0 .8 0 .4 0 .7.2.8.4.3.5.7.2 1.2a1 1 0 0 0 0 1c.1.3 0 .6-.1 1-.2.2-.3.5-.2.7 0 .3 0 .4-.3.5-.3.1-.5.3-.5.5 0 .4-1 2-1.2 2z"/>
  <path class="flowerCenterInside" d="M28.5 62.7c-.1.2-.3.2-.7 0h-.4l.2.4.2.3c0 .2-.3.5-.6.6l-.4-.1-.3-.2v.3c0 .2 0 .5-.2.7l-.2.1c-.3 0-.5 0-.8-.3 0-.2-.1-.2-.2-.2l-.1.2c-.1.4-.4.8-.7.8-.2 0-.2 0-.4-.3-.2-.2-.3-.3-.5-.2l-.4.1-.4.1c-.2 0-.4-.1-.5-.3-.2-.2-.2-.6 0-.8 0-.2-.1-.3-.5-.1-.6.2-.8.2-1 0a1 1 0 0 1-.2-.6c0-.1 0-.2.2-.3.3-.4.1-.6-.3-.4l-.3.1c-.4 0-.8-.2-.9-.6l.4-.6c.3-.3.3-.4-.2-.5a.9.9 0 0 1-.7-.4v-.6l.7-.4.2-.2-.2-.4c-.2-.2-.3-.3-.3-.5 0-.5.5-.8 1-.7h.3l-.1-.3c-.3-.1-.4-.3-.3-.6 0-.2.2-.3.3-.5.3-.3.7-.3 1.3-.1h.2V56c0-.5 0-.7.3-.9l.7-.1c.1 0 .2.1.3.5 0 .3.1.4.2.4l.2-.4c0-.4.3-.7.6-.8.3-.1.6 0 .7.2.2.2.2.4.1.7v.4s.2 0 .4-.3c.4-.5.8-.7 1.1-.5l.2.3c0 .3 0 .6-.3 1-.2.2-.2.4-.1.5h.3c.5-.5.8-.6 1-.5.4.1.7.4.7.7 0 .2 0 .4-.2.7l-.2.4v.1l.2-.1.8-.2c.2 0 .4.3.5.6 0 .3 0 .5-.4 1-.2.3-.3.3-.2.4h.1c.3.1.5.3.5.6 0 .2 0 .5-.3.7-.2.2-.2.4-.1.5v.6l-.3.3z"/>
  <path class="outlineFillColor" d="M37 80.8l-.1-.6-.2-2.3a107.8 107.8 0 0 0 0-4.9l.4.1H41c1 0 1.1 0 1.2-.3 0-.4-1-3.5-1.5-4.4a36.6 36.6 0 0 1 6.3-1.7l-.8-.8a762 762 0 0 1-4.2-3.4c.8-.4 2.4-1.5 2.8-1.9l.5-.5L44 59l-2.1-1.7-.8-.5.4-.4 2.6-2.2c1.2-1 2-1.9 2-1.9l-.8-.2a83 83 0 0 1-5.5-1L39 51l.7-1.1c.7-1.2 1.4-3 1.5-3.7l.1-.5-1.8.2-2.7.4-.9.3.4-2.7.5-2.9c.1-.7 0-.7-1-.2-.7.3-1.8 1-4.3 2.7l-.4.3v-1c0-1.1-.2-2.3-.8-3.7-.2-.7-.3-.7-.5-.7a11 11 0 0 0-2.7 2.4c-.4.6-.9 1-1 1l-.5-1-1.7-3a34.9 34.9 0 0 0-4 5.3l-.3-.4c-.4-.8-1-1.8-1.8-2.8-.8-1-2.1-2.2-2.2-2-1 1.1-2.4 4.3-2.5 5.2 0 .3 0 .4-.2.4A77.5 77.5 0 0 1 9.4 42c-.3-.2-.9-.3-1-.2a25.6 25.6 0 0 0 1 5.8l.2 1 .4.7.2.3c0 .2 0 .2-.2 0-.3-.2-1.5-.5-2.3-.4h-.8l-.3-.2-.5.1.2.2-.8.2h-.2l-.9.7 1-.3c3.2-.7 4.7-.3 5.5 1.2l1.6 2.5.4.4-.6-.2a8.5 8.5 0 0 0-5.2.2c-.5.2-.5.2-1-.3a12 12 0 0 1-1.8-3.4l-.3.1.4 1a9.2 9.2 0 0 0 1.8 2.9 61.5 61.5 0 0 1-6 2.7s0 .2.3.3l3 2 1.1.8-.2.2c-.3.1-.9.6-2.7 2.2l-.4.2L2.8 64l1.5 1.2a66 66 0 0 1-3.6 3.2c0 .2.1.3.7.3l1.3.3a15.3 15.3 0 0 0 4.8 1.1l-.2.3C6.8 71 6 73.8 6.1 74c.1.3 1.6.2 3-.1l1.5-.3-.2.9c-.6 1.4-.9 3.7-.8 5.7v.7l.4-.1a28.4 28.4 0 0 0 6-2.8l-.2.7c-.3.9-.3 2.3-.2 3.6l.2 1.1h.5a13.8 13.8 0 0 0 4.5-2.3l.3.7c.5 1.7 2.2 5.7 2.4 5.7a46 46 0 0 0 3.3-7l.3-1 1 1c.5.7 1.2 1.3 1.8 1.8l1 .8.3-.4A9.7 9.7 0 0 0 33 78a44.6 44.6 0 0 1 4 2.8zm-.4-.5a45.6 45.6 0 0 1-8-7.3c-.6-.6-.9-1-1-1.5l-.5-1.1-.2-.6.4.2c.5 0 1-.2 1-.7 0-.1 0-.2.1 0 .4.3 1.4-.1 1.4-.7l.4-.3c.2 0 .5-.3.7-.5a42.6 42.6 0 0 1 1-1.4c.2-.2.2-.2.8.3l1.3.8.8.4.3.8c.8 1.7 1 3.9 1.2 8a25.5 25.5 0 0 0 .3 3.6zm5.3-7.5H37l-.5-.2-.1-1c-.2-1-.8-3-1-3.1-.2-.3 0-.4.4-.3.8.3 2.2.4 3.3.2h1.1c.4.3 1.9 4.2 1.7 4.4zm4.2-6.3h-.3l-2.4.6c-4 1-5.7 1.1-7.6.6-1.7-.5-3.6-1.6-3.3-2l.2-.5c0-.2 0-.3.2-.4.3 0 .5-.4.6-.9l.1-.6c.2-.2.2-1.2 0-1.5-.1-.2-.1-.3.1-.5s.3-.4.3-.8V60l2.4.1a64 64 0 0 1 9.7 6.3zM31 82.8s-2-1.5-2.5-2.1c-1.2-1.5-1.2-1.5-1-2.4a21 21 0 0 0 .4-5.4l.5.5c.6.8 3 3.3 3.7 3.9.5.4.5.4.4 1.1a11 11 0 0 1-1 3.3l-.5 1.1zm-7.4 4a23.3 23.3 0 0 1-2.5-15.6c.2-.9.3-1.3.5-1.2h.3c.2-.2.2-.1.3.1.2.4 1 .6 1.4.3.2-.2.3-.2.5 0 .3.2 1 .1 1.1-.3.1-.1.2-.1.4 0l.6.2c.4 0 .4 0 .7.5.4.8.6 3.7.4 5.2-.1 1.4-.6 3.4-1 4.8a73 73 0 0 1-2.7 6zM45 60.3l-.4.3c-.5.5-2 1.5-2.6 1.7l-.4.2-1.2-.8a13.6 13.6 0 0 0-3.8-2L38 59l2-1.2.9-.6.4.2 2.1 1.6zm.4-7.6l-2.5 2.1c-2.7 2.4-3.6 3-5 3.8-1.5.8-2 1-3.3 1-1.2.1-1.3.1-1.2-.2.1-.5 0-1-.2-1.2a.5.5 0 0 1-.1-.5c0-.3-.4-1-.8-1.3-.2 0-.2-.3-.2-.6l-.2-.7c-.2-.3-.2-.3 0-.5.5-.3 2-2 2.2-2.4.2-.7 4.4-.8 7.4-.3 2 .3 3.9.8 3.8.8zM20.6 80.9l-.3.2-1 .7a18 18 0 0 1-3.3 1.5 15.4 15.4 0 0 1 .2-4.8l.3-.8.8-.5a9.5 9.5 0 0 0 2.8-2.5v1.6c0 1.5.2 2.6.5 3.7v.9zm10.8-14.2l-.4.3c-.3 0-.3 0-.4.4 0 .3 0 .4-.4.5l-.6.2v.3c0 .2 0 .4-.3.5-.2.2-.4.2-1 0-.2-.1-.2-.1-.3.3-.1.6-.5.6-.9.2-.3-.4-.4-.4-.5 0-.1.4-.2.5-.4.5-.3 0-.6-.2-.6-.4 0-.1-.1-.2-.3-.2-.1 0-.2 0-.1.2 0 .3-.4.7-.8.6-.3 0-.3-.1-.4-.5l-.2-.4v.3l-.3.5c0 .2-.7.2-.9 0l-.1-.3c0-.1 0-.3-.2-.4-.1-.1-.2 0-.3.2-.1.2-.2.2-.6.1-.5 0-.7-.4-.6-.8v-.3h-.3c-.5.3-1 .1-1-.3 0-.3 0-.3-.5-.3-.6 0-1-.3-1-.8-.1-.3-.1-.3-.6-.4-.5 0-.8-.4-.6-.8.1-.4.1-.4-.3-.4-.3 0-.5-.2-.7-.4-.3-.3-.3-.4-.2-.9 0-.5 0-.6-.2-.8-.4-.3-.5-1-.2-1.3.2-.2.2-.2 0-.4s-.2-1 0-1.3c.2-.3.2-.5.1-.8-.2-.6-.2-1 .1-1.2l.2-.4c-.4-.3 0-1.3.6-1.4.1 0 .2-.1.2-.5 0-.6.3-1 .6-.9l.1-.3c0-.6.8-1.3 1.3-1.1.3 0 .3 0 .3-.4 0-.5.3-.8 1-.7l.4-.1c0-.2.3-.7.6-.7.1 0 .3 0 .5.2s.3.2.5-.3c.3-.3.4-.5.6-.5.3 0 .6.2.7.5 0 .2 0 .2.3-.1.4-.4.9-.4 1.3 0 .2.3.2.3.3.1.3-.5 1.6-.2 1.4.3 0 .3 0 .3.4 0 .2 0 .6-.1.8 0 .3 0 .4 0 .5.5 0 .4 0 .4.2.2s.7-.1.9.2l.1.5c0 .3 0 .3.4.3l.5.1c.3.3.5.8.3 1v.2h.2c0-.3.5-.3.8 0 .2 0 .3.3.3.7 0 .4 0 .6.5 1s.7.8.5 1c-.1.2-.1.3.1.4.4.2.4.7.2 1.1-.1.3-.1.4.3.7.4.4.4.5 0 1.2-.2.4-.3.5-.1.6l.2.6c0 .4 0 .6-.2.8-.1.1-.2.3-.1.5.1.4-.2.8-.6.8-.2 0-.3.1-.2.4 0 .4-.2.9-.7 1.2-.2.1-.3.2-.1.3v.3zm-2-3.2c.2-.2.3-.5.2-.7l.1-.7c.3-.2.4-1 .3-1.1l-.3-.4c-.2-.1-.1-.2 0-.4.2-.2.3-.5.3-.7 0-.4 0-.5-.6-.9-.3-.2-.5-.4-.4-.5 0-.1 0-.4-.2-.6-.2-.5-.6-.7-1.2-.7l-.3-.1c.3-.7-.3-1.4-1-1.3l-.6.2s-.2 0-.3-.2a1 1 0 0 0-1.4-.2c-.2.2-.4.2-.6 0-.6-.3-1.6.2-1.7 1 0 .2-.2.2-.4.2l-.6.1c-.4.2-.7.6-.8 1.1-.1.3-.2.5-.5.6-.3.1-.3.3-.4.7-.1.3-.1.6 0 .8 0 .2 0 .3-.3.5-.3.3-.3.4-.3 1 0 .4.1.5.5.7.3.3.4.3.3.5v.7c0 .4 0 .4.6.7.4.2.5.2.5.4 0 .1 0 .4.2.6.2.4.5.6 1.1.5.3 0 .3 0 .4.3l.3.5c.3.2.5.2 1 .2.4-.1.6 0 .9.2.4.3.9.3 1.3-.3.2-.3.3-.3.5-.2h.5c.4 0 .5 0 .6-.4.2-.3.3-.4.6-.4.4-.1.9-.6.8-.9l.3-.3c.3-.1.5-.3.6-.5zm-.3 0c-.3.3-.4.3-.8.2-.5-.1-.5-.1-.3.1.2.1.3.3.3.5 0 .4-1 .8-1.2.4-.1-.2-.1-.2-.1.1 0 .2 0 .5-.2.7 0 .2-.2.3-.5.2a.8.8 0 0 1-.6-.3c-.2-.2-.2-.2-.2 0-.1.4-.5.8-.8.8-.2 0-.3 0-.5-.3s-.2-.4-.7-.1c-.5.2-.6.2-.9 0-.3-.3-.5-.9-.2-1.2l-.5.1c-.6.3-1 .2-1.2-.4 0-.2 0-.4.2-.6.3-.4.2-.5-.3-.2-.4.2-1 0-1.1-.5-.1-.2 0-.4.2-.7.4-.4.4-.4 0-.5a1 1 0 0 1-.8-.6c-.2-.4.3-.9.7-1 .3 0 .3 0 0-.4-.2-.3-.3-.4-.3-.7.1-.5.6-.8 1-.7.4.2.5 0 .2-.1-.2 0-.3-.2-.3-.5 0-.4.4-.9.8-1h.7l.4.2v-.5c-.1-.5.2-.8.7-.9.4 0 .6 0 .7.6 0 .5.2.4.2 0 0-.5.4-.9.8-1 .6 0 1 .5.8 1.2 0 .3 0 .3.3-.1.4-.5 1-.7 1.2-.4.2.2.2 1 0 1.2l-.3.5.4-.1c.4-.4.8-.5 1.2-.2.5.2.6.7.3 1.3l-.2.4.4-.2c1-.4 1.4.8.7 1.6-.3.3-.3.4-.2.4.6 0 .8.8.3 1.3l-.2.4c.2.2.1.7-.1 1zM19.3 75a49.7 49.7 0 0 1-9.2 5.4c-.2 0 0-3 .3-4 .3-1.5 1-3.5 2-5 1-1.6 1.6-2.5 2.5-3l1.3-.9c.8-.6 1.4-.7 1.5-.2 0 .3.7.9 1 1 .2 0 .5 0 .7.3.3.3.4.4.7.3h.3l.1.4.3.5v.7a20 20 0 0 0-.4 2 4.8 4.8 0 0 1-1.1 2.5zm19.3-24h-2a36.6 36.6 0 0 1-2 0l.4-1.3.5-1.9.2-.7.7-.2c.8-.3 3.4-.8 4-.8.4 0 .5 0 .4.2 0 .4-1 2.5-1.6 3.5zm-6.2 2.5c-.6.7-1 1-1.5 1-.2.1-.2.1-.3-.2 0-.4-.4-.7-.8-.7-.3 0-.4 0-.4-.3 0-.4-.7-1-1-1-.2 0-.4 0-.5-.2-.2-.3-.9-.5-1-.4-.3.2-.7-.4-.7-1l.2-1c.3-.6 2.2-3 3-3.7a51.2 51.2 0 0 1 6.8-5l-.2 1.4-.5 2.9a32 32 0 0 1-1.2 5.3c-.3.8-.5 1.2-1.3 2.1l-.6.8zM16.3 67c-.4.4-2.3 1.5-3.4 2A17.8 17.8 0 0 1 2 68.4v-.1c-.4-.3-.5-.2 1.1-1.5 1.3-1 2.2-1.6 4-2.7 2.5-1.6 4.7-2.2 6.6-1.6.8.2.9.2 1 .5 0 .2.2.4.3.5.2.2.2.4.2.8v.8c.2.3.7.6 1 .6.3 0 .3.9.1 1.2zm-5.4 6.2c-.3.3-4.3 1-4.5.8-.1-.1.1-1 .5-2l.7-1.3.4-.6h1c1.1 0 2.6-.2 3.5-.5l.6-.2v.1a18.1 18.1 0 0 0-2.2 3.7zm15-22.1h-.5l-.4.2-.5-.1c-.4-.3-1-.3-1.3 0h-.4c-.4-.4-.7-.3-1 .1-.3.4-.3.4-.7.3a1 1 0 0 0-.8 0l-.4.2v-.5c0-.6-.4-1.7-1-2.7-.4-.7-.5-1.2-.3-2 .3-1 1.6-3.5 3-5.6 1.7-2.3 2-2.8 2.2-2.6.2.1 1.4 2.2 1.8 3.2 1 2.3 1.5 4.2 1.4 5.4 0 .7-.1 1-.5 1.5-.5.8-.8 1.6-.7 2.2zm4.6-6.9l-1.7 1.6-1.4 1.4-.1-1.2c-.1-.6-.3-1.7-.6-2.4l-.4-1.3 1-1.2 2.5-2.4.5 1.5c.4 1.5.5 3.6.2 4zm-15.8 18H14a6 6 0 0 0-4 0c-1 .2-2.4-.3-4.5-1.8-2-1.5-3.4-2.4-4.6-3-.3-.3-.3-.3.8-.6l2.6-1c2-1 3.5-1.6 4.6-1.7a9 9 0 0 1 5.4 1l1.1.7c.4 0 .5.2.6.4 0 .2 0 .3-.2.3-.4.1-.8.8-.8 1.2l-.1.6c-.3.2-.2 1.4 0 1.6.2.1.2.2 0 .4-.3.2-.3.3-.3 1v1zM19.5 52l-.3.2c-.4 0-.9.6-.9 1 0 .2 0 .3-.3.3s-.9.6-1.8 1.6c-.3.4-.3.4-.8.1-1.5-.7-2.8-2-3.6-3.6a23.4 23.4 0 0 1-3-8.6v-.8l.3.1c2.8 1 5.2 2.3 6.9 3.6 2.1 1.8 3.6 4.2 3.5 5.7v.4zM8.8 62.4l-.2.1-3.2 2c-.7.5-.6.5-2.4-.8l-1.2-1 .5-.3 1.3-1c1.3-1.1 1.3-1.1 2.4-.3a7.2 7.2 0 0 0 2.8 1.3zm9.2-15l-.3-.4c-.4-.6-2.3-2.2-3.4-2.8l-1-.6v-.3c0-.5.6-2 1.4-3.4l.8-1.5c.1-.2.2-.2.4 0 1 1 3 3.6 3.4 4.6.2.5.2.6-.3 1.6l-1 2.7z"/>
  <g>
   <path class="flowerBackPetals" d="M19.6 18.6c-.8-.3-1.9-1.7-1.9-1.7s1.4-1.2 2.2-1.5c1.6-.8 5.3-1.3 5.3-1.3s-3.2-1.5-4.3-2.8c-.7-.7-1.2-2.7-1.2-2.7s1.5-.6 2.3-.5c.7 0 1.2.4 1.9.5l3.3.4s-1.7-3.2-1.6-4.9c0-.8.4-1.7.8-2.5l.8-1.1s1.1 1.2 1.6 2l1 1.7L31.6 7 34 3.3c.8-1 2.6-2.6 2.6-2.6s.5 1.6.6 2.5v1.7l-.3 3.7s2.1-1.9 3.4-2.4c1-.5 3.6-.6 3.6-.6L43 7.8l-.7 1.6c-.7 1.2-2.4 3.4-2.4 3.4s2.6-.4 3.8 0c1.1.4 3 2.2 3 2.2S45 16.5 44 17c-1.2.5-3.9.8-3.9.8s2.4 1.6 3.2 2.7c.7 1 1.3 3.1 1.3 3.1s-2.7.3-4 0c-1.4-.4-3.9-2-3.9-2s1.3 3.3 1.5 5c0 .8 0 1.6-.3 2.3-.2.5-1 1.5-1 1.5l-2.4-2.8-2-3.3s-.8 3.4-2 4.6c-.9.8-3.4 1.5-3.4 1.5l.2-3.5.7-5.2s-2.6 1.7-4 2.2c-1.1.3-3.4.6-3.4.6s.7-2 1.4-3c.9-1.2 3.5-3.1 3.5-3.1s-4 .9-6 .2z"/>
   <path class="flowerFrontPetals" d="M44.6 20c-2.7.5-4 .4-5.3-.5-.6-.3-.8-.4-.9-.2 0 .2 0 .3.8.8s.8.6 1.2 1.7l.4 3.4.2 2.7v.5l-1-.8a17.4 17.4 0 0 1-4.8-5.2c0-.3-.4-.6-.5-.5l.1 1.2c.3 1.5.2 2.7-.2 4.4-.3 1.3-1.8 5-2 5l-.4-.5c-1.2-3.1-1.7-5.8-1.3-8.4.1-.8.1-1.6 0-1.6-.2-.2-.4 0-.5 1a4.1 4.1 0 0 1-1.8 3 32 32 0 0 1-4.8 2.5c-.2-.2 0-2.4.4-3.5l1.2-2.5a5 5 0 0 1 2-2c1-.7 1-.7.8-1-.2 0-.4 0-.6.3l-1.5.9c-1.7.8-3.7.9-6.2.4-1.9-.4-1.9-.4-.7-1.4 2.6-2 4.9-3 6.5-2.8 1.2.2 1.3-.3 0-.5-.2-.1-1 0-1.6 0h-1.6c-.3 0-1.5-.8-2.6-1.6l-2-1.5 2-.8c1-.5 2.3-1 2.7-1 1-.3 2.6 0 3.8.5 1.3.7 1.4.3.2-.5-1-.7-1.7-1.5-2.4-3.2-.6-1.4-1.4-4.5-1.2-4.6.3 0 2.4 1 3.6 1.6 1.5 1 2.8 2.6 3 3.7.2.5.5.8.6.6.1-.2-.2-1-.6-2-.3-.6-.3-.9-.1-1.5.2-.7 2.8-5 3-5 .3 0 1 1.3 1.6 2.8.6 1.6.7 3 .3 3.6-.4.8-.6 1.6-.3 1.8.3.2.3.2.4-.4 0-.7.8-1.8 2.2-3 1-1 4-3.1 4-3 0 .3-.6 4.2-1 5.3 0 .7-.4 1.3-1 2.1l-.8 1.3c.2 0 .6-.2 1.2-1s.7-.8 1.8-1c1.6 0 6 .5 5.7.8-.2.3-3 2.7-4 3.3l-2 .9-1 .4 1 .3c.8 0 1 .2 3.3 1.7l2.9 2 .4.4z"/>
   <path class="flowerCenterOutside" d="M36.9 19.7l-.3.3c0 .3-.2.4-.3.4-.2 0-.3.1-.4.4-.1.3-.2.3-.5.2-.4 0-.4 0-.6.3-.1.3-.1.3-.4 0-.3-.2-.3-.2-.4.1-.2.3-.2.3-.5 0-.3-.2-.4-.2-.5.1-.3.4-.5.4-.6.1 0-.3-.2-.3-.4 0s-.5.3-.6 0c0-.3-.3-.4-.5-.2-.3.3-.7 0-.6-.4v-.3l-.4.1c-.3 0-.4 0-.4-.2l-.6-.3c-.3 0-.4-.1-.5-.3 0-.2-.2-.3-.5-.4-.3-.2-.4-.2-.3-.5 0-.2 0-.2-.3-.3-.4-.2-.7-.6-.5-.8 0-.1 0-.4-.2-.6l-.2-.5.1-.3v-.5-.6l.1-.6v-.7s.2-.3.1-.5c0-.2 0-.4.3-.5.2-.2.3-.4.3-.7l.2-.4.4-.4c.2-.4.3-.5.5-.5.3 0 .4-.2.5-.4.1-.3.2-.4.4-.4s.5-.1.6-.3c.1-.1.3-.2.5-.1.2 0 .3 0 .5-.2.3-.3.3-.3.6-.1.2.2.3.2.4 0h.6c.3.2.5.2.5.1l.4-.1c.3 0 .3 0 .3.3 0 .2 0 .2.4 0 .4 0 .7 0 .8.3 0 .2 0 .2.3.2.4 0 .4 0 .5.3 0 .3.1.4.2.4.3-.2.6.1.6.5s0 .4.2.3c.3-.3.5-.1.6.4l.4.7.3.5.1.5v.6c0 .2 0 .4.2.5.3.1.3.5.1.8v1.2c-.2.2-.2.4-.2.6 0 .1 0 .2-.2.3-.2 0-.3.2-.3.3 0 .2-.7 1.3-.8 1.3z"/>
   <path class="flowerCenterInside" d="M35.2 17.8h-.7v.3l.2.1c0 .2-.2.4-.4.4H34l-.2-.1v.1l-.2.5-.1.1c-.2 0-.4 0-.5-.2l-.2-.1v.1c-.1.3-.3.5-.5.6-.1 0-.2 0-.3-.2-.1-.2-.2-.3-.3-.2h-.3l-.2.1c-.1 0-.3 0-.4-.2v-.5c0-.2 0-.2-.3 0h-.7V18 18c.2-.2.1-.3-.2-.2h-.2c-.2.1-.5-.1-.5-.3l.2-.4c.2-.3.2-.3-.1-.4a.6.6 0 0 1-.4-.3V16c0-.2.2-.3.4-.3l.1-.1-.1-.3c-.2-.1-.2-.2-.2-.4 0-.3.3-.5.6-.4h.3l-.1-.2c-.2 0-.2-.2-.2-.4 0-.1 0-.2.2-.3.2-.2.4-.2.8-.1h.2v-.2c0-.3 0-.5.2-.6h.4c.1 0 .2 0 .2.3.1.2.1.3.2.2V13c.1-.3.3-.5.5-.6.2 0 .4 0 .5.2v.7s.2 0 .3-.2c.3-.3.5-.4.7-.3l.1.2-.1.6c-.1.2-.2.3-.1.4h.2c.3-.3.5-.4.7-.3.2 0 .4.2.4.4l-.1.5-.2.2v.1h.2l.5-.2c.2 0 .3.2.3.4l-.2.6-.2.3h.1c.2.1.3.2.3.4l-.1.5c-.2.1-.2.2-.1.3v.4l-.2.2z"/>
   <path class="outlineFillColor" d="M40.7 29.8v-.4l-.1-1.5a71.2 71.2 0 0 0 0-3.3l.3.1h2.5c.7 0 .8 0 .8-.2 0-.3-.6-2.3-1-3a24.2 24.2 0 0 1 4.2-1s-.2-.3-.6-.5a503.3 503.3 0 0 1-2.7-2.3l1.9-1.3.3-.3-1-.7c-.4-.4-1-1-1.3-1.1l-.5-.4.3-.2 1.7-1.5 1.4-1.2-.6-.2a54.8 54.8 0 0 1-3.6-.7H42l.5-.8c.5-.7 1-2 1-2.4v-.3l-1.1.1c-.7 0-1.5.2-1.8.3l-.6.2.3-1.8.3-2c0-.4 0-.4-.7 0-.4.1-1.2.6-2.8 1.7l-.3.3v-.7c0-.8-.1-1.5-.5-2.5-.2-.4-.2-.5-.3-.4-.4.1-1.2.9-1.8 1.6l-.6.6-.4-.7-1.1-1.9c-.1 0-.2 0-.9.8A23 23 0 0 0 29.4 5l-.2-.3a8 8 0 0 0-1.1-1.8c-.6-.7-1.4-1.5-1.5-1.4-.6.8-1.6 2.9-1.7 3.5l-.1.2a51.2 51.2 0 0 1-2.9-1 17 17 0 0 0 .6 3.8c.2.4.3.6.2.7l.3.5v.1c.1.1 0 .1 0 0-.2-.1-1-.3-1.6-.3h-1l.1.1-.5.1h-.2l-.5.5.6-.2c2.1-.4 3.1-.2 3.7.8a9 9 0 0 0 1 1.7l.3.2h-.4a5.6 5.6 0 0 0-3.4 0c-.4.1-.4.1-.7-.1a8 8 0 0 1-1.2-2.3H19l.2.7a6 6 0 0 0 1.3 1.9 40.6 40.6 0 0 1-4 1.8l.2.2 1.9 1.3.8.6h-.2l-1.7 1.5-.3.2 1 .8 1 .8a43.6 43.6 0 0 1-2.4 2.1c0 .1.1.2.5.2.2 0 .6 0 .8.2a10 10 0 0 0 3.2.7l-.1.2c-.4.4-1 2.2-.8 2.5l2-.1 1-.2-.2.5c-.4 1-.6 2.5-.5 3.9v.4h.2a18.7 18.7 0 0 0 4-2l-.1.5c-.2.6-.2 1.5-.1 2.4v.8l.4-.1a9.1 9.1 0 0 0 3-1.5l.1.5 1.7 3.8a30.4 30.4 0 0 0 2.1-4.6l.3-.7.6.6c.3.5.8 1 1.2 1.2l.6.6.3-.3a6.4 6.4 0 0 0 1-3.2 29.5 29.5 0 0 1 2.8 1.8zm-.2-.4a30.1 30.1 0 0 1-5.3-4.8c-.4-.4-.6-.7-.6-1l-.3-.7-.2-.4.3.1c.3 0 .6-.1.6-.4 0-.1 0-.1.1 0 .3.2.9 0 1-.5l.2-.2.5-.3a28.1 28.1 0 0 1 .7-1l.4.2 1 .6.4.2.2.5c.5 1.2.7 2.6.8 5.4a16.8 16.8 0 0 0 .2 2.3zm3.5-5h-3.5l-.1-.7a9 9 0 0 0-.6-2c-.2-.2 0-.3.2-.2.5.1 1.4.2 2.2.1h.7c.3.2 1.2 2.8 1.1 2.9zm2.8-4h-.2l-1.6.3c-2.6.7-3.7.8-5 .4-1.2-.3-2.4-1-2.2-1.3l.1-.3c0-.2 0-.3.2-.3s.3-.3.3-.6l.2-.4v-1c-.2-.1-.1-.2 0-.3l.2-.5V16l1.6.1a42.3 42.3 0 0 1 6.4 4.2zM36.8 31s-1.3-1-1.6-1.4c-.8-1-.8-1-.7-1.6a13.8 13.8 0 0 0 .3-3.6l.3.4c.4.5 2 2.2 2.5 2.5.3.3.3.3.2.8 0 .7-.3 1.4-.6 2.2l-.4.7zM32 33.8a15.4 15.4 0 0 1-1.7-10.3c.2-.6.3-1 .4-.9h.2l.2.1c.2.3.6.4.9.2.2-.2.2-.2.4 0 .2.1.6 0 .7-.2 0 0 .1-.1.2 0l.5.1c.2 0 .2 0 .4.4.2.5.4 2.4.3 3.4a18 18 0 0 1-.7 3.2c-.3.8-1.6 3.8-1.8 4zm14.2-17.6l-.3.2c-.3.3-1.3 1-1.7 1l-.3.2-.8-.5a9 9 0 0 0-2.5-1.3l.9-.5 1.3-.8.6-.4.3.2 1.4 1zm.2-5l-1.6 1.3c-1.8 1.6-2.4 2-3.3 2.5-1 .6-1.3.7-2.2.7l-.8-.1c.1-.4 0-.7-.1-.8l-.1-.3c0-.3-.2-.7-.5-.9l-.2-.4-.1-.5v-.3l1.4-1.6c.2-.4 3-.5 5-.2l2.5.5zM30 29.7l-.1.2a5 5 0 0 1-.7.4l-2.2 1a10.2 10.2 0 0 1 .2-3.1l.1-.6.5-.3a6.3 6.3 0 0 0 2-1.6v1c0 1 0 1.7.2 2.5v.5zm7.2-9.3l-.3.1c-.2 0-.2 0-.2.3 0 .2 0 .3-.3.4a1 1 0 0 1-.4 0v.3c0 .1 0 .2-.2.3H35l-.2.2c0 .4-.3.4-.5.1-.3-.2-.3-.2-.4 0 0 .3 0 .3-.2.4-.3 0-.4-.1-.5-.3l-.1-.1H33c0 .3-.3.6-.5.5-.2 0-.3 0-.3-.3l-.1-.3v.2l-.2.3c0 .1-.5.2-.6 0l-.1-.1-.1-.3c-.1-.1-.2 0-.2 0-.1.2-.2.2-.4.2-.3 0-.5-.3-.4-.6v-.2l-.2.1c-.4.1-.6 0-.7-.3 0-.2 0-.2-.3-.2-.4 0-.6-.1-.7-.5 0-.2 0-.2-.3-.2-.4 0-.6-.3-.5-.6.1-.2.1-.2-.2-.3a.8.8 0 0 1-.4-.2c-.2-.2-.2-.3-.2-.6v-.5c-.4-.2-.4-.7-.2-.9.1 0 .1-.1 0-.2v-1c.1 0 .1-.2 0-.4-.1-.5 0-.7.1-.8.2-.2.2-.2.1-.3-.2-.2.1-.9.4-.9.1 0 .2-.1.2-.4 0-.3.1-.6.3-.5.2 0 .2 0 .2-.2 0-.5.5-1 .8-.8.2 0 .2 0 .2-.2 0-.4.2-.6.6-.5h.3c0-.2.2-.5.4-.5l.3.1c.2.2.2.2.4-.2.1-.2.3-.3.4-.3.2 0 .4.1.4.3 0 .1 0 .1.2 0 .3-.4.6-.3.9 0 .1.2.2.2.2 0 .2-.3 1-.1 1 .2-.1.2 0 .2.2 0h.5c.2 0 .3 0 .3.3s.1.3.2.2c.1-.2.4-.1.6 0v.4c0 .2 0 .2.3.2l.4.1c.1.2.2.5.1.7v.1h.1c.1-.2.4-.2.6 0l.2.4c0 .3 0 .4.3.7.4.3.5.5.3.7l.1.2c.3.2.3.5.2.8-.2.2-.1.2.1.4.3.3.3.4 0 .8-.1.3-.1.4 0 .4l.1.4-.1.5c-.1.1-.2.2-.1.4 0 .2-.1.5-.4.5-.1 0-.2 0-.1.3 0 .2-.2.5-.5.7-.1.1-.2.2 0 .2v.3zm-1.3-2.2l.1-.5v-.4c.2-.1.3-.6.2-.7l-.1-.3v-.3l.1-.4c0-.3 0-.3-.3-.6-.3-.1-.3-.3-.3-.3l-.1-.4c-.1-.3-.4-.5-.8-.5h-.2c.2-.5-.2-1-.7-.9a1 1 0 0 0-.4.1l-.2-.1a.6.6 0 0 0-1-.2c0 .2-.2.2-.3.1-.4-.2-1 .1-1.1.6 0 .1-.1.2-.3.2H30a1 1 0 0 0-.5.7c0 .3-.1.3-.3.4-.2.1-.3.2-.3.5v.5l-.2.4c-.2.2-.2.3-.2.6s0 .4.3.5c.3.2.3.2.2.3v.5c0 .2 0 .3.4.4.3.2.4.2.3.3 0 0 0 .3.2.4.1.3.3.4.7.4h.3c0 .2 0 .3.2.4.2.2.3.2.6.2h.6c.3.3.6.3.9 0 .1-.3.2-.3.3-.2h.4c.2 0 .3 0 .4-.2 0-.3.1-.3.3-.4.3 0 .6-.3.6-.5 0-.1 0-.2.2-.2l.4-.4zm-.2 0c-.2.2-.3.2-.6.2-.3-.1-.3-.1-.1 0l.1.3c0 .4-.6.6-.8.3v.1l-.1.4c-.1.2-.2.2-.4.2-.1 0-.3 0-.4-.2 0-.2-.1-.2-.1 0 0 .3-.4.6-.5.6-.2 0-.3-.1-.4-.3-.1-.2-.1-.2-.5 0h-.5c-.3-.2-.3-.6-.2-.8h-.3c-.4.2-.6.2-.8-.2l.1-.4c.2-.3.2-.4-.1-.2-.3.2-.7 0-.8-.3l.2-.5c.2-.2.2-.2 0-.3a.7.7 0 0 1-.6-.4c0-.2.2-.6.5-.6.2 0 .2-.1 0-.3-.2-.2-.2-.3-.2-.5 0-.3.4-.5.7-.4.2 0 .3 0 0 0l-.1-.4c0-.3.2-.6.5-.7h.5l.2.1v-.3c0-.3.2-.5.5-.6.3 0 .4 0 .5.4 0 .3 0 .3.1 0 0-.3.3-.6.5-.6.4 0 .7.3.6.7 0 .3 0 .3.2 0s.6-.5.8-.3c.1.1 0 .6 0 .8-.2.1-.2.3-.2.3 0 .1 0 .1.2 0 .3-.3.5-.3.8-.2.4.2.4.5.2.9l-.2.3.3-.2c.6-.2 1 .5.5 1-.2.3-.2.4-.1.4.4 0 .5.5.2.8l-.1.3-.1.6zM29 26l-1 1c-1 .6-5 2.7-5.1 2.6-.1 0 0-2 .2-2.7.2-1 .7-2.2 1.3-3.3a5 5 0 0 1 1.7-1.9l.9-.6c.5-.4.9-.5 1-.2 0 .3.4.6.6.7.2 0 .3 0 .5.2.1.2.2.3.4.2h.2l.1.3.2.3v.4l-.3 1.3c-.1.7-.3 1.3-.7 1.7zM41.8 10l-1.3.1a24.2 24.2 0 0 1-1.4 0l.4-.8c0-.5.3-1 .3-1.3l.1-.5.5-.2 2.6-.5c.3 0 .3 0 .3.2 0 .3-.6 1.6-1 2.3zm-4 1.7c-.4.5-.7.7-1 .7l-.2-.1c0-.3-.3-.5-.6-.5-.2 0-.2 0-.2-.2s-.5-.7-.7-.7h-.3c-.2-.3-.6-.4-.7-.3-.2 0-.4-.3-.4-.7v-.6l2-2.5a33.8 33.8 0 0 1 4.5-3.3v1c-.2.4-.3 1.3-.4 1.8a21 21 0 0 1-.8 3.5c-.2.5-.3.8-.8 1.4l-.5.5zm-10.7 9c-.2.2-1.5 1-2.2 1.2a11.7 11.7 0 0 1-7.2-.4c-.3-.1-.4 0 .7-.9a22 22 0 0 1 2.6-1.8c1.7-1 3.2-1.4 4.4-1 .5 0 .6.1.6.3l.2.3c.2.1.2.3.2.5v.6c.1.2.4.4.6.4.2 0 .3.5.1.7zm-3.6 4c-.1.2-2.8.7-3 .6L21 24l.5-1 .2-.3h.7c.7 0 1.7-.1 2.3-.3l.4-.1a12 12 0 0 0-1.5 2.4zm10-14.6h-.3l-.4.2-.3-.1c-.2-.2-.7-.2-.8 0h-.3c-.2-.2-.4-.2-.7.1-.1.3-.2.3-.4.2h-.5l-.3.1v-.3c0-.4-.2-1.2-.6-1.8-.3-.5-.4-.8-.2-1.3.1-.7 1-2.3 2-3.7C31.7 2 32 1.6 32 1.7L33.3 4c.6 1.5 1 2.7.9 3.5 0 .5-.1.7-.3 1-.4.5-.6 1.1-.5 1.5zm3-4.5l-1.1 1-1 1v-.8L34 5.2l-.3-.8.7-.9C35 2.8 36 2 36 2l.4 1c.3 1 .3 2.4 0 2.6zM26 17.6l-.4-.1a4 4 0 0 0-2.6 0c-.7.1-1.6-.2-3-1.2-1.3-1-2.2-1.6-3-2-.2-.2-.2-.2.5-.4.4 0 1.1-.4 1.8-.7 1.3-.6 2.3-1 3-1.1a6 6 0 0 1 3.5.7l.8.4.4.3-.1.2c-.3.1-.6.6-.6.8v.4c-.2.2-.2.9 0 1v.3c-.2.2-.3.2-.2.7v.6zm3.2-6.8H29c-.3.1-.5.4-.6.7 0 .2 0 .2-.2.2s-.6.4-1.1 1.1c-.2.2-.2.2-.6 0-1-.4-1.8-1.3-2.4-2.3a15.5 15.5 0 0 1-2-5.7v-.5h.3c1.8.7 3.4 1.6 4.5 2.4 1.4 1.2 2.4 2.8 2.3 3.7v.4zm-7 6.8H22L20 19c-.5.3-.4.4-1.5-.5l-.8-.7.2-.2c.2 0 .5-.4.9-.6 1-.8.9-.8 1.6-.2a4.7 4.7 0 0 0 1.8.8zm6-10l-.1-.2a9.5 9.5 0 0 0-2.3-1.8l-.7-.4V5a292.8 292.8 0 0 0 1.5-3.2c0-.2 0-.2.3 0 .7.6 2 2.3 2.2 3 .1.3.1.4-.2 1-.3.6-.5 1.2-.6 1.9z"/>
  </g>
  <g>
   <path class="flowerBackPetals" d="M56.2 41.2c-1.2-.4-2.9-2.5-2.9-2.5s2-1.8 3.2-2.3c2.6-1.2 8.1-2 8.1-2s-4.8-2.2-6.5-4.2c-1-1-1.9-4-1.9-4s2.4-1 3.6-.9c1 0 1.9.6 2.8.8 1.6.4 5 .7 5 .7s-2.4-4.8-2.4-7.4c0-1.3.7-2.6 1.3-3.8l1.1-1.8s1.8 2 2.5 3l1.5 2.7c.8 1.4 2.7 4.1 2.7 4.1s2.3-3.7 3.7-5.4c1.2-1.5 4-4 4-4s.6 2.4.8 3.7l-.1 2.6-.3 5.7s3.1-3 5-3.7c1.7-.7 5.5-.9 5.5-.9L91.6 25l-1 2.4c-1 1.8-3.7 5.2-3.7 5.2s3.9-.6 5.7 0c1.8.6 4.5 3.4 4.5 3.4s-2.4 2.1-3.8 2.8c-1.9.8-6 1.3-6 1.3s3.7 2.3 5 4c1 1.4 1.8 4.7 1.8 4.7s-4.1.4-6 0c-2.2-.6-5.8-3-5.8-3s2 5 2.1 7.6c.1 1.2 0 2.3-.4 3.4-.3.8-1.4 2.2-1.4 2.2s-2.6-2.7-3.7-4.2-3-5-3-5-1.3 5.2-3.1 7C71.5 58 67.7 59 67.7 59l.3-5.3 1-7.8S65 48.3 63 49c-1.6.5-5 1-5 1s1-3.2 2-4.5c1.4-2 5.4-4.8 5.4-4.8s-6.2 1.4-9.1.4z"/>
   <path class="flowerFrontPetals" d="M94 43.3c-4.2.9-6 .7-8-.6-.9-.5-1.2-.6-1.3-.4-.2.3 0 .5 1 1.2 1.3.8 1.4 1 1.9 2.6.3 1 .6 3.3.6 5.1l.3 4.2.2.8L87 55a26.3 26.3 0 0 1-7.4-8c0-.4-.6-1-.7-.7 0 .1 0 1 .2 1.8.4 2.2.3 4-.3 6.6-.5 2-2.7 7.7-3 7.8l-.6-1c-2-4.6-2.6-8.7-2-12.7.2-1.2.2-2.3 0-2.4-.4-.3-.6.1-.8 1.7a6.3 6.3 0 0 1-2.8 4.4c-1.7 1.1-7 3.9-7.2 3.7-.3-.2.1-3.6.7-5.3.3-1 1.1-2.6 1.8-3.7a7.5 7.5 0 0 1 3-3c1.5-1 1.6-1.2 1.2-1.4-.3-.2-.6-.1-1 .3-.3.3-1.3.9-2.3 1.3a14.6 14.6 0 0 1-9.3.6c-2.8-.6-2.8-.6-1-2 4-3.2 7.4-4.7 9.8-4.3 1.8.3 1.9-.4 0-.8H63c-.9.2-2 .1-2.5 0s-2.2-1.2-4-2.4l-3-2.2 3-1.3c1.6-.7 3.5-1.4 4.1-1.5 1.5-.4 4 0 5.8.9 2 .9 2.2.4.3-.8-1.5-1-2.5-2.3-3.6-5a21 21 0 0 1-1.8-6.9 21 21 0 0 1 5.4 2.5c2.3 1.5 4.2 3.8 4.7 5.6.2.7.6 1.2.8.8.2-.2-.2-1.5-.9-3-.4-.9-.5-1.3-.2-2.2.3-1.1 4.3-7.6 4.7-7.7.3 0 1.4 2 2.3 4.4 1 2.4 1.1 4.4.5 5.4-.7 1.2-1 2.5-.5 2.8.4.2.5.2.5-.7.2-1 1.4-2.7 3.4-4.6 1.7-1.6 6-4.7 6-4.4.2.3-.8 6.2-1.3 8-.3 1-.8 1.9-1.7 3.1-.7 1-1.2 1.9-1 2 .2 0 .7-.4 1.7-1.7 1-1 1-1.1 2.7-1.2 2.5-.2 9 .6 8.7 1-.3.5-4.7 4.1-6 5-.9.5-2.3 1.2-3.2 1.4-.9.3-1.6.6-1.5.7 0 0 .7.3 1.4.3 1.4.2 1.6.3 5.1 2.6l4.4 3.1.6.7z"/>
   <path class="flowerCenterOutside" d="M82.3 43l-.3.4c-.2.4-.3.6-.6.6s-.5.2-.6.6c-.2.4-.3.5-.8.4-.5-.2-.6-.1-.8.4-.2.5-.2.5-.6 0-.5-.3-.5-.3-.7.1-.2.4-.3.4-.7.1-.5-.3-.6-.3-.8.1-.4.5-.8.6-.9.2 0-.5-.3-.5-.5 0-.3.4-.9.4-1 0 0-.5-.4-.7-.7-.4-.4.4-1.2 0-1-.6l.1-.4-.6.1c-.5.1-.6 0-.7-.2-.1-.3-.3-.4-.8-.5-.6-.1-.7-.2-.8-.5 0-.3-.4-.5-.7-.6-.6-.3-.6-.4-.6-.7.1-.3 0-.4-.4-.6-.6-.2-1-.8-.8-1.2.1-.1 0-.5-.2-.8-.2-.3-.4-.7-.3-.8l.2-.4v-.8c-.2-.3-.1-.7 0-.9v-1l.1-1 .2-.7c-.1-.4 0-.6.3-.8.3-.3.5-.6.6-1 0-.4.2-.7.3-.7l.5-.6c.2-.6.4-.7.8-.8.4 0 .6-.2.7-.6.2-.4.3-.5.7-.5.3 0 .6-.2.8-.4.2-.3.5-.4.8-.3.3.2.5 0 .8-.3.4-.5.5-.5.8-.1.4.3.5.3.7 0 .2-.2.4-.2.9 0 .4.3.7.3.8.2 0-.2.3-.2.6-.2.4 0 .4 0 .5.4 0 .4 0 .4.5.2.6-.3 1-.1 1.2.4 0 .2.1.3.5.2.5 0 .6 0 .7.5.1.4.2.6.4.5.4-.2.8.3.8.9 0 .6 0 .6.4.3s.7-.1.8.7l.6 1c.3.3.5.7.5.9 0 .2 0 .5.2.7.1.1.2.5.1.8 0 .4 0 .7.2.8.4.2.4.7.1 1.2a1 1 0 0 0 0 1v1c-.2.2-.3.5-.3.7 0 .2 0 .3-.3.5-.2.1-.4.3-.4.5 0 .3-1 2-1.3 2z"/>
   <path class="flowerCenterInside" d="M79.8 40.1h-1.1l.1.4.2.2c0 .3-.2.6-.6.6H78l-.3-.2v.2c0 .3-.2.6-.3.8l-.1.1c-.3 0-.6 0-.8-.3l-.2-.2-.2.2c0 .4-.4.8-.7.8-.1 0-.2 0-.4-.3s-.3-.3-.5-.3l-.4.2h-.4c-.1 0-.4 0-.5-.2-.2-.2-.2-.7 0-.9 0-.2-.1-.2-.5 0-.6.2-.8.2-1 0a1 1 0 0 1-.2-.7l.2-.2c.3-.4.1-.6-.3-.4l-.3.1c-.4 0-.8-.2-.8-.6 0-.1 0-.3.3-.6.3-.4.3-.4-.2-.5a.9.9 0 0 1-.6-.4c-.2-.3-.2-.4 0-.6.1-.2.3-.4.6-.5h.2c0-.2 0-.3-.2-.5l-.3-.6c.1-.4.5-.7 1-.6h.3c.1-.1 0-.2-.1-.3-.3-.1-.3-.4-.3-.6l.4-.5c.3-.3.6-.3 1.2-.2l.3.1v-.3c0-.5 0-.7.3-1h.6c.2 0 .2.1.3.5l.2.4c.1 0 .2 0 .2-.4s.3-.7.6-.8c.3-.1.6 0 .8.2v1.1l.4-.3c.5-.5.9-.7 1.2-.5v.3c.2.3.1.5-.1 1-.2.2-.3.4-.2.5l.3-.1c.5-.4.8-.5 1.1-.4.4.1.6.3.6.7 0 .2 0 .4-.2.7l-.2.4v.1l.3-.1.7-.2c.3 0 .4.2.5.6 0 .3 0 .5-.4 1l-.2.4h.2c.3 0 .4.3.4.6 0 .2 0 .5-.2.7-.2.2-.3.3-.2.5v.6l-.3.3z"/>
   <path class="outlineFillColor" d="M88.2 58.2v-.6c-.2-.4-.3-1.4-.3-2.3a107.8 107.8 0 0 0 0-4.9l.5.1H92c1.2 0 1.3 0 1.3-.3.1-.4-1-3.5-1.5-4.4a36.6 36.6 0 0 1 6.4-1.7l-.9-.8a762 762 0 0 1-4.2-3.4c.9-.4 2.5-1.5 2.9-1.9l.4-.5-1.3-1.1-2.1-1.7-.8-.5.5-.4 2.5-2.2 2.1-1.9-.9-.2a83 83 0 0 1-5.4-1l-1-.1.7-1.1c.7-1.2 1.5-3 1.6-3.8v-.4l-1.8.2c-1 0-2.2.3-2.6.4l-1 .3.5-2.7.4-3c.1-.6 0-.6-1-.2-.7.4-1.8 1-4.2 2.8l-.5.3v-1c0-1.1-.2-2.3-.7-3.7-.3-.7-.3-.8-.6-.7a11 11 0 0 0-2.6 2.4l-1 1-.5-1c-.4-.9-1.3-2.3-1.8-3 0 0-.3 0-1.2 1.3a34.9 34.9 0 0 0-2.8 4l-.3-.5c-.3-.7-1-1.8-1.7-2.7-.9-1-2.2-2.2-2.3-2-.9 1-2.4 4.3-2.5 5.2 0 .3 0 .4-.2.3a77.5 77.5 0 0 1-3.4-1.3c-.2-.2-.9-.4-1-.3a25.6 25.6 0 0 0 1 5.8l.2 1 .5.8.1.3c0 .1 0 .2-.1 0-.4-.2-1.6-.5-2.4-.5h-.8l-.3-.1-.5.1.3.2-.9.2h-.2l-.8.6 1-.2c3.1-.7 4.7-.4 5.5 1.2.4.9 1 1.8 1.6 2.5l.4.4-.7-.2a8.5 8.5 0 0 0-5.1.2c-.6.2-.6.2-1-.3a12 12 0 0 1-1.9-3.4l-.2.1.3 1a9.2 9.2 0 0 0 1.9 2.8 61.5 61.5 0 0 1-6.1 2.7c0 .1 0 .2.3.4 1.1.6 1.8 1.1 3 2l1.1.8-.2.2-2.7 2.1-.3.3 1.5 1.2 1.4 1.2a66 66 0 0 1-3.5 3.2c0 .2 0 .3.6.3.3 0 1 .1 1.3.3a15.3 15.3 0 0 0 4.8 1l-.1.4c-.6.6-1.5 3.4-1.3 3.7.1.2 1.6.2 3-.1l1.5-.3-.2.8c-.5 1.5-.9 3.8-.8 5.8v.6h.4a28.4 28.4 0 0 0 6-2.9s0 .4-.2.7c-.2 1-.3 2.4-.1 3.7l.1 1.1.6-.1a13.8 13.8 0 0 0 4.4-2.2l.3.7c.5 1.7 2.3 5.7 2.5 5.7a46 46 0 0 0 3.2-7l.4-1 .9 1 1.8 1.8 1 .8.3-.4a9.7 9.7 0 0 0 1.7-4.8 44.6 44.6 0 0 1 4 2.7zm-.4-.5a45.6 45.6 0 0 1-8-7.3c-.6-.6-.9-1-1-1.5l-.4-1.2-.3-.5.4.1c.5.2 1-.1 1-.6 0-.2 0-.2.2 0 .4.3 1.3-.1 1.4-.7l.3-.3c.2 0 .5-.3.7-.5a42.6 42.6 0 0 1 1-1.4c.2-.2.2-.2.8.2l1.4.9.7.4.3.7c.8 1.8 1.1 4 1.2 8a25.5 25.5 0 0 0 .3 3.6zm5.3-7.5h-4.9l-.4-.2-.2-1c-.2-1-.7-3-1-3.2-.2-.2 0-.3.4-.2.8.2 2.2.3 3.3.2h1.2c.3.3 1.8 4.2 1.6 4.4zm4.2-6.3H97l-2.4.6c-4 1-5.6 1.1-7.6.6-1.7-.5-3.6-1.7-3.3-2l.2-.5c0-.2 0-.4.2-.4.3-.1.6-.4.6-.9 0-.2 0-.5.2-.6.2-.2.2-1.3 0-1.6-.2-.2-.2-.3 0-.4.2-.2.3-.4.3-.8v-.5c.1-.1 1.8 0 2.4.1 1 .2 2.2.8 3.6 1.8a64 64 0 0 1 6.1 4.6zm-15 16.3c-.2 0-2-1.6-2.5-2.2-1.3-1.4-1.3-1.4-1-2.3a21 21 0 0 0 .3-5.4l.6.5c.6.8 3 3.3 3.7 3.9.5.4.5.4.4 1a11 11 0 0 1-1 3.4l-.6 1zm-7.5 4a23.3 23.3 0 0 1-2.5-15.6c.2-.9.4-1.3.5-1.2h.3c.2-.2.3-.1.4 0 .2.5.9.7 1.3.3.2-.1.3-.2.6 0 .3.3.9.2 1-.2.1-.2.2-.2.4 0l.6.2c.5 0 .5 0 .7.5.4.8.6 3.7.5 5.2-.2 1.4-.7 3.4-1.1 4.8a73 73 0 0 1-2.7 6zm21.4-26.6l-.3.3c-.5.5-2 1.4-2.7 1.7l-.4.2-1.2-.8a13.6 13.6 0 0 0-3.7-2s.1-.2 1.2-.7l2-1.2.9-.7.5.3 2 1.6zm.4-7.6L94 32c-2.7 2.3-3.6 3-5 3.8-1.5.8-1.9 1-3.2 1-1.3.1-1.3.1-1.3-.2.2-.5 0-1-.1-1.2a.5.5 0 0 1-.2-.5c0-.3-.4-1-.7-1.3-.2 0-.3-.3-.3-.6l-.2-.7c-.2-.3-.2-.4.1-.6.4-.2 2-2 2-2.3.4-.7 4.5-.8 7.6-.3l3.8.8zM71.8 58.3l-.2.2-1 .7a18 18 0 0 1-3.3 1.4 15.4 15.4 0 0 1 .2-4.7l.2-.8.8-.5a9.5 9.5 0 0 0 2.8-2.5v1.5c.1 1.6.2 2.7.5 3.8.1.5.2.7 0 .9zM82.7 44l-.5.2c-.3 0-.3.1-.3.5 0 .3-.1.3-.5.5l-.5.1c-.1 0-.2.1-.1.4 0 .2 0 .4-.2.5-.3.2-.5.2-1 0-.3-.1-.3-.1-.4.3 0 .5-.5.6-.9.2-.3-.4-.4-.4-.5 0 0 .4-.1.5-.4.5-.3 0-.6-.2-.6-.5l-.2-.2c-.2 0-.2 0-.2.2 0 .4-.4.8-.8.7-.2 0-.3-.2-.4-.5l-.1-.4-.1.3-.2.5c0 .1-.8.2-1 0v-.3l-.3-.4c-.1-.1-.2-.1-.3.1-.1.3-.2.3-.6.2-.5 0-.7-.4-.6-.8l.1-.4-.4.2c-.5.2-.9 0-1-.4 0-.3 0-.4-.5-.3-.6 0-1-.3-1-.8-.1-.3-.1-.4-.5-.4-.6 0-.9-.4-.7-.8.2-.4.1-.4-.3-.5-.2 0-.5-.1-.7-.3-.3-.3-.3-.4-.2-1 .1-.4 0-.5-.2-.7-.4-.3-.5-1-.1-1.3.2-.2.2-.2 0-.4-.3-.2-.3-1 0-1.4.2-.2.2-.4 0-.7-.2-.7-.2-1 .1-1.3.2-.1.3-.2.2-.3-.4-.3.1-1.3.6-1.4.2 0 .2-.1.2-.5 0-.6.3-1 .6-1 .1.1.2.1.1-.2 0-.6.8-1.4 1.4-1.2.2.1.2.1.2-.3 0-.5.4-.8 1-.8h.4c0-.2.4-.7.6-.7.1 0 .4 0 .5.2.3.2.3.2.6-.3l.5-.5c.3 0 .7.2.7.5 0 .2 0 .1.3-.1.4-.5 1-.4 1.3 0 .2.3.3.3.4 0 .2-.4 1.5-.1 1.4.4-.1.3 0 .3.4 0l.7-.1c.4 0 .4.1.5.5.1.5.1.5.3.3.2-.2.6-.1.8.1l.2.6c0 .3 0 .3.3.3l.6.1c.2.2.4.8.3 1-.1 0-.1.2 0 .2l.1-.1c.1-.3.6-.3.9 0l.2.7c0 .5.1.6.5 1 .6.5.7.9.5 1.1-.1.2 0 .3.1.4.4.2.5.7.2 1.1-.1.3-.1.4.3.7.5.4.5.5 0 1.2-.2.3-.2.5-.1.6l.2.6-.1.8c-.2.1-.3.3-.2.5.1.4-.1.8-.6.8-.2 0-.2 0-.2.4.1.4-.2.9-.7 1.2-.2 0-.2.1-.1.2v.4zm-2-3.3l.2-.7v-.6c.3-.3.4-1 .3-1.2l-.3-.3c-.1-.1-.1-.2 0-.4.2-.2.3-.5.3-.8 0-.4 0-.4-.5-.8-.4-.2-.5-.4-.5-.5l-.1-.6c-.2-.5-.7-.7-1.2-.7-.3 0-.4 0-.4-.2.3-.7-.2-1.3-1-1.2l-.6.2s-.2 0-.3-.3a1 1 0 0 0-1.4-.1c-.2.1-.4.2-.6 0-.5-.3-1.6.2-1.7 1 0 .2-.1.2-.4.2h-.6c-.4.3-.7.7-.8 1.2 0 .3-.2.4-.4.6-.3.1-.4.2-.5.7v.7c0 .3 0 .4-.2.6-.3.3-.4.4-.4.9s.2.6.5.8c.4.3.4.3.3.5v.7c0 .3.1.4.6.6.5.3.5.3.5.5 0 .1 0 .4.2.6.3.4.5.5 1.2.5.2 0 .3 0 .3.2l.4.5c.2.3.4.3.9.3.4-.1.6 0 .9.1.4.4 1 .3 1.3-.2.3-.3.3-.3.5-.2h.6c.4 0 .4 0 .6-.4.1-.3.2-.4.5-.4.4-.1.9-.6.9-1l.2-.2.7-.5zm-.4 0c-.2.3-.3.4-.8.3h-.3l.3.5c0 .5-1 .9-1.2.5v.1l-.2.6c-.2.3-.3.3-.6.3a.8.8 0 0 1-.6-.3c-.1-.3-.1-.3-.2 0 0 .4-.5.8-.8.8-.2 0-.3 0-.5-.3-.2-.4-.2-.4-.7-.2-.4.2-.6.2-.9 0-.3-.2-.4-.8-.2-1.1l-.5.1c-.6.3-1 .2-1.1-.4-.1-.3 0-.4.1-.6.3-.4.2-.5-.2-.3-.4.3-1 0-1.2-.4 0-.2 0-.4.3-.7.3-.5.3-.5 0-.5a1 1 0 0 1-.9-.7c-.1-.3.3-.8.7-1 .4 0 .4 0 0-.3-.2-.3-.3-.5-.2-.7 0-.5.5-.8 1-.7.3.1.4 0 .1-.1-.1 0-.3-.3-.3-.5 0-.4.4-1 .8-1h.7l.4.1V34c0-.5.2-.8.7-.9.5 0 .6 0 .7.6.1.4.2.4.2 0 0-.5.4-1 .9-1s.9.5.7 1.1c0 .4 0 .4.3 0 .4-.5 1-.7 1.2-.4.3.2.2.9 0 1.2l-.3.5c0 .1.1.1.4-.1.5-.4.8-.5 1.3-.3.5.3.6.8.3 1.3l-.3.5.4-.2c1-.4 1.5.7.7 1.6l-.2.4c.6 0 .8.8.3 1.3l-.1.4c.1.2 0 .7-.2 1zm-9.8 11.6L69 53.7c-1.5 1-7.5 4.3-7.7 4.1-.2 0 0-3 .3-4 .3-1.5 1.1-3.5 2-5 1-1.6 1.7-2.5 2.5-3l1.4-.9c.8-.6 1.3-.7 1.4-.2 0 .3.7.9 1 .9.3 0 .5.2.7.4.3.3.5.4.7.3h.4v.4l.3.4v.8a20 20 0 0 0-.4 1.9 4.8 4.8 0 0 1-1 2.6zm19.3-24.1l-2 .1a36.6 36.6 0 0 1-2 0l.4-1.3.6-1.9.2-.8.6-.2 4-.8c.4 0 .5 0 .5.2-.1.5-1 2.6-1.6 3.6zm-6.2 2.6c-.6.6-1 1-1.4 1-.3.1-.3 0-.4-.2 0-.4-.4-.7-.8-.7-.3 0-.3 0-.3-.3 0-.4-.8-1-1.2-1 0 0-.3 0-.4-.2-.2-.3-.8-.5-1-.4-.3.1-.7-.4-.7-1l.2-1c.3-.6 2.3-3 3-3.7a51.2 51.2 0 0 1 6.8-5l-.2 1.4-.4 2.9a32 32 0 0 1-1.3 5.3c-.2.7-.5 1.1-1.2 2.1l-.7.8zm-16 13.4c-.5.5-2.3 1.6-3.5 2a17.8 17.8 0 0 1-10.9-.5c-.4-.3-.5-.2 1.2-1.5 1.3-1 2.1-1.7 3.9-2.8C60.8 40 63 39.4 65 40c.7.3.8.3.9.6 0 .2.2.4.3.5.2.2.2.4.2.8v.8c.3.3.7.6 1 .6.3 0 .4.9.1 1.1zM62 50.6c-.2.2-4.2 1-4.5.8l.5-2 .7-1.3.4-.7h1c1.1.1 2.6-.1 3.5-.4l.6-.2v.1a18.1 18.1 0 0 0-2.2 3.7zm15-22.1h-.4l-.5.1h-.5c-.4-.3-1-.3-1.2 0l-.4-.1c-.4-.3-.7-.2-1 .2-.3.4-.4.4-.7.3a1 1 0 0 0-.8 0l-.5.2v-.5c.1-.6-.3-1.8-1-2.7-.4-.7-.5-1.2-.2-2 .2-1 1.5-3.5 3-5.6 1.6-2.3 2-2.8 2.1-2.7.3.2 1.4 2.3 1.8 3.3 1 2.3 1.5 4.1 1.4 5.4 0 .7 0 1-.5 1.5-.5.7-.7 1.6-.7 2.2zm4.6-6.9l-1.6 1.6-1.5 1.4-.1-1.2c0-.6-.3-1.7-.5-2.4l-.4-1.3 1-1.2c.9-1.1 2.2-2.4 2.4-2.4l.5 1.5c.5 1.5.6 3.6.2 4zm-15.8 18h-.6a6 6 0 0 0-4-.1c-1 .3-2.4-.2-4.5-1.8-2-1.4-3.3-2.4-4.6-3-.3-.2-.2-.2.8-.5l2.6-1c2-1 3.5-1.6 4.7-1.8a9 9 0 0 1 5.3 1.2l1.2.6c.3 0 .4.1.5.4l-.1.3c-.4.1-1 .8-.9 1.2l-.1.5c-.2.3-.2 1.4 0 1.7.3.1.2.2 0 .4-.3.2-.3.3-.2 1v1zm4.8-10.2l-.3.2c-.4 0-.8.5-.9 1 0 .2 0 .3-.3.3s-.9.6-1.7 1.6c-.3.3-.4.3-.9.1-1.4-.7-2.7-2-3.6-3.6a23.4 23.4 0 0 1-3-8.6v-.8l.3.1c2.8 1 5.3 2.3 6.9 3.6 2.1 1.8 3.6 4.2 3.6 5.6l-.1.5zM60 39.8h-.2l-3.2 2c-.7.6-.6.6-2.3-.7L53 40l.4-.3 1.3-1c1.4-1.1 1.3-1.1 2.4-.3a7.2 7.2 0 0 0 2.8 1.3zm9.3-15l-.3-.4c-.4-.7-2.4-2.2-3.5-2.8l-1-.6v-.3c0-.5.6-2 1.4-3.4l.8-1.5c.1-.2.2-.2.5 0 1 1 3 3.6 3.4 4.6.1.5.1.6-.4 1.6l-1 2.7z"/>
  </g>
 </g>
</svg>
