<?xml-stylesheet type="text/css" href="../css/app.css"?>

<svg version="1.1" viewBox="0 0 153.16006 254.00687" xmlns="http://www.w3.org/2000/svg">
 <g transform="translate(-.0819 -43.3)">
  <path class="postStem" d="m61.7 60.2c0-4.78 1.02-9.48 2.38-11l0.776-0.853 8e-3 1.29c0.01 1.59-0.676 6.36-1.22 8.5-0.493 1.93-1.4 4.1-1.71 4.1-0.128 0-0.232-0.926-0.232-2.06zm4.13-4.18 1.55-7.76 1.25-0.269c1.41-0.303 1.96-0.182 2.12 0.467 0.213 0.851-0.311 5.5-1.11 9.84-0.441 2.4-0.803 4.69-0.803 5.08-1.7e-4 0.715-5e-3 0.717-2.18 0.794-1.2 0.0423-2.23-0.0265-2.28-0.153-0.0542-0.126 0.601-3.72 1.46-7.99zm5.55 8.18-1.03-0.17 0.178-2.94c0.168-2.77 0.775-7.35 1.12-8.47 0.129-0.416 0.195-0.437 0.373-0.12 0.903 1.61 3.16 9.79 3.16 11.4 0 0.332-0.294 0.421-1.39 0.419-0.764-0.0016-1.85-0.0793-2.42-0.173zm12.1 1.12c-1.46-0.224-3.39-0.408-4.29-0.409-1.58-0.0016-1.66-0.0306-1.81-0.729-0.406-1.84-1.06-3.91-2.27-7.18-1.48-3.99-2.01-5.87-2.26-7.95l-0.17-1.43 2.72 0.178c2.34 0.153 8.96 1 10.8 1.38 0.529 0.11 0.595 0.284 0.595 1.55 0 0.921 0.385 2.68 1.08 4.96 1.23 4 1.55 6.79 1.03 8.96l-0.331 1.38-1.22-0.153c-0.672-0.0842-2.41-0.336-3.87-0.56zm8.04 1.02c-0.0895-0.0501-0.226-1.25-0.302-2.68-0.0904-1.68-0.473-3.92-1.09-6.38-0.568-2.28-0.977-4.61-1.02-5.82l-0.0724-2.02 1.32 0.0845c0.728 0.0465 1.76 0.197 2.29 0.335 0.895 0.231 0.993 0.354 1.25 1.57 0.156 0.726 0.465 4.03 0.688 7.34s0.473 6.4 0.558 6.86c0.144 0.794 0.103 0.847-0.733 0.949-0.84 0.102-2.55-0.034-2.9-0.231zm-3.14 159c0-2.55-2.03-11-5.16-21.5-4.05-13.6-5.42-21-5.42-29.2 0-2.74 0.0551-3.15 0.405-3.02 1.07 0.412 3.77 0.97 7.14 1.47 2.04 0.305 4.3 0.709 5.03 0.897l1.32 0.341 0.242 4.22c0.161 2.81 0.137 7.1-0.0715 12.8-0.395 10.8-0.924 17-2.84 33.1-0.185 1.56-0.637 2.11-0.637 0.784zm-22.8 20.3c0-0.157 0.302-2.51 0.67-5.23 0.369-2.72 1.38-11.4 2.25-19.2 1.57-14.1 2.86-24.8 3.04-25 0.0502-0.0511 0.226 0.425 0.392 1.06 0.165 0.633 0.891 3.25 1.61 5.82 2.27 8.08 3.01 13.3 2.59 18.4-0.251 2.98-1.32 6.22-4.26 12.9-2.37 5.4-2.77 6.21-4.53 9.19-1.28 2.16-1.76 2.72-1.76 2.03zm-4.94 17.9c0.225-10 0.758-17.2 2.71-36.3 1.17-11.4 1.66-14.8 3.29-22.1 1.16-5.24 1.63-7.86 2.62-14.6 0.183-1.24 0.229 0.548 0.166 6.48-0.0949 8.97-0.249 10.7-2.13 24.6-0.651 4.8-1.6 12.4-2.11 16.9-1.21 10.7-1.85 15.9-2.65 21.6-0.732 5.2-1.74 10.8-1.93 10.8-0.0702 0-0.0522-3.36 0.04-7.47zm-3.1 25.7c-0.646-0.595-1.42-1.67-1.76-2.45-0.819-1.89-0.98-5.71-0.398-9.45 0.526-3.39 1.32-9.31 1.71-12.7 0.158-1.38 0.466-3.82 0.684-5.42 2.97-21.8 3.68-29.6 4.09-44.6 0.423-15.5 0.855-21.8 2.27-33 1.01-8.02 1.57-9.71 3.14-9.56 0.807 0.0787 0.822 0.106 0.902 1.67 0.045 0.873-0.068 2.6-0.251 3.84-0.193 1.3-0.345 5.14-0.363 9.13-0.033 7.46-0.202 8.78-2.27 17.7-2.09 9.06-2.5 12.1-3.42 25.5-0.296 4.34-0.769 10.9-1.05 14.5-0.281 3.64-0.636 8.7-0.789 11.2-0.153 2.55-0.345 5.58-0.428 6.75-0.0826 1.16-0.217 7.92-0.299 15-0.0837 7.25-0.252 12.9-0.384 12.9-0.13 0-0.755-0.479-1.39-1.06zm3.91-4.19c0.128-5.22 0.443-8.48 1.62-16.8 1.03-7.31 1.23-9.07 1.42-12.9l0.184-3.64 1.14-1.16c0.932-0.949 1.23-1.52 1.65-3.11 0.282-1.07 1.28-3.56 2.21-5.52s2.49-5.42 3.45-7.67c4.39-10.3 4.49-10.7 4.28-16.5-0.216-5.84-1.57-12.6-3.66-18.3-3.42-9.26-3.41-9.12-2.7-24.5l0.178-3.9h1.36c0.75 0 1.57 0.149 1.81 0.331 0.535 0.393 1.47 4.6 2.29 10.3 1.28 8.86 1.96 11.9 4.86 21.6 4.5 15 5.71 20.7 5.72 27.1 7e-3 4.16-0.489 6.22-3.04 12.6-1.22 3.06-2.65 7.16-3.18 9.13-3.37 12.5-3.96 13.9-8.71 20.5-3.74 5.2-4.49 6.56-6.14 11.1-0.628 1.73-1.44 3.65-1.8 4.26-0.765 1.31-2.44 2.87-2.83 2.63-0.167-0.103-0.216-2.06-0.135-5.36zm7.67 8.82c-2.17-0.22-4.38-0.468-4.92-0.551l-0.984-0.152 0.883-1.76c0.486-0.97 1.45-3.25 2.14-5.07 1.99-5.26 3.1-7.34 6.11-11.4 5.03-6.8 6.14-9.19 9.12-19.7 2.24-7.87 3.4-11.2 4.89-14.2 1.1-2.15 1.16-2.22 1.17-1.32 0.0151 1.08-1.04 14.3-1.83 23-0.286 3.13-0.705 7.89-0.932 10.6-0.815 9.69-1.45 13.8-2.82 18.2l-0.844 2.71h-4.02c-2.21 0-5.79-0.18-7.96-0.399z"/>
  <path d="m80.7 297c2.03-0.619 2.81-1.39 3.53-3.51 0.602-1.77 2.08-15 3.48-31.2 0.373-4.29 1.21-13 1.86-19.4 3.05-30 3.68-37.4 4.09-47.9 0.552-14.2 0.738-18.2 0.87-18.3 0.139-0.139 9.2 0.527 13.3 0.977 1.31 0.144 4.3 0.631 6.65 1.08 4.85 0.931 5.82 0.884 7.05-0.341 0.784-0.784 0.791-0.786 1.35-0.275 0.866 0.792 2.52 1.54 4.27 1.92 2.09 0.458 8.55 0.463 10.6 9e-3 2.78-0.625 3.35-1.66 4.39-7.97 0.3-1.82 1.07-5.51 1.71-8.2 5.13-21.6 9.39-55.5 9.39-74.9l2e-3 -6.79-1.56-1.48c-0.856-0.816-1.84-2.02-2.18-2.67-0.514-0.973-0.817-1.24-1.68-1.46-0.582-0.152-2.19-0.634-3.57-1.07-6.35-2.01-9.53-2.3-12.3-1.13-0.873 0.369-1.71 0.715-1.85 0.769s-0.919-0.907-1.72-2.14c-2.62-4.03-2.03-3.68-6.26-3.72-4.32-0.0486-8.35-0.502-17.5-1.98-5.44-0.872-6.85-1.18-7.21-1.59-0.771-0.878-1.28-4.04-1.55-9.59-0.25-5.24-0.474-7.12-1.09-9.18l-0.304-1.01-3.35-0.0019c-3.7-0.0021-6.57-0.374-13.5-1.75-6.15-1.22-7.87-1.22-11.3 0.0175-3.11 1.12-6.3 2.15-7.28 2.36-0.39 0.0825-0.771 0.358-0.846 0.612-0.0751 0.254-0.506 2.72-0.958 5.49-0.452 2.76-1.12 6.31-1.49 7.87l-0.671 2.85-4.8-0.0773c-4.54-0.073-4.88-0.115-6.18-0.753-1.86-0.915-2.7-0.758-4.12 0.764-0.615 0.66-1.33 1.42-1.58 1.69-0.647 0.683-1.03 0.613-1.86-0.339l-0.726-0.827-3.24 0.211c-5.71 0.372-15.5-0.015-20.5-0.813-3.45-0.548-3.94-0.504-6.12 0.537-1.06 0.509-2.1 0.926-2.31 0.926-0.766 0-0.805 0.31-1.42 11.4-0.452 8.09-0.782 17.7-1.19 34.7-0.22 9.1-0.523 19.8-0.674 23.7-0.258 6.76-0.289 9.39-0.264 21.9l0.0103 4.97 0.992 0.416c1.72 0.723 5.55 1.38 12.1 2.07 6.81 0.725 8.05 0.935 14.1 2.37 3.28 0.779 4.79 0.988 8.73 1.2 2.62 0.143 5.54 0.435 6.48 0.649 2.35 0.531 3.42 0.501 4.45-0.129 0.858-0.523 0.892-0.524 1.59-0.0429 1.03 0.712 2.56 1.26 5.66 2.04 1.5 0.375 3.13 0.809 3.62 0.965l0.89 0.283-0.175 3.34c-0.264 5.04-0.654 10.8-1.09 15.9-1.06 12.7-1.48 19.5-1.71 28.1-0.283 10.3-0.538 13.3-2.1 24.8-0.568 4.16-1.22 9.71-1.45 12.3-0.927 10.6-1.24 13.7-1.76 17.1-0.684 4.54-0.941 10.7-0.529 12.7 0.481 2.31 1.66 4.5 3.5 6.46 3.36 3.61 4.91 4.16 12.9 4.63 2.69 0.158 5.43 0.397 6.09 0.53 1.43 0.29 7.53 0.303 8.47 0.0177zm-13.4-3.06c-2.17-0.22-4.38-0.468-4.92-0.551l-0.984-0.152 0.883-1.76c0.486-0.97 1.45-3.25 2.14-5.07 1.99-5.26 3.1-7.34 6.11-11.4 5.03-6.8 6.14-9.19 9.12-19.7 2.24-7.87 3.4-11.2 4.89-14.2 1.1-2.15 1.16-2.22 1.17-1.32 0.0151 1.08-1.04 14.3-1.83 23-0.286 3.13-0.705 7.89-0.932 10.6-0.815 9.69-1.45 13.8-2.82 18.2l-0.844 2.71h-4.02c-2.21 0-5.79-0.18-7.96-0.399zm-7.67-8.82c0.128-5.22 0.443-8.48 1.62-16.8 1.03-7.31 1.23-9.07 1.42-12.9l0.184-3.64 1.14-1.16c0.932-0.949 1.23-1.52 1.65-3.11 0.282-1.07 1.28-3.56 2.21-5.52s2.49-5.42 3.45-7.67c4.39-10.3 4.49-10.7 4.28-16.5-0.216-5.84-1.57-12.6-3.66-18.3-3.42-9.26-3.41-9.12-2.7-24.5l0.178-3.9h1.36c0.75 0 1.57 0.149 1.81 0.331 0.535 0.393 1.47 4.6 2.29 10.3 1.28 8.86 1.96 11.9 4.86 21.6 4.5 15 5.71 20.7 5.72 27.1 7e-3 4.16-0.489 6.22-3.04 12.6-1.22 3.06-2.65 7.16-3.18 9.13-3.37 12.5-3.96 13.9-8.71 20.5-3.74 5.2-4.49 6.56-6.14 11.1-0.628 1.73-1.44 3.65-1.8 4.26-0.765 1.31-2.44 2.87-2.83 2.63-0.167-0.103-0.216-2.06-0.135-5.36zm-3.91 4.19c-0.646-0.595-1.42-1.67-1.76-2.45-0.819-1.89-0.98-5.71-0.398-9.45 0.526-3.39 1.32-9.31 1.71-12.7 0.158-1.38 0.466-3.82 0.684-5.42 2.97-21.8 3.68-29.6 4.09-44.6 0.423-15.5 0.855-21.8 2.27-33 1.01-8.02 1.57-9.71 3.14-9.56 0.807 0.0787 0.822 0.106 0.902 1.67 0.045 0.873-0.068 2.6-0.251 3.84-0.193 1.3-0.345 5.14-0.363 9.13-0.033 7.46-0.202 8.78-2.27 17.7-2.09 9.06-2.5 12.1-3.42 25.5-0.296 4.34-0.769 10.9-1.05 14.5-0.281 3.64-0.636 8.7-0.789 11.2-0.153 2.55-0.345 5.58-0.428 6.75-0.0826 1.16-0.217 7.92-0.299 15-0.0837 7.25-0.252 12.9-0.384 12.9-0.13 0-0.755-0.479-1.39-1.06zm3.1-25.7c0.225-10 0.758-17.2 2.71-36.3 1.17-11.4 1.66-14.8 3.29-22.1 1.16-5.24 1.63-7.86 2.62-14.6 0.183-1.24 0.229 0.548 0.166 6.48-0.0949 8.97-0.249 10.7-2.13 24.6-0.651 4.8-1.6 12.4-2.11 16.9-1.21 10.7-1.85 15.9-2.65 21.6-0.732 5.2-1.74 10.8-1.93 10.8-0.0702 0-0.0522-3.36 0.04-7.47zm4.94-17.9c0-0.157 0.302-2.51 0.67-5.23 0.369-2.72 1.38-11.4 2.25-19.2 1.57-14.1 2.86-24.8 3.04-25 0.0502-0.0511 0.226 0.425 0.392 1.06 0.165 0.633 0.891 3.25 1.61 5.82 2.27 8.08 3.01 13.3 2.59 18.4-0.251 2.98-1.32 6.22-4.26 12.9-2.37 5.4-2.77 6.21-4.53 9.19-1.28 2.16-1.76 2.72-1.76 2.03zm22.8-20.3c0-2.55-2.03-11-5.16-21.5-4.05-13.6-5.42-21-5.42-29.2 0-2.74 0.0551-3.15 0.405-3.02 1.07 0.412 3.77 0.97 7.14 1.47 2.04 0.305 4.3 0.709 5.03 0.897l1.32 0.341 0.242 4.22c0.161 2.81 0.137 7.1-0.0715 12.8-0.395 10.8-0.924 17-2.84 33.1-0.185 1.56-0.637 2.11-0.637 0.784zm39.4-49.7c-0.375-0.283-0.97-0.908-1.32-1.39-0.805-1.1-2.08-1.92-2.98-1.92-0.461 0-1.18 0.443-2.15 1.32-1.68 1.52-2.1 1.59-5.77 0.941-1.19-0.21-4.55-0.639-7.46-0.954s-8.92-1.1-13.4-1.74c-19-2.74-22.8-3.21-28.8-3.55-8.69-0.486-10.1-0.861-12.5-3.32-1.94-1.97-2.19-2.02-4.84-1.01-1.7 0.647-2.02 0.681-5.12 0.552-1.82-0.0758-4.56-0.393-6.09-0.704s-6.83-1.21-11.8-1.99c-9.42-1.49-13.1-2.18-16.7-3.1-3.51-0.91-3.14 0.542-2.96-11.7 0.0858-5.84 0.277-12.3 0.424-14.3 0.587-8.1 0.838-13.8 1.21-27.6 0.547-20.2 0.815-24.1 2.1-31.1 0.215-1.16 0.395-3.2 0.4-4.53l9e-3 -2.42 0.728-0.156c2.07-0.444 6.81-0.462 13.1-0.0488 6.21 0.406 7.52 0.404 9.74-0.018 0.569-0.108 0.923 0.093 1.89 1.07 1.81 1.84 2.64 1.74 7.18-0.849 2.58-1.47 2.68-1.5 5.03-1.6 2.12-0.0928 2.84 0.01 6.18 0.885 4.04 1.06 4.13 1.06 5.62-0.146 0.662-0.535 0.792-0.54 7.54-0.264 12.2 0.498 18.6 1.18 23.9 2.59 3.23 0.841 4.07 0.952 8.73 1.14 3.84 0.158 6.69 0.458 11.1 1.17 4.1 0.659 7.23 1 10.1 1.1 2.64 0.0944 4.29 0.268 4.64 0.486 0.298 0.187 1.41 1.59 2.46 3.12 2.24 3.24 2.82 3.85 3.35 3.49 0.202-0.139 0.82-0.576 1.37-0.97 2.89-2.06 8.08-1.9 13.5 0.426 2.79 1.19 3.43 1.71 3.72 3.07 1.28 5.93 0.811 18.8-1.3 35.9-1.51 12.3-2.83 19.8-8.08 46.4-1.23 6.22-2.24 11.4-2.24 11.4 0 0.0699-0.744 0.132-1.65 0.139-0.91 6e-3 -2.37 0.179-3.24 0.383-2.21 0.517-4.84 0.398-5.71-0.258zm-44.2-11.6c0.563-0.679 0.688-3.19 0.195-3.94-0.558-0.852-1.82-1.33-2.95-1.12-1.99 0.373-2.68 2.82-1.25 4.42 0.628 0.702 0.984 0.858 2.19 0.958 1.13 0.0935 1.52 0.0232 1.81-0.321zm-2.45-1.63c-0.299-0.299 0.348-1.16 0.874-1.16 0.376 0 0.466 0.123 0.341 0.463-0.259 0.702-0.861 1.05-1.21 0.693zm-57.2-16.4c-0.271-1.08-0.636-1.39-1.63-1.39-0.77 0-0.894 0.089-0.894 0.643 0 0.909 0.677 1.47 1.77 1.47 0.888 0 0.927-0.0369 0.754-0.726zm2.97-2.62c0.182-0.0734 0.331-0.418 0.331-0.767 0-0.873-1-1.49-2.07-1.28-0.704 0.141-0.837 0.287-0.837 0.919 0 1.06 1.32 1.63 2.58 1.12zm114-49.9c1.11-0.649 0.0328-2.2-1.53-2.2-1.12 0-1.56 0.398-1.35 1.23 0.255 1.02 1.87 1.56 2.88 0.97zm2.13-3.9c0.565-0.109 0.562-0.296-0.0161-1.01-0.615-0.76-1.45-1.16-2.42-1.16-0.911 0-0.983 0.223-0.422 1.31 0.305 0.59 0.607 0.773 1.4 0.848 0.556 0.053 1.21 0.0571 1.46 0.0092zm-56.4-11.3c1.07-2.81 0.836-4.79-0.628-5.4-1.87-0.774-3.99-0.112-5.15 1.61-0.697 1.03-0.759 2.1-0.187 3.21 0.532 1.03 1.3 1.3 3.72 1.3 1.9 0 1.98-0.0257 2.25-0.718zm-3.95-1.37c-0.462-0.293-0.296-1.63 0.245-1.96 0.628-0.393 1.76-0.0064 2.27 0.776 0.43 0.656 0.427 0.707-0.0472 1.05-0.554 0.405-1.92 0.479-2.47 0.134zm8.92-11c-0.0895-0.0501-0.226-1.25-0.302-2.68-0.0904-1.68-0.473-3.92-1.09-6.38-0.568-2.28-0.977-4.61-1.02-5.82l-0.0724-2.02 1.32 0.0845c0.728 0.0465 1.76 0.197 2.29 0.335 0.895 0.231 0.993 0.354 1.25 1.57 0.156 0.726 0.465 4.03 0.688 7.34s0.473 6.4 0.558 6.86c0.144 0.794 0.103 0.847-0.733 0.949-0.84 0.102-2.55-0.034-2.9-0.231zm-8.04-1.02c-1.46-0.224-3.39-0.408-4.29-0.409-1.58-0.0016-1.66-0.0306-1.81-0.729-0.406-1.84-1.06-3.91-2.27-7.18-1.48-3.99-2.01-5.87-2.26-7.95l-0.17-1.43 2.72 0.178c2.34 0.153 8.96 1 10.8 1.38 0.529 0.11 0.595 0.284 0.595 1.55 0 0.921 0.385 2.68 1.08 4.96 1.23 4 1.55 6.79 1.03 8.96l-0.331 1.38-1.22-0.153c-0.672-0.0842-2.41-0.336-3.87-0.56zm-12.1-1.12-1.03-0.17 0.178-2.94c0.168-2.77 0.775-7.35 1.12-8.47 0.129-0.416 0.195-0.437 0.373-0.12 0.903 1.61 3.16 9.79 3.16 11.4 0 0.332-0.294 0.421-1.39 0.419-0.764-0.0016-1.85-0.0793-2.42-0.173zm-5.55-8.18 1.55-7.76 1.25-0.269c1.41-0.303 1.96-0.182 2.12 0.467 0.213 0.851-0.311 5.5-1.11 9.84-0.441 2.4-0.803 4.69-0.803 5.08-1.7e-4 0.715-5e-3 0.717-2.18 0.794-1.2 0.0423-2.23-0.0265-2.28-0.153-0.0542-0.126 0.601-3.72 1.46-7.99zm-4.13 4.18c0-4.78 1.02-9.48 2.38-11l0.776-0.853 8e-3 1.29c0.01 1.59-0.676 6.36-1.22 8.5-0.493 1.93-1.4 4.1-1.71 4.1-0.128 0-0.232-0.926-0.232-2.06z" stroke-width=".265"/>
  <g transform="rotate(-13,-8.25e-7,7.25e-6)" stroke-width=".394" >
   <path d="m-5.73 145q-1.39 0.556-2.39 0.267-0.958-0.279-0.679-1.24 0.207-0.709 0.922-1.58 9.64-11.7 12.9-16 12.6-17.1 15.4-22.4-3.72 2.19-8.58 1.7-1.2-0.118-1.98-0.345t-1.28-0.641q-0.46-0.403-0.701-0.897-0.457-0.941-0.198-1.83t0.971-1.22q0.723-0.367 2.16-0.562 1.48-0.185 2.98-0.71 1.54-0.515 3.03-1.16l3-1.32q5.17-2.42 6.41-2.06 1.28 0.372 2.11 1.08 0.834 0.705 1.35 1.59 1.15 1.99 0.564 3.74-0.577 1.72-1.98 4.27-1.36 2.57-3.35 5.56-1.94 2.97-4.38 6.31-2.42 3.3-5.18 6.69-14.6 18.1-21.2 20.8z"/>
   <path d="m38.1 136q-1.38-0.403-1.07-1.47 0.723-2.48 2.97-3.71 0.733-0.402 2.5-0.388 1.81-0.0108 4.85-0.781 3.08-0.796 5.85-2.37 6.25-3.61 8.11-9.99 0.806-2.77-0.122-4.73-0.918-2-3.05-2.62-2.13-0.62-4.17-0.215-2 0.38-3.71 1.38-3.65 2.09-4.57 5.25-0.868 2.98 0.628 4.18 0.616 0.526 0.441 1.13-0.372 1.28-1.92 1.98-2.88 1.31-4.48 0.849-1.6-0.465-2.44-1.25-0.848-0.786-1.3-1.88-0.846-2.25-0.153-4.62 0.692-2.38 1.88-4.07 1.19-1.69 2.84-3.14 1.7-1.47 3.79-2.59 2.13-1.11 4.52-1.76 5.09-1.36 9.21-0.165 4.15 1.21 6.15 2.95 2.03 1.75 2.95 3.86 1.7 3.92 0.206 9.06-2.44 8.37-12.2 13.4-3.62 1.87-6.63 2.42 2.78 1.81 2.72 6.26-0.0174 1.38-0.503 3.05-0.475 1.63-1.64 3.37-1.16 1.74-2.79 3.23-1.62 1.45-3.67 2.55-2.04 1.06-4.37 1.65-5.02 1.23-10-0.225-5.14-1.5-7.23-5.03-1.81-3.03-0.85-6.33 0.755-2.59 3.02-4.28 2.67-1.91 5.8-1 1.74 0.506 2.27 1.47 0.93 1.69 0.0286 2.28-0.855 0.559-1.54 1.05-0.637 0.469-1.14 1.01-0.99 1.02-1.28 2.01-0.289 0.993-0.288 1.65 0.012 0.619 0.268 1.19 0.622 1.3 2.54 1.86 1.92 0.558 4.08-0.121 2.2-0.668 4.13-2.15 4.11-3.15 5.46-7.76 1.35-4.65-2.51-5.77z"/>
   <path d="m91.4 142q-1.95-0.568-8.72 3.92l-4 2.76-7.84 5.76q-3.19 3.3-5.12 5.55l-3.11 3.56q-1.19 1.31-1.94 1.78-0.708 0.448-1.67 0.169-0.922-0.269-1.71-0.882-0.758-0.567-1.24-1.29-1.02-1.53-0.624-2.88 0.155-0.532 1.35-1.88l2.26-2.46q10.6-11.7 22.1-31.1 4.24-7.15 6.92-13.1 1.26-2.87 3.78-2.13 1.63 0.475 2.47 1.57 1.61 2.12 1.04 3.84-0.577 1.72-1.63 3.76t-2.47 4.4q-1.41 2.32-3.08 4.88-4.42 6.45-6.47 9.27-6.26 8.53-7.55 9.92 0.718-0.483 1.89-1.33 8.93-6.6 10.9-7.78 2.01-1.22 3.33-1.8 2.8-1.3 6.24-0.297 2.8 0.817 3.96 3.19 1.07 2.27 0.438 4.44-0.62 2.13-1.62 3.72-0.957 1.57-2.22 3.12-1.26 1.56-2.7 3.18l-2.86 3.21q-4.13 4.92-4.92 7.65-0.558 1.92 1 2.37 1.49 0.434 2.88 0.147 1.43-0.277 1.78-0.173 0.745 0.217 0.528 0.962-0.92 3.16-4.73 4.35-2.62 0.813-4.43 0.286t-2.91-1.23q-1.06-0.731-1.73-1.85-1.53-2.53-0.449-6.25 1.17-4.01 5.56-9.31l6.21-7.04q1.76-1.95 2.14-3.26 0.382-1.31-1.07-1.74z"/>
  </g>
 </g>
</svg>
