<?xml-stylesheet type="text/css" href="../css/app.css"?>

<svg version="1.1" viewBox="0 0 153.21133 253.95544" xmlns="http://www.w3.org/2000/svg">
 <g transform="translate(0 -43)">
  <path class="postStem" d="m61.7 60.2c0-4.78 1.02-9.48 2.38-11l0.776-0.853 8e-3 1.29c0.01 1.59-0.676 6.36-1.22 8.5-0.493 1.93-1.4 4.1-1.71 4.1-0.128 0-0.232-0.926-0.232-2.06zm4.13-4.18 1.55-7.76 1.25-0.269c1.41-0.303 1.96-0.182 2.12 0.467 0.213 0.851-0.311 5.5-1.11 9.84-0.441 2.4-0.803 4.69-0.803 5.08-1.7e-4 0.715-5e-3 0.717-2.18 0.794-1.2 0.0423-2.23-0.0265-2.28-0.153-0.0542-0.126 0.601-3.72 1.46-7.99zm5.55 8.18-1.03-0.17 0.178-2.94c0.168-2.77 0.775-7.35 1.12-8.47 0.129-0.416 0.195-0.437 0.373-0.12 0.903 1.61 3.16 9.79 3.16 11.4 0 0.332-0.294 0.421-1.39 0.419-0.764-0.0016-1.85-0.0793-2.42-0.173zm12.1 1.12c-1.46-0.224-3.39-0.408-4.29-0.409-1.58-0.0016-1.66-0.0306-1.81-0.729-0.406-1.84-1.06-3.91-2.27-7.18-1.48-3.99-2.01-5.87-2.26-7.95l-0.17-1.43 2.72 0.178c2.34 0.153 8.96 1 10.8 1.38 0.529 0.11 0.595 0.284 0.595 1.55 0 0.921 0.385 2.68 1.08 4.96 1.23 4 1.55 6.79 1.03 8.96l-0.331 1.38-1.22-0.153c-0.672-0.0842-2.41-0.336-3.87-0.56zm8.04 1.02c-0.0895-0.0501-0.226-1.25-0.302-2.68-0.0904-1.68-0.473-3.92-1.09-6.38-0.568-2.28-0.977-4.61-1.02-5.82l-0.0724-2.02 1.32 0.0845c0.728 0.0465 1.76 0.197 2.29 0.335 0.895 0.231 0.993 0.354 1.25 1.57 0.156 0.726 0.465 4.03 0.688 7.34 0.223 3.31 0.473 6.4 0.558 6.86 0.144 0.794 0.103 0.847-0.733 0.949-0.84 0.102-2.55-0.034-2.9-0.231zm-3.14 159c0-2.55-2.03-11-5.16-21.5-4.05-13.6-5.42-21-5.42-29.2 0-2.74 0.0551-3.15 0.405-3.02 1.07 0.412 3.77 0.97 7.14 1.47 2.04 0.305 4.3 0.709 5.03 0.897l1.32 0.341 0.242 4.22c0.161 2.81 0.137 7.1-0.0715 12.8-0.395 10.8-0.924 17-2.84 33.1-0.185 1.56-0.637 2.11-0.637 0.784zm-22.8 20.3c0-0.157 0.302-2.51 0.67-5.23 0.369-2.72 1.38-11.4 2.25-19.2 1.57-14.1 2.86-24.8 3.04-25 0.0502-0.0511 0.226 0.425 0.392 1.06 0.165 0.633 0.891 3.25 1.61 5.82 2.27 8.08 3.01 13.3 2.59 18.4-0.251 2.98-1.32 6.22-4.26 12.9-2.37 5.4-2.77 6.21-4.53 9.19-1.28 2.16-1.76 2.72-1.76 2.03zm-4.94 17.9c0.225-10 0.758-17.2 2.71-36.3 1.17-11.4 1.66-14.8 3.29-22.1 1.16-5.24 1.63-7.86 2.62-14.6 0.183-1.24 0.229 0.548 0.166 6.48-0.0949 8.97-0.249 10.7-2.13 24.6-0.651 4.8-1.6 12.4-2.11 16.9-1.21 10.7-1.85 15.9-2.65 21.6-0.732 5.2-1.74 10.8-1.93 10.8-0.0702 0-0.0522-3.36 0.04-7.47zm-3.1 25.7c-0.646-0.595-1.42-1.67-1.76-2.45-0.819-1.89-0.98-5.71-0.398-9.45 0.526-3.39 1.32-9.31 1.71-12.7 0.158-1.38 0.466-3.82 0.684-5.42 2.97-21.8 3.68-29.6 4.09-44.6 0.423-15.5 0.855-21.8 2.27-33 1.01-8.02 1.57-9.71 3.14-9.56 0.807 0.0787 0.822 0.106 0.902 1.67 0.045 0.873-0.068 2.6-0.251 3.84-0.193 1.3-0.345 5.14-0.363 9.13-0.033 7.46-0.202 8.78-2.27 17.7-2.09 9.06-2.5 12.1-3.42 25.5-0.296 4.34-0.769 10.9-1.05 14.5-0.281 3.64-0.636 8.7-0.789 11.2-0.153 2.55-0.345 5.58-0.428 6.75-0.0826 1.16-0.217 7.92-0.299 15-0.0837 7.25-0.252 12.9-0.384 12.9-0.13 0-0.755-0.479-1.39-1.06zm3.91-4.19c0.128-5.22 0.443-8.48 1.62-16.8 1.03-7.31 1.23-9.07 1.42-12.9l0.184-3.64 1.14-1.16c0.932-0.949 1.23-1.52 1.65-3.11 0.282-1.07 1.28-3.56 2.21-5.52s2.49-5.42 3.45-7.67c4.39-10.3 4.49-10.7 4.28-16.5-0.216-5.84-1.57-12.6-3.66-18.3-3.42-9.26-3.41-9.12-2.7-24.5l0.178-3.9h1.36c0.75 0 1.57 0.149 1.81 0.331 0.535 0.393 1.47 4.6 2.29 10.3 1.28 8.86 1.96 11.9 4.86 21.6 4.5 15 5.71 20.7 5.72 27.1 7e-3 4.16-0.489 6.22-3.04 12.6-1.22 3.06-2.65 7.16-3.18 9.13-3.37 12.5-3.96 13.9-8.71 20.5-3.74 5.2-4.49 6.56-6.14 11.1-0.628 1.73-1.44 3.65-1.8 4.26-0.765 1.31-2.44 2.87-2.83 2.63-0.167-0.103-0.216-2.06-0.135-5.36zm7.67 8.82c-2.17-0.22-4.38-0.468-4.92-0.551l-0.984-0.152 0.883-1.76c0.486-0.97 1.45-3.25 2.14-5.07 1.99-5.26 3.1-7.34 6.11-11.4 5.03-6.8 6.14-9.19 9.12-19.7 2.24-7.87 3.4-11.2 4.89-14.2 1.1-2.15 1.16-2.22 1.17-1.32 0.0151 1.08-1.04 14.3-1.83 23-0.286 3.13-0.705 7.89-0.932 10.6-0.815 9.69-1.45 13.8-2.82 18.2l-0.844 2.71h-4.02c-2.21 0-5.79-0.18-7.96-0.399z"/>
  <path d="m80.7 297c2.03-0.619 2.81-1.39 3.53-3.51 0.602-1.77 2.08-15 3.48-31.2 0.373-4.29 1.21-13 1.86-19.4 3.05-30 3.68-37.4 4.09-47.9 0.552-14.2 0.738-18.2 0.87-18.3 0.139-0.139 9.2 0.527 13.3 0.977 1.31 0.144 4.3 0.631 6.65 1.08 4.85 0.931 5.82 0.884 7.05-0.341 0.784-0.784 0.791-0.786 1.35-0.275 0.866 0.792 2.52 1.54 4.27 1.92 2.09 0.458 8.55 0.463 10.6 9e-3 2.78-0.625 3.35-1.66 4.39-7.97 0.3-1.82 1.07-5.51 1.71-8.2 5.13-21.6 9.39-55.5 9.39-74.9l2e-3 -6.79-1.56-1.48c-0.856-0.816-1.84-2.02-2.18-2.67-0.514-0.973-0.817-1.24-1.68-1.46-0.582-0.152-2.19-0.634-3.57-1.07-6.35-2.01-9.53-2.3-12.3-1.13-0.873 0.369-1.71 0.715-1.85 0.769s-0.919-0.907-1.72-2.14c-2.62-4.03-2.03-3.68-6.26-3.72-4.32-0.0486-8.35-0.502-17.5-1.98-5.44-0.872-6.85-1.18-7.21-1.59-0.771-0.878-1.28-4.04-1.55-9.59-0.25-5.24-0.474-7.12-1.09-9.18l-0.304-1.01-3.35-0.0019c-3.7-0.0021-6.57-0.374-13.5-1.75-6.15-1.22-7.87-1.22-11.3 0.0175-3.11 1.12-6.3 2.15-7.28 2.36-0.39 0.0825-0.771 0.358-0.846 0.612-0.0751 0.254-0.506 2.72-0.958 5.49-0.452 2.76-1.12 6.31-1.49 7.87l-0.671 2.85-4.8-0.0773c-4.54-0.073-4.88-0.115-6.18-0.753-1.86-0.915-2.7-0.758-4.12 0.764-0.615 0.66-1.33 1.42-1.58 1.69-0.647 0.683-1.03 0.613-1.86-0.339l-0.726-0.827-3.24 0.211c-5.71 0.372-15.5-0.015-20.5-0.813-3.45-0.548-3.94-0.504-6.12 0.537-1.06 0.509-2.1 0.926-2.31 0.926-0.766 0-0.805 0.31-1.42 11.4-0.452 8.09-0.782 17.7-1.19 34.7-0.22 9.1-0.523 19.8-0.674 23.7-0.258 6.76-0.289 9.39-0.264 21.9l0.0103 4.97 0.992 0.416c1.72 0.723 5.55 1.38 12.1 2.07 6.81 0.725 8.05 0.935 14.1 2.37 3.28 0.779 4.79 0.988 8.73 1.2 2.62 0.143 5.54 0.435 6.48 0.649 2.35 0.531 3.42 0.501 4.45-0.129 0.858-0.523 0.892-0.524 1.59-0.0429 1.03 0.712 2.56 1.26 5.66 2.04 1.5 0.375 3.13 0.809 3.62 0.965l0.89 0.283-0.175 3.34c-0.264 5.04-0.654 10.8-1.09 15.9-1.06 12.7-1.48 19.5-1.71 28.1-0.283 10.3-0.538 13.3-2.1 24.8-0.568 4.16-1.22 9.71-1.45 12.3-0.927 10.6-1.24 13.7-1.76 17.1-0.684 4.54-0.941 10.7-0.529 12.7 0.481 2.31 1.66 4.5 3.5 6.46 3.36 3.61 4.91 4.16 12.9 4.63 2.69 0.158 5.43 0.397 6.09 0.53 1.43 0.29 7.53 0.303 8.47 0.0177zm-13.4-3.06c-2.17-0.22-4.38-0.468-4.92-0.551l-0.984-0.152 0.883-1.76c0.486-0.97 1.45-3.25 2.14-5.07 1.99-5.26 3.1-7.34 6.11-11.4 5.03-6.8 6.14-9.19 9.12-19.7 2.24-7.87 3.4-11.2 4.89-14.2 1.1-2.15 1.16-2.22 1.17-1.32 0.0151 1.08-1.04 14.3-1.83 23-0.286 3.13-0.705 7.89-0.932 10.6-0.815 9.69-1.45 13.8-2.82 18.2l-0.844 2.71h-4.02c-2.21 0-5.79-0.18-7.96-0.399zm-7.67-8.82c0.128-5.22 0.443-8.48 1.62-16.8 1.03-7.31 1.23-9.07 1.42-12.9l0.184-3.64 1.14-1.16c0.932-0.949 1.23-1.52 1.65-3.11 0.282-1.07 1.28-3.56 2.21-5.52s2.49-5.42 3.45-7.67c4.39-10.3 4.49-10.7 4.28-16.5-0.216-5.84-1.57-12.6-3.66-18.3-3.42-9.26-3.41-9.12-2.7-24.5l0.178-3.9h1.36c0.75 0 1.57 0.149 1.81 0.331 0.535 0.393 1.47 4.6 2.29 10.3 1.28 8.86 1.96 11.9 4.86 21.6 4.5 15 5.71 20.7 5.72 27.1 7e-3 4.16-0.489 6.22-3.04 12.6-1.22 3.06-2.65 7.16-3.18 9.13-3.37 12.5-3.96 13.9-8.71 20.5-3.74 5.2-4.49 6.56-6.14 11.1-0.628 1.73-1.44 3.65-1.8 4.26-0.765 1.31-2.44 2.87-2.83 2.63-0.167-0.103-0.216-2.06-0.135-5.36zm-3.91 4.19c-0.646-0.595-1.42-1.67-1.76-2.45-0.819-1.89-0.98-5.71-0.398-9.45 0.526-3.39 1.32-9.31 1.71-12.7 0.158-1.38 0.466-3.82 0.684-5.42 2.97-21.8 3.68-29.6 4.09-44.6 0.423-15.5 0.855-21.8 2.27-33 1.01-8.02 1.57-9.71 3.14-9.56 0.807 0.0787 0.822 0.106 0.902 1.67 0.045 0.873-0.068 2.6-0.251 3.84-0.193 1.3-0.345 5.14-0.363 9.13-0.033 7.46-0.202 8.78-2.27 17.7-2.09 9.06-2.5 12.1-3.42 25.5-0.296 4.34-0.769 10.9-1.05 14.5-0.281 3.64-0.636 8.7-0.789 11.2-0.153 2.55-0.345 5.58-0.428 6.75-0.0826 1.16-0.217 7.92-0.299 15-0.0837 7.25-0.252 12.9-0.384 12.9-0.13 0-0.755-0.479-1.39-1.06zm3.1-25.7c0.225-10 0.758-17.2 2.71-36.3 1.17-11.4 1.66-14.8 3.29-22.1 1.16-5.24 1.63-7.86 2.62-14.6 0.183-1.24 0.229 0.548 0.166 6.48-0.0949 8.97-0.249 10.7-2.13 24.6-0.651 4.8-1.6 12.4-2.11 16.9-1.21 10.7-1.85 15.9-2.65 21.6-0.732 5.2-1.74 10.8-1.93 10.8-0.0702 0-0.0522-3.36 0.04-7.47zm4.94-17.9c0-0.157 0.302-2.51 0.67-5.23 0.369-2.72 1.38-11.4 2.25-19.2 1.57-14.1 2.86-24.8 3.04-25 0.0502-0.0511 0.226 0.425 0.392 1.06 0.165 0.633 0.891 3.25 1.61 5.82 2.27 8.08 3.01 13.3 2.59 18.4-0.251 2.98-1.32 6.22-4.26 12.9-2.37 5.4-2.77 6.21-4.53 9.19-1.28 2.16-1.76 2.72-1.76 2.03zm22.8-20.3c0-2.55-2.03-11-5.16-21.5-4.05-13.6-5.42-21-5.42-29.2 0-2.74 0.0551-3.15 0.405-3.02 1.07 0.412 3.77 0.97 7.14 1.47 2.04 0.305 4.3 0.709 5.03 0.897l1.32 0.341 0.242 4.22c0.161 2.81 0.137 7.1-0.0715 12.8-0.395 10.8-0.924 17-2.84 33.1-0.185 1.56-0.637 2.11-0.637 0.784zm39.4-49.7c-0.375-0.283-0.97-0.908-1.32-1.39-0.805-1.1-2.08-1.92-2.98-1.92-0.461 0-1.18 0.443-2.15 1.32-1.68 1.52-2.1 1.59-5.77 0.941-1.19-0.21-4.55-0.639-7.46-0.954-2.91-0.315-8.92-1.1-13.4-1.74-19-2.74-22.8-3.21-28.8-3.55-8.69-0.486-10.1-0.861-12.5-3.32-1.94-1.97-2.19-2.02-4.84-1.01-1.7 0.647-2.02 0.681-5.12 0.552-1.82-0.0758-4.56-0.393-6.09-0.704-1.53-0.311-6.83-1.21-11.8-1.99-9.42-1.49-13.1-2.18-16.7-3.1-3.51-0.91-3.14 0.542-2.96-11.7 0.0858-5.84 0.277-12.3 0.424-14.3 0.587-8.1 0.838-13.8 1.21-27.6 0.547-20.2 0.815-24.1 2.1-31.1 0.215-1.16 0.395-3.2 0.4-4.53l9e-3 -2.42 0.728-0.156c2.07-0.444 6.81-0.462 13.1-0.0488 6.21 0.406 7.52 0.404 9.74-0.018 0.569-0.108 0.923 0.093 1.89 1.07 1.81 1.84 2.64 1.74 7.18-0.849 2.58-1.47 2.68-1.5 5.03-1.6 2.12-0.0928 2.84 0.01 6.18 0.885 4.04 1.06 4.13 1.06 5.62-0.146 0.662-0.535 0.792-0.54 7.54-0.264 12.2 0.498 18.6 1.18 23.9 2.59 3.23 0.841 4.07 0.952 8.73 1.14 3.84 0.158 6.69 0.458 11.1 1.17 4.1 0.659 7.23 1 10.1 1.1 2.64 0.0944 4.29 0.268 4.64 0.486 0.298 0.187 1.41 1.59 2.46 3.12 2.24 3.24 2.82 3.85 3.35 3.49 0.202-0.139 0.82-0.576 1.37-0.97 2.89-2.06 8.08-1.9 13.5 0.426 2.79 1.19 3.43 1.71 3.72 3.07 1.28 5.93 0.811 18.8-1.3 35.9-1.51 12.3-2.83 19.8-8.08 46.4-1.23 6.22-2.24 11.4-2.24 11.4 0 0.0699-0.744 0.132-1.65 0.139-0.91 6e-3 -2.37 0.179-3.24 0.383-2.21 0.517-4.84 0.398-5.71-0.258zm-44.2-11.6c0.563-0.679 0.688-3.19 0.195-3.94-0.558-0.852-1.82-1.33-2.95-1.12-1.99 0.373-2.68 2.82-1.25 4.42 0.628 0.702 0.984 0.858 2.19 0.958 1.13 0.0935 1.52 0.0232 1.81-0.321zm-2.45-1.63c-0.299-0.299 0.348-1.16 0.874-1.16 0.376 0 0.466 0.123 0.341 0.463-0.259 0.702-0.861 1.05-1.21 0.693zm-57.2-16.4c-0.271-1.08-0.636-1.39-1.63-1.39-0.77 0-0.894 0.089-0.894 0.643 0 0.909 0.677 1.47 1.77 1.47 0.888 0 0.927-0.0369 0.754-0.726zm2.97-2.62c0.182-0.0734 0.331-0.418 0.331-0.767 0-0.873-1-1.49-2.07-1.28-0.704 0.141-0.837 0.287-0.837 0.919 0 1.06 1.32 1.63 2.58 1.12zm114-49.9c1.11-0.649 0.0328-2.2-1.53-2.2-1.12 0-1.56 0.398-1.35 1.23 0.255 1.02 1.87 1.56 2.88 0.97zm2.13-3.9c0.565-0.109 0.562-0.296-0.0161-1.01-0.615-0.76-1.45-1.16-2.42-1.16-0.911 0-0.983 0.223-0.422 1.31 0.305 0.59 0.607 0.773 1.4 0.848 0.556 0.053 1.21 0.0571 1.46 0.0092zm-56.4-11.3c1.07-2.81 0.836-4.79-0.628-5.4-1.87-0.774-3.99-0.112-5.15 1.61-0.697 1.03-0.759 2.1-0.187 3.21 0.532 1.03 1.3 1.3 3.72 1.3 1.9 0 1.98-0.0257 2.25-0.718zm-3.95-1.37c-0.462-0.293-0.296-1.63 0.245-1.96 0.628-0.393 1.76-0.0064 2.27 0.776 0.43 0.656 0.427 0.707-0.0472 1.05-0.554 0.405-1.92 0.479-2.47 0.134zm8.92-11c-0.0895-0.0501-0.226-1.25-0.302-2.68-0.0904-1.68-0.473-3.92-1.09-6.38-0.568-2.28-0.977-4.61-1.02-5.82l-0.0724-2.02 1.32 0.0845c0.728 0.0465 1.76 0.197 2.29 0.335 0.895 0.231 0.993 0.354 1.25 1.57 0.156 0.726 0.465 4.03 0.688 7.34 0.223 3.31 0.473 6.4 0.558 6.86 0.144 0.794 0.103 0.847-0.733 0.949-0.84 0.102-2.55-0.034-2.9-0.231zm-8.04-1.02c-1.46-0.224-3.39-0.408-4.29-0.409-1.58-0.0016-1.66-0.0306-1.81-0.729-0.406-1.84-1.06-3.91-2.27-7.18-1.48-3.99-2.01-5.87-2.26-7.95l-0.17-1.43 2.72 0.178c2.34 0.153 8.96 1 10.8 1.38 0.529 0.11 0.595 0.284 0.595 1.55 0 0.921 0.385 2.68 1.08 4.96 1.23 4 1.55 6.79 1.03 8.96l-0.331 1.38-1.22-0.153c-0.672-0.0842-2.41-0.336-3.87-0.56zm-12.1-1.12-1.03-0.17 0.178-2.94c0.168-2.77 0.775-7.35 1.12-8.47 0.129-0.416 0.195-0.437 0.373-0.12 0.903 1.61 3.16 9.79 3.16 11.4 0 0.332-0.294 0.421-1.39 0.419-0.764-0.0016-1.85-0.0793-2.42-0.173zm-5.55-8.18 1.55-7.76 1.25-0.269c1.41-0.303 1.96-0.182 2.12 0.467 0.213 0.851-0.311 5.5-1.11 9.84-0.441 2.4-0.803 4.69-0.803 5.08-1.7e-4 0.715-5e-3 0.717-2.18 0.794-1.2 0.0423-2.23-0.0265-2.28-0.153-0.0542-0.126 0.601-3.72 1.46-7.99zm-4.13 4.18c0-4.78 1.02-9.48 2.38-11l0.776-0.853 8e-3 1.29c0.01 1.59-0.676 6.36-1.22 8.5-0.493 1.93-1.4 4.1-1.71 4.1-0.128 0-0.232-0.926-0.232-2.06z"/>
  <g transform="rotate(-13 -8.25e-7 7.25e-6)" aria-label="13h">
   <path d="m-1.52 146q-1.41 0.522-2.39 0.208-0.951-0.302-0.648-1.25 0.224-0.704 0.96-1.56 9.92-11.5 13.3-15.7 13-16.7 15.9-22-3.77 2.1-8.61 1.49-1.19-0.147-1.97-0.393-0.775-0.246-1.26-0.672-0.45-0.414-0.679-0.914-0.434-0.952-0.154-1.83 0.28-0.88 1-1.19 0.731-0.349 2.18-0.509 1.48-0.149 2.99-0.637 1.55-0.477 3.06-1.08l3.03-1.25q5.23-2.29 6.46-1.9 1.27 0.403 2.08 1.13 0.816 0.725 1.31 1.62 1.1 2.02 0.473 3.76-0.619 1.7-2.08 4.22-1.43 2.53-3.49 5.48-2.02 2.93-4.53 6.2-2.5 3.24-5.34 6.56-15 17.8-21.7 20.2z"/>
   <path d="m28.8 152q-0.0658-1.38 1.11-4.1 1.21-2.72 4.2-6.38 3.03-3.69 6.7-7.06 3.72-3.39 7.77-6.41l7.81-5.66 6.88-4.68q3.15-2.1 5.07-3.62-7.46 0.769-14.2 0.0678-2.09-0.24-3.43-0.665-1.34-0.425-2.36-0.984-1.01-0.594-1.72-1.28-1.33-1.31-1.9-3.4-0.498-1.36 0.241-3.68 0.851-2.68 2-2.39 0.786 0.211 1.54 0.878 0.803 0.643 1.89 1.49 2.92 2.28 6.05 3.28 3.13 0.996 5.36 1.32 2.27 0.296 4.11 0.375l3.29 0.153q1.46 0.0382 2.38 0.329 0.915 0.291 1.69 1.16 0.771 0.866 1.22 1.9 1.1 2.4 0.258 3.45t-2.72 2.58q-1.88 1.53-4.42 3.4-8.65 6.36-11.8 8.88-3.12 2.5-6.26 5.3-3.09 2.78-5.8 5.79-5.88 6.66-8.02 12.9-0.47 1.48-0.862 1.86-1.3 1.29-3.86-0.648-1.98-1.56-2.2-4.19z"/>
   <path d="m91.2 143q-1.94-0.616-8.82 3.71l-4.06 2.66-7.97 5.57q-3.27 3.22-5.25 5.42l-3.2 3.48q-1.22 1.28-1.99 1.73-0.718 0.431-1.67 0.128-0.915-0.291-1.68-0.923-0.744-0.586-1.21-1.32-0.98-1.55-0.554-2.89 0.168-0.528 1.4-1.84l2.32-2.4q10.9-11.5 22.9-30.6 4.41-7.05 7.24-12.9 1.33-2.83 3.83-2.04 1.62 0.515 2.43 1.63 1.56 2.16 0.942 3.87-0.619 1.7-1.72 3.72-1.11 2.01-2.58 4.34-1.46 2.29-3.19 4.8-4.57 6.34-6.7 9.11-6.46 8.37-7.79 9.74 0.73-0.466 1.92-1.29 9.08-6.38 11.1-7.51 2.04-1.17 3.38-1.72 2.83-1.23 6.25-0.145 2.78 0.884 3.88 3.29 1.01 2.3 0.33 4.45-0.672 2.11-1.71 3.68-0.995 1.54-2.29 3.07-1.3 1.53-2.77 3.11l-2.94 3.14q-4.24 4.81-5.11 7.53-0.605 1.9 0.944 2.39 1.48 0.47 2.88 0.217 1.43-0.242 1.79-0.13 0.739 0.235 0.504 0.974-0.996 3.13-4.84 4.24-2.64 0.749-4.44 0.178-1.8-0.571-2.88-1.3-1.04-0.757-1.69-1.89-1.47-2.56-0.297-6.26 1.27-3.98 5.79-9.17l6.38-6.89q1.81-1.91 2.22-3.21 0.414-1.3-1.03-1.76z"/>
  </g>
 </g>
</svg>
