<?xml-stylesheet type="text/css" href="../css/app.css"?>
<svg version="1.1" viewBox="0 0 79.375 79.340843" xmlns="http://www.w3.org/2000/svg">
 <g>
  <path class="airbnb" transform="matrix(.265 0 0 .265 -.0329 0)" d="m106 211l-3.66 0.0762-0.0723 14.7c-0.0389 8.08-0.0105 14.9 0.0606 15.1 0.0952 0.249 1.11 0.34 3.78 0.34 1.54 0 2.47-0.0158 3.02-0.0781s0.735-0.17 0.799-0.352l0.0332-0.0156c0.252-0.654 0.189-29.1-0.0644-29.5-0.166-0.262-1.14-0.329-3.89-0.271z" opacity=".997" style="paint-order:markers fill stroke"/>
  <path class="airbnb" transform="matrix(.265 0 0 .265 -.0329 0)" d="m184 211c-0.83 0.114-1.63 0.307-2.4 0.576s-1.5 0.616-2.18 1.04c-0.776 0.478-1.26 0.725-1.54 0.754-0.284 0.0285-0.373-0.163-0.373-0.564 0-0.241-0.0342-0.431-0.139-0.582-0.104-0.151-0.278-0.263-0.555-0.344-0.552-0.162-1.52-0.203-3.16-0.203-1.33 0-2.13 0.0172-2.62 0.0801s-0.664 0.17-0.734 0.35c-0.218 0.567-0.216 28.8 0.00196 29.4 0.0727 0.189 0.242 0.296 0.795 0.348 0.553 0.0515 1.49 0.0476 3.1 0.0156l3.72-0.0762 0.0606-10.6 0.0723-10.5 0.85-0.717c0.995-0.837 2.11-1.42 3.31-1.75s2.5-0.39 3.86-0.186c0.778 0.117 1.56 0.506 2.22 1.05 0.659 0.548 1.19 1.26 1.46 2.01 0.279 0.778 0.395 3.5 0.475 10.9l0.105 9.9h7.59l-0.00391-10.3c-0.00189-3.34-0.0184-5.92-0.0918-7.96-0.0734-2.04-0.204-3.53-0.436-4.7-0.232-1.17-0.564-2.02-1.04-2.76s-1.1-1.39-1.91-2.14c-0.818-0.765-1.58-1.33-2.42-1.78-0.837-0.444-1.75-0.763-2.87-1.03-1.75-0.412-3.51-0.496-5.17-0.268z" opacity=".997" style="paint-order:markers fill stroke"/>
  <path class="airbnb" transform="matrix(.265 0 0 .265 -.0329 0)" d="m130 211c-1.21 0.00104-2.17 0.12-3.12 0.436-0.955 0.315-1.9 0.826-3.07 1.61-0.421 0.281-0.643 0.424-0.779 0.436-0.136 0.0115-0.186-0.108-0.262-0.348-0.208-0.661-0.31-0.991-0.824-1.16-0.514-0.165-1.44-0.166-3.29-0.166h-3.51l-0.0723 14.7c-0.0389 8.08-0.0112 14.9 0.0625 15.1 0.101 0.265 1.04 0.331 3.89 0.273l3.75-0.0762 0.148-10.6 0.135-10.6 1.18-0.9c0.88-0.671 1.82-1.13 2.9-1.39s2.3-0.334 3.75-0.232l2.39 0.17v-3.41c0-1 0.0122-1.74-0.0254-2.29-0.0376-0.545-0.125-0.896-0.318-1.12-0.194-0.227-0.495-0.328-0.963-0.373s-1.1-0.0332-1.96-0.0332z" opacity=".997" style="paint-order:markers fill stroke"/>
  <path class="airbnb" transform="matrix(.265 0 0 .265 -.0329 0)" d="m82.2 211c-1.2-0.0338-2.44 0.0828-3.66 0.352-1.22 0.269-2.43 0.689-3.58 1.26-0.963 0.484-1.85 1.04-2.66 1.66-0.81 0.621-1.54 1.31-2.19 2.06s-1.22 1.58-1.71 2.46c-0.489 0.884-0.896 1.83-1.22 2.84-0.482 1.51-0.722 3.37-0.723 5.23-3.87e-4 1.86 0.241 3.72 0.721 5.23 0.369 1.17 0.856 2.27 1.45 3.28 0.593 1.01 1.29 1.94 2.09 2.77s1.69 1.56 2.66 2.19c0.975 0.626 2.03 1.14 3.17 1.54 1.22 0.431 3.09 0.662 4.92 0.686s3.62-0.161 4.68-0.562l0.00391 0.041c0.759-0.289 1.79-0.843 2.3-1.23s0.975-0.703 1.05-0.703c0.0688 0 0.209 0.336 0.312 0.748 0.103 0.412 0.331 0.84 0.506 0.949 0.176 0.112 1.81 0.205 3.63 0.207 1.38 0.00155 2.22-0.0161 2.72-0.0781 0.505-0.062 0.682-0.169 0.752-0.35 0.252-0.657 0.189-29.1-0.0645-29.5-0.165-0.261-1.08-0.33-3.6-0.273l-3.38 0.0762-0.42 0.816c-0.23 0.45-0.442 0.861-0.469 0.914-0.0264 0.0525-0.479-0.232-1-0.635-0.825-0.63-1.8-1.11-2.86-1.45s-2.23-0.517-3.42-0.551zm1.14 7.3c1.01 0.033 2 0.218 2.91 0.553 0.91 0.335 1.74 0.819 2.43 1.45l1.01 0.922v5.59c0 3.25 0.0054 4.85-0.338 5.82-0.172 0.484-0.431 0.809-0.822 1.1-0.391 0.291-0.913 0.547-1.61 0.896-0.722 0.361-1.21 0.571-1.74 0.688-0.532 0.117-1.11 0.14-2 0.133-1.14-0.0113-2.56-0.171-3.16-0.359l-0.0176 0.00585c-0.723-0.227-1.53-0.64-2.26-1.13s-1.38-1.06-1.78-1.6c-0.717-0.941-1.21-2.03-1.48-3.17s-0.329-2.34-0.182-3.5c0.148-1.16 0.498-2.28 1.04-3.27 0.545-0.99 1.28-1.85 2.2-2.48 0.846-0.582 1.79-1.01 2.78-1.28 0.988-0.272 2.02-0.392 3.03-0.359z" opacity=".997" style="paint-order:markers fill stroke"/>
  <path class="airbnb" transform="matrix(.265 0 0 .265 -.0329 0)" d="m105 197c-0.49 0.0828-0.976 0.24-1.44 0.477-0.464 0.237-0.906 0.554-1.31 0.957-0.419 0.419-0.754 0.881-1 1.37-0.248 0.492-0.409 1.01-0.482 1.55-0.073 0.537-0.0569 1.09 0.0488 1.65 0.106 0.556 0.302 1.11 0.59 1.66 0.297 0.572 0.721 1.07 1.23 1.47 0.506 0.402 1.09 0.709 1.71 0.91 0.622 0.201 1.28 0.295 1.93 0.266s1.28-0.183 1.86-0.473l0.0234 0.00391c0.901-0.453 1.64-1.14 2.14-1.96 0.51-0.819 0.795-1.77 0.795-2.77 0-0.576-0.0888-1.12-0.248-1.61s-0.39-0.953-0.678-1.36c-0.575-0.814-1.37-1.43-2.28-1.81-0.902-0.374-1.91-0.504-2.89-0.338z" opacity=".997" style="paint-order:markers fill stroke"/>
  <path class="airbnb" transform="matrix(.265 0 0 .265 -.0329 0)" d="m137 197c-0.195 0.0744-0.3 0.67-0.359 3.76-0.059 3.09-0.0703 8.68-0.0703 18.8v22.3l3.46-0.0762 3.46-0.0781 0.42-0.814c0.23-0.45 0.442-0.861 0.469-0.91 0.0264-0.0518 0.611 0.291 1.3 0.766 1.07 0.733 1.79 1.14 2.76 1.36 0.971 0.218 2.18 0.245 4.22 0.211l3.7-0.0625 2.28-1.2c1.01-0.501 1.94-1.06 2.77-1.69 0.836-0.625 1.58-1.31 2.25-2.07s1.24-1.57 1.73-2.46c0.492-0.884 0.898-1.84 1.22-2.86 0.375-1.19 0.625-2.37 0.754-3.54 0.129-1.17 0.138-2.32 0.0371-3.45-0.101-1.12-0.313-2.22-0.629-3.27-0.316-1.05-0.735-2.06-1.25-3s-1.12-1.84-1.82-2.65c-0.697-0.816-1.48-1.56-2.35-2.21s-1.81-1.22-2.82-1.69c-1.02-0.465-2.1-0.827-3.25-1.07-1.8-0.383-3.56-0.436-5.19-0.17-0.816 0.133-1.6 0.345-2.35 0.637-0.744 0.291-1.45 0.663-2.1 1.11-0.62 0.419-1.2 0.682-1.29 0.588-0.0941-0.0941-0.172-3.75-0.172-8.12 0-3.51-0.012-5.51-0.0723-6.64-0.0603-1.13-0.168-1.41-0.357-1.48-0.563-0.215-6.2-0.215-6.76 0zm15.5 21.1c1.15 0.209 2.18 0.564 3.08 1.05 0.896 0.487 1.66 1.11 2.28 1.84 0.619 0.736 1.09 1.59 1.41 2.55 0.32 0.958 0.484 2.02 0.484 3.17 0 0.858-0.0974 1.67-0.291 2.42-0.194 0.75-0.484 1.44-0.865 2.07-0.382 0.631-0.856 1.2-1.42 1.7-0.564 0.5-1.22 0.934-1.96 1.29-0.723 0.357-1.27 0.579-1.84 0.721-0.577 0.142-1.19 0.204-2.05 0.238-1.15 0.0453-2.4-0.0202-2.78-0.143l0.0195 0.0137c-0.71-0.234-1.45-0.584-2.1-0.979-0.647-0.395-1.2-0.834-1.55-1.25l-0.715-0.85v-10.8l1.07-0.971c1.06-0.954 2.16-1.6 3.35-1.94s2.47-0.384 3.86-0.133z" opacity=".997" style="paint-order:markers fill stroke"/>
  <path class="airbnb" transform="matrix(.265 0 0 .265 -.0329 0)" d="m210 197c-0.635-0.244-6.46-0.193-6.88 0.0606-0.271 0.172-0.327 4.84-0.271 22.4l0.0703 22.2h7.06l0.27-0.814c0.186-0.567 0.27-0.847 0.424-0.9 0.154-0.0534 0.376 0.119 0.838 0.461 1.04 0.773 1.91 1.25 2.93 1.54 1.03 0.29 2.21 0.389 3.9 0.391 2.4 0.00204 3.6-0.13 4.91-0.541l0.0195 0.0254c1.24-0.382 2.42-0.957 3.51-1.69s2.1-1.63 2.99-2.64c0.888-1.01 1.66-2.15 2.28-3.37 0.621-1.22 1.09-2.53 1.39-3.89 0.397-1.87 0.481-3.72 0.254-5.55-0.227-1.83-0.765-3.65-1.61-5.44-0.612-1.29-1.64-2.68-2.83-3.9s-2.53-2.28-3.78-2.9c-1.19-0.589-2.44-1.02-3.71-1.29-1.26-0.272-2.54-0.387-3.76-0.346-1.23 0.0413-2.41 0.238-3.49 0.59-1.08 0.351-2.07 0.857-2.9 1.52-0.385 0.303-0.809 0.484-0.941 0.4-0.132-0.082-0.24-3.75-0.24-8.16 0-3.51-0.012-5.52-0.0723-6.66s-0.17-1.43-0.359-1.5zm7.35 21c0.868 0.0144 1.69 0.121 2.46 0.312 0.767 0.191 1.48 0.467 2.13 0.826s1.24 0.799 1.75 1.32c0.517 0.517 0.962 1.11 1.33 1.78 0.519 0.952 0.84 2.29 0.938 3.68 0.0973 1.39-0.0283 2.82-0.4 3.95-0.365 1.1-1.06 2.13-1.96 2.97s-2.01 1.5-3.21 1.86c-1.14 0.351-2.26 0.528-3.33 0.529-1.07 0.00142-2.07-0.172-2.98-0.521l-0.00196-0.0156c-0.763-0.294-1.87-0.947-2.45-1.45l-1.06-0.918-0.084-5.44-0.082-5.44 0.713-0.85c0.393-0.468 1.53-1.25 2.52-1.73 0.776-0.382 1.29-0.601 1.82-0.723 0.531-0.122 1.08-0.146 1.91-0.131z" opacity=".997" style="paint-order:markers fill stroke"/>
  <path class="airbnb" transform="matrix(.265 0 0 .265 -.0329 0)" d="m151 45.2c-0.471-0.00431-0.958 3e-3 -1.46 0.0195-1.55 0.0506-2.52 0.108-3.38 0.248-0.865 0.14-1.62 0.364-2.74 0.746-1.33 0.45-2.6 1-3.8 1.65-1.2 0.653-2.34 1.41-3.41 2.27-1.07 0.858-2.09 1.82-3.04 2.88s-1.84 2.23-2.67 3.51c-1.35 2.06-4.38 7.72-8.22 15.2s-8.51 16.9-13.1 26.3-9.23 19.1-12.9 27-6.54 14.3-7.62 17.2c-0.631 1.68-1.12 3.41-1.46 5.15-0.344 1.74-0.546 3.5-0.602 5.24-0.056 1.74 0.0334 3.48 0.268 5.17 0.234 1.69 0.613 3.34 1.14 4.92 0.501 1.51 1.13 2.96 1.86 4.34s1.57 2.7 2.51 3.93c0.936 1.23 1.97 2.39 3.08 3.46 1.11 1.07 2.3 2.05 3.56 2.93 1.26 0.881 2.59 1.66 3.96 2.34 1.38 0.675 2.81 1.24 4.29 1.69s2.98 0.784 4.52 0.99c1.54 0.206 3.1 0.285 4.67 0.229 1.65-0.0616 4.01-0.307 5.25-0.547l-0.0762-0.0527c1.59-0.307 3.17-0.734 4.76-1.28 1.59-0.547 3.17-1.21 4.76-2 1.58-0.785 3.17-1.69 4.75-2.71 1.58-1.02 3.16-2.16 4.74-3.42 1.2-0.956 3.85-3.39 5.93-5.4l3.75-3.67 3.74 3.68c2.17 2.13 4.28 4.02 6.34 5.67 2.06 1.65 4.09 3.07 6.1 4.28 2.01 1.21 4.01 2.2 6.03 3 2.02 0.797 4.05 1.4 6.13 1.82 1.55 0.317 3.1 0.513 4.64 0.59 1.54 0.077 3.06 0.0367 4.56-0.117 1.5-0.154 2.98-0.422 4.42-0.797 1.44-0.375 2.84-0.858 4.2-1.45s2.67-1.28 3.93-2.07c1.26-0.79 2.45-1.68 3.58-2.66 1.13-0.983 2.19-2.06 3.17-3.22 0.982-1.17 1.88-2.42 2.7-3.76 0.854-1.42 1.6-2.97 2.23-4.61 0.628-1.63 1.14-3.34 1.51-5.06 0.374-1.72 0.614-3.46 0.707-5.14 0.0927-1.68 0.0375-3.32-0.18-4.84-0.163-1.13-0.363-2.17-0.709-3.39s-0.838-2.61-1.59-4.46c-1.5-3.68-4.02-9.15-8.43-18.6-5.69-12.1-13.1-27.3-19.5-40.1-6.42-12.8-11.8-23.2-13.4-25.6-1.38-2.1-3.12-4.1-4.98-5.79-0.932-0.845-1.9-1.61-2.86-2.28-0.967-0.662-1.94-1.22-2.88-1.64-1.6-0.725-3.11-1.22-4.73-1.51-1.21-0.221-2.48-0.331-3.9-0.344zm-0.549 8.84c0.331-6.76e-4 0.663 0.0115 0.996 0.0352 1.31 0.0908 2.54 0.32 3.7 0.695 1.16 0.375 2.24 0.895 3.26 1.56 1.02 0.67 1.98 1.49 2.88 2.46s1.75 2.11 2.55 3.4c0.967 1.56 6.36 12.1 12.3 24.1s12.6 25.4 15.9 32.5c6.72 14.2 10.9 23.3 11.9 26.1 0.505 1.36 0.884 2.73 1.14 4.09s0.402 2.7 0.426 4.02-0.0679 2.62-0.271 3.89c-0.204 1.27-0.519 2.5-0.941 3.69-0.423 1.19-0.953 2.33-1.59 3.41-0.633 1.08-1.37 2.11-2.21 3.06-0.835 0.956-1.77 1.84-2.8 2.65-1.03 0.806-2.15 1.53-3.37 2.16-1.52 0.79-2.93 1.34-4.45 1.69s-3.13 0.504-5.04 0.504c-1.69 5.1e-4 -3.36-0.171-5.01-0.523-1.66-0.352-3.31-0.884-4.98-1.61-1.67-0.722-3.35-1.63-5.06-2.74-1.72-1.11-3.46-2.42-5.27-3.93-1.78-1.49-3.88-3.49-5.51-5.17-1.63-1.68-2.78-3.04-2.65-3.25 0.117-0.19 1.13-1.51 2.24-2.94 1.79-2.29 3.48-4.69 5.03-7.11 1.55-2.42 2.95-4.88 4.19-7.31s2.31-4.84 3.17-7.16c0.866-2.32 1.53-4.55 1.97-6.64 0.314-1.5 0.52-3.58 0.596-5.63 0.0756-2.04 0.0182-4.05-0.193-5.37-0.181-1.13-0.435-2.22-0.766-3.27s-0.738-2.05-1.22-3.02c-0.966-1.94-2.24-3.74-3.83-5.42-1.12-1.18-2.33-2.22-3.62-3.12-1.29-0.894-2.65-1.64-4.09-2.24s-2.96-1.06-4.54-1.36-3.25-0.457-4.98-0.457c-1.38 0-2.73 0.104-4.04 0.307s-2.58 0.504-3.8 0.898-2.39 0.881-3.5 1.46-2.17 1.24-3.16 1.98c-0.992 0.741-1.92 1.56-2.77 2.46-0.854 0.897-1.63 1.87-2.33 2.91-0.7 1.04-1.32 2.15-1.85 3.32s-0.972 2.41-1.32 3.71c-0.417 1.57-0.628 3.83-0.631 6.15-0.00283 2.32 0.202 4.69 0.615 6.47 0.55 2.35 1.24 4.66 2.09 6.97 0.848 2.31 1.85 4.61 3.03 6.94 1.18 2.33 2.53 4.69 4.08 7.11 1.55 2.42 3.28 4.91 5.23 7.5 1.22 1.62 2.23 3.13 2.23 3.34 0 0.247-1.45 1.83-3.24 3.62s-3.9 3.78-5.22 4.84c-2.3 1.87-4.79 3.54-7.21 4.88-2.42 1.34-4.78 2.33-6.84 2.86-1.39 0.361-3.2 0.589-4.99 0.664-1.79 0.0751-3.55-0.00263-4.83-0.252l0.0527-0.0527c-1.29-0.252-2.53-0.613-3.71-1.07-1.18-0.459-2.3-1.02-3.35-1.66-1.05-0.645-2.03-1.38-2.94-2.19-0.904-0.809-1.73-1.69-2.47-2.65s-1.39-1.97-1.95-3.04c-0.56-1.07-1.03-2.2-1.39-3.38-0.363-1.17-0.624-2.4-0.773-3.65s-0.19-2.54-0.109-3.86c0.0737-1.18 0.172-2.17 0.41-3.29 0.238-1.11 0.615-2.34 1.25-3.98 1.27-3.29 3.57-8.26 7.82-17.3 5.84-12.4 13.2-27.6 19.6-40.4 6.39-12.8 11.8-23.2 13.5-26 0.778-1.22 1.68-2.3 2.68-3.24 1-0.938 2.1-1.73 3.27-2.35 1.17-0.626 2.41-1.09 3.68-1.37 0.958-0.211 1.94-0.322 2.93-0.324zm-0.137 50.2c1.14-0.00142 2.24 0.102 3.28 0.303 1.04 0.2 2.02 0.496 2.94 0.883 0.921 0.386 1.78 0.863 2.57 1.42s1.51 1.19 2.15 1.9c0.642 0.711 1.21 1.5 1.69 2.35s0.881 1.76 1.19 2.74 0.523 2 0.641 3.08 0.138 2.21 0.0527 3.38c-0.136 1.8-0.466 3.67-0.998 5.61-0.533 1.94-1.27 3.96-2.21 6.08-0.946 2.12-2.1 4.33-3.48 6.65-1.38 2.32-2.97 4.75-4.79 7.31-1.39 1.96-2.11 2.96-2.57 3.38-0.233 0.208-0.403 0.269-0.559 0.23-0.156-0.0383-0.298-0.175-0.479-0.365l-0.0137 0.00391c-1.19-1.28-5.18-7.06-7.18-10.4-1.99-3.34-3.55-6.53-4.66-9.52-0.556-1.5-1-2.95-1.34-4.35-0.334-1.4-0.558-2.75-0.67-4.04-0.112-1.29-0.113-2.53-0.00196-3.7 0.111-1.18 0.334-2.29 0.668-3.35 0.334-1.05 0.781-2.04 1.34-2.97 0.559-0.923 1.23-1.78 2.01-2.56 0.662-0.664 1.38-1.25 2.16-1.75s1.6-0.926 2.48-1.27c0.876-0.339 1.8-0.596 2.77-0.768 0.967-0.171 1.98-0.258 3.03-0.258z" opacity=".997" style="paint-order:markers fill stroke"/>
 </g>
</svg>
