<?xml-stylesheet type="text/css" href="../css/app.css"?>
<svg version="1.1" viewBox="0 0 38.748062 23.474371" xmlns="http://www.w3.org/2000/svg">
 <g transform="translate(-.0909 -273)">
  <g transform="translate(-35.9 195)" fill="none">
   <g transform="translate(77.8 3.8)">
    <path class="beeBody" d="m-11.7 84.8c-0.377-0.554 0.222-1.37 0.62-1.91 0.338-0.458 0.898-0.706 1.4-0.982 0.425-0.236 0.881-0.417 1.34-0.568 0.639-0.209 1.96-0.465 1.96-0.465s-0.21 1.64-0.62 2.33c-0.218 0.366-0.6 0.608-0.93 0.879-0.392 0.321-0.753 0.74-1.24 0.878-0.813 0.232-2.06 0.544-2.53-0.155z"/>
    <path class="outlineFillColor" d="m-12 76.7c-0.536 0.254-0.721 0.862-0.431 1.53 0.355 0.814 1.41 1.94 2.34 2.49 1.36 0.811 2.16 0.807 2.3-0.0119 0.134-0.785-0.901-2.08-2.15-2.68-0.435-0.21-0.384-0.148 0.33 0.407 1.42 1.11 2.05 2.27 1.43 2.65-0.374 0.233-1.57-0.274-2.54-1.08-0.839-0.696-1.59-1.88-1.54-2.43 0.0698-0.87 1.2-1 2.69-0.312 1.38 0.633 2.08 1.38 2.58 2.71 0.328 0.884 0.358 1.14 0.226 1.95-0.0838 0.511-0.243 1.13-0.353 1.38l-0.2 0.453-0.345-0.21c-0.198-0.121-0.461-0.475-0.617-0.833-0.235-0.538-0.235-0.648-0.0024-0.817 0.148-0.107-0.32 0.0773-1.04 0.411-1.5 0.694-2.11 1.26-2.5 2.29-0.423 1.12-0.194 1.42 1.15 1.47 0.34 0.0139 0.804-0.138 1.58-0.516 0.927-0.45 1.2-0.657 1.73-1.3 1.25-1.53 1.42-3.34 0.477-5.06-0.563-1.02-1.23-1.62-2.4-2.15-1.04-0.471-1.76-0.595-2.48-0.428-0.0905 0.0209-0.174 0.0498-0.25 0.0861zm7.29 1.35c-0.0832 0.0369-0.161 0.113-0.194 0.196-0.0554 0.141 0.0038 0.136 0.199-0.0176 0.158-0.125 0.192-0.211 0.0783-0.201-0.0272 0.0026-0.0551 0.011-0.0829 0.0232zm0.557-0.201c-0.0501 0.0209-0.0637 0.0848-0.0284 0.166 0.0471 0.108-0.0064 0.269-0.119 0.358l-3.54e-4 -8.11e-4c-0.173 0.136-0.17 0.15 0.0173 0.0836 0.287-0.102 0.437-0.577 0.192-0.612-0.0245-0.0042-0.045-0.0012-0.0618 0.0058zm-0.917 0.653c-0.0096-0.0032-0.046 0.0594-0.115 0.187-0.0837 0.155-0.142 0.305-0.13 0.332 0.0474 0.109 0.125-0.0082 0.201-0.304 0.0365-0.141 0.0538-0.212 0.044-0.216zm-0.17 0.861c-0.219 0.0954-0.797 1.25-0.718 1.43l-8.08e-4 3.52e-4c0.134 0.307 0.908-0.455 1.02-1 0.0598-0.301-0.0915-0.519-0.298-0.429zm1.44-0.45c-0.0466 0.0185-0.0954 0.049-0.135 0.0894-0.087 0.0882-0.042 0.106 0.115 0.045 0.142-0.0545 0.206-0.12 0.143-0.145-0.0317-0.0127-0.0762-0.0076-0.123 0.0104zm0.436-0.19c-0.0547 0.0235-0.095 0.0544-0.108 0.0873-0.0257 0.065 0.0228 0.0879 0.108 0.0509 0.0848-0.037 0.183-0.0021 0.218 0.0783 0.0354 0.0811-0.0404 0.151-0.168 0.157-0.127 0.0058-0.206 0.0684-0.175 0.139 0.0858 0.197 0.41 2e-3 0.497-0.298 0.0627-0.217 0.029-0.266-0.178-0.257-0.0702 0.0032-0.139 0.0199-0.194 0.0434zm-5.55 3.51c0.228-0.099 0.262-0.052 0.263 0.139 0.0024 0.705 0.237 1.14 0.745 1.4l0.506 0.251-0.626 0.538c-0.344 0.296-0.794 0.611-0.997 0.7-0.949 0.414-2.25-1.12-1.61-1.91 0.494-0.608 0.641-0.59 0.744 0.0918 0.0776 0.512 0.16 0.654 0.564 0.973 0.3 0.237 0.592 0.341 0.8 0.283l0.328-0.0911-0.39-0.153c-0.476-0.187-0.763-0.543-1-1.25-0.18-0.526-0.174-0.539 0.378-0.829 0.125-0.0657 0.223-0.114 0.299-0.147zm1.42-0.612c-0.0466 0.0185-0.0954 0.049-0.135 0.0894-0.087 0.0883-0.042 0.106 0.115 0.045 0.142-0.0545 0.206-0.12 0.143-0.145-0.0317-0.0127-0.0762-0.0076-0.123 0.0104zm-3.61 2.1 0.0658 0.443c0.11 0.741 0.399 1.2 0.83 1.32 0.498 0.138 0.232 0.271-0.477 0.238-0.866-0.0406-1.06-0.512-0.628-1.52z"/>
   </g>
   <path class="dashed outlineStrokeColor" d="m36.9 102c-0.697-1.29-1-2.8-0.867-4.26 0.136-1.46 0.713-2.88 1.64-4.03 1.24-1.53 3.14-2.56 5.11-2.58 0.985-0.0104 1.97 0.225 2.84 0.698 0.864 0.473 1.6 1.18 2.08 2.04 0.259 0.462 0.446 0.967 0.519 1.49 0.0735 0.524 0.0314 1.07-0.151 1.57-0.182 0.497-0.507 0.946-0.94 1.25-0.433 0.304-0.976 0.457-1.5 0.396-0.375-0.0434-0.736-0.194-1.04-0.423-0.3-0.229-0.54-0.536-0.697-0.88-0.234-0.51-0.284-1.1-0.18-1.65 0.104-0.552 0.357-1.07 0.696-1.52 0.679-0.894 1.68-1.49 2.69-1.98 2.66-1.28 5.56-1.96 8.3-3.04 1.66-0.659 3.31-1.5 4.49-2.84 0.592-0.67 1.06-1.46 1.3-2.32 0.242-0.861 0.252-1.79-0.03-2.64-0.282-0.85-0.857-1.6-1.61-2.09-0.748-0.493-1.66-0.727-2.56-0.652"/>
  </g>
 </g>
</svg>
