<?xml-stylesheet type="text/css" href="../css/app.css"?>
<svg class="svg-content" version="1.1" viewBox="0 0 30.9 30.0" xmlns="http://www.w3.org/2000/svg">
 <g fill="none">
  <path class="booking" d="M27.4 23a3.5 3.5 0 0 0-2.3.9c-.4.3-.6.6-.8 1a3.2 3.2 0 0 0-.4 2 4 4 0 0 0 .7 1.8 3.4 3.4 0 0 0 1.6 1.1 3.6 3.6 0 0 0 3.5-.6 3.4 3.4 0 0 0 1-1.7 3.7 3.7 0 0 0 0-2.4 3.4 3.4 0 0 0-.8-1.1 3.6 3.6 0 0 0-2.5-1zM7.2 0a82.8 82.8 0 0 0-5 .2c-.3 0-.4 0-.5.2-.4.2-.8.5-1 .8L.2 2.3 0 7a977 977 0 0 0 0 22.7 91 91 0 0 0 15.6-.8 9.6 9.6 0 0 0 2.9-2 8.4 8.4 0 0 0 1.8-2.7 8 8 0 0 0 .5-3.3 9.7 9.7 0 0 0-.7-3.1 6.7 6.7 0 0 0-2.5-3l-.9-.7c0-.1.4-.6.9-1a8.6 8.6 0 0 0 1.9-3.4V7.8 6L19.2 5l-.5-1a8 8 0 0 0-2.8-2.6 8.9 8.9 0 0 0-2.4-1A90.8 90.8 0 0 0 7.2 0zm2 5h2c.4 0 .7.2 1 .4l.7.5.5.7.3.9v1.1l-.1 1.2-.5.8a4 4 0 0 1-.6.7 2 2 0 0 1-.7.4l-1.2.2a31.4 31.4 0 0 1-4.7-.2 27 27 0 0 1 .2-6l.3-.3.3-.3.4-.1h2zM6.9 16.5h4.9l1 .4a3.4 3.4 0 0 1 1.5 1.5 4.3 4.3 0 0 1 .6 2 4.7 4.7 0 0 1-.4 2.1 3.6 3.6 0 0 1-1.4 1.5 2.7 2.7 0 0 1-1.1.4 32.5 32.5 0 0 1-6 0c-.1-.2-.2-1.8-.1-3.6v-3.3l.5-.5z"/>
 </g>
</svg>
