<?xml-stylesheet type="text/css" href="../css/app.css"?>
<svg class="svg-content" version="1.1" viewBox="0 0 30.938753 30.021194" xmlns="http://www.w3.org/2000/svg">
 <g transform="translate(-8.07 -67.5)" fill="none">
  <path class="booking" d="m35.5 90.5c-0.409-0.0048-0.824 0.0616-1.23 0.207-0.401 0.146-0.789 0.37-1.15 0.683-0.318 0.28-0.576 0.587-0.771 0.915-0.195 0.328-0.327 0.677-0.396 1.04-0.0686 0.362-0.0734 0.738-0.0129 1.12 0.0604 0.381 0.186 0.768 0.378 1.15 0.102 0.204 0.222 0.394 0.358 0.569 0.136 0.175 0.287 0.334 0.452 0.478 0.329 0.287 0.708 0.51 1.12 0.659 0.407 0.15 0.842 0.226 1.28 0.221 0.439-0.0053 0.883-0.0924 1.31-0.27 0.332-0.139 0.633-0.322 0.898-0.542 0.265-0.22 0.493-0.476 0.68-0.761 0.187-0.285 0.332-0.598 0.431-0.932 0.0986-0.334 0.15-0.689 0.15-1.06 0-0.258-0.0265-0.506-0.0765-0.742-0.05-0.236-0.123-0.46-0.217-0.671-0.0937-0.211-0.208-0.409-0.339-0.592-0.131-0.183-0.279-0.351-0.442-0.504-0.325-0.305-0.706-0.546-1.12-0.713-0.413-0.166-0.857-0.257-1.31-0.263z"/>
  <path class="booking" d="m15.3 67.5c-2.4 4.24e-4 -3.64 3e-3 -4.35 0.0527-0.357 0.0249-0.582 0.0617-0.758 0.116-0.175 0.054-0.3 0.125-0.454 0.22-0.406 0.248-0.722 0.518-0.966 0.834-0.244 0.316-0.417 0.678-0.537 1.11-0.0525 0.189-0.0969 1.97-0.13 4.54-0.0333 2.57-0.0556 5.93-0.0651 9.27-0.0095 3.34-6e-3 6.67 0.0129 9.17 0.0189 2.5 0.0531 4.18 0.105 4.24 0.0633 0.0632 2.92 0.114 6.34 0.113 2.49-1e-3 4.1-0.0148 5.2-0.0548s1.69-0.106 2.14-0.211c0.643-0.152 1.25-0.352 1.82-0.595 0.567-0.244 1.1-0.531 1.58-0.856 0.485-0.326 0.927-0.69 1.32-1.09 0.396-0.398 0.746-0.83 1.05-1.29 0.301-0.461 0.552-0.95 0.751-1.46 0.199-0.513 0.345-1.05 0.436-1.61 0.0909-0.556 0.126-1.13 0.103-1.72-0.0235-0.589-0.106-1.19-0.25-1.81-0.109-0.463-0.253-0.899-0.431-1.31s-0.392-0.793-0.639-1.15c-0.247-0.356-0.528-0.684-0.843-0.985-0.315-0.301-0.664-0.573-1.05-0.818-0.0125-8e-3 -0.0228-0.0158-0.0351-0.0238h0.105l-0.0072-0.0057-0.105 5.19e-4c-0.481-0.312-0.869-0.627-0.869-0.711 0-0.0864 0.39-0.564 0.868-1.06 0.239-0.249 0.518-0.602 0.776-0.97 0.258-0.369 0.495-0.753 0.648-1.06 0.265-0.537 0.403-0.843 0.475-1.25 0.0723-0.408 0.0784-0.919 0.077-1.87-9.74e-4 -0.621-0.0239-1.15-0.0791-1.62-0.0552-0.468-0.143-0.875-0.273-1.25-0.13-0.375-0.304-0.72-0.53-1.06-0.226-0.343-0.505-0.684-0.848-1.05-0.275-0.297-0.569-0.569-0.882-0.817-0.313-0.248-0.647-0.472-1-0.673-0.357-0.202-0.736-0.38-1.14-0.538s-0.836-0.295-1.29-0.412c-0.587-0.15-1.07-0.235-1.94-0.283-0.876-0.0475-2.15-0.0578-4.32-0.0574zm1.93 4.92c1.06 0 1.64 0.0082 2.05 0.0662 0.408 0.0579 0.641 0.165 0.995 0.365 0.29 0.164 0.536 0.347 0.741 0.556 0.204 0.209 0.367 0.442 0.49 0.706 0.123 0.264 0.208 0.557 0.255 0.886 0.0471 0.329 0.0574 0.693 0.0331 1.1-0.0314 0.521-0.0721 0.867-0.157 1.16-0.0844 0.288-0.213 0.52-0.419 0.811-0.214 0.302-0.403 0.538-0.614 0.72-0.211 0.183-0.445 0.313-0.749 0.405-0.304 0.0924-0.68 0.147-1.17 0.179-0.495 0.0315-1.11 0.0398-1.89 0.0398-1.09 0-1.78-0.0122-2.2-0.0486-0.211-0.0182-0.357-0.0421-0.454-0.0739-0.0974-0.0318-0.146-0.0714-0.165-0.12-0.0511-0.133-0.0681-1.49-0.0377-3.02 0.0276-1.39 0.0416-2.08 0.109-2.49 0.0334-0.203 0.0801-0.335 0.148-0.446 0.0682-0.111 0.158-0.201 0.278-0.32 0.119-0.118 0.209-0.207 0.314-0.274 0.104-0.067 0.222-0.112 0.396-0.142 0.348-0.0603 0.919-0.0615 2.05-0.0615zm-2.28 11.7 2.63 0.0052c1.19 0.0022 1.87 0.0125 2.32 0.0662 0.459 0.0536 0.703 0.151 1.04 0.327 0.323 0.17 0.608 0.387 0.853 0.638 0.246 0.251 0.452 0.536 0.62 0.845 0.167 0.309 0.296 0.641 0.384 0.985 0.0887 0.344 0.138 0.701 0.147 1.06 0.0094 0.357-0.0209 0.714-0.0915 1.06-0.0706 0.347-0.181 0.682-0.332 0.996-0.151 0.314-0.342 0.605-0.575 0.863-0.232 0.258-0.505 0.483-0.819 0.662-0.178 0.102-0.324 0.18-0.489 0.24-0.166 0.0605-0.351 0.103-0.607 0.135-0.513 0.0639-1.31 0.0836-2.8 0.111-1.32 0.0238-2.11 0.0278-2.58-5.16e-4 -0.236-0.0142-0.391-0.0363-0.493-0.0682-0.102-0.032-0.15-0.0738-0.17-0.127-0.0532-0.139-0.0725-1.73-0.0429-3.55l0.0537-3.29 0.479-0.478z"/>
 </g>
</svg>
