<?xml-stylesheet type="text/css" href="../css/app.css"?>
<svg version="1.1" viewBox="0 0 88.6 46.8" xmlns="http://www.w3.org/2000/svg">
 <g fill="none"><path class="flowerBackPetals" d="M64 6.3c-.1-.8.4-2.5.4-2.5s1.8.5 2.5 1c1.6 1 4 3.8 4 3.8s-.5-3.5 0-5.1c.3-1 1.6-2.5 1.6-2.5s1.3 1 1.7 1.7c.4.5.3 1.2.6 1.8l1.4 3s1.8-3 3.3-4C80.2 3.2 81 3 82 3h1.4s-.4 1.7-.8 2.5c-.2.6-.6 1.2-1 1.8l-1.3 3h4.4l3.6.9s-1.1 1.2-1.8 1.7c-.4.4-1 .6-1.5 1l-3.2 1.8s2.7.7 3.9 1.5c1 .7 2.3 2.7 2.3 2.7l-2.3.4c-.5.1-1 .3-1.6.3l-4.3-.2s1.8 2 2 3.2c.4 1.2-.2 3.7-.2 3.7s-2-.6-3-1.1c-1-.8-2.7-2.9-2.7-2.9s0 2.9-.6 4.2c-.4 1-2 2.7-2 2.7s-1.6-2.1-2-3.4c-.5-1.4-.5-4.3-.5-4.3s-2 2.9-3.4 4l-2 1h-1.8l1-3.6 1.7-3.5s-3.3 1.1-5 .7c-1.1-.2-3-2-3-2l3-1.7 4.7-2.2s-2.7-1.3-4-2.3c-.8-.7-2.2-2.4-2.2-2.4s2.1-.6 3.2-.5c1.5.1 4.6 1.3 4.6 1.3s-3-3-3.5-5z"/>
  <path class="flowerFrontPetals" d="M76.4 28.2c-2-2-2.5-3.1-2.5-4.8 0-.6-.1-.8-.3-.8-.2 0-.3.2-.3 1 0 1 0 1-.8 2-.4.5-1.6 1.4-2.6 2.1l-2.2 1.6-.4.4.1-1.3c.3-2.9 1.2-6.4 1.8-6.9.2-.2.3-.7.1-.7l-1 .8c-1 1-2 1.6-3.6 2.1-1.3.5-5.3 1.3-5.5 1.1l.4-.7c1.9-2.7 3.9-4.5 6.3-5.6.8-.3 1.4-.7 1.4-.8 0-.3-.3-.3-1.2.1-1 .5-2.3.5-3.5 0a32 32 0 0 1-4.6-2.7c0-.2 2-1.2 3.2-1.5l2.7-.2a5 5 0 0 1 2.8.5c1 .5 1.1.5 1.1.2 0-.2-.1-.4-.5-.4-.3 0-1-.4-1.5-.8a9.7 9.7 0 0 1-3.7-5c-.7-1.8-.7-1.8.8-1.3 3.2 1 5.2 2.4 5.9 4 .5 1 .9.8.4-.3 0-.3-.5-.9-.9-1.4-.3-.4-.7-1-.8-1.4V2l1.8 1.2L71.7 5c.7.6 1.4 2.2 1.5 3.5.2 1.4.6 1.3.6 0s.4-2.3 1.4-3.9c.8-1.3 3-3.6 3.3-3.4.2.2.5 2.5.5 3.8 0 1.8-.6 3.8-1.5 4.7-.3.3-.4.7-.2.7.3 0 .8-.7 1.4-1.5.3-.6.6-.8 1.2-1 .7-.2 5.7-.3 6 0 0 0-.7 1.4-1.7 2.8-1 1.3-2 2.2-2.9 2.2-.8 0-1.6.3-1.6.7 0 .3 0 .3.5 0 .6-.3 2-.2 3.8.3a20 20 0 0 1 4.6 1.8c-.1.2-3.8 1.7-5 2-.6.3-1.3.3-2.3.2h-1.5c0 .3.5.4 1.6.6.9 0 1 .1 1.6 1 1 1.3 2.9 5.2 2.5 5.2-.4 0-4-1.2-4.9-1.6L78.7 22l-1-.7.4 1c.4.8.4 1 .4 3.7l-.2 3.5-.1.6z"/>
  <path class="flowerCenterOutside" d="M72.4 21.5H72c-.2 0-.4 0-.5-.2H71c-.3 0-.4 0-.5-.4-.2-.3-.2-.4-.5-.3-.4 0-.4 0-.3-.3 0-.4 0-.4-.3-.4s-.3 0-.3-.3c0-.4 0-.5-.3-.5-.5 0-.6-.2-.4-.4.2-.2.1-.3-.2-.3-.4 0-.6-.3-.3-.5.2-.2.1-.5-.1-.5-.4-.1-.4-.7 0-.8l.2-.1-.3-.3c-.2-.2-.2-.3 0-.5v-.6c-.2-.3-.2-.5 0-.6v-.6c0-.4 0-.5.2-.6.2 0 .2-.1.2-.4-.1-.4 0-.9.3-.9.2 0 .3-.2.4-.4.1-.3.3-.5.4-.5h.2l.4-.3.6-.3c.2 0 .4-.1.5-.3l.6-.3c.1 0 .4 0 .5-.2.2-.2.3-.2.6 0l.7-.1h1.1c.3 0 .5 0 .7.2.1.1.3.2.5.1.3 0 .5 0 .6.2 0 .2.3.3.5.3.3 0 .4.2.4.4s.2.3.5.3c.4 0 .4.1.3.4 0 .3 0 .4.3.4.2 0 .2.2.3.5 0 .3 0 .5.2.5l.3.3c.1.2.1.3 0 .4-.3.1-.3.2 0 .4.4.2.5.5.2.7l.1.4c.2.3.2.3 0 .6-.2.2-.3.3-.2.4.3.1.1.5-.2.8-.3.2-.3.2 0 .3.3 0 .3.3 0 .7-.3.2-.4.5-.5.7 0 .2-.2.5-.3.5l-.3.4-.4.4c-.3 0-.4.2-.4.3 0 .4-.2.6-.6.6-.3 0-.4 0-.6.3-.1.2-.3.3-.5.3l-.5.1c-.2.2-.2.2-.4 0H74c-.2.1-1.5.1-1.6 0z"/>
  <path class="flowerCenterInside" d="M73 19l-.2-.3-.1-.2-.2.2v.1c-.2.2-.4.1-.6 0v-.3-.2h-.2l-.5.2h-.1c-.2-.2-.2-.4-.1-.6v-.2H70v-.4c.1-.2.1-.3 0-.4l-.2-.2-.2-.2v-.3c0-.2.3-.4.4-.4.2 0 .1 0 0-.3-.4-.2-.5-.3-.4-.5 0-.1.1-.3.3-.3h.2c.3 0 .3-.2 0-.3l-.1-.2c-.2-.1-.1-.5 0-.6h.5c.3 0 .3 0 .2-.3v-.6l.3-.2.5.2.2.1.1-.3c0-.2.1-.2.2-.3.3-.1.6 0 .7.3l.2.2v-.2c0-.2.1-.3.3-.4h.4c.3.1.4.3.5.7v.2c.1 0 .2 0 .3-.2.2-.2.4-.2.6-.1l.3.3-.2.4-.1.2H76c.2.2.2.4.1.5 0 .2-.1.2-.3.3l-.2.2h.3c.4.1.6.3.6.5v.2l-.7.2-.4.1.2.2c.4.1.6.2.6.4l-.1.6-.5.1h-.4l.2.2.4.4c0 .1 0 .3-.2.4-.2.2-.3.2-.7.2h-.3v.1c.1.2 0 .4-.1.5H74c-.2 0-.3 0-.3.2l-.4.2h-.2z"/>
  <path class="outlineFillColor" d="M66 30.1s.2 0 .3-.2a71.2 71.2 0 0 0 4-2.7v.3l.6 1 .8 1.2c.4.6.4.6.6.6.3-.2 1.6-1.8 2-2.5a24.2 24.2 0 0 1 3.1 3l.2-.8a503.7 503.7 0 0 1 .4-3.5l2 .9h.5l.1-1 .2-1.8v-.7l.4.2 2.2.6 1.8.5-.3-.6a54.8 54.8 0 0 1-1.3-3.4l-.3-.5h.9c.9 0 2.2-.3 2.6-.5l.3-.1-.8-1-1.2-1.3-.4-.4 1.6-.7 1.8-.8c.4-.2.4-.3-.2-.7l-3-1.4-.4-.1.6-.4c.6-.3 1.2-.9 1.8-1.7.2-.4.3-.4.1-.5l-2.2-.7-1-.1.5-.7 1-2c0-.1-.2-.2-1.2-.3a23 23 0 0 0-3.2-.1s0-.2.2-.3c.3-.5.6-1.2.8-2 .3-.8.5-2 .4-2-1 0-3.3.2-3.8.5h-.3a51.2 51.2 0 0 1-.6-3 17 17 0 0 0-3 2.6l-.4.5-.3.5v.2h-.2c0-.4-.2-1.1-.5-1.6l-.3-.4V2l-.3-.2v.1l-.4-.4-.7-.3.5.5c1.5 1.5 1.8 2.4 1.2 3.5a9 9 0 0 0-.8 1.7v.4l-.2-.4c-.3-1.1-1-2-2-2.9-.2-.2-.2-.2-.1-.6a8 8 0 0 1 1.2-2.3h-.1l-.4.5a6 6 0 0 0-1 2 40.7 40.7 0 0 1-3.6-2.4l-.1.3v2.3l-.1 1h-.2L63.6 4h-.2l-.2 1.2-.1 1.2a43.6 43.6 0 0 1-3-.8c-.2 0-.2.1 0 .4l.3.9a10 10 0 0 0 1.1 3h-.2c-.5 0-2.4.4-2.5.7-.1.1.4 1 1.1 1.6l.7.8-.6.1c-1 .2-2.4.9-3.5 1.6l-.3.3.2.1a18.8 18.8 0 0 0 3.7 2.4l-.5.1a7 7 0 0 0-2 1.3l-.6.4.2.3a9.1 9.1 0 0 0 2.8 1.7l-.3.4-2.3 3.4a30.4 30.4 0 0 0 5-.6l.8-.2-.3.8-.3 1.7-.1.8h.4A6.4 6.4 0 0 0 66 27a29.5 29.5 0 0 1 0 3.3zm.2-.3a30.2 30.2 0 0 1 1.1-7.1c.2-.5.3-.8.6-1l.4-.7.2-.3.1.2c.1.3.5.5.7.3l.1.1c0 .4.5.7.8.6h.4l.5.3a28.1 28.1 0 0 1 1.1 0c.2 0 .2 0 .2.6v1.5l-.3.5c-.7 1-1.8 2-4 3.5a16.9 16.9 0 0 0-2 1.5zm6 .3l-.2-.5-.8-1.1-.7-1.1-.1-.4.5-.4a9 9 0 0 0 1.4-1.7c0-.2.2-.1.3.2.1.5.6 1.3 1 1.9l.5.6c0 .3-1.7 2.5-1.9 2.5zm5 0h-.1l-1.2-1.2c-2-1.9-2.6-2.8-3-4-.4-1.2-.4-2.6 0-2.6H74.1c0-.2.3-.2.4-.2.2 0 .7-.3.8-.6h.3c.2 0 .3 0 .5-.2l.4-.2.7 1.4c.2.6.3 1.5.3 2.7l-.4 5zm-14.4-2.6c-.1 0 .1-1.6.3-2 .3-1.3.4-1.3 1-1.5a13.8 13.8 0 0 0 3.1-1.7l-.1.5-.9 3.4c0 .4 0 .5-.4.7-.7.3-1.4.4-2.2.6h-.8zm-5-2.6l2.7-3.5c1.4-1.4 3.3-2.8 5.1-3.5.7-.2 1-.3 1-.1v.1c.2 0 .2.1.1.3-.1.2 0 .7.4.8.2 0 .2.1.2.3 0 .3.2.6.5.5l.1.2.1.4c.2.3.2.3 0 .6a10 10 0 0 1-2.7 2.1 48.3 48.3 0 0 1-7.4 1.8zm22.5 2.4H80c-.4-.2-1.5-.7-1.8-1l-.3-.1v-1a9 9 0 0 0-.2-2.7l.8.4 1.4.7.7.3v.3l-.1 1.7zm4.4-2.5l-2-.6-4-1.4c-1-.6-1.1-.8-1.7-1.5-.5-.6-.5-.7-.3-.7.4-.2.6-.4.6-.6l.2-.2c.2-.1.5-.6.5-.9 0-.1 0-.3.2-.4.2 0 .3-.2.4-.3 0-.2.1-.3.3-.2.3.2 1.8.4 2 .3.5 0 2.1 2.2 2.9 4.1l.9 2.4zm-24.6-3.7H60a5 5 0 0 1-.7-.4 12 12 0 0 1-2-1.3 10.2 10.2 0 0 1 2.7-1.6l.6-.2.5.3a6.3 6.3 0 0 0 2.4.7l-.8.6c-.9.6-1.5 1-2 1.6-.2.2-.3.3-.5.3zM72 22c-.1 0-.2 0-.3-.2-.1-.1-.2-.1-.4 0h-.4a1 1 0 0 1-.3-.3c0-.1-.1-.1-.2 0-.1.2-.2.2-.4.1-.2 0-.2-.2-.3-.6 0-.2 0-.2-.3 0-.4 0-.6 0-.4-.5 0-.3 0-.4-.3-.2l-.3-.1c-.2-.2-.2-.4 0-.5v-.2c0-.1 0-.1-.2 0s-.5 0-.6-.2l.1-.4.2-.2h-.5c-.2 0-.4-.3-.4-.4l.1-.2.2-.3-.2-.1c-.2 0-.2 0-.3-.3-.1-.3 0-.5.3-.6h.2l-.2-.3c-.3-.2-.4-.5-.2-.6.2-.2.2-.2 0-.4-.2-.3-.2-.7 0-.9.2-.2.2-.2.1-.4-.2-.3 0-.7.2-.7.3 0 .3 0 .2-.3v-.5c0-.3 0-.3.4-.5.3 0 .3-.1.3-.3 0-.4.4-.7.7-.6h.2c0-.3.5-.6.8-.6.2 0 .3 0 .4-.2.3-.4.5-.5.8-.4h.2c0-.4.8-.5 1-.2h.4c.3-.3.6-.3.7 0h.2v-.1c.3-.3 1 0 1.1.3 0 .2 0 .2.3 0 .3-.1.6 0 .7.3l.2.2.6.1s.1.2 0 .4c0 .2 0 .2.4.2l.5.1c.2.2.1.5 0 .6l.2.1c.3 0 .5.4.4.7v.3c.5 0 .8.8.4.8-.2.1-.1.2.1.3.2 0 .3.2.4.4l-.1.4c-.3.2-.3.2-.1.3.2 0 .3.3.2.5l-.2.3c-.2 0-.2 0 0 .3v.3c0 .3-.2.5-.4.5l-.1.1h.1c.2 0 .3.3.3.5l-.3.4c-.3.2-.3.3-.4.7 0 .4-.2.7-.4.6-.1 0-.2 0-.2.2 0 .3-.2.5-.5.5s-.3 0-.3.4-.2.5-.7.5l-.3.1-.3.4c-.2.1-.4.2-.5.1l-.4.1c-.1.2-.4.2-.6 0h-.3c-.2.2-.6.2-1 0h-.1c0 .2-.1.2-.2.2zm1-2.3l.6-.1.3-.2c.3 0 .7-.1.8-.3V19h.3l.5-.2c.2-.1.3-.2.3-.6l.1-.5s.2 0 .3-.2c.2-.3.2-.6 0-1-.1-.1-.1-.2 0-.2.4 0 .6-.6.2-1a1 1 0 0 0-.3-.3v-.2c.2-.4 0-.7-.3-.9-.2 0-.3-.1-.3-.3 0-.4-.6-.8-1.1-.6l-.3-.1c0-.2-.1-.3-.2-.3a1 1 0 0 0-1-.1h-1l-.4.2c0 .2-.2.2-.4.1l-.6.1c-.3.2-.3.3-.3.6s0 .3-.2.3l-.4.2-.1.6v.5c-.2 0-.3.2-.3.3-.2.3-.2.5 0 .8.2.2.2.2 0 .3v.4c-.1.2 0 .3.1.6.2.2.3.3.3.5-.1.4.1.7.5.7.3 0 .4 0 .3.2l.2.3c.2.2.2.3.5.2l.4.1c.2.2.7.3.8.2h.3c.1.2.3.2.5.2zm0-.2c-.3 0-.3 0-.4-.3-.2-.4-.2-.4-.2-.2s0 .3-.2.3c-.2.2-.8-.2-.6-.4 0-.2 0-.2-.1 0a1 1 0 0 1-.4 0l-.4-.1v-.5c0-.2 0-.2-.1-.1l-.7-.1c-.1-.1-.1-.3 0-.4 0-.3 0-.3-.2-.5-.3-.2-.3-.3-.3-.5 0-.3.3-.5.5-.5l-.2-.2c-.4-.3-.4-.5-.2-.8.1-.2.3-.2.4-.2.3 0 .4 0 0-.2-.2-.1-.3-.5 0-.8l.4-.1c.4 0 .4 0 .3-.2a.7.7 0 0 1 0-.7c.2-.2.6-.1.8 0 .2.2.2.2.3 0 0-.3 0-.4.2-.5.4 0 .7 0 .8.3 0 .3.1.3 0 0l.2-.2c.3-.2.7-.2 1 0l.1.4.1.3.2-.2c.3-.2.6-.1.8.1.2.2.2.4 0 .6-.3.2-.2.3 0 .1.3-.1.6 0 .8.2.2.3.1.6-.3.8-.2 0-.2 0 .1.1.4 0 .7.3.7.6 0 .2-.5.4-.7.4h-.4l.2.2c.4 0 .6.3.6.6 0 .4-.2.6-.6.6H75l.3.2c.5.4 0 1-.6 1h-.3c.2.3-.2.7-.7.6h-.3c0 .2-.3.4-.5.3zm-10-1.3l-1.2-.4c-1.1-.5-5-2.7-5-2.9 0 0 1.6-1 2.3-1.2a12 12 0 0 1 3.5-.7c1.2 0 2 0 2.5.4l1 .4c.7.2 1 .5.7.7-.2.2-.3.7-.1 1v.4.6l.2.1-.2.2-.2.3-.4.2-1.2.5c-.7.3-1.2.4-1.9.4zm20.3 2.2l-.8-1.1a24.2 24.2 0 0 1-.7-1.2l1-.2 1.2-.3.5-.2.3.3 1.9 2v.3l-2.5.3zm-3.6-2.6c-.6 0-.9-.2-1.1-.4v-.3c.2-.2.3-.5 0-.7l.1-.3c.2-.1.4-.8.2-1V15c0-.2 0-.6-.2-.7-.2-.1 0-.5.3-.7l.7-.2c.4-.1 2.5 0 3.1.3a33.8 33.8 0 0 1 5.2 2l-.8.4-1.8.8-3.4 1.2h-2.3zm-13.2-4.2c-.4 0-1.7-.7-2.3-1.2a11.7 11.7 0 0 1-3.6-6.3c0-.3 0-.3 1.2.2l3 1.2c1.8.8 2.9 1.9 3.2 3.1.2.6.2.6 0 .8l-.1.3c0 .2-.2.3-.4.4a1 1 0 0 0-.4.3c-.1.2-.1.6 0 .8 0 .1-.4.5-.6.4zM61 13c-.2 0-2-2-2-2.2 0 0 .5-.3 1.2-.4h1l.5-.1.3.6c.4.6 1 1.4 1.6 1.7l.3.3h-.1a12 12 0 0 0-2.8.1zm17.6.5l-.1-.2-.3-.2-.1-.3c0-.3-.3-.7-.5-.7v-.2c0-.4-.2-.5-.6-.5-.3 0-.3 0-.4-.3 0-.2-.1-.4-.3-.5l-.2-.1.3-.2c.3-.2.8-.8 1.1-1.5.3-.5.5-.7 1-.9a15 15 0 0 1 4.3-.3c1.8 0 2.2.1 2.2.3l-1.2 2.1a8.8 8.8 0 0 1-2.5 2.7c-.4.2-.6.3-1 .3-.6 0-1.2.1-1.5.3zm5.5.2l-1.5-.4-1.3-.3.6-.5c.4-.2.9-.8 1.2-1.1l.6-.7 1 .1c1 .1 2.1.4 2.2.5l-.6.8c-.7.8-1.9 1.6-2.2 1.6zm-15.7-2.4l-.1-.4a4 4 0 0 0-1.4-2.2c-.6-.5-.8-1.5-.6-3.2V1.8c0-.3 0-.2.6.2.2.3 1 .8 1.5 1.1 1.3.8 2 1.4 2.6 2a6 6 0 0 1 1.3 3.4v1.3h-.2c-.2-.1-.8-.2-1 0l-.3.1c-.3 0-.9.4-1 .6 0 .2 0 .2-.2.1-.2 0-.3 0-.6.3l-.6.3zm7.4-1l-.2-.1c-.2-.2-.6-.3-.8-.1l-.3-.1c-.2-.2-.7-.3-1.5-.4-.3 0-.3 0-.4-.4-.1-1.1.1-2.3.7-3.4a15.5 15.5 0 0 1 3.8-4.6l.4-.4V1c.5 1.9.6 3.7.5 5-.3 2-1 3.6-1.9 4l-.3.2zm-9.6-2.3l-2.3-1.1c-.6-.2-.5-.2-.4-1.6l.1-1h.3l1 .5c1.2.3 1.1.3 1 1.2a4.7 4.7 0 0 0 .3 2zM78 7.7l.1-.2c.2-.5.4-2.1.4-3l-.1-.7.2-.2 2.4-.4h1c.3 0 .3 0 .2.2 0 .9-.9 3-1.3 3.5-.2.3-.3.3-1 .4-.7 0-1.2.2-1.9.4z"/>
  <g>
  <path class="flowerBackPetals" d="M11.9 10.1c-.3-1.2.5-3.7.5-3.7s2.6.7 3.8 1.4c2.3 1.5 6 5.8 6 5.8s-.7-5.3 0-7.8c.4-1.4 2.4-3.7 2.4-3.7s2 1.5 2.7 2.5c.5.9.4 2 .8 2.8.6 1.6 2.1 4.6 2.1 4.6s2.8-4.7 5-6c1-.7 2.5-.8 3.8-1h2.2s-.7 2.6-1.2 3.8c-.4 1-1 1.7-1.5 2.6l-2 4.6s4.4-.1 6.5.1c2 .2 5.5 1.2 5.5 1.2s-1.7 2-2.6 2.7l-2.3 1.3-5 2.8s4.2 1.1 6 2.3c1.4 1 3.5 4.1 3.5 4.1l-3.4.7c-.9.2-1.7.4-2.6.4-2.1.1-6.4-.2-6.4-.2s2.6 3 3 4.8c.5 1.8-.3 5.6-.3 5.6s-3.1-.9-4.4-1.8c-1.7-1-4.3-4.2-4.3-4.2s0 4.3-.8 6.2c-.6 1.6-3 4.2-3 4.2s-2.5-3.3-3.2-5.2c-.6-2-.6-6.4-.6-6.4s-3.1 4.3-5.2 5.8c-1 .7-2 1.3-3.1 1.5-.9.2-2.7 0-2.7 0s1-3.6 1.6-5.3c.7-1.8 2.6-5.3 2.6-5.3s-5 1.7-7.5 1.1C6 32 3 29.4 3 29.4l4.7-2.6c2.3-1.2 7-3.3 7-3.3s-4.1-2-6-3.5c-1.3-1-3.4-3.7-3.4-3.7s3.2-.8 4.8-.7c2.4.2 7 2 7 2S12.5 13 11.8 10z"/>
   <path class="flowerFrontPetals" d="M30.5 43.2c-3-3.1-3.8-4.7-3.8-7.2 0-1-.1-1.3-.4-1.3-.3 0-.4.4-.4 1.6 0 1.5 0 1.6-1.3 3-.7.7-2.4 2.2-4 3.2L17.5 45l-.7.5.2-2c.4-4.3 1.8-9.6 2.7-10.4.4-.3.5-1 .2-1l-1.4 1.1a14.5 14.5 0 0 1-5.6 3.3c-2 .7-8 1.8-8.2 1.6a23.7 23.7 0 0 1 10.1-9.5c1.1-.5 2-1 2-1.3 0-.4-.4-.4-1.8.3-1.6.7-3.5.7-5.2 0-2-.9-7-3.8-7-4.1 0-.4 3-1.8 4.8-2.3 1-.2 2.8-.4 4-.4 2.2 0 2.7 0 4.3.8 1.6.8 1.8.8 1.8.3 0-.3-.3-.5-.8-.6L14.4 20c-2.4-1.6-4.1-4-5.5-7.6-1-2.7-1-2.7 1.2-2 4.8 1.7 7.9 3.8 8.9 6 .7 1.7 1.4 1.4.7-.4l-1.4-2c-.6-.7-1.1-1.6-1.3-2.1s-.1-2.5 0-4.6l.1-3.8 2.7 1.8c1.5 1 3.1 2.3 3.6 2.7 1 1 2 3.4 2.3 5.4.3 2 .8 2 .9-.2 0-1.9.5-3.3 2.1-5.7a21 21 0 0 1 5-5.3c.2.4.7 4 .7 6 0 2.6-.9 5.6-2.1 6.9-.6.6-.7 1.1-.3 1.1.3 0 1.2-1 2-2.3.5-.9 1-1.2 1.8-1.4 1.1-.3 8.7-.4 9-.2.2.3-1 2.3-2.4 4.3-1.6 2.1-3.2 3.4-4.4 3.4-1.3 0-2.5.5-2.5 1s0 .5.8.1c1-.5 3-.3 5.7.4 2.2.5 7.1 2.5 7 2.7a54 54 0 0 1-7.5 3.2c-1 .2-2 .3-3.6.2l-2.2.1c0 .3.7.5 2.4.7 1.3.2 1.5.3 2.4 1.6C42 32 45 38 44.3 38c-.5 0-6-1.8-7.4-2.4-.9-.5-2.2-1.3-2.9-2-.7-.6-1.3-1-1.4-.9l.5 1.4c.6 1.3.6 1.5.6 5.7 0 2.5-.2 4.8-.3 5.3l-.2 1z"/>
   <path class="flowerCenterOutside" d="M24.5 33.1h-.6c-.4 0-.6 0-.8-.2-.2-.2-.4-.3-.8-.2-.5 0-.6 0-.7-.5-.2-.5-.3-.5-.8-.4-.6 0-.6 0-.5-.5.2-.6.1-.6-.4-.6-.4 0-.5 0-.4-.5 0-.6 0-.6-.5-.6-.7 0-1-.3-.6-.7.3-.3.2-.5-.3-.5s-.8-.5-.5-.8c.3-.3.3-.6-.2-.7-.5-.2-.5-1 0-1.2l.5-.1-.5-.5c-.3-.4-.3-.5-.2-.7.2-.2.2-.4 0-1-.2-.5-.2-.7 0-1 .2-.1.2-.4.2-.9-.1-.5-.1-.6.2-.7.4-.1.4-.3.3-.7-.1-.6.2-1.3.6-1.3.2 0 .4-.3.6-.7.1-.3.3-.6.5-.7h.4c.1 0 .4-.2.6-.5l.8-.4c.2 0 .6-.2.9-.5l.9-.4.7-.3c.3-.3.5-.3.9-.2.3.2.7.1 1 0 .4-.2.7-.2.8-.1 0 0 .4.1.8 0 .6 0 .8 0 1.1.3.3.3.5.4.9.3.4 0 .6 0 .8.3l.8.5c.4 0 .5.2.6.5.1.4.3.5.8.5s.6.1.5.6c-.1.5 0 .6.3.6s.4.2.5.8c0 .5.1.7.3.7l.5.4c.1.4.1.5-.1.7-.3.2-.3.2.1.5.5.4.7.8.3 1.2-.2.2-.1.3.1.6.4.4.4.4 0 .8-.3.3-.4.5-.3.6.4.2.2.9-.3 1.2-.5.3-.5.3 0 .5s.4.5-.1 1c-.3.3-.6.8-.6 1.1 0 .4-.3.8-.5.9a1 1 0 0 0-.4.5c-.1.2-.4.5-.7.6-.4 0-.6.3-.6.5 0 .5-.3.8-1 .8a1 1 0 0 0-.8.5 1 1 0 0 1-.8.5c-.3 0-.6 0-.7.2-.2.2-.4.2-.7 0-.2-.1-.4-.2-.6-.1-.3.2-2.2.2-2.3 0z"/>
   <path class="flowerCenterInside" d="M25.5 29.4c-.20-.3-.2-.4-.5l-.2-.4-.2.3-.1.3c-.2.2-.6.1-.9-.2l-.1-.3v-.3h-.2c-.2.2-.6.3-.7.3l-.3-.1c-.2-.2-.2-.5-.1-.8v-.3h-.2c-.4.1-.9 0-1-.1-.2-.2-.2-.3 0-.6v-.5l-.4-.3-.3-.3V25c0-.2.4-.5.6-.5.3 0 .2-.1-.1-.4-.5-.3-.7-.5-.6-.8 0-.2.3-.5.5-.5h.3c.5 0 .5-.2.1-.5l-.2-.2c-.3-.2-.2-.8 0-1h.8c.4 0 .5 0 .3-.5a.9.9 0 0 1 0-.7c.1-.3.2-.3.4-.3.3 0 .5 0 .8.2l.2.2c.1 0 .2-.1.2-.4.1-.3.2-.5.4-.6.4-.2.9 0 1 .4 0 .3.2.4.2.4.1 0 .2 0 .2-.3s.1-.5.4-.5h.6c.4 0 .6.3.7 1l.1.2s.2 0 .3-.2c.4-.3.6-.4 1-.2l.4.5c0 .1 0 .2-.3.5-.2.3-.3.3-.2.4h.4c.4-.3.8-.2 1 0 .3.2.4.5.2.8 0 .2-.2.3-.5.4-.2 0-.3.2-.3.2l.5.2c.6 0 1 .3 1 .7l-.2.2c-.3.2-.5.3-1 .3-.3 0-.4 0-.5.2 0 0 0 .2.3.2.5.2.8.4.9.7 0 .4 0 .7-.3 1l-.7.1H28.7l.3.3c.4.2.5.3.6.5 0 .2 0 .5-.3.7-.2.2-.4.3-1 .2h-.5v.2c.2.3.1.6-.2.7a1 1 0 0 1-.7.2l-.5.1c0 .2-.3.3-.6.3h-.3z"/>
   <path class="outlineFillColor" d="M14.8 46.2l.5-.4a107.8 107.8 0 0 0 6-4v.5l1 1.4 1.1 1.8c.6 1 .6 1 1 .9.3-.2 2.4-2.7 2.8-3.7a36.6 36.6 0 0 1 4.9 4.5l.2-1.2a762 762 0 0 1 .6-5.4c.8.5 2.6 1.3 3.1 1.4l.7.2.2-1.8.3-2.7v-.9l.6.2 3.3 1 2.7.7-.3-.9a83 83 0 0 1-2.1-5.1l-.4-.8h1.3c1.4-.1 3.3-.5 4-.8l.4-.2-1.2-1.4-1.8-2-.7-.6 2.5-1 2.7-1.3c.6-.3.6-.4-.4-1-.6-.4-1.8-1-4.5-2l-.6-.3 1-.5c.9-.6 1.7-1.4 2.6-2.6.5-.6.5-.7.3-.8a11 11 0 0 0-3.4-1l-1.4-.3.6-1 1.5-3c0-.2-.2-.3-1.7-.4a34.9 34.9 0 0 0-5-.2l.4-.5c.4-.7 1-1.8 1.3-3 .4-1.2.7-3 .6-3-1.5-.1-5 .3-5.8.8-.3.1-.4.1-.4 0a77.5 77.5 0 0 1-.7-3.6l-.3-1a25.6 25.6 0 0 0-4.4 4c-.4.5-.7.8-.8.7l-.3.8-.2.3-.1-.2c0-.4-.4-1.6-.8-2.2l-.5-.7v-.3l-.4-.4v.3l-.6-.6-.2-.1-1-.4c.2 0 .4.3.8.7 2.3 2.3 2.8 3.8 2 5.3-.6.8-1 1.9-1.3 2.7l-.1.5-.2-.6a8.5 8.5 0 0 0-3-4.3c-.4-.3-.4-.4-.2-1a12 12 0 0 1 1.9-3.4h-.3a9.2 9.2 0 0 0-2 4A61.5 61.5 0 0 1 15 2.3v.4l-.1 3.5-.1 1.5-.3-.1-3.3-1.1-.4-.2-.2 2-.3 1.8A66 66 0 0 1 5.8 9c-.2.2-.2.3 0 .7l.5 1.3A15.3 15.3 0 0 0 8 15.6h-.3c-.8 0-3.7.6-3.9 1 0 .2.8 1.5 1.8 2.5l1 1-.8.3c-1.5.4-3.6 1.3-5.3 2.5l-.6.3.3.3A28.4 28.4 0 0 0 5.8 27l-.7.3c-.9.3-2 1-3.1 1.8l-.9.7.4.4a13.8 13.8 0 0 0 4.3 2.6l-.5.6c-1.1 1.4-3.6 5-3.5 5.2a46 46 0 0 0 7.6-1l1.2-.3-.4 1.3c-.3.8-.5 1.8-.6 2.5l-.1 1.3h.5a9.7 9.7 0 0 0 5-1 44.6 44.6 0 0 1-.2 4.8zm.2-.6A45.6 45.6 0 0 1 16.8 35l.8-1.6.7-1 .3-.5.1.5c.2.4.7.7 1 .4.2 0 .3 0 .2.2 0 .5.8 1 1.3.8l.5.1a42.6 42.6 0 0 1 2.6.5c.2 0 .2 0 .1.7v1.6l.1.8-.5.7c-1 1.6-2.7 3-6.1 5.4a25.5 25.5 0 0 0-2.9 2.1zm9.2.5l-.4-.7-1.2-1.8-1-1.6-.2-.5.8-.7c.8-.7 2.2-2.2 2.2-2.5 0-.3.3-.2.4.2.2.8.9 2 1.6 2.9l.6 1c0 .4-2.5 3.7-2.8 3.7zm7.6.1s-.2 0-.2-.2l-1.8-1.7c-3-2.9-4-4.2-4.6-6.1-.5-1.7-.6-4 0-3.9h.4c.2-.2.4-.2.5 0h1l.6-.3c.4 0 1.2-.5 1.4-.8 0-.3.1-.3.4-.2.3 0 .5 0 .8-.2l.5-.2s1 1.5 1.1 2c.4 1 .5 2.3.4 4a64 64 0 0 1-.5 7.6zm-22-4l.6-3.2c.5-1.8.6-1.8 1.4-2.1a21 21 0 0 0 4.8-2.6l-.2.8c-.3.9-1.1 4.2-1.2 5.2-.1.6-.1.6-.8 1-1 .4-2 .7-3.3.8l-1.2.2zm-7.3-4a23.3 23.3 0 0 1 11.8-10.5c.9-.3 1.3-.4 1.3-.2l.2.2c.2 0 .2.2.1.4-.2.4 0 1 .5 1.2.3.1.3.2.3.5 0 .4.4.9.8.8.2 0 .2 0 .2.3 0 .1 0 .4.2.6.2.4.2.4-.1.9a15 15 0 0 1-4.1 3.1c-1.3.6-3.2 1.3-4.7 1.7a73 73 0 0 1-6.5 1zm34 3.8l-.5-.2-2.8-1.3-.4-.3v-1.4a13.6 13.6 0 0 0-.3-4.2l1.2.6c.6.4 1.5.8 2.1 1l1 .5v.5l-.1 2.6zM43 38l-3.1-.9c-3.5-1-4.5-1.4-5.9-2.2a6.5 6.5 0 0 1-2.6-2.2c-.8-1-.8-1-.5-1.1.5-.2 1-.5 1-.8 0-.2.1-.4.3-.4.3-.1.6-.9.6-1.3 0-.2.1-.4.4-.6l.5-.6c.2-.2.2-.3.5-.1.5.2 2.8.5 3.2.4.6 0 3 3.4 4.2 6.2l1.4 3.6zM5.9 32.4h-.3l-1.1-.5a18 18 0 0 1-3-2 15.4 15.4 0 0 1 4-2.4c.5-.1.9-.3 1-.2l.7.4a9.5 9.5 0 0 0 3.6 1l-1.2 1c-1.3.8-2.2 1.5-3 2.3-.3.4-.5.5-.7.5zM23.7 34a.8.8 0 0 1-.5-.3c-.1-.2-.2-.2-.5 0-.3.1-.4.1-.7-.1l-.4-.4-.3.1c-.2.2-.3.2-.6.1-.3 0-.4-.3-.5-1 0-.1 0-.1-.4 0-.6.2-.8 0-.7-.6.2-.5.1-.6-.3-.4-.4.1-.4 0-.6-.1-.2-.3-.2-.6 0-.8v-.3c0-.1 0-.1-.2 0-.3.2-.9 0-1-.3 0-.2 0-.4.2-.6l.3-.3h-.3l-.5.1c-.2 0-.6-.5-.6-.7l.3-.3.2-.4c0-.2 0-.2-.3-.2-.2 0-.3 0-.4-.4-.2-.5 0-.8.4-1h.3l-.4-.3c-.4-.4-.5-.8-.1-1 .2-.3.2-.3 0-.7-.4-.4-.4-.9 0-1.3.3-.2.3-.2 0-.6-.2-.5 0-1 .4-1s.4-.1.2-.5c0-.2-.1-.5 0-.8 0-.4.1-.5.6-.6.5-.2.5-.3.5-.6 0-.5.7-1 1-.9.3.1.4.1.4-.1 0-.4.7-.8 1.2-.7.3 0 .4-.1.7-.4.4-.6.6-.7 1-.6h.4c0-.5 1.2-.7 1.5-.3.1.1.2.1.6-.1.5-.3 1-.3 1 0 0 .2.1.2.4 0 .5-.4 1.5-.1 1.7.5 0 .2 0 .2.3 0 .5-.3 1-.2 1.2.4l.3.3c.2-.1.8 0 1 .2v.5c0 .3 0 .3.5.3.4 0 .7 0 .8.2.2.2.1.7-.1.9l.3.1c.6.1.8.6.6 1.2 0 .3 0 .3.2.3.6 0 1 1.2.5 1.3-.3.1-.3.2.2.4l.5.6c.1.3 0 .4-.2.7-.3.3-.3.3-.1.3.3 0 .5.5.4.8l-.4.4c-.3.2-.3.2 0 .5v.5c0 .4-.3.8-.6.8l-.2.1s0 .1.2 0c.3 0 .5.4.5.8 0 .2-.3.4-.5.6-.4.3-.5.4-.6 1 0 .7-.3 1-.7 1-.1 0-.2 0-.2.3 0 .4-.3.7-.8.8-.4 0-.4 0-.5.5 0 .6-.2.7-1 .7-.4 0-.5 0-.5.2l-.4.6c-.3.2-.5.3-.8.2-.2 0-.3 0-.5.2-.3.3-.7.3-1 0-.1-.3-.2-.3-.4 0-.3.2-.9.2-1.4 0H24c0 .2-.1.2-.3.2zm1.7-3.4c.2 0 .5-.1.7-.3l.6-.2c.3 0 1-.2 1-.4l.2-.5c0-.1.1-.2.4-.2l.7-.1c.4-.2.4-.3.4-1 0-.4.1-.6.2-.6l.5-.4c.3-.5.3-1 0-1.4-.2-.3-.3-.4-.1-.4.7-.1 1-1 .4-1.5l-.4-.4v-.4c.2-.6 0-1-.6-1.3-.2 0-.4-.2-.4-.4 0-.7-1-1.3-1.6-1-.3 0-.3 0-.5-.2 0-.2-.2-.4-.4-.5-.4-.2-.9-.2-1.3 0l-.8-.1c-.2-.2-.4-.2-.8 0-.3 0-.6.2-.7.4 0 .2-.2.2-.6.1-.4-.1-.5 0-.9.2-.4.3-.4.4-.4.9 0 .4 0 .4-.3.4a1 1 0 0 0-.5.4c-.3.2-.3.3-.3.9v.7c-.2 0-.4.2-.5.4-.2.5-.2.8.2 1.3.1.2.1.3 0 .4l-.2.6c0 .3 0 .5.3.9.3.3.4.5.3.8 0 .6.3 1 .9 1 .4 0 .5.1.5.3 0 .1 0 .4.2.5.2.3.3.4.7.3.4 0 .5 0 .7.2.3.3 1 .4 1.2.3.1-.1.2-.1.4 0 .2.2.5.3.8.3zm-.2-.3c-.4 0-.5-.2-.6-.6-.2-.5-.2-.5-.3-.2l-.2.5c-.4.3-1.2-.3-1-.7 0-.2 0-.2-.2 0l-.6.1c-.3 0-.4 0-.5-.3a.8.8 0 0 1 0-.6c0-.3 0-.3-.2-.2-.4.1-1 0-1.1-.2v-.6c.2-.4.2-.4-.3-.7-.4-.3-.5-.4-.4-.8 0-.4.4-.8.8-.8l-.3-.3c-.6-.4-.7-.8-.3-1.2.1-.2.3-.3.6-.2.5 0 .5-.1 0-.4-.3-.2-.5-.8-.2-1.2.1-.2.3-.2.7-.1.6 0 .6 0 .5-.3a1 1 0 0 1 0-1c.2-.4.9-.3 1.2 0 .3.2.3.2.4-.2 0-.3.2-.5.4-.6.5-.2 1 0 1.1.5.1.3.3.4.2 0 0-.1 0-.3.2-.4.4-.3 1-.2 1.4 0l.3.7.1.4.3-.3c.5-.3.9-.3 1.2.1.3.4.3.6-.1 1-.3.3-.3.3.2.1a1 1 0 0 1 1.1.2c.4.5.2 1-.5 1.3-.3 0-.3 0 .3.2.6 0 1 .4 1 .8 0 .3-.7.6-1.1.6h-.5c-.2.1-.1.2.2.3.6.2.9.4 1 1 0 .5-.4.9-1 .9h-.5l.3.2c.9.6.2 1.7-1 1.5h-.4c.4.5-.2 1.1-1 1H26c0 .3-.4.5-.8.5zm-15-2.1c-.6 0-1.2-.3-2-.6-1.6-.6-7.6-4-7.6-4.3 0-.1 2.6-1.5 3.7-1.9 1.3-.5 3.4-.9 5.3-1 1.8 0 2.9.1 3.7.6l1.5.6c1 .4 1.4.8 1 1-.2.3-.4 1.2-.2 1.5.1.2.1.5 0 .8l.1.7.3.3-.3.3-.3.4c0 .1-.2.3-.6.4l-1.8.7c-1 .5-1.9.6-2.8.5zm30.7 3.3L39.6 30a36.6 36.6 0 0 1-1-1.7 35.1 35.1 0 0 0 3.2-.8l.8-.3.5.4c.7.6 2.5 2.5 2.8 3 .3.3.3.4.1.4-.4.2-2.6.6-3.8.6zm-5.5-3.8c-.9-.1-1.4-.3-1.7-.6-.2-.2-.2-.3 0-.5.3-.2.4-.7.1-1-.2-.3-.2-.3.1-.5.3-.2.5-1.2.3-1.5-.1 0-.1-.3 0-.4 0-.4-.1-1-.3-1.2-.3-.1 0-.7.4-1l1-.3c.7-.2 3.8.2 4.8.5a51.2 51.2 0 0 1 7.8 3l-1.2.6L44 26a32 32 0 0 1-5.2 1.8c-.8.1-1.2.2-2.4 0h-1zm-20-6.3c-.6-.1-2.5-1.1-3.5-1.9-1.2-.8-2.2-2.1-3.2-3.7-1.1-2-2.2-4.7-2.2-5.7 0-.5-.2-.5 1.8.1l4.5 1.8c2.7 1.3 4.3 3 4.9 4.8.2.8.2 1 0 1.1l-.2.6c0 .2-.2.4-.6.5l-.6.5c-.2.3-.2.9 0 1.2.1.2-.6.7-1 .7zM7.2 20c-.3 0-3.1-3-3-3.3 0-.2.8-.4 1.8-.6l1.6-.2h.7l.5.9c.6 1 1.6 2 2.3 2.6l.5.5h-.1a18.1 18.1 0 0 0-4.3.1zm26.7.8l-.3-.3-.3-.4-.2-.4c0-.5-.4-1-.7-1l-.2-.4c0-.5-.1-.8-.7-.8-.5 0-.5 0-.6-.4a1 1 0 0 0-.5-.7l-.3-.2.4-.3c.5-.3 1.3-1.2 1.7-2.2.4-.8.8-1.1 1.6-1.4 1-.4 3.7-.6 6.4-.5 2.7.2 3.3.2 3.3.4 0 .3-1.2 2.4-1.8 3.3-1.4 2-2.7 3.5-3.7 4-.7.4-1 .5-1.6.5-.9 0-1.8.2-2.2.5zm8.3.2l-2.3-.5-2-.5 1-.7 1.8-1.8.8-1 1.6.2c1.4.2 3.2.6 3.3.8l-1 1.2c-1 1.2-2.7 2.4-3.2 2.3zm-23.7-3.6l-.3-.6a6 6 0 0 0-2-3.3c-1-.8-1.2-2.2-1-4.8.2-2.5.2-4.1 0-5.5 0-.4.1-.4 1 .4l2.2 1.6c2 1.2 3.2 2.2 4 3a9 9 0 0 1 1.9 5.1v1.3c.2.4.2.5 0 .7H24c-.3-.2-1.2-.2-1.5 0l-.5.2c-.4 0-1.3.6-1.3 1 0 .1-.1.2-.4 0-.3 0-.5 0-1 .4l-.8.5zM29.7 16c-.1 0-.2 0-.3-.2-.3-.2-1-.3-1.3-.2-.3.2-.3.2-.5 0-.2-.3-1-.5-2.3-.7-.4 0-.4 0-.5-.6-.2-1.6.2-3.4 1-5a23.4 23.4 0 0 1 5.8-7l.6-.6V2c.7 2.8 1 5.6.7 7.7-.3 2.8-1.5 5.3-2.8 6l-.4.2zm-14.5-3.4l-.2-.1-3.4-1.7c-.8-.3-.8-.2-.6-2.4 0-.9.2-1.6.2-1.5a23 23 0 0 0 2 .8c1.7.5 1.6.4 1.5 1.8a7.2 7.2 0 0 0 .5 3zm17.7-.3v-.4c.4-.7.7-3.2.6-4.5l-.1-1.1.3-.2c.4-.3 2-.5 3.6-.6l1.7-.2c.2 0 .3 0 .2.4-.2 1.4-1.4 4.5-2 5.3-.3.5-.4.5-1.5.6-1 .1-1.9.3-2.8.7z"/>
  </g>
 </g>
</svg>
