<?xml-stylesheet type="text/css" href="../css/app.css"?>
<svg version="1.1" viewBox="0 0 98.612564 87.727196" xmlns="http://www.w3.org/2000/svg">
 <g transform="translate(3.77e-6 -209)" fill="none">
  <g transform="rotate(-57.5 280 228)">
   <path class="flowerBackPetals" d="m94.4 20.1c-0.291-1.23 0.535-3.74 0.535-3.74s2.61 0.749 3.74 1.47c2.34 1.49 6.01 5.75 6.01 5.75s-0.728-5.27 0-7.75c0.418-1.42 2.41-3.74 2.41-3.74s2.04 1.49 2.67 2.54c0.504 0.832 0.46 1.9 0.802 2.81 0.588 1.57 2.14 4.54 2.14 4.54s2.75-4.64 4.94-6.01c1.13-0.706 2.56-0.778 3.88-0.935 0.708-0.0842 2.14 0 2.14 0s-0.684 2.54-1.2 3.74c-0.402 0.934-1.02 1.76-1.47 2.67-0.734 1.48-2 4.54-2 4.54s4.38-0.124 6.55 0.134c1.86 0.221 5.48 1.2 5.48 1.2s-1.68 1.9-2.67 2.67c-0.695 0.538-1.51 0.897-2.27 1.34-1.64 0.948-4.94 2.81-4.94 2.81s4.16 1.07 5.88 2.27c1.5 1.05 3.61 4.14 3.61 4.14s-2.31 0.465-3.47 0.668c-0.844 0.148-1.68 0.352-2.54 0.401-2.14 0.123-6.41-0.267-6.41-0.267s2.61 2.97 3.07 4.81c0.462 1.82-0.401 5.61-0.401 5.61s-3.09-0.871-4.41-1.74c-1.69-1.11-4.28-4.28-4.28-4.28s-0.0345 4.31-0.802 6.28c-0.616 1.58-2.94 4.14-2.94 4.14s-2.55-3.28-3.21-5.21c-0.692-2.04-0.668-6.41-0.668-6.41s-3.12 4.3-5.21 5.88c-0.907 0.684-1.97 1.22-3.07 1.47-0.869 0.197-2.67 0-2.67 0s0.927-3.61 1.6-5.35c0.703-1.8 2.54-5.21 2.54-5.21s-5.02 1.62-7.48 1.07c-1.82-0.407-4.68-3.07-4.68-3.07s3.09-1.74 4.68-2.54c2.33-1.18 7.08-3.34 7.08-3.34s-4.2-2.03-6.01-3.47c-1.33-1.06-3.47-3.74-3.47-3.74s3.2-0.784 4.81-0.668c2.4 0.172 6.95 2 6.95 2s-4.51-4.53-5.21-7.48z"/>
   <path class="flowerFrontPetals" d="m113 53.2c-2.99-3.11-3.83-4.68-3.83-7.15 0-1-0.0984-1.33-0.401-1.33-0.311 0-0.401 0.353-0.401 1.57 0 1.5-0.0611 1.64-1.24 2.96-0.683 0.759-2.46 2.24-3.94 3.28-1.49 1.05-2.98 2.15-3.33 2.46l-0.631 0.554 0.185-2c0.4-4.33 1.78-9.67 2.69-10.4 0.391-0.325 0.543-1.06 0.218-1.06-0.095 0-0.728 0.52-1.41 1.15-1.6 1.5-3.22 2.43-5.66 3.27-1.94 0.665-7.96 1.84-8.19 1.61-0.0665-0.0665 0.157-0.519 0.497-1 2.87-4.1 5.96-6.83 9.65-8.5 1.13-0.514 2.07-1.09 2.07-1.27 0.013-0.473-0.478-0.408-1.86 0.245-1.6 0.756-3.51 0.754-5.21-0.0043-1.93-0.86-7.08-3.83-7.08-4.09 0-0.366 3.12-1.82 4.88-2.27 0.915-0.235 2.75-0.431 4.07-0.436 2.14-0.0069 2.61 0.085 4.21 0.825 1.65 0.761 1.8 0.789 1.8 0.33 0-0.339-0.257-0.558-0.789-0.675-0.434-0.0953-1.49-0.629-2.36-1.19-2.4-1.55-4.18-3.99-5.53-7.58-1-2.67-1-2.67 1.21-1.92 4.75 1.62 7.86 3.7 8.85 5.94 0.767 1.72 1.4 1.39 0.731-0.384-0.156-0.414-0.767-1.33-1.36-2.03-0.59-0.701-1.18-1.65-1.31-2.1s-0.164-2.54-0.0737-4.63l0.164-3.8 2.7 1.86c1.48 1.02 3.08 2.22 3.55 2.66 1.08 1.04 2.12 3.4 2.35 5.36 0.25 2.12 0.802 2.03 0.84-0.147 0.0335-1.89 0.582-3.35 2.16-5.73 1.27-1.92 4.64-5.51 4.91-5.23 0.313 0.332 0.784 3.87 0.78 5.87-5e-3 2.71-0.909 5.65-2.15 6.98-0.54 0.58-0.685 1.12-0.301 1.12 0.319 0 1.21-1.03 2.01-2.33 0.548-0.883 0.94-1.19 1.83-1.43 1.13-0.304 8.71-0.401 8.99-0.115 0.215 0.215-0.945 2.26-2.43 4.28-1.53 2.08-3.16 3.34-4.35 3.34-1.32 0-2.54 0.515-2.54 1.07 0 0.456 0.054 0.461 0.826 0.0757 0.936-0.467 2.99-0.339 5.7 0.355 2.2 0.561 7.12 2.53 6.96 2.78-0.175 0.283-5.69 2.6-7.42 3.11-0.987 0.294-2.04 0.376-3.6 0.28-1.21-0.0748-2.2-0.0419-2.2 0.0731 0 0.309 0.67 0.513 2.32 0.707 1.38 0.162 1.53 0.253 2.49 1.54 1.48 1.98 4.31 7.91 3.78 7.91-0.564 0-5.99-1.76-7.42-2.41-0.906-0.409-2.2-1.26-2.88-1.88-0.678-0.625-1.31-1.06-1.39-0.973-0.0893 0.0893 0.124 0.738 0.473 1.44 0.604 1.22 0.632 1.5 0.558 5.69-0.0425 2.43-0.164 4.81-0.271 5.31l-0.193 0.899z"/>
   <path class="flowerCenterOutside" d="m107 43.1c-0.0549-0.0889-0.333-0.11-0.619-0.0477-0.353 0.0776-0.598 0.018-0.768-0.186-0.174-0.21-0.413-0.264-0.796-0.18-0.482 0.106-0.572 0.0523-0.763-0.452-0.19-0.504-0.282-0.559-0.776-0.46-0.545 0.109-0.556 0.0958-0.438-0.498 0.115-0.577 0.0946-0.607-0.396-0.549-0.478 0.0559-0.514 0.0139-0.47-0.554 0.0441-0.565 3e-3 -0.614-0.509-0.614-0.625 0-0.918-0.303-0.6-0.621 0.337-0.337 0.246-0.513-0.268-0.513-0.532 0-0.822-0.476-0.492-0.806 0.326-0.326 0.256-0.65-0.164-0.76-0.528-0.138-0.516-1.01 0.0161-1.18l0.394-0.125-0.422-0.449c-0.343-0.365-0.378-0.501-0.19-0.729 0.184-0.222 0.183-0.417-6e-3 -0.938-0.193-0.533-0.192-0.714 6e-3 -0.952 0.157-0.189 0.2-0.526 0.122-0.943-0.103-0.55-0.0615-0.668 0.273-0.774 0.321-0.102 0.373-0.226 0.277-0.665-0.137-0.626 0.17-1.32 0.584-1.32 0.158 0 0.411-0.298 0.563-0.661 0.152-0.364 0.382-0.671 0.51-0.683s0.319-0.0332 0.423-0.0472c0.104-0.014 0.38-0.217 0.614-0.451 0.234-0.234 0.591-0.425 0.793-0.425s0.598-0.213 0.878-0.472c0.28-0.26 0.682-0.472 0.893-0.472s0.541-0.143 0.734-0.318c0.276-0.25 0.461-0.278 0.865-0.131 0.367 0.134 0.687 0.117 1.12-0.0583 0.339-0.138 0.65-0.171 0.709-0.0763 0.0576 0.0931 0.437 0.125 0.843 0.0703 0.589-0.079 0.806-0.0204 1.07 0.29 0.249 0.291 0.472 0.362 0.879 0.28 0.417-0.0833 0.611-0.0165 0.82 0.282 0.151 0.215 0.504 0.418 0.784 0.451 0.365 0.0426 0.541 0.194 0.62 0.532 0.0855 0.369 0.247 0.486 0.737 0.533 0.581 0.0562 0.62 0.101 0.519 0.602-0.091 0.455-0.0415 0.551 0.31 0.601 0.333 0.0474 0.43 0.203 0.477 0.768 0.0377 0.455 0.154 0.709 0.324 0.709 0.146 0 0.364 0.185 0.485 0.41 0.18 0.337 0.162 0.453-0.104 0.647-0.297 0.217-0.283 0.263 0.165 0.556 0.521 0.342 0.629 0.817 0.266 1.18-0.17 0.17-0.141 0.312 0.126 0.607 0.339 0.375 0.337 0.396-0.0754 0.835-0.271 0.288-0.35 0.496-0.22 0.576 0.366 0.226 0.213 0.844-0.29 1.17-0.484 0.317-0.485 0.326-0.0945 0.471 0.527 0.195 0.504 0.562-0.0708 1.1-0.258 0.243-0.523 0.728-0.589 1.08-0.0656 0.35-0.274 0.719-0.463 0.82-0.189 0.101-0.395 0.347-0.458 0.546-0.0633 0.199-0.367 0.45-0.674 0.557-0.348 0.121-0.559 0.327-0.559 0.545 0 0.495-0.369 0.804-0.961 0.804-0.333 0-0.614 0.163-0.817 0.472-0.207 0.316-0.483 0.472-0.834 0.472-0.289 0-0.629 0.104-0.756 0.232-0.183 0.183-0.312 0.181-0.612-0.0064-0.21-0.131-0.484-0.173-0.609-0.0936-0.316 0.2-2.22 0.206-2.34 8e-3z"/>
   <path class="flowerCenterInside" d="m108 39.4c-0.173-0.0438-0.26-0.157-0.415-0.538-0.125-0.307-0.151-0.349-0.222-0.349-0.0843 0-0.0876 0.0062-0.171 0.327-0.023 0.0882-0.0831 0.205-0.134 0.259-0.181 0.193-0.561 0.107-0.834-0.19-0.133-0.144-0.139-0.159-0.12-0.307 0.0391-0.305 0.0383-0.321-0.0183-0.332-0.03-6e-3 -0.128 0.0354-0.217 0.0922-0.19 0.121-0.535 0.234-0.711 0.234-0.0915 0-0.147-0.024-0.212-0.0919-0.199-0.208-0.25-0.513-0.141-0.853 0.0577-0.18 0.0581-0.197 6e-3 -0.249-0.052-0.052-0.0676-0.0519-0.235 7.94e-4 -0.377 0.119-0.876 0.0473-1.04-0.15-0.108-0.129-0.106-0.213 0.0161-0.518 0.136-0.34 0.132-0.436-0.0251-0.584-0.0689-0.065-0.228-0.19-0.353-0.278-0.126-0.0878-0.257-0.207-0.292-0.265-0.0771-0.127-0.0857-0.407-0.0175-0.57 0.112-0.267 0.439-0.518 0.678-0.52 0.239-0.0016 0.168-0.158-0.186-0.414-0.475-0.342-0.611-0.549-0.536-0.814 0.052-0.186 0.294-0.459 0.453-0.512 0.074-0.0244 0.197-0.0309 0.326-0.017 0.476 0.0509 0.55-0.17 0.144-0.431-0.0955-0.0614-0.207-0.147-0.247-0.191-0.249-0.269-0.228-0.814 0.0405-1.02 0.107-0.0844 0.311-0.0944 0.743-0.0363 0.443 0.0596 0.479 0.0064 0.292-0.434-0.114-0.269-0.108-0.536 0.018-0.787 0.115-0.23 0.224-0.301 0.46-0.3 0.259 0.0015 0.496 0.0885 0.725 0.266 0.106 0.082 0.22 0.149 0.254 0.149 0.0778 0 0.138-0.119 0.212-0.418 0.0754-0.307 0.156-0.431 0.338-0.519 0.442-0.214 0.89-0.0399 1.03 0.402 0.0801 0.246 0.142 0.334 0.234 0.334 0.0927 0 0.117-0.0557 0.117-0.272 0-0.277 0.148-0.467 0.429-0.552 0.189-0.057 0.344-0.0564 0.564 0.0023 0.424 0.113 0.644 0.382 0.795 0.972 0.033 0.129 0.0698 0.245 0.0818 0.259 0.0119 0.014 0.134-0.0592 0.27-0.163 0.423-0.32 0.638-0.378 0.919-0.251 0.163 0.0742 0.403 0.343 0.453 0.508 0.0467 0.153 4e-3 0.239-0.262 0.532-0.22 0.242-0.262 0.321-0.206 0.388 0.0563 0.0678 0.112 0.0579 0.397-0.071 0.407-0.184 0.766-0.157 1.04 0.0787 0.251 0.215 0.322 0.495 0.193 0.763-0.0894 0.185-0.254 0.319-0.529 0.433-0.204 0.0842-0.303 0.155-0.303 0.218 0 0.0514 0.129 0.0924 0.454 0.145 0.62 0.0997 0.983 0.355 0.983 0.69 0 0.0855-0.034 0.141-0.163 0.265-0.236 0.227-0.465 0.307-0.909 0.316-0.366 0.0075-0.511 0.0475-0.579 0.16-0.0465 0.0772 0.0476 0.161 0.273 0.242 0.566 0.204 0.802 0.386 0.892 0.689 0.11 0.371 0.0371 0.692-0.203 0.891-0.174 0.144-0.398 0.205-0.762 0.207-0.167 0.0011-0.363 0.0128-0.437 0.0262l-0.134 0.0242 0.301 0.204c0.347 0.235 0.46 0.346 0.533 0.519 0.104 0.249 0.0271 0.493-0.227 0.716-0.244 0.215-0.434 0.259-0.994 0.23-0.423-0.0218-0.466-0.0188-0.487 0.0342-0.0122 0.032-3e-3 0.105 0.0214 0.162 0.124 0.295 0.0548 0.513-0.22 0.687-0.197 0.125-0.434 0.175-0.699 0.148-0.323-0.0331-0.438-9.8e-5 -0.514 0.148-0.093 0.182-0.292 0.282-0.585 0.294-0.13 0.0054-0.287-3e-3 -0.349-0.0187z"/>
   <path class="outlineFillColor" d="m97.3 56.2c0.096-0.0134 0.246-0.136 0.47-0.365 0.28-0.287 1.1-0.901 1.83-1.37 0.724-0.464 1.93-1.27 2.68-1.79 0.751-0.522 1.38-0.923 1.4-0.895 0.02 0.0292 0.103 0.245 0.184 0.477 0.0813 0.232 0.469 0.883 0.864 1.45 0.395 0.564 0.927 1.37 1.18 1.78 0.571 0.93 0.626 0.979 0.912 0.872 0.429-0.159 2.43-2.68 2.92-3.68 0.0661-0.136 3.23 2.75 4.22 3.84 0.312 0.347 0.599 0.635 0.638 0.64 0.0403 6e-3 0.118-0.51 0.174-1.15 0.0568-0.637 0.185-2.03 0.285-3.09 0.1-1.07 0.165-2.05 0.145-2.18-0.0287-0.2 5e-3 -0.221 0.184-0.112 0.835 0.513 2.58 1.29 3.15 1.4l0.678 0.132 0.235-1.74c0.129-0.957 0.249-2.16 0.265-2.67l0.0274-0.928 0.582 0.158c0.319 0.0962 1.78 0.523 3.25 0.961 1.47 0.438 2.68 0.785 2.7 0.768 0.0186-0.0115-0.122-0.401-0.314-0.859-0.192-0.458-0.642-1.62-0.999-2.59-0.357-0.967-0.836-2.13-1.07-2.58l-0.421-0.823 1.3-0.0434c1.39-0.0453 3.33-0.376 3.99-0.679l0.405-0.185-1.12-1.41c-0.618-0.773-1.44-1.68-1.82-2.02l-0.691-0.614 2.45-1.09c1.35-0.597 2.57-1.14 2.72-1.2 0.646-0.277 0.592-0.436-0.354-1.02-0.606-0.375-1.81-0.912-4.59-2.06l-0.521-0.215 0.917-0.559c0.93-0.566 1.79-1.4 2.68-2.59 0.45-0.606 0.472-0.669 0.286-0.805-0.453-0.328-2.13-0.809-3.43-0.985-0.755-0.102-1.37-0.224-1.36-0.263 5e-3 -0.039 0.27-0.498 0.587-1.02 0.478-0.781 1.2-2.24 1.5-3.05 0.0579-0.154-0.181-0.209-1.74-0.38-0.995-0.108-2.49-0.192-3.33-0.185-0.836 6e-3 -1.54-9.2e-4 -1.56-0.0221-0.0203-0.0173 0.105-0.238 0.275-0.484 0.462-0.667 0.983-1.79 1.35-2.92 0.399-1.23 0.718-2.98 0.545-3-1.43-0.154-4.94 0.271-5.75 0.695-0.29 0.153-0.389 0.16-0.411 0.024-0.0163-0.0951-0.0662-0.403-0.111-0.687-0.045-0.284-0.209-1.01-0.364-1.6-0.155-0.596-0.266-1.19-0.248-1.32 0.039-0.289-0.134-0.908-0.259-0.925-0.137-0.0192-2.44 1.81-3.06 2.42-0.301 0.301-0.905 0.974-1.34 1.5-0.462 0.554-0.673 0.825-0.777 0.714l-0.37 0.788c-0.0292 0.146-0.0726 0.243-0.152 0.304-0.103 0.079-0.138 0.0344-0.116-0.135 0.0557-0.429-0.382-1.6-0.848-2.26l-0.453-0.647 9e-3 -0.346-0.363-0.341c-4e-3 0.0394-9e-3 0.276-0.0127 0.275-0.0181-2e-3 -0.296-0.267-0.62-0.589-0.0553-0.0607-0.122-0.109-0.184-0.163l-0.963-0.386c0.117 0.0953 0.377 0.335 0.769 0.727 2.27 2.27 2.81 3.76 1.91 5.29-0.495 0.84-0.966 1.89-1.2 2.66l-0.171 0.567-0.191-0.649c-0.491-1.67-1.47-3.11-2.9-4.26-0.434-0.349-0.438-0.363-0.283-0.932 0.194-0.712 0.827-1.99 1.42-2.87 0.213-0.316 0.391-0.541 0.466-0.601l-0.269-0.103c-0.147 0.138-0.318 0.368-0.608 0.798-0.576 0.856-1.04 1.8-1.23 2.51-0.0897 0.33-0.173 0.6-0.187 0.598-0.194-0.0263-4.14-2.58-4.68-3.03-0.404-0.337-0.797-0.621-0.87-0.631-0.0857-0.0134-0.125 0.151-0.113 0.459 0.0564 1.28 0.041 2.12-0.0637 3.49l-0.115 1.49-0.259-0.128c-0.221-0.109-0.972-0.359-3.27-1.1l-0.408-0.135-0.201 1.89c-0.11 1.04-0.232 1.89-0.27 1.88-0.333-0.0484-4.17-1.19-4.26-1.27-0.0684-0.0624-0.216-0.0425-0.326 0.0223-0.171 0.11-0.154 0.205 0.118 0.664 0.175 0.295 0.359 0.868 0.407 1.27 0.0935 0.795 0.7 2.53 1.32 3.78 0.211 0.425 0.381 0.804 0.376 0.842-5e-3 0.039-0.148 0.0463-0.318 0.0232-0.78-0.105-3.66 0.612-3.83 0.953-0.119 0.246 0.741 1.47 1.75 2.5 0.554 0.561 1.01 1.06 1.01 1.1-6.5e-4 0.04-0.368 0.158-0.817 0.257-1.49 0.326-3.62 1.3-5.3 2.43l-0.528 0.355 0.268 0.275c0.455 0.466 2.75 1.94 4.21 2.71 0.764 0.401 1.38 0.764 1.38 0.803-5e-3 0.039-0.302 0.159-0.659 0.269-0.9 0.275-2.12 0.982-3.16 1.83l-0.875 0.716 0.398 0.414c0.604 0.629 2.43 1.81 3.37 2.19 0.463 0.182 0.857 0.346 0.877 0.361 0.0194 0.0154-0.195 0.3-0.478 0.635-1.12 1.33-3.56 4.98-3.43 5.14 0.0688 0.0888 3.76-0.252 5.19-0.479 0.716-0.114 1.8-0.34 2.41-0.505 0.608-0.164 1.11-0.299 1.11-0.299 5e-3 7e-4 -0.174 0.589-0.398 1.31-0.256 0.823-0.457 1.77-0.541 2.55l-0.135 1.25 0.564 0.0499c1.22 0.0853 3.1-0.273 4.18-0.806 0.382-0.188 0.706-0.325 0.721-0.304 0.0497 0.073-0.103 3.08-0.196 3.83-0.0906 0.737-0.0908 1.05 0.0668 1.04zm0.232-0.58c-0.086-0.0115 0.197-3.25 0.443-5.05 0.183-1.35 0.786-3.89 1.34-5.65 0.241-0.766 0.473-1.25 0.776-1.6 0.238-0.281 0.567-0.732 0.729-1l0.295-0.489 0.134 0.42c0.146 0.461 0.658 0.699 1.02 0.472 0.162-0.0972 0.193-0.0799 0.165 0.128-0.0701 0.518 0.769 1.07 1.28 0.834 0.136-0.0611 0.286-0.0154 0.463 0.129 0.143 0.125 0.525 0.26 0.847 0.303 0.322 0.0436 0.78 0.109 1.02 0.149 0.238 0.0419 0.552 0.048 0.696 0.0154 0.242-0.0469 0.253 8e-3 0.17 0.734-0.0494 0.432-0.047 1.15 5e-3 1.6l0.0942 0.811-0.478 0.708c-1.09 1.61-2.7 3.01-6.13 5.33-1.2 0.813-2.32 1.63-2.48 1.82-0.165 0.188-0.333 0.339-0.374 0.334zm9.18 0.48c-0.0403-6e-3 -0.228-0.301-0.417-0.656-0.189-0.356-0.704-1.16-1.15-1.8-0.442-0.635-0.895-1.38-1.01-1.66l-0.201-0.507 0.736-0.656c0.809-0.721 2.18-2.27 2.21-2.51 0.0468-0.346 0.291-0.23 0.404 0.193 0.207 0.774 0.878 1.99 1.57 2.86 0.365 0.455 0.653 0.897 0.642 0.983-0.061 0.452-2.54 3.78-2.8 3.75zm7.57 0.137c-0.0428-6e-3 -0.136-0.0978-0.204-0.211-0.0679-0.115-0.873-0.907-1.79-1.77-2.98-2.81-3.97-4.13-4.58-6.08-0.524-1.68-0.56-3.92-0.0606-3.85 0.121 0.0173 0.345-0.0328 0.498-0.113 0.181-0.0947 0.334-0.0955 0.441-8e-3 0.266 0.223 0.666 0.225 1.04 6e-3 0.192-0.113 0.465-0.189 0.605-0.17 0.331 0.0446 1.18-0.519 1.32-0.878 0.0902-0.226 0.176-0.26 0.458-0.178 0.245 0.0736 0.47 0.0238 0.773-0.17 0.234-0.149 0.45-0.265 0.479-0.261 0.13 0.0154 0.962 1.52 1.17 2.1 0.321 0.918 0.444 2.25 0.371 3.99-0.191 4.56-0.398 7.6-0.518 7.59zm-21.9-3.97c-0.104-0.0154 0.28-2.44 0.511-3.22 0.533-1.8 0.565-1.85 1.4-2.15 1.27-0.459 3.43-1.56 4.1-2.09 0.348-0.275 0.666-0.495 0.708-0.489 0.0428 6e-3 -0.0405 0.351-0.186 0.766-0.317 0.905-1.13 4.26-1.25 5.18-0.0869 0.643-0.098 0.656-0.73 0.951-0.974 0.454-2.04 0.743-3.33 0.909-0.643 0.0828-1.19 0.146-1.22 0.143zm-7.4-4.04c-0.227-0.0307 2.83-4.12 3.92-5.24 2.14-2.2 5.1-4.19 7.85-5.25 0.932-0.363 1.39-0.455 1.37-0.278-9e-3 0.0649 0.0877 0.175 0.216 0.235 0.195 0.0926 0.203 0.16 0.0626 0.38-0.249 0.395 0.0209 1.08 0.49 1.24 0.295 0.106 0.348 0.182 0.308 0.476-0.0559 0.414 0.374 0.866 0.778 0.816 0.202-0.0257 0.248 0.03 0.218 0.251-0.0209 0.155 0.0614 0.448 0.181 0.653 0.217 0.367 0.217 0.377-0.0819 0.861-0.442 0.717-2.8 2.52-4.12 3.16-1.27 0.609-3.21 1.3-4.68 1.66-1.2 0.296-6.16 1.09-6.51 1.05zm34 3.73-0.488-0.145c-0.633-0.192-2.28-0.956-2.8-1.31l-0.405-0.273 0.0426-1.41c0.051-1.69-7e-3 -2.67-0.211-3.55-0.0826-0.36-0.148-0.667-0.146-0.685 9e-3 -0.0649 0.232 0.0444 1.24 0.648 0.58 0.345 1.52 0.814 2.1 1.04l1.04 0.414 0.0188 0.528c0.011 0.29-0.0721 1.48-0.187 2.63zm6.62-3.81c-0.0222-4e-3 -1.43-0.423-3.14-0.933-3.42-1.02-4.51-1.43-5.85-2.18-1.48-0.831-1.82-1.12-2.64-2.2-0.754-1-0.767-1.04-0.478-1.14 0.521-0.185 0.925-0.529 0.965-0.823 0.0211-0.156 0.156-0.33 0.3-0.384 0.297-0.111 0.672-0.843 0.669-1.31-1e-3 -0.218 0.113-0.385 0.379-0.556 0.209-0.134 0.442-0.391 0.519-0.572 0.128-0.298 0.175-0.316 0.5-0.176 0.437 0.191 2.76 0.539 3.13 0.476 0.692-0.121 3.05 3.31 4.24 6.17 0.736 1.77 1.45 3.64 1.39 3.63zm-37.2-5.7c-0.0819-0.0115-0.18-0.0379-0.308-0.0674-0.288-0.0795-0.802-0.285-1.14-0.456-0.788-0.397-3-1.9-2.98-2.03 0.0183-0.134 1.74-1.29 2.57-1.73 0.375-0.197 1.05-0.485 1.51-0.64 0.454-0.156 0.841-0.275 0.858-0.261 0.0183 0.0135 0.389 0.204 0.823 0.424 0.948 0.483 2.33 0.91 3.09 0.952 0.305 0.0154 0.537 0.0615 0.514 0.0959-0.0222 0.0369-0.582 0.429-1.24 0.872-1.29 0.863-2.15 1.56-2.97 2.4-0.374 0.382-0.482 0.482-0.728 0.449zm17.8 1.55c-0.153-0.0206-0.333-0.111-0.459-0.258-0.174-0.206-0.222-0.212-0.532-0.0626-0.309 0.148-0.369 0.141-0.687-0.0817-0.192-0.132-0.379-0.314-0.417-0.398-0.0463-0.0991-0.152-0.0736-0.321 0.101-0.197 0.199-0.322 0.227-0.573 0.127-0.293-0.119-0.397-0.311-0.504-0.935-0.0367-0.209-0.0615-0.212-0.432-0.0619-0.536 0.218-0.827-0.0586-0.652-0.638 0.153-0.502 0.0855-0.576-0.373-0.411-0.33 0.117-0.393 0.106-0.542-0.0859-0.189-0.248-0.178-0.598 0.0247-0.752 0.082-0.0684 0.0987-0.182 0.0448-0.303-0.0713-0.158-0.125-0.173-0.265-0.0622-0.306 0.233-0.866 0.0767-0.972-0.273-0.075-0.25-0.0392-0.376 0.177-0.626l0.271-0.313-0.318 0.0498c-0.175 0.0294-0.385 0.0673-0.469 0.0892-0.187 0.0411-0.609-0.485-0.577-0.722 0.0127-0.0913 0.117-0.229 0.231-0.302 0.115-0.0772 0.221-0.241 0.239-0.377 0.0269-0.199-0.0258-0.241-0.283-0.211-0.262 0.0309-0.343-0.0334-0.463-0.37-0.176-0.493-0.0294-0.852 0.4-0.981l0.319-0.0974-0.333-0.268c-0.435-0.352-0.504-0.761-0.177-1.04 0.242-0.203 0.24-0.229-0.0337-0.604-0.335-0.459-0.308-0.93 0.0748-1.29 0.268-0.251 0.269-0.265 0.069-0.628-0.263-0.48-0.0895-0.972 0.361-1.02 0.374-0.0423 0.395-0.0991 0.185-0.505-0.0935-0.181-0.114-0.49-0.0543-0.764 0.088-0.396 0.174-0.487 0.634-0.65 0.461-0.166 0.533-0.24 0.543-0.564 0.0181-0.524 0.632-1.03 1.05-0.867 0.242 0.0989 0.302 0.0678 0.33-0.139 0.0481-0.355 0.677-0.769 1.15-0.752 0.293 0.0135 0.464-0.0845 0.688-0.384 0.403-0.538 0.688-0.688 1.08-0.56 0.225 0.0707 0.34 0.0551 0.356-0.058 0.0626-0.464 1.21-0.641 1.52-0.236 0.0913 0.118 0.231 0.0844 0.556-0.116 0.482-0.305 0.986-0.303 1.06 2e-3 0.0396 0.168 0.0889 0.166 0.332-0.0215l2e-3 -4e-3c0.509-0.389 1.56-0.0795 1.69 0.496 0.0557 0.254 0.0622 0.255 0.392 0.0403 0.465-0.304 0.9-0.162 1.17 0.383 0.122 0.247 0.261 0.392 0.315 0.328 0.133-0.16 0.749-0.0619 0.906 0.149 0.0715 0.0892 0.107 0.329 0.0809 0.524-0.0476 0.351-0.0407 0.355 0.524 0.348 0.382-1e-3 0.627 0.0448 0.737 0.166 0.199 0.215 0.158 0.672-0.0766 0.851-0.132 0.101-0.0683 0.142 0.288 0.19 0.576 0.0778 0.85 0.544 0.652 1.12-0.116 0.337-0.102 0.372 0.142 0.343 0.571-0.0701 1.05 1.2 0.503 1.33-0.308 0.0774-0.254 0.202 0.165 0.389 0.218 0.0957 0.448 0.331 0.527 0.534 0.13 0.334 0.116 0.387-0.19 0.702-0.322 0.332-0.326 0.342-0.0851 0.374 0.296 0.0401 0.492 0.489 0.348 0.795-0.0579 0.125-0.222 0.299-0.367 0.399-0.259 0.178-0.26 0.188-0.0573 0.454 0.113 0.149 0.188 0.398 0.167 0.553-0.0477 0.353-0.44 0.792-0.679 0.759-0.0989-0.0135-0.188 0.0409-0.198 0.114-0.0109 0.078 0.0757 0.116 0.195 0.0795 0.261-0.0576 0.502 0.324 0.451 0.728-0.0207 0.171-0.22 0.424-0.48 0.607-0.386 0.274-0.458 0.4-0.542 0.97-0.104 0.693-0.352 1.04-0.71 0.991-0.163-0.0229-0.213 0.0507-0.199 0.294 0.0214 0.401-0.338 0.729-0.846 0.77-0.341 0.0334-0.378 0.0813-0.444 0.572-0.084 0.622-0.194 0.7-0.979 0.687-0.433-6e-3 -0.568 0.0425-0.563 0.194 2e-3 0.12-0.189 0.366-0.425 0.559-0.322 0.263-0.505 0.325-0.73 0.251-0.22-0.0695-0.359-0.0357-0.53 0.167-0.27 0.311-0.748 0.291-0.999-0.0421-0.156-0.205-0.194-0.203-0.435 0.0208-0.277 0.262-0.849 0.262-1.38-2e-3 -0.203-0.107-0.274-0.0901-0.295 0.0661-0.018 0.13-0.144 0.179-0.296 0.16zm1.67-3.42c0.266 0.01 0.521-0.0728 0.7-0.232 0.177-0.158 0.438-0.27 0.581-0.25 0.357 0.0482 0.991-0.191 1.12-0.423 0.0545-0.0986 0.119-0.298 0.136-0.43 0.0243-0.18 0.12-0.228 0.387-0.192 0.196 0.0265 0.526-0.048 0.735-0.174 0.345-0.203 0.381-0.28 0.412-0.888 0.0245-0.466 0.0842-0.679 0.202-0.707 0.0926-0.0273 0.28-0.202 0.419-0.401 0.303-0.432 0.291-0.94-0.0339-1.4-0.17-0.24-0.184-0.332-0.0552-0.357 0.728-0.139 0.976-0.964 0.461-1.53-0.186-0.205-0.389-0.379-0.447-0.387-0.0586-8e-3 -0.0477-0.207 0.0222-0.438 0.167-0.546-0.0662-1.04-0.584-1.25-0.267-0.102-0.391-0.244-0.392-0.431-7e-3 -0.663-1-1.26-1.68-1.01-0.223 0.089-0.298 0.0526-0.422-0.192-0.0829-0.161-0.264-0.358-0.402-0.436l-2e-3 -2.7e-4c-0.395-0.224-0.908-0.265-1.35-0.103-0.331 0.118-0.468 0.109-0.741-0.0471-0.28-0.157-0.419-0.163-0.837-0.0338-0.277 0.0951-0.572 0.279-0.656 0.416-0.127 0.207-0.226 0.229-0.611 0.123-0.396-0.106-0.522-0.0797-0.907 0.214-0.391 0.297-0.449 0.405-0.449 0.835-4.7e-4 0.425-0.0349 0.494-0.259 0.497-0.144 8e-3 -0.397 0.143-0.563 0.312-0.275 0.282-0.295 0.362-0.225 0.911 0.0635 0.512 0.047 0.614-0.121 0.68-0.107 0.0384-0.287 0.261-0.396 0.486-0.21 0.43-0.165 0.74 0.182 1.27 0.125 0.189 0.125 0.275-2e-3 0.372-0.0913 0.0673-0.195 0.333-0.229 0.586-0.0499 0.37 0.0146 0.547 0.322 0.9 0.296 0.34 0.37 0.536 0.326 0.861-0.0771 0.572 0.248 0.938 0.886 0.997 0.395 0.0407 0.487 0.0922 0.463 0.268-0.0163 0.117 0.0915 0.37 0.24 0.553 0.236 0.292 0.326 0.324 0.703 0.262 0.356-0.0578 0.474-0.0288 0.682 0.198 0.279 0.296 0.959 0.442 1.2 0.255 0.113-0.0907 0.225-0.0624 0.412 0.0669 0.228 0.165 0.507 0.249 0.773 0.253zm-0.205-0.302c-0.363-0.049-0.449-0.127-0.605-0.556-0.174-0.47-0.189-0.482-0.234-0.173-0.027 0.179-0.142 0.383-0.255 0.453-0.413 0.258-1.22-0.337-1.01-0.74 0.1-0.192 0.0898-0.193-0.159-0.0311-0.147 0.0995-0.422 0.192-0.611 0.213-0.278 0.0286-0.375-0.0242-0.509-0.311-0.106-0.225-0.123-0.458-0.0439-0.656 0.11-0.277 0.0973-0.298-0.139-0.211-0.382 0.142-0.975 0.0327-1.13-0.205-0.0947-0.152-0.0817-0.317 0.0421-0.596 0.166-0.371 0.155-0.399-0.299-0.703-0.383-0.257-0.471-0.392-0.457-0.715 0.0163-0.425 0.463-0.86 0.839-0.82 0.107 0.0115-0.041-0.138-0.328-0.329-0.589-0.395-0.676-0.761-0.286-1.21 0.166-0.191 0.356-0.261 0.611-0.226 0.471 0.0636 0.495-0.0907 0.0541-0.329-0.395-0.213-0.511-0.822-0.233-1.21 0.134-0.186 0.293-0.22 0.733-0.161 0.556 0.0749 0.56 0.072 0.406-0.228-0.181-0.349-0.147-0.787 0.0846-1.11 0.198-0.274 0.859-0.214 1.21 0.11 0.235 0.217 0.245 0.21 0.343-0.235 0.0755-0.342 0.189-0.493 0.445-0.593 0.461-0.182 0.974 0.0386 1.07 0.448 0.0915 0.392 0.248 0.451 0.202 0.0805-0.0202-0.164 0.069-0.343 0.237-0.472l2e-3 2.3e-4 2.4e-4 -2e-3c0.325-0.245 0.988-0.186 1.32 0.125 0.129 0.123 0.28 0.389 0.336 0.601l0.102 0.382 0.336-0.257c0.412-0.314 0.846-0.273 1.16 0.117 0.296 0.361 0.273 0.542-0.11 0.913-0.33 0.32-0.248 0.397 0.17 0.161 0.375-0.212 0.927-0.105 1.18 0.226 0.354 0.464 0.132 1.01-0.502 1.24-0.334 0.122-0.327 0.127 0.228 0.202 0.618 0.0836 1.03 0.43 0.981 0.819-0.0403 0.298-0.681 0.656-1.08 0.603-0.179-0.0227-0.411-2e-3 -0.518 0.0494-0.141 0.0605-0.0664 0.129 0.282 0.242 0.587 0.185 0.84 0.462 0.88 0.953 0.0455 0.555-0.332 0.93-0.956 0.945l-0.505 0.0115 0.375 0.255c0.851 0.579 0.171 1.63-0.941 1.46-0.385-0.0611-0.519-0.0438-0.441 0.0598 0.36 0.471-0.239 1.06-0.976 0.962-0.224-0.0304-0.415-4e-3 -0.423 0.0619-0.0337 0.25-0.48 0.45-0.882 0.395zm-15-2.07c-0.572-0.0786-1.19-0.268-1.93-0.556-1.67-0.662-7.65-4.06-7.61-4.33 0.023-0.168 2.55-1.5 3.64-1.91 1.36-0.52 3.46-0.904 5.29-0.968 1.8-0.0642 2.92 0.0941 3.78 0.537 0.354 0.182 1.03 0.466 1.5 0.633 0.98 0.347 1.37 0.767 0.993 1.08-0.261 0.219-0.384 1.08-0.203 1.42 0.0848 0.157 0.0909 0.442 0.0127 0.753-0.0996 0.395-0.0784 0.557 0.0982 0.766l0.224 0.265-0.304 0.313c-0.167 0.173-0.279 0.369-0.248 0.44 0.0316 0.0705-0.252 0.223-0.628 0.339-0.376 0.116-1.2 0.447-1.83 0.734-1.01 0.458-1.83 0.624-2.78 0.492zm30.7 3.33-1.23-1.65c-0.677-0.908-1.23-1.67-1.23-1.7 4e-3 -0.0259 0.0917-0.0407 0.194-0.0269 0.101 0.0154 0.702-0.112 1.33-0.278 0.632-0.166 1.48-0.419 1.9-0.561l0.748-0.257 0.549 0.46c0.656 0.551 2.44 2.43 2.81 2.95 0.221 0.312 0.231 0.385 0.065 0.461-0.451 0.202-2.65 0.518-3.85 0.556zm-5.5-3.83c-0.868-0.144-1.36-0.337-1.67-0.648-0.199-0.201-0.196-0.227 0.0269-0.415 0.32-0.268 0.372-0.769 0.115-1.07-0.206-0.245-0.206-0.252 0.0614-0.454 0.321-0.244 0.501-1.22 0.277-1.49-0.0806-0.0903-0.101-0.3-0.0499-0.455 0.111-0.328-0.0443-1.01-0.255-1.13-0.251-0.14 0.0345-0.756 0.47-1.02 0.226-0.136 0.654-0.299 0.952-0.363 0.664-0.14 3.83 0.193 4.82 0.51 3.42 1.09 4.67 1.55 6.39 2.33 0.754 0.343 1.39 0.646 1.41 0.67 0.02 0.0292-0.549 0.301-1.26 0.611-0.715 0.31-1.92 0.839-2.67 1.17-1.74 0.776-3.88 1.53-5.14 1.81-0.804 0.178-1.25 0.191-2.48 0.0722-0.382-0.0386-0.713-0.0836-1-0.124zm-20-6.35c-0.585-0.079-2.51-1.09-3.48-1.82-1.16-0.88-2.21-2.13-3.14-3.71-1.15-1.96-2.24-4.74-2.26-5.75l2e-3 2.5e-4c-0.0127-0.491-0.152-0.503 1.83 0.154 1.59 0.528 2.57 0.929 4.44 1.82 2.72 1.3 4.38 2.91 4.93 4.78 0.231 0.782 0.233 0.876 0.0307 1.1-0.123 0.132-0.241 0.381-0.265 0.554-0.0312 0.222-0.184 0.381-0.521 0.539-0.262 0.124-0.55 0.358-0.64 0.523-0.161 0.296-0.168 0.859-0.0127 1.12 0.128 0.22-0.563 0.746-0.917 0.698zm-8.18-1.22c-0.337-0.0453-3.09-3.06-3.05-3.34 0.0198-0.147 0.863-0.419 1.85-0.599 0.464-0.0845 1.17-0.158 1.57-0.165l0.724-0.01 0.521 0.868c0.571 0.949 1.56 2.09 2.3 2.65 0.258 0.194 0.461 0.402 0.453 0.46-9e-3 0.0649-0.0523 0.0724-0.0995 0.0396-0.123-0.0963-2.41-0.0745-3.31 0.0327-0.419 0.0494-0.849 0.079-0.954 0.0648zm26.7 0.733-0.251-0.308c-0.139-0.17-0.311-0.319-0.384-0.329-0.073-0.01-0.143-0.202-0.158-0.427-0.0298-0.467-0.393-1.04-0.683-1.08-0.121-0.0154-0.186-0.144-0.171-0.343 0.0386-0.512-0.178-0.735-0.753-0.77-0.473-0.0242-0.519-0.0646-0.587-0.421-0.0448-0.237-0.222-0.491-0.451-0.647l-0.379-0.257 0.456-0.258c0.507-0.288 1.25-1.27 1.72-2.26 0.37-0.782 0.718-1.1 1.52-1.37 1.06-0.368 3.78-0.563 6.39-0.457 2.77 0.112 3.39 0.185 3.36 0.388-0.0388 0.288-1.19 2.38-1.8 3.29-1.37 2.02-2.69 3.44-3.76 4.04-0.651 0.366-0.897 0.43-1.55 0.41-0.898-0.0284-1.77 0.19-2.21 0.552zm8.27 0.236c-0.142-0.029-1.14-0.273-2.22-0.54l-1.96-0.488 0.928-0.712c0.51-0.391 1.31-1.17 1.77-1.74l0.838-1.03 1.61 0.204c1.4 0.176 3.14 0.595 3.3 0.8 0.0285 0.044-0.396 0.567-0.943 1.18-1.07 1.2-2.82 2.42-3.31 2.33zm-23.7-3.63c-0.0888-0.0115-0.199-0.27-0.246-0.571-0.169-1.11-0.951-2.37-2.07-3.35-0.849-0.743-1.14-2.19-0.954-4.74 0.179-2.48 0.21-4.14 0.104-5.52l-2e-3 -2.3e-4c-0.0283-0.379 0.0437-0.347 0.842 0.383 0.372 0.339 1.41 1.08 2.31 1.64 1.88 1.17 3.14 2.14 3.9 2.99 1.03 1.15 1.87 3.39 1.91 5.1 0.011 0.467 0.0759 1.05 0.143 1.31 0.102 0.374 0.0884 0.493-0.0682 0.663-0.134 0.145-0.239 0.164-0.355 0.0711-0.309-0.259-1.16-0.295-1.44-0.0609-0.142 0.12-0.386 0.201-0.541 0.18-0.363-0.0492-1.27 0.598-1.32 0.94-0.0303 0.224-0.0871 0.243-0.397 0.137-0.313-0.109-0.447-0.0569-1.01 0.376-0.354 0.274-0.716 0.488-0.804 0.476zm11.2-1.47c-0.0967-2e-4 -0.168-0.0482-0.288-0.158-0.317-0.293-0.935-0.387-1.29-0.2-0.233 0.128-0.291 0.117-0.468-0.0897-0.191-0.226-0.958-0.429-2.3-0.613-0.433-0.059-0.457-0.0889-0.519-0.627-0.185-1.64 0.198-3.41 1.08-5.03 1.31-2.4 2.76-4.35 4.38-5.88 0.392-0.37 0.987-0.91 1.32-1.2l0.607-0.524 0.0877 0.375c0.678 2.88 0.905 5.64 0.638 7.73-0.354 2.77-1.53 5.29-2.81 6.02-0.224 0.127-0.347 0.19-0.444 0.196zm-14.5-3.43c-0.0163 0.01-0.0699-0.0134-0.167-0.0755-0.842-0.485-2.83-1.46-3.4-1.67-0.811-0.299-0.787-0.199-0.613-2.39l2e-3 2.5e-4c0.0715-0.912 0.172-1.59 0.234-1.57 0.0604 0.0154 0.269 0.103 0.466 0.196 0.196 0.093 0.887 0.35 1.53 0.57 1.68 0.571 1.62 0.504 1.54 1.87-0.0657 1.11 0.105 2.52 0.355 2.93 0.0494 0.0861 0.0688 0.129 0.0526 0.14zm17.7-0.283c-0.0505 0.0198-7.2e-4 -0.171 0.111-0.421 0.315-0.705 0.595-3.15 0.509-4.46l-0.0746-1.14 0.31-0.186c0.4-0.243 1.94-0.508 3.63-0.621 0.738-0.0502 1.47-0.101 1.63-0.113 0.253-0.0192 0.281 0.0325 0.232 0.387-0.184 1.35-1.36 4.44-2.02 5.31-0.32 0.423-0.395 0.452-1.53 0.579-0.974 0.109-1.85 0.315-2.79 0.658z"/>
  </g>
  <g transform="matrix(.355 -.557 .557 .355 -25.1 273)">
   <path class="flowerBackPetals" d="m94.4 20.1c-0.291-1.23 0.535-3.74 0.535-3.74s2.61 0.749 3.74 1.47c2.34 1.49 6.01 5.75 6.01 5.75s-0.728-5.27 0-7.75c0.418-1.42 2.41-3.74 2.41-3.74s2.04 1.49 2.67 2.54c0.504 0.832 0.46 1.9 0.802 2.81 0.588 1.57 2.14 4.54 2.14 4.54s2.75-4.64 4.94-6.01c1.13-0.706 2.56-0.778 3.88-0.935 0.708-0.0842 2.14 0 2.14 0s-0.684 2.54-1.2 3.74c-0.402 0.934-1.02 1.76-1.47 2.67-0.734 1.48-2 4.54-2 4.54s4.38-0.124 6.55 0.134c1.86 0.221 5.48 1.2 5.48 1.2s-1.68 1.9-2.67 2.67c-0.695 0.538-1.51 0.897-2.27 1.34-1.64 0.948-4.94 2.81-4.94 2.81s4.16 1.07 5.88 2.27c1.5 1.05 3.61 4.14 3.61 4.14s-2.31 0.465-3.47 0.668c-0.844 0.148-1.68 0.352-2.54 0.401-2.14 0.123-6.41-0.267-6.41-0.267s2.61 2.97 3.07 4.81c0.462 1.82-0.401 5.61-0.401 5.61s-3.09-0.871-4.41-1.74c-1.69-1.11-4.28-4.28-4.28-4.28s-0.0345 4.31-0.802 6.28c-0.616 1.58-2.94 4.14-2.94 4.14s-2.55-3.28-3.21-5.21c-0.692-2.04-0.668-6.41-0.668-6.41s-3.12 4.3-5.21 5.88c-0.907 0.684-1.97 1.22-3.07 1.47-0.869 0.197-2.67 0-2.67 0s0.927-3.61 1.6-5.35c0.703-1.8 2.54-5.21 2.54-5.21s-5.02 1.62-7.48 1.07c-1.82-0.407-4.68-3.07-4.68-3.07s3.09-1.74 4.68-2.54c2.33-1.18 7.08-3.34 7.08-3.34s-4.2-2.03-6.01-3.47c-1.33-1.06-3.47-3.74-3.47-3.74s3.2-0.784 4.81-0.668c2.4 0.172 6.95 2 6.95 2s-4.51-4.53-5.21-7.48z"/>
   <path class="flowerFrontPetals" d="m113 53.2c-2.99-3.11-3.83-4.68-3.83-7.15 0-1-0.0984-1.33-0.401-1.33-0.311 0-0.401 0.353-0.401 1.57 0 1.5-0.0611 1.64-1.24 2.96-0.683 0.759-2.46 2.24-3.94 3.28-1.49 1.05-2.98 2.15-3.33 2.46l-0.631 0.554 0.185-2c0.4-4.33 1.78-9.67 2.69-10.4 0.391-0.325 0.543-1.06 0.218-1.06-0.095 0-0.728 0.52-1.41 1.15-1.6 1.5-3.22 2.43-5.66 3.27-1.94 0.665-7.96 1.84-8.19 1.61-0.0665-0.0665 0.157-0.519 0.497-1 2.87-4.1 5.96-6.83 9.65-8.5 1.13-0.514 2.07-1.09 2.07-1.27 0.013-0.473-0.478-0.408-1.86 0.245-1.6 0.756-3.51 0.754-5.21-0.0043-1.93-0.86-7.08-3.83-7.08-4.09 0-0.366 3.12-1.82 4.88-2.27 0.915-0.235 2.75-0.431 4.07-0.436 2.14-0.0069 2.61 0.085 4.21 0.825 1.65 0.761 1.8 0.789 1.8 0.33 0-0.339-0.257-0.558-0.789-0.675-0.434-0.0953-1.49-0.629-2.36-1.19-2.4-1.55-4.18-3.99-5.53-7.58-1-2.67-1-2.67 1.21-1.92 4.75 1.62 7.86 3.7 8.85 5.94 0.767 1.72 1.4 1.39 0.731-0.384-0.156-0.414-0.767-1.33-1.36-2.03-0.59-0.701-1.18-1.65-1.31-2.1s-0.164-2.54-0.0737-4.63l0.164-3.8 2.7 1.86c1.48 1.02 3.08 2.22 3.55 2.66 1.08 1.04 2.12 3.4 2.35 5.36 0.25 2.12 0.802 2.03 0.84-0.147 0.0335-1.89 0.582-3.35 2.16-5.73 1.27-1.92 4.64-5.51 4.91-5.23 0.313 0.332 0.784 3.87 0.78 5.87-5e-3 2.71-0.909 5.65-2.15 6.98-0.54 0.58-0.685 1.12-0.301 1.12 0.319 0 1.21-1.03 2.01-2.33 0.548-0.883 0.94-1.19 1.83-1.43 1.13-0.304 8.71-0.401 8.99-0.115 0.215 0.215-0.945 2.26-2.43 4.28-1.53 2.08-3.16 3.34-4.35 3.34-1.32 0-2.54 0.515-2.54 1.07 0 0.456 0.054 0.461 0.826 0.0757 0.936-0.467 2.99-0.339 5.7 0.355 2.2 0.561 7.12 2.53 6.96 2.78-0.175 0.283-5.69 2.6-7.42 3.11-0.987 0.294-2.04 0.376-3.6 0.28-1.21-0.0748-2.2-0.0419-2.2 0.0731 0 0.309 0.67 0.513 2.32 0.707 1.38 0.162 1.53 0.253 2.49 1.54 1.48 1.98 4.31 7.91 3.78 7.91-0.564 0-5.99-1.76-7.42-2.41-0.906-0.409-2.2-1.26-2.88-1.88-0.678-0.625-1.31-1.06-1.39-0.973-0.0893 0.0893 0.124 0.738 0.473 1.44 0.604 1.22 0.632 1.5 0.558 5.69-0.0425 2.43-0.164 4.81-0.271 5.31l-0.193 0.899z"/>
   <path class="flowerCenterOutside" d="m107 43.1c-0.0549-0.0889-0.333-0.11-0.619-0.0477-0.353 0.0776-0.598 0.018-0.768-0.186-0.174-0.21-0.413-0.264-0.796-0.18-0.482 0.106-0.572 0.0523-0.763-0.452-0.19-0.504-0.282-0.559-0.776-0.46-0.545 0.109-0.556 0.0958-0.438-0.498 0.115-0.577 0.0946-0.607-0.396-0.549-0.478 0.0559-0.514 0.0139-0.47-0.554 0.0441-0.565 3e-3 -0.614-0.509-0.614-0.625 0-0.918-0.303-0.6-0.621 0.337-0.337 0.246-0.513-0.268-0.513-0.532 0-0.822-0.476-0.492-0.806 0.326-0.326 0.256-0.65-0.164-0.76-0.528-0.138-0.516-1.01 0.0161-1.18l0.394-0.125-0.422-0.449c-0.343-0.365-0.378-0.501-0.19-0.729 0.184-0.222 0.183-0.417-6e-3 -0.938-0.193-0.533-0.192-0.714 6e-3 -0.952 0.157-0.189 0.2-0.526 0.122-0.943-0.103-0.55-0.0615-0.668 0.273-0.774 0.321-0.102 0.373-0.226 0.277-0.665-0.137-0.626 0.17-1.32 0.584-1.32 0.158 0 0.411-0.298 0.563-0.661 0.152-0.364 0.382-0.671 0.51-0.683s0.319-0.0332 0.423-0.0472c0.104-0.014 0.38-0.217 0.614-0.451 0.234-0.234 0.591-0.425 0.793-0.425s0.598-0.213 0.878-0.472c0.28-0.26 0.682-0.472 0.893-0.472s0.541-0.143 0.734-0.318c0.276-0.25 0.461-0.278 0.865-0.131 0.367 0.134 0.687 0.117 1.12-0.0583 0.339-0.138 0.65-0.171 0.709-0.0763 0.0576 0.0931 0.437 0.125 0.843 0.0703 0.589-0.079 0.806-0.0204 1.07 0.29 0.249 0.291 0.472 0.362 0.879 0.28 0.417-0.0833 0.611-0.0165 0.82 0.282 0.151 0.215 0.504 0.418 0.784 0.451 0.365 0.0426 0.541 0.194 0.62 0.532 0.0855 0.369 0.247 0.486 0.737 0.533 0.581 0.0562 0.62 0.101 0.519 0.602-0.091 0.455-0.0415 0.551 0.31 0.601 0.333 0.0474 0.43 0.203 0.477 0.768 0.0377 0.455 0.154 0.709 0.324 0.709 0.146 0 0.364 0.185 0.485 0.41 0.18 0.337 0.162 0.453-0.104 0.647-0.297 0.217-0.283 0.263 0.165 0.556 0.521 0.342 0.629 0.817 0.266 1.18-0.17 0.17-0.141 0.312 0.126 0.607 0.339 0.375 0.337 0.396-0.0754 0.835-0.271 0.288-0.35 0.496-0.22 0.576 0.366 0.226 0.213 0.844-0.29 1.17-0.484 0.317-0.485 0.326-0.0945 0.471 0.527 0.195 0.504 0.562-0.0708 1.1-0.258 0.243-0.523 0.728-0.589 1.08-0.0656 0.35-0.274 0.719-0.463 0.82-0.189 0.101-0.395 0.347-0.458 0.546-0.0633 0.199-0.367 0.45-0.674 0.557-0.348 0.121-0.559 0.327-0.559 0.545 0 0.495-0.369 0.804-0.961 0.804-0.333 0-0.614 0.163-0.817 0.472-0.207 0.316-0.483 0.472-0.834 0.472-0.289 0-0.629 0.104-0.756 0.232-0.183 0.183-0.312 0.181-0.612-0.0064-0.21-0.131-0.484-0.173-0.609-0.0936-0.316 0.2-2.22 0.206-2.34 8e-3z"/>
   <path class="flowerCenterInside" d="m108 39.4c-0.173-0.0438-0.26-0.157-0.415-0.538-0.125-0.307-0.151-0.349-0.222-0.349-0.0843 0-0.0876 0.0062-0.171 0.327-0.023 0.0882-0.0831 0.205-0.134 0.259-0.181 0.193-0.561 0.107-0.834-0.19-0.133-0.144-0.139-0.159-0.12-0.307 0.0391-0.305 0.0383-0.321-0.0183-0.332-0.03-6e-3 -0.128 0.0354-0.217 0.0922-0.19 0.121-0.535 0.234-0.711 0.234-0.0915 0-0.147-0.024-0.212-0.0919-0.199-0.208-0.25-0.513-0.141-0.853 0.0577-0.18 0.0581-0.197 6e-3 -0.249-0.052-0.052-0.0676-0.0519-0.235 7.94e-4 -0.377 0.119-0.876 0.0473-1.04-0.15-0.108-0.129-0.106-0.213 0.0161-0.518 0.136-0.34 0.132-0.436-0.0251-0.584-0.0689-0.065-0.228-0.19-0.353-0.278-0.126-0.0878-0.257-0.207-0.292-0.265-0.0771-0.127-0.0857-0.407-0.0175-0.57 0.112-0.267 0.439-0.518 0.678-0.52 0.239-0.0016 0.168-0.158-0.186-0.414-0.475-0.342-0.611-0.549-0.536-0.814 0.052-0.186 0.294-0.459 0.453-0.512 0.074-0.0244 0.197-0.0309 0.326-0.017 0.476 0.0509 0.55-0.17 0.144-0.431-0.0955-0.0614-0.207-0.147-0.247-0.191-0.249-0.269-0.228-0.814 0.0405-1.02 0.107-0.0844 0.311-0.0944 0.743-0.0363 0.443 0.0596 0.479 0.0064 0.292-0.434-0.114-0.269-0.108-0.536 0.018-0.787 0.115-0.23 0.224-0.301 0.46-0.3 0.259 0.0015 0.496 0.0885 0.725 0.266 0.106 0.082 0.22 0.149 0.254 0.149 0.0778 0 0.138-0.119 0.212-0.418 0.0754-0.307 0.156-0.431 0.338-0.519 0.442-0.214 0.89-0.0399 1.03 0.402 0.0801 0.246 0.142 0.334 0.234 0.334 0.0927 0 0.117-0.0557 0.117-0.272 0-0.277 0.148-0.467 0.429-0.552 0.189-0.057 0.344-0.0564 0.564 0.0023 0.424 0.113 0.644 0.382 0.795 0.972 0.033 0.129 0.0698 0.245 0.0818 0.259 0.0119 0.014 0.134-0.0592 0.27-0.163 0.423-0.32 0.638-0.378 0.919-0.251 0.163 0.0742 0.403 0.343 0.453 0.508 0.0467 0.153 4e-3 0.239-0.262 0.532-0.22 0.242-0.262 0.321-0.206 0.388 0.0563 0.0678 0.112 0.0579 0.397-0.071 0.407-0.184 0.766-0.157 1.04 0.0787 0.251 0.215 0.322 0.495 0.193 0.763-0.0894 0.185-0.254 0.319-0.529 0.433-0.204 0.0842-0.303 0.155-0.303 0.218 0 0.0514 0.129 0.0924 0.454 0.145 0.62 0.0997 0.983 0.355 0.983 0.69 0 0.0855-0.034 0.141-0.163 0.265-0.236 0.227-0.465 0.307-0.909 0.316-0.366 0.0075-0.511 0.0475-0.579 0.16-0.0465 0.0772 0.0476 0.161 0.273 0.242 0.566 0.204 0.802 0.386 0.892 0.689 0.11 0.371 0.0371 0.692-0.203 0.891-0.174 0.144-0.398 0.205-0.762 0.207-0.167 0.0011-0.363 0.0128-0.437 0.0262l-0.134 0.0242 0.301 0.204c0.347 0.235 0.46 0.346 0.533 0.519 0.104 0.249 0.0271 0.493-0.227 0.716-0.244 0.215-0.434 0.259-0.994 0.23-0.423-0.0218-0.466-0.0188-0.487 0.0342-0.0122 0.032-3e-3 0.105 0.0214 0.162 0.124 0.295 0.0548 0.513-0.22 0.687-0.197 0.125-0.434 0.175-0.699 0.148-0.323-0.0331-0.438-9.8e-5 -0.514 0.148-0.093 0.182-0.292 0.282-0.585 0.294-0.13 0.0054-0.287-3e-3 -0.349-0.0187z"/>
   <path class="outlineFillColor" d="m97.3 56.2c0.096-0.0134 0.246-0.136 0.47-0.365 0.28-0.287 1.1-0.901 1.83-1.37 0.724-0.464 1.93-1.27 2.68-1.79 0.751-0.522 1.38-0.923 1.4-0.895 0.02 0.0292 0.103 0.245 0.184 0.477 0.0813 0.232 0.469 0.883 0.864 1.45 0.395 0.564 0.927 1.37 1.18 1.78 0.571 0.93 0.626 0.979 0.912 0.872 0.429-0.159 2.43-2.68 2.92-3.68 0.0661-0.136 3.23 2.75 4.22 3.84 0.312 0.347 0.599 0.635 0.638 0.64 0.0403 6e-3 0.118-0.51 0.174-1.15 0.0568-0.637 0.185-2.03 0.285-3.09 0.1-1.07 0.165-2.05 0.145-2.18-0.0287-0.2 5e-3 -0.221 0.184-0.112 0.835 0.513 2.58 1.29 3.15 1.4l0.678 0.132 0.235-1.74c0.129-0.957 0.249-2.16 0.265-2.67l0.0274-0.928 0.582 0.158c0.319 0.0962 1.78 0.523 3.25 0.961 1.47 0.438 2.68 0.785 2.7 0.768 0.0186-0.0115-0.122-0.401-0.314-0.859-0.192-0.458-0.642-1.62-0.999-2.59-0.357-0.967-0.836-2.13-1.07-2.58l-0.421-0.823 1.3-0.0434c1.39-0.0453 3.33-0.376 3.99-0.679l0.405-0.185-1.12-1.41c-0.618-0.773-1.44-1.68-1.82-2.02l-0.691-0.614 2.45-1.09c1.35-0.597 2.57-1.14 2.72-1.2 0.646-0.277 0.592-0.436-0.354-1.02-0.606-0.375-1.81-0.912-4.59-2.06l-0.521-0.215 0.917-0.559c0.93-0.566 1.79-1.4 2.68-2.59 0.45-0.606 0.472-0.669 0.286-0.805-0.453-0.328-2.13-0.809-3.43-0.985-0.755-0.102-1.37-0.224-1.36-0.263 5e-3 -0.039 0.27-0.498 0.587-1.02 0.478-0.781 1.2-2.24 1.5-3.05 0.0579-0.154-0.181-0.209-1.74-0.38-0.995-0.108-2.49-0.192-3.33-0.185-0.836 6e-3 -1.54-9.2e-4 -1.56-0.0221-0.0203-0.0173 0.105-0.238 0.275-0.484 0.462-0.667 0.983-1.79 1.35-2.92 0.399-1.23 0.718-2.98 0.545-3-1.43-0.154-4.94 0.271-5.75 0.695-0.29 0.153-0.389 0.16-0.411 0.024-0.0163-0.0951-0.0662-0.403-0.111-0.687-0.045-0.284-0.209-1.01-0.364-1.6-0.155-0.596-0.266-1.19-0.248-1.32 0.039-0.289-0.134-0.908-0.259-0.925-0.137-0.0192-2.44 1.81-3.06 2.42-0.301 0.301-0.905 0.974-1.34 1.5-0.462 0.554-0.673 0.825-0.777 0.714l-0.37 0.788c-0.0292 0.146-0.0726 0.243-0.152 0.304-0.103 0.079-0.138 0.0344-0.116-0.135 0.0557-0.429-0.382-1.6-0.848-2.26l-0.453-0.647 9e-3 -0.346-0.363-0.341c-4e-3 0.0394-9e-3 0.276-0.0127 0.275-0.0181-2e-3 -0.296-0.267-0.62-0.589-0.0553-0.0607-0.122-0.109-0.184-0.163l-0.963-0.386c0.117 0.0953 0.377 0.335 0.769 0.727 2.27 2.27 2.81 3.76 1.91 5.29-0.495 0.84-0.966 1.89-1.2 2.66l-0.171 0.567-0.191-0.649c-0.491-1.67-1.47-3.11-2.9-4.26-0.434-0.349-0.438-0.363-0.283-0.932 0.194-0.712 0.827-1.99 1.42-2.87 0.213-0.316 0.391-0.541 0.466-0.601l-0.269-0.103c-0.147 0.138-0.318 0.368-0.608 0.798-0.576 0.856-1.04 1.8-1.23 2.51-0.0897 0.33-0.173 0.6-0.187 0.598-0.194-0.0263-4.14-2.58-4.68-3.03-0.404-0.337-0.797-0.621-0.87-0.631-0.0857-0.0134-0.125 0.151-0.113 0.459 0.0564 1.28 0.041 2.12-0.0637 3.49l-0.115 1.49-0.259-0.128c-0.221-0.109-0.972-0.359-3.27-1.1l-0.408-0.135-0.201 1.89c-0.11 1.04-0.232 1.89-0.27 1.88-0.333-0.0484-4.17-1.19-4.26-1.27-0.0684-0.0624-0.216-0.0425-0.326 0.0223-0.171 0.11-0.154 0.205 0.118 0.664 0.175 0.295 0.359 0.868 0.407 1.27 0.0935 0.795 0.7 2.53 1.32 3.78 0.211 0.425 0.381 0.804 0.376 0.842-5e-3 0.039-0.148 0.0463-0.318 0.0232-0.78-0.105-3.66 0.612-3.83 0.953-0.119 0.246 0.741 1.47 1.75 2.5 0.554 0.561 1.01 1.06 1.01 1.1-6.5e-4 0.04-0.368 0.158-0.817 0.257-1.49 0.326-3.62 1.3-5.3 2.43l-0.528 0.355 0.268 0.275c0.455 0.466 2.75 1.94 4.21 2.71 0.764 0.401 1.38 0.764 1.38 0.803-5e-3 0.039-0.302 0.159-0.659 0.269-0.9 0.275-2.12 0.982-3.16 1.83l-0.875 0.716 0.398 0.414c0.604 0.629 2.43 1.81 3.37 2.19 0.463 0.182 0.857 0.346 0.877 0.361 0.0194 0.0154-0.195 0.3-0.478 0.635-1.12 1.33-3.56 4.98-3.43 5.14 0.0688 0.0888 3.76-0.252 5.19-0.479 0.716-0.114 1.8-0.34 2.41-0.505 0.608-0.164 1.11-0.299 1.11-0.299 5e-3 7e-4 -0.174 0.589-0.398 1.31-0.256 0.823-0.457 1.77-0.541 2.55l-0.135 1.25 0.564 0.0499c1.22 0.0853 3.1-0.273 4.18-0.806 0.382-0.188 0.706-0.325 0.721-0.304 0.0497 0.073-0.103 3.08-0.196 3.83-0.0906 0.737-0.0908 1.05 0.0668 1.04zm0.232-0.58c-0.086-0.0115 0.197-3.25 0.443-5.05 0.183-1.35 0.786-3.89 1.34-5.65 0.241-0.766 0.473-1.25 0.776-1.6 0.238-0.281 0.567-0.732 0.729-1l0.295-0.489 0.134 0.42c0.146 0.461 0.658 0.699 1.02 0.472 0.162-0.0972 0.193-0.0799 0.165 0.128-0.0701 0.518 0.769 1.07 1.28 0.834 0.136-0.0611 0.286-0.0154 0.463 0.129 0.143 0.125 0.525 0.26 0.847 0.303 0.322 0.0436 0.78 0.109 1.02 0.149 0.238 0.0419 0.552 0.048 0.696 0.0154 0.242-0.0469 0.253 8e-3 0.17 0.734-0.0494 0.432-0.047 1.15 5e-3 1.6l0.0942 0.811-0.478 0.708c-1.09 1.61-2.7 3.01-6.13 5.33-1.2 0.813-2.32 1.63-2.48 1.82-0.165 0.188-0.333 0.339-0.374 0.334zm9.18 0.48c-0.0403-6e-3 -0.228-0.301-0.417-0.656-0.189-0.356-0.704-1.16-1.15-1.8-0.442-0.635-0.895-1.38-1.01-1.66l-0.201-0.507 0.736-0.656c0.809-0.721 2.18-2.27 2.21-2.51 0.0468-0.346 0.291-0.23 0.404 0.193 0.207 0.774 0.878 1.99 1.57 2.86 0.365 0.455 0.653 0.897 0.642 0.983-0.061 0.452-2.54 3.78-2.8 3.75zm7.57 0.137c-0.0428-6e-3 -0.136-0.0978-0.204-0.211-0.0679-0.115-0.873-0.907-1.79-1.77-2.98-2.81-3.97-4.13-4.58-6.08-0.524-1.68-0.56-3.92-0.0606-3.85 0.121 0.0173 0.345-0.0328 0.498-0.113 0.181-0.0947 0.334-0.0955 0.441-8e-3 0.266 0.223 0.666 0.225 1.04 6e-3 0.192-0.113 0.465-0.189 0.605-0.17 0.331 0.0446 1.18-0.519 1.32-0.878 0.0902-0.226 0.176-0.26 0.458-0.178 0.245 0.0736 0.47 0.0238 0.773-0.17 0.234-0.149 0.45-0.265 0.479-0.261 0.13 0.0154 0.962 1.52 1.17 2.1 0.321 0.918 0.444 2.25 0.371 3.99-0.191 4.56-0.398 7.6-0.518 7.59zm-21.9-3.97c-0.104-0.0154 0.28-2.44 0.511-3.22 0.533-1.8 0.565-1.85 1.4-2.15 1.27-0.459 3.43-1.56 4.1-2.09 0.348-0.275 0.666-0.495 0.708-0.489 0.0428 6e-3 -0.0405 0.351-0.186 0.766-0.317 0.905-1.13 4.26-1.25 5.18-0.0869 0.643-0.098 0.656-0.73 0.951-0.974 0.454-2.04 0.743-3.33 0.909-0.643 0.0828-1.19 0.146-1.22 0.143zm-7.4-4.04c-0.227-0.0307 2.83-4.12 3.92-5.24 2.14-2.2 5.1-4.19 7.85-5.25 0.932-0.363 1.39-0.455 1.37-0.278-9e-3 0.0649 0.0877 0.175 0.216 0.235 0.195 0.0926 0.203 0.16 0.0626 0.38-0.249 0.395 0.0209 1.08 0.49 1.24 0.295 0.106 0.348 0.182 0.308 0.476-0.0559 0.414 0.374 0.866 0.778 0.816 0.202-0.0257 0.248 0.03 0.218 0.251-0.0209 0.155 0.0614 0.448 0.181 0.653 0.217 0.367 0.217 0.377-0.0819 0.861-0.442 0.717-2.8 2.52-4.12 3.16-1.27 0.609-3.21 1.3-4.68 1.66-1.2 0.296-6.16 1.09-6.51 1.05zm34 3.73-0.488-0.145c-0.633-0.192-2.28-0.956-2.8-1.31l-0.405-0.273 0.0426-1.41c0.051-1.69-7e-3 -2.67-0.211-3.55-0.0826-0.36-0.148-0.667-0.146-0.685 9e-3 -0.0649 0.232 0.0444 1.24 0.648 0.58 0.345 1.52 0.814 2.1 1.04l1.04 0.414 0.0188 0.528c0.011 0.29-0.0721 1.48-0.187 2.63zm6.62-3.81c-0.0222-4e-3 -1.43-0.423-3.14-0.933-3.42-1.02-4.51-1.43-5.85-2.18-1.48-0.831-1.82-1.12-2.64-2.2-0.754-1-0.767-1.04-0.478-1.14 0.521-0.185 0.925-0.529 0.965-0.823 0.0211-0.156 0.156-0.33 0.3-0.384 0.297-0.111 0.672-0.843 0.669-1.31-1e-3 -0.218 0.113-0.385 0.379-0.556 0.209-0.134 0.442-0.391 0.519-0.572 0.128-0.298 0.175-0.316 0.5-0.176 0.437 0.191 2.76 0.539 3.13 0.476 0.692-0.121 3.05 3.31 4.24 6.17 0.736 1.77 1.45 3.64 1.39 3.63zm-37.2-5.7c-0.0819-0.0115-0.18-0.0379-0.308-0.0674-0.288-0.0795-0.802-0.285-1.14-0.456-0.788-0.397-3-1.9-2.98-2.03 0.0183-0.134 1.74-1.29 2.57-1.73 0.375-0.197 1.05-0.485 1.51-0.64 0.454-0.156 0.841-0.275 0.858-0.261 0.0183 0.0135 0.389 0.204 0.823 0.424 0.948 0.483 2.33 0.91 3.09 0.952 0.305 0.0154 0.537 0.0615 0.514 0.0959-0.0222 0.0369-0.582 0.429-1.24 0.872-1.29 0.863-2.15 1.56-2.97 2.4-0.374 0.382-0.482 0.482-0.728 0.449zm17.8 1.55c-0.153-0.0206-0.333-0.111-0.459-0.258-0.174-0.206-0.222-0.212-0.532-0.0626-0.309 0.148-0.369 0.141-0.687-0.0817-0.192-0.132-0.379-0.314-0.417-0.398-0.0463-0.0991-0.152-0.0736-0.321 0.101-0.197 0.199-0.322 0.227-0.573 0.127-0.293-0.119-0.397-0.311-0.504-0.935-0.0367-0.209-0.0615-0.212-0.432-0.0619-0.536 0.218-0.827-0.0586-0.652-0.638 0.153-0.502 0.0855-0.576-0.373-0.411-0.33 0.117-0.393 0.106-0.542-0.0859-0.189-0.248-0.178-0.598 0.0247-0.752 0.082-0.0684 0.0987-0.182 0.0448-0.303-0.0713-0.158-0.125-0.173-0.265-0.0622-0.306 0.233-0.866 0.0767-0.972-0.273-0.075-0.25-0.0392-0.376 0.177-0.626l0.271-0.313-0.318 0.0498c-0.175 0.0294-0.385 0.0673-0.469 0.0892-0.187 0.0411-0.609-0.485-0.577-0.722 0.0127-0.0913 0.117-0.229 0.231-0.302 0.115-0.0772 0.221-0.241 0.239-0.377 0.0269-0.199-0.0258-0.241-0.283-0.211-0.262 0.0309-0.343-0.0334-0.463-0.37-0.176-0.493-0.0294-0.852 0.4-0.981l0.319-0.0974-0.333-0.268c-0.435-0.352-0.504-0.761-0.177-1.04 0.242-0.203 0.24-0.229-0.0337-0.604-0.335-0.459-0.308-0.93 0.0748-1.29 0.268-0.251 0.269-0.265 0.069-0.628-0.263-0.48-0.0895-0.972 0.361-1.02 0.374-0.0423 0.395-0.0991 0.185-0.505-0.0935-0.181-0.114-0.49-0.0543-0.764 0.088-0.396 0.174-0.487 0.634-0.65 0.461-0.166 0.533-0.24 0.543-0.564 0.0181-0.524 0.632-1.03 1.05-0.867 0.242 0.0989 0.302 0.0678 0.33-0.139 0.0481-0.355 0.677-0.769 1.15-0.752 0.293 0.0135 0.464-0.0845 0.688-0.384 0.403-0.538 0.688-0.688 1.08-0.56 0.225 0.0707 0.34 0.0551 0.356-0.058 0.0626-0.464 1.21-0.641 1.52-0.236 0.0913 0.118 0.231 0.0844 0.556-0.116 0.482-0.305 0.986-0.303 1.06 2e-3 0.0396 0.168 0.0889 0.166 0.332-0.0215l2e-3 -4e-3c0.509-0.389 1.56-0.0795 1.69 0.496 0.0557 0.254 0.0622 0.255 0.392 0.0403 0.465-0.304 0.9-0.162 1.17 0.383 0.122 0.247 0.261 0.392 0.315 0.328 0.133-0.16 0.749-0.0619 0.906 0.149 0.0715 0.0892 0.107 0.329 0.0809 0.524-0.0476 0.351-0.0407 0.355 0.524 0.348 0.382-1e-3 0.627 0.0448 0.737 0.166 0.199 0.215 0.158 0.672-0.0766 0.851-0.132 0.101-0.0683 0.142 0.288 0.19 0.576 0.0778 0.85 0.544 0.652 1.12-0.116 0.337-0.102 0.372 0.142 0.343 0.571-0.0701 1.05 1.2 0.503 1.33-0.308 0.0774-0.254 0.202 0.165 0.389 0.218 0.0957 0.448 0.331 0.527 0.534 0.13 0.334 0.116 0.387-0.19 0.702-0.322 0.332-0.326 0.342-0.0851 0.374 0.296 0.0401 0.492 0.489 0.348 0.795-0.0579 0.125-0.222 0.299-0.367 0.399-0.259 0.178-0.26 0.188-0.0573 0.454 0.113 0.149 0.188 0.398 0.167 0.553-0.0477 0.353-0.44 0.792-0.679 0.759-0.0989-0.0135-0.188 0.0409-0.198 0.114-0.0109 0.078 0.0757 0.116 0.195 0.0795 0.261-0.0576 0.502 0.324 0.451 0.728-0.0207 0.171-0.22 0.424-0.48 0.607-0.386 0.274-0.458 0.4-0.542 0.97-0.104 0.693-0.352 1.04-0.71 0.991-0.163-0.0229-0.213 0.0507-0.199 0.294 0.0214 0.401-0.338 0.729-0.846 0.77-0.341 0.0334-0.378 0.0813-0.444 0.572-0.084 0.622-0.194 0.7-0.979 0.687-0.433-6e-3 -0.568 0.0425-0.563 0.194 2e-3 0.12-0.189 0.366-0.425 0.559-0.322 0.263-0.505 0.325-0.73 0.251-0.22-0.0695-0.359-0.0357-0.53 0.167-0.27 0.311-0.748 0.291-0.999-0.0421-0.156-0.205-0.194-0.203-0.435 0.0208-0.277 0.262-0.849 0.262-1.38-2e-3 -0.203-0.107-0.274-0.0901-0.295 0.0661-0.018 0.13-0.144 0.179-0.296 0.16zm1.67-3.42c0.266 0.01 0.521-0.0728 0.7-0.232 0.177-0.158 0.438-0.27 0.581-0.25 0.357 0.0482 0.991-0.191 1.12-0.423 0.0545-0.0986 0.119-0.298 0.136-0.43 0.0243-0.18 0.12-0.228 0.387-0.192 0.196 0.0265 0.526-0.048 0.735-0.174 0.345-0.203 0.381-0.28 0.412-0.888 0.0245-0.466 0.0842-0.679 0.202-0.707 0.0926-0.0273 0.28-0.202 0.419-0.401 0.303-0.432 0.291-0.94-0.0339-1.4-0.17-0.24-0.184-0.332-0.0552-0.357 0.728-0.139 0.976-0.964 0.461-1.53-0.186-0.205-0.389-0.379-0.447-0.387-0.0586-8e-3 -0.0477-0.207 0.0222-0.438 0.167-0.546-0.0662-1.04-0.584-1.25-0.267-0.102-0.391-0.244-0.392-0.431-7e-3 -0.663-1-1.26-1.68-1.01-0.223 0.089-0.298 0.0526-0.422-0.192-0.0829-0.161-0.264-0.358-0.402-0.436l-2e-3 -2.7e-4c-0.395-0.224-0.908-0.265-1.35-0.103-0.331 0.118-0.468 0.109-0.741-0.0471-0.28-0.157-0.419-0.163-0.837-0.0338-0.277 0.0951-0.572 0.279-0.656 0.416-0.127 0.207-0.226 0.229-0.611 0.123-0.396-0.106-0.522-0.0797-0.907 0.214-0.391 0.297-0.449 0.405-0.449 0.835-4.7e-4 0.425-0.0349 0.494-0.259 0.497-0.144 8e-3 -0.397 0.143-0.563 0.312-0.275 0.282-0.295 0.362-0.225 0.911 0.0635 0.512 0.047 0.614-0.121 0.68-0.107 0.0384-0.287 0.261-0.396 0.486-0.21 0.43-0.165 0.74 0.182 1.27 0.125 0.189 0.125 0.275-2e-3 0.372-0.0913 0.0673-0.195 0.333-0.229 0.586-0.0499 0.37 0.0146 0.547 0.322 0.9 0.296 0.34 0.37 0.536 0.326 0.861-0.0771 0.572 0.248 0.938 0.886 0.997 0.395 0.0407 0.487 0.0922 0.463 0.268-0.0163 0.117 0.0915 0.37 0.24 0.553 0.236 0.292 0.326 0.324 0.703 0.262 0.356-0.0578 0.474-0.0288 0.682 0.198 0.279 0.296 0.959 0.442 1.2 0.255 0.113-0.0907 0.225-0.0624 0.412 0.0669 0.228 0.165 0.507 0.249 0.773 0.253zm-0.205-0.302c-0.363-0.049-0.449-0.127-0.605-0.556-0.174-0.47-0.189-0.482-0.234-0.173-0.027 0.179-0.142 0.383-0.255 0.453-0.413 0.258-1.22-0.337-1.01-0.74 0.1-0.192 0.0898-0.193-0.159-0.0311-0.147 0.0995-0.422 0.192-0.611 0.213-0.278 0.0286-0.375-0.0242-0.509-0.311-0.106-0.225-0.123-0.458-0.0439-0.656 0.11-0.277 0.0973-0.298-0.139-0.211-0.382 0.142-0.975 0.0327-1.13-0.205-0.0947-0.152-0.0817-0.317 0.0421-0.596 0.166-0.371 0.155-0.399-0.299-0.703-0.383-0.257-0.471-0.392-0.457-0.715 0.0163-0.425 0.463-0.86 0.839-0.82 0.107 0.0115-0.041-0.138-0.328-0.329-0.589-0.395-0.676-0.761-0.286-1.21 0.166-0.191 0.356-0.261 0.611-0.226 0.471 0.0636 0.495-0.0907 0.0541-0.329-0.395-0.213-0.511-0.822-0.233-1.21 0.134-0.186 0.293-0.22 0.733-0.161 0.556 0.0749 0.56 0.072 0.406-0.228-0.181-0.349-0.147-0.787 0.0846-1.11 0.198-0.274 0.859-0.214 1.21 0.11 0.235 0.217 0.245 0.21 0.343-0.235 0.0755-0.342 0.189-0.493 0.445-0.593 0.461-0.182 0.974 0.0386 1.07 0.448 0.0915 0.392 0.248 0.451 0.202 0.0805-0.0202-0.164 0.069-0.343 0.237-0.472l2e-3 2.3e-4 2.4e-4 -2e-3c0.325-0.245 0.988-0.186 1.32 0.125 0.129 0.123 0.28 0.389 0.336 0.601l0.102 0.382 0.336-0.257c0.412-0.314 0.846-0.273 1.16 0.117 0.296 0.361 0.273 0.542-0.11 0.913-0.33 0.32-0.248 0.397 0.17 0.161 0.375-0.212 0.927-0.105 1.18 0.226 0.354 0.464 0.132 1.01-0.502 1.24-0.334 0.122-0.327 0.127 0.228 0.202 0.618 0.0836 1.03 0.43 0.981 0.819-0.0403 0.298-0.681 0.656-1.08 0.603-0.179-0.0227-0.411-2e-3 -0.518 0.0494-0.141 0.0605-0.0664 0.129 0.282 0.242 0.587 0.185 0.84 0.462 0.88 0.953 0.0455 0.555-0.332 0.93-0.956 0.945l-0.505 0.0115 0.375 0.255c0.851 0.579 0.171 1.63-0.941 1.46-0.385-0.0611-0.519-0.0438-0.441 0.0598 0.36 0.471-0.239 1.06-0.976 0.962-0.224-0.0304-0.415-4e-3 -0.423 0.0619-0.0337 0.25-0.48 0.45-0.882 0.395zm-15-2.07c-0.572-0.0786-1.19-0.268-1.93-0.556-1.67-0.662-7.65-4.06-7.61-4.33 0.023-0.168 2.55-1.5 3.64-1.91 1.36-0.52 3.46-0.904 5.29-0.968 1.8-0.0642 2.92 0.0941 3.78 0.537 0.354 0.182 1.03 0.466 1.5 0.633 0.98 0.347 1.37 0.767 0.993 1.08-0.261 0.219-0.384 1.08-0.203 1.42 0.0848 0.157 0.0909 0.442 0.0127 0.753-0.0996 0.395-0.0784 0.557 0.0982 0.766l0.224 0.265-0.304 0.313c-0.167 0.173-0.279 0.369-0.248 0.44 0.0316 0.0705-0.252 0.223-0.628 0.339-0.376 0.116-1.2 0.447-1.83 0.734-1.01 0.458-1.83 0.624-2.78 0.492zm30.7 3.33-1.23-1.65c-0.677-0.908-1.23-1.67-1.23-1.7 4e-3 -0.0259 0.0917-0.0407 0.194-0.0269 0.101 0.0154 0.702-0.112 1.33-0.278 0.632-0.166 1.48-0.419 1.9-0.561l0.748-0.257 0.549 0.46c0.656 0.551 2.44 2.43 2.81 2.95 0.221 0.312 0.231 0.385 0.065 0.461-0.451 0.202-2.65 0.518-3.85 0.556zm-5.5-3.83c-0.868-0.144-1.36-0.337-1.67-0.648-0.199-0.201-0.196-0.227 0.0269-0.415 0.32-0.268 0.372-0.769 0.115-1.07-0.206-0.245-0.206-0.252 0.0614-0.454 0.321-0.244 0.501-1.22 0.277-1.49-0.0806-0.0903-0.101-0.3-0.0499-0.455 0.111-0.328-0.0443-1.01-0.255-1.13-0.251-0.14 0.0345-0.756 0.47-1.02 0.226-0.136 0.654-0.299 0.952-0.363 0.664-0.14 3.83 0.193 4.82 0.51 3.42 1.09 4.67 1.55 6.39 2.33 0.754 0.343 1.39 0.646 1.41 0.67 0.02 0.0292-0.549 0.301-1.26 0.611-0.715 0.31-1.92 0.839-2.67 1.17-1.74 0.776-3.88 1.53-5.14 1.81-0.804 0.178-1.25 0.191-2.48 0.0722-0.382-0.0386-0.713-0.0836-1-0.124zm-20-6.35c-0.585-0.079-2.51-1.09-3.48-1.82-1.16-0.88-2.21-2.13-3.14-3.71-1.15-1.96-2.24-4.74-2.26-5.75l2e-3 2.5e-4c-0.0127-0.491-0.152-0.503 1.83 0.154 1.59 0.528 2.57 0.929 4.44 1.82 2.72 1.3 4.38 2.91 4.93 4.78 0.231 0.782 0.233 0.876 0.0307 1.1-0.123 0.132-0.241 0.381-0.265 0.554-0.0312 0.222-0.184 0.381-0.521 0.539-0.262 0.124-0.55 0.358-0.64 0.523-0.161 0.296-0.168 0.859-0.0127 1.12 0.128 0.22-0.563 0.746-0.917 0.698zm-8.18-1.22c-0.337-0.0453-3.09-3.06-3.05-3.34 0.0198-0.147 0.863-0.419 1.85-0.599 0.464-0.0845 1.17-0.158 1.57-0.165l0.724-0.01 0.521 0.868c0.571 0.949 1.56 2.09 2.3 2.65 0.258 0.194 0.461 0.402 0.453 0.46-9e-3 0.0649-0.0523 0.0724-0.0995 0.0396-0.123-0.0963-2.41-0.0745-3.31 0.0327-0.419 0.0494-0.849 0.079-0.954 0.0648zm26.7 0.733-0.251-0.308c-0.139-0.17-0.311-0.319-0.384-0.329-0.073-0.01-0.143-0.202-0.158-0.427-0.0298-0.467-0.393-1.04-0.683-1.08-0.121-0.0154-0.186-0.144-0.171-0.343 0.0386-0.512-0.178-0.735-0.753-0.77-0.473-0.0242-0.519-0.0646-0.587-0.421-0.0448-0.237-0.222-0.491-0.451-0.647l-0.379-0.257 0.456-0.258c0.507-0.288 1.25-1.27 1.72-2.26 0.37-0.782 0.718-1.1 1.52-1.37 1.06-0.368 3.78-0.563 6.39-0.457 2.77 0.112 3.39 0.185 3.36 0.388-0.0388 0.288-1.19 2.38-1.8 3.29-1.37 2.02-2.69 3.44-3.76 4.04-0.651 0.366-0.897 0.43-1.55 0.41-0.898-0.0284-1.77 0.19-2.21 0.552zm8.27 0.236c-0.142-0.029-1.14-0.273-2.22-0.54l-1.96-0.488 0.928-0.712c0.51-0.391 1.31-1.17 1.77-1.74l0.838-1.03 1.61 0.204c1.4 0.176 3.14 0.595 3.3 0.8 0.0285 0.044-0.396 0.567-0.943 1.18-1.07 1.2-2.82 2.42-3.31 2.33zm-23.7-3.63c-0.0888-0.0115-0.199-0.27-0.246-0.571-0.169-1.11-0.951-2.37-2.07-3.35-0.849-0.743-1.14-2.19-0.954-4.74 0.179-2.48 0.21-4.14 0.104-5.52l-2e-3 -2.3e-4c-0.0283-0.379 0.0437-0.347 0.842 0.383 0.372 0.339 1.41 1.08 2.31 1.64 1.88 1.17 3.14 2.14 3.9 2.99 1.03 1.15 1.87 3.39 1.91 5.1 0.011 0.467 0.0759 1.05 0.143 1.31 0.102 0.374 0.0884 0.493-0.0682 0.663-0.134 0.145-0.239 0.164-0.355 0.0711-0.309-0.259-1.16-0.295-1.44-0.0609-0.142 0.12-0.386 0.201-0.541 0.18-0.363-0.0492-1.27 0.598-1.32 0.94-0.0303 0.224-0.0871 0.243-0.397 0.137-0.313-0.109-0.447-0.0569-1.01 0.376-0.354 0.274-0.716 0.488-0.804 0.476zm11.2-1.47c-0.0967-2e-4 -0.168-0.0482-0.288-0.158-0.317-0.293-0.935-0.387-1.29-0.2-0.233 0.128-0.291 0.117-0.468-0.0897-0.191-0.226-0.958-0.429-2.3-0.613-0.433-0.059-0.457-0.0889-0.519-0.627-0.185-1.64 0.198-3.41 1.08-5.03 1.31-2.4 2.76-4.35 4.38-5.88 0.392-0.37 0.987-0.91 1.32-1.2l0.607-0.524 0.0877 0.375c0.678 2.88 0.905 5.64 0.638 7.73-0.354 2.77-1.53 5.29-2.81 6.02-0.224 0.127-0.347 0.19-0.444 0.196zm-14.5-3.43c-0.0163 0.01-0.0699-0.0134-0.167-0.0755-0.842-0.485-2.83-1.46-3.4-1.67-0.811-0.299-0.787-0.199-0.613-2.39l2e-3 2.5e-4c0.0715-0.912 0.172-1.59 0.234-1.57 0.0604 0.0154 0.269 0.103 0.466 0.196 0.196 0.093 0.887 0.35 1.53 0.57 1.68 0.571 1.62 0.504 1.54 1.87-0.0657 1.11 0.105 2.52 0.355 2.93 0.0494 0.0861 0.0688 0.129 0.0526 0.14zm17.7-0.283c-0.0505 0.0198-7.2e-4 -0.171 0.111-0.421 0.315-0.705 0.595-3.15 0.509-4.46l-0.0746-1.14 0.31-0.186c0.4-0.243 1.94-0.508 3.63-0.621 0.738-0.0502 1.47-0.101 1.63-0.113 0.253-0.0192 0.281 0.0325 0.232 0.387-0.184 1.35-1.36 4.44-2.02 5.31-0.32 0.423-0.395 0.452-1.53 0.579-0.974 0.109-1.85 0.315-2.79 0.658z"/>
  </g>
  <g transform="rotate(-57.5 285 170)">
   <path class="flowerBackPetals" d="m94.4 20.1c-0.291-1.23 0.535-3.74 0.535-3.74s2.61 0.749 3.74 1.47c2.34 1.49 6.01 5.75 6.01 5.75s-0.728-5.27 0-7.75c0.418-1.42 2.41-3.74 2.41-3.74s2.04 1.49 2.67 2.54c0.504 0.832 0.46 1.9 0.802 2.81 0.588 1.57 2.14 4.54 2.14 4.54s2.75-4.64 4.94-6.01c1.13-0.706 2.56-0.778 3.88-0.935 0.708-0.0842 2.14 0 2.14 0s-0.684 2.54-1.2 3.74c-0.402 0.934-1.02 1.76-1.47 2.67-0.734 1.48-2 4.54-2 4.54s4.38-0.124 6.55 0.134c1.86 0.221 5.48 1.2 5.48 1.2s-1.68 1.9-2.67 2.67c-0.695 0.538-1.51 0.897-2.27 1.34-1.64 0.948-4.94 2.81-4.94 2.81s4.16 1.07 5.88 2.27c1.5 1.05 3.61 4.14 3.61 4.14s-2.31 0.465-3.47 0.668c-0.844 0.148-1.68 0.352-2.54 0.401-2.14 0.123-6.41-0.267-6.41-0.267s2.61 2.97 3.07 4.81c0.462 1.82-0.401 5.61-0.401 5.61s-3.09-0.871-4.41-1.74c-1.69-1.11-4.28-4.28-4.28-4.28s-0.0345 4.31-0.802 6.28c-0.616 1.58-2.94 4.14-2.94 4.14s-2.55-3.28-3.21-5.21c-0.692-2.04-0.668-6.41-0.668-6.41s-3.12 4.3-5.21 5.88c-0.907 0.684-1.97 1.22-3.07 1.47-0.869 0.197-2.67 0-2.67 0s0.927-3.61 1.6-5.35c0.703-1.8 2.54-5.21 2.54-5.21s-5.02 1.62-7.48 1.07c-1.82-0.407-4.68-3.07-4.68-3.07s3.09-1.74 4.68-2.54c2.33-1.18 7.08-3.34 7.08-3.34s-4.2-2.03-6.01-3.47c-1.33-1.06-3.47-3.74-3.47-3.74s3.2-0.784 4.81-0.668c2.4 0.172 6.95 2 6.95 2s-4.51-4.53-5.21-7.48z"/>
   <path class="flowerFrontPetals" d="m113 53.2c-2.99-3.11-3.83-4.68-3.83-7.15 0-1-0.0984-1.33-0.401-1.33-0.311 0-0.401 0.353-0.401 1.57 0 1.5-0.0611 1.64-1.24 2.96-0.683 0.759-2.46 2.24-3.94 3.28-1.49 1.05-2.98 2.15-3.33 2.46l-0.631 0.554 0.185-2c0.4-4.33 1.78-9.67 2.69-10.4 0.391-0.325 0.543-1.06 0.218-1.06-0.095 0-0.728 0.52-1.41 1.15-1.6 1.5-3.22 2.43-5.66 3.27-1.94 0.665-7.96 1.84-8.19 1.61-0.0665-0.0665 0.157-0.519 0.497-1 2.87-4.1 5.96-6.83 9.65-8.5 1.13-0.514 2.07-1.09 2.07-1.27 0.013-0.473-0.478-0.408-1.86 0.245-1.6 0.756-3.51 0.754-5.21-0.0043-1.93-0.86-7.08-3.83-7.08-4.09 0-0.366 3.12-1.82 4.88-2.27 0.915-0.235 2.75-0.431 4.07-0.436 2.14-0.0069 2.61 0.085 4.21 0.825 1.65 0.761 1.8 0.789 1.8 0.33 0-0.339-0.257-0.558-0.789-0.675-0.434-0.0953-1.49-0.629-2.36-1.19-2.4-1.55-4.18-3.99-5.53-7.58-1-2.67-1-2.67 1.21-1.92 4.75 1.62 7.86 3.7 8.85 5.94 0.767 1.72 1.4 1.39 0.731-0.384-0.156-0.414-0.767-1.33-1.36-2.03-0.59-0.701-1.18-1.65-1.31-2.1s-0.164-2.54-0.0737-4.63l0.164-3.8 2.7 1.86c1.48 1.02 3.08 2.22 3.55 2.66 1.08 1.04 2.12 3.4 2.35 5.36 0.25 2.12 0.802 2.03 0.84-0.147 0.0335-1.89 0.582-3.35 2.16-5.73 1.27-1.92 4.64-5.51 4.91-5.23 0.313 0.332 0.784 3.87 0.78 5.87-5e-3 2.71-0.909 5.65-2.15 6.98-0.54 0.58-0.685 1.12-0.301 1.12 0.319 0 1.21-1.03 2.01-2.33 0.548-0.883 0.94-1.19 1.83-1.43 1.13-0.304 8.71-0.401 8.99-0.115 0.215 0.215-0.945 2.26-2.43 4.28-1.53 2.08-3.16 3.34-4.35 3.34-1.32 0-2.54 0.515-2.54 1.07 0 0.456 0.054 0.461 0.826 0.0757 0.936-0.467 2.99-0.339 5.7 0.355 2.2 0.561 7.12 2.53 6.96 2.78-0.175 0.283-5.69 2.6-7.42 3.11-0.987 0.294-2.04 0.376-3.6 0.28-1.21-0.0748-2.2-0.0419-2.2 0.0731 0 0.309 0.67 0.513 2.32 0.707 1.38 0.162 1.53 0.253 2.49 1.54 1.48 1.98 4.31 7.91 3.78 7.91-0.564 0-5.99-1.76-7.42-2.41-0.906-0.409-2.2-1.26-2.88-1.88-0.678-0.625-1.31-1.06-1.39-0.973-0.0893 0.0893 0.124 0.738 0.473 1.44 0.604 1.22 0.632 1.5 0.558 5.69-0.0425 2.43-0.164 4.81-0.271 5.31l-0.193 0.899z"/>
   <path class="flowerCenterOutside" d="m107 43.1c-0.0549-0.0889-0.333-0.11-0.619-0.0477-0.353 0.0776-0.598 0.018-0.768-0.186-0.174-0.21-0.413-0.264-0.796-0.18-0.482 0.106-0.572 0.0523-0.763-0.452-0.19-0.504-0.282-0.559-0.776-0.46-0.545 0.109-0.556 0.0958-0.438-0.498 0.115-0.577 0.0946-0.607-0.396-0.549-0.478 0.0559-0.514 0.0139-0.47-0.554 0.0441-0.565 3e-3 -0.614-0.509-0.614-0.625 0-0.918-0.303-0.6-0.621 0.337-0.337 0.246-0.513-0.268-0.513-0.532 0-0.822-0.476-0.492-0.806 0.326-0.326 0.256-0.65-0.164-0.76-0.528-0.138-0.516-1.01 0.0161-1.18l0.394-0.125-0.422-0.449c-0.343-0.365-0.378-0.501-0.19-0.729 0.184-0.222 0.183-0.417-6e-3 -0.938-0.193-0.533-0.192-0.714 6e-3 -0.952 0.157-0.189 0.2-0.526 0.122-0.943-0.103-0.55-0.0615-0.668 0.273-0.774 0.321-0.102 0.373-0.226 0.277-0.665-0.137-0.626 0.17-1.32 0.584-1.32 0.158 0 0.411-0.298 0.563-0.661 0.152-0.364 0.382-0.671 0.51-0.683s0.319-0.0332 0.423-0.0472c0.104-0.014 0.38-0.217 0.614-0.451 0.234-0.234 0.591-0.425 0.793-0.425s0.598-0.213 0.878-0.472c0.28-0.26 0.682-0.472 0.893-0.472s0.541-0.143 0.734-0.318c0.276-0.25 0.461-0.278 0.865-0.131 0.367 0.134 0.687 0.117 1.12-0.0583 0.339-0.138 0.65-0.171 0.709-0.0763 0.0576 0.0931 0.437 0.125 0.843 0.0703 0.589-0.079 0.806-0.0204 1.07 0.29 0.249 0.291 0.472 0.362 0.879 0.28 0.417-0.0833 0.611-0.0165 0.82 0.282 0.151 0.215 0.504 0.418 0.784 0.451 0.365 0.0426 0.541 0.194 0.62 0.532 0.0855 0.369 0.247 0.486 0.737 0.533 0.581 0.0562 0.62 0.101 0.519 0.602-0.091 0.455-0.0415 0.551 0.31 0.601 0.333 0.0474 0.43 0.203 0.477 0.768 0.0377 0.455 0.154 0.709 0.324 0.709 0.146 0 0.364 0.185 0.485 0.41 0.18 0.337 0.162 0.453-0.104 0.647-0.297 0.217-0.283 0.263 0.165 0.556 0.521 0.342 0.629 0.817 0.266 1.18-0.17 0.17-0.141 0.312 0.126 0.607 0.339 0.375 0.337 0.396-0.0754 0.835-0.271 0.288-0.35 0.496-0.22 0.576 0.366 0.226 0.213 0.844-0.29 1.17-0.484 0.317-0.485 0.326-0.0945 0.471 0.527 0.195 0.504 0.562-0.0708 1.1-0.258 0.243-0.523 0.728-0.589 1.08-0.0656 0.35-0.274 0.719-0.463 0.82-0.189 0.101-0.395 0.347-0.458 0.546-0.0633 0.199-0.367 0.45-0.674 0.557-0.348 0.121-0.559 0.327-0.559 0.545 0 0.495-0.369 0.804-0.961 0.804-0.333 0-0.614 0.163-0.817 0.472-0.207 0.316-0.483 0.472-0.834 0.472-0.289 0-0.629 0.104-0.756 0.232-0.183 0.183-0.312 0.181-0.612-0.0064-0.21-0.131-0.484-0.173-0.609-0.0936-0.316 0.2-2.22 0.206-2.34 8e-3z"/>
   <path class="flowerCenterInside" d="m108 39.4c-0.173-0.0438-0.26-0.157-0.415-0.538-0.125-0.307-0.151-0.349-0.222-0.349-0.0843 0-0.0876 0.0062-0.171 0.327-0.023 0.0882-0.0831 0.205-0.134 0.259-0.181 0.193-0.561 0.107-0.834-0.19-0.133-0.144-0.139-0.159-0.12-0.307 0.0391-0.305 0.0383-0.321-0.0183-0.332-0.03-6e-3 -0.128 0.0354-0.217 0.0922-0.19 0.121-0.535 0.234-0.711 0.234-0.0915 0-0.147-0.024-0.212-0.0919-0.199-0.208-0.25-0.513-0.141-0.853 0.0577-0.18 0.0581-0.197 6e-3 -0.249-0.052-0.052-0.0676-0.0519-0.235 7.94e-4 -0.377 0.119-0.876 0.0473-1.04-0.15-0.108-0.129-0.106-0.213 0.0161-0.518 0.136-0.34 0.132-0.436-0.0251-0.584-0.0689-0.065-0.228-0.19-0.353-0.278-0.126-0.0878-0.257-0.207-0.292-0.265-0.0771-0.127-0.0857-0.407-0.0175-0.57 0.112-0.267 0.439-0.518 0.678-0.52 0.239-0.0016 0.168-0.158-0.186-0.414-0.475-0.342-0.611-0.549-0.536-0.814 0.052-0.186 0.294-0.459 0.453-0.512 0.074-0.0244 0.197-0.0309 0.326-0.017 0.476 0.0509 0.55-0.17 0.144-0.431-0.0955-0.0614-0.207-0.147-0.247-0.191-0.249-0.269-0.228-0.814 0.0405-1.02 0.107-0.0844 0.311-0.0944 0.743-0.0363 0.443 0.0596 0.479 0.0064 0.292-0.434-0.114-0.269-0.108-0.536 0.018-0.787 0.115-0.23 0.224-0.301 0.46-0.3 0.259 0.0015 0.496 0.0885 0.725 0.266 0.106 0.082 0.22 0.149 0.254 0.149 0.0778 0 0.138-0.119 0.212-0.418 0.0754-0.307 0.156-0.431 0.338-0.519 0.442-0.214 0.89-0.0399 1.03 0.402 0.0801 0.246 0.142 0.334 0.234 0.334 0.0927 0 0.117-0.0557 0.117-0.272 0-0.277 0.148-0.467 0.429-0.552 0.189-0.057 0.344-0.0564 0.564 0.0023 0.424 0.113 0.644 0.382 0.795 0.972 0.033 0.129 0.0698 0.245 0.0818 0.259 0.0119 0.014 0.134-0.0592 0.27-0.163 0.423-0.32 0.638-0.378 0.919-0.251 0.163 0.0742 0.403 0.343 0.453 0.508 0.0467 0.153 4e-3 0.239-0.262 0.532-0.22 0.242-0.262 0.321-0.206 0.388 0.0563 0.0678 0.112 0.0579 0.397-0.071 0.407-0.184 0.766-0.157 1.04 0.0787 0.251 0.215 0.322 0.495 0.193 0.763-0.0894 0.185-0.254 0.319-0.529 0.433-0.204 0.0842-0.303 0.155-0.303 0.218 0 0.0514 0.129 0.0924 0.454 0.145 0.62 0.0997 0.983 0.355 0.983 0.69 0 0.0855-0.034 0.141-0.163 0.265-0.236 0.227-0.465 0.307-0.909 0.316-0.366 0.0075-0.511 0.0475-0.579 0.16-0.0465 0.0772 0.0476 0.161 0.273 0.242 0.566 0.204 0.802 0.386 0.892 0.689 0.11 0.371 0.0371 0.692-0.203 0.891-0.174 0.144-0.398 0.205-0.762 0.207-0.167 0.0011-0.363 0.0128-0.437 0.0262l-0.134 0.0242 0.301 0.204c0.347 0.235 0.46 0.346 0.533 0.519 0.104 0.249 0.0271 0.493-0.227 0.716-0.244 0.215-0.434 0.259-0.994 0.23-0.423-0.0218-0.466-0.0188-0.487 0.0342-0.0122 0.032-3e-3 0.105 0.0214 0.162 0.124 0.295 0.0548 0.513-0.22 0.687-0.197 0.125-0.434 0.175-0.699 0.148-0.323-0.0331-0.438-9.8e-5 -0.514 0.148-0.093 0.182-0.292 0.282-0.585 0.294-0.13 0.0054-0.287-3e-3 -0.349-0.0187z"/>
   <path class="outlineFillColor" d="m97.3 56.2c0.096-0.0134 0.246-0.136 0.47-0.365 0.28-0.287 1.1-0.901 1.83-1.37 0.724-0.464 1.93-1.27 2.68-1.79 0.751-0.522 1.38-0.923 1.4-0.895 0.02 0.0292 0.103 0.245 0.184 0.477 0.0813 0.232 0.469 0.883 0.864 1.45 0.395 0.564 0.927 1.37 1.18 1.78 0.571 0.93 0.626 0.979 0.912 0.872 0.429-0.159 2.43-2.68 2.92-3.68 0.0661-0.136 3.23 2.75 4.22 3.84 0.312 0.347 0.599 0.635 0.638 0.64 0.0403 6e-3 0.118-0.51 0.174-1.15 0.0568-0.637 0.185-2.03 0.285-3.09 0.1-1.07 0.165-2.05 0.145-2.18-0.0287-0.2 5e-3 -0.221 0.184-0.112 0.835 0.513 2.58 1.29 3.15 1.4l0.678 0.132 0.235-1.74c0.129-0.957 0.249-2.16 0.265-2.67l0.0274-0.928 0.582 0.158c0.319 0.0962 1.78 0.523 3.25 0.961 1.47 0.438 2.68 0.785 2.7 0.768 0.0186-0.0115-0.122-0.401-0.314-0.859-0.192-0.458-0.642-1.62-0.999-2.59-0.357-0.967-0.836-2.13-1.07-2.58l-0.421-0.823 1.3-0.0434c1.39-0.0453 3.33-0.376 3.99-0.679l0.405-0.185-1.12-1.41c-0.618-0.773-1.44-1.68-1.82-2.02l-0.691-0.614 2.45-1.09c1.35-0.597 2.57-1.14 2.72-1.2 0.646-0.277 0.592-0.436-0.354-1.02-0.606-0.375-1.81-0.912-4.59-2.06l-0.521-0.215 0.917-0.559c0.93-0.566 1.79-1.4 2.68-2.59 0.45-0.606 0.472-0.669 0.286-0.805-0.453-0.328-2.13-0.809-3.43-0.985-0.755-0.102-1.37-0.224-1.36-0.263 5e-3 -0.039 0.27-0.498 0.587-1.02 0.478-0.781 1.2-2.24 1.5-3.05 0.0579-0.154-0.181-0.209-1.74-0.38-0.995-0.108-2.49-0.192-3.33-0.185-0.836 6e-3 -1.54-9.2e-4 -1.56-0.0221-0.0203-0.0173 0.105-0.238 0.275-0.484 0.462-0.667 0.983-1.79 1.35-2.92 0.399-1.23 0.718-2.98 0.545-3-1.43-0.154-4.94 0.271-5.75 0.695-0.29 0.153-0.389 0.16-0.411 0.024-0.0163-0.0951-0.0662-0.403-0.111-0.687-0.045-0.284-0.209-1.01-0.364-1.6-0.155-0.596-0.266-1.19-0.248-1.32 0.039-0.289-0.134-0.908-0.259-0.925-0.137-0.0192-2.44 1.81-3.06 2.42-0.301 0.301-0.905 0.974-1.34 1.5-0.462 0.554-0.673 0.825-0.777 0.714l-0.37 0.788c-0.0292 0.146-0.0726 0.243-0.152 0.304-0.103 0.079-0.138 0.0344-0.116-0.135 0.0557-0.429-0.382-1.6-0.848-2.26l-0.453-0.647 9e-3 -0.346-0.363-0.341c-4e-3 0.0394-9e-3 0.276-0.0127 0.275-0.0181-2e-3 -0.296-0.267-0.62-0.589-0.0553-0.0607-0.122-0.109-0.184-0.163l-0.963-0.386c0.117 0.0953 0.377 0.335 0.769 0.727 2.27 2.27 2.81 3.76 1.91 5.29-0.495 0.84-0.966 1.89-1.2 2.66l-0.171 0.567-0.191-0.649c-0.491-1.67-1.47-3.11-2.9-4.26-0.434-0.349-0.438-0.363-0.283-0.932 0.194-0.712 0.827-1.99 1.42-2.87 0.213-0.316 0.391-0.541 0.466-0.601l-0.269-0.103c-0.147 0.138-0.318 0.368-0.608 0.798-0.576 0.856-1.04 1.8-1.23 2.51-0.0897 0.33-0.173 0.6-0.187 0.598-0.194-0.0263-4.14-2.58-4.68-3.03-0.404-0.337-0.797-0.621-0.87-0.631-0.0857-0.0134-0.125 0.151-0.113 0.459 0.0564 1.28 0.041 2.12-0.0637 3.49l-0.115 1.49-0.259-0.128c-0.221-0.109-0.972-0.359-3.27-1.1l-0.408-0.135-0.201 1.89c-0.11 1.04-0.232 1.89-0.27 1.88-0.333-0.0484-4.17-1.19-4.26-1.27-0.0684-0.0624-0.216-0.0425-0.326 0.0223-0.171 0.11-0.154 0.205 0.118 0.664 0.175 0.295 0.359 0.868 0.407 1.27 0.0935 0.795 0.7 2.53 1.32 3.78 0.211 0.425 0.381 0.804 0.376 0.842-5e-3 0.039-0.148 0.0463-0.318 0.0232-0.78-0.105-3.66 0.612-3.83 0.953-0.119 0.246 0.741 1.47 1.75 2.5 0.554 0.561 1.01 1.06 1.01 1.1-6.5e-4 0.04-0.368 0.158-0.817 0.257-1.49 0.326-3.62 1.3-5.3 2.43l-0.528 0.355 0.268 0.275c0.455 0.466 2.75 1.94 4.21 2.71 0.764 0.401 1.38 0.764 1.38 0.803-5e-3 0.039-0.302 0.159-0.659 0.269-0.9 0.275-2.12 0.982-3.16 1.83l-0.875 0.716 0.398 0.414c0.604 0.629 2.43 1.81 3.37 2.19 0.463 0.182 0.857 0.346 0.877 0.361 0.0194 0.0154-0.195 0.3-0.478 0.635-1.12 1.33-3.56 4.98-3.43 5.14 0.0688 0.0888 3.76-0.252 5.19-0.479 0.716-0.114 1.8-0.34 2.41-0.505 0.608-0.164 1.11-0.299 1.11-0.299 5e-3 7e-4 -0.174 0.589-0.398 1.31-0.256 0.823-0.457 1.77-0.541 2.55l-0.135 1.25 0.564 0.0499c1.22 0.0853 3.1-0.273 4.18-0.806 0.382-0.188 0.706-0.325 0.721-0.304 0.0497 0.073-0.103 3.08-0.196 3.83-0.0906 0.737-0.0908 1.05 0.0668 1.04zm0.232-0.58c-0.086-0.0115 0.197-3.25 0.443-5.05 0.183-1.35 0.786-3.89 1.34-5.65 0.241-0.766 0.473-1.25 0.776-1.6 0.238-0.281 0.567-0.732 0.729-1l0.295-0.489 0.134 0.42c0.146 0.461 0.658 0.699 1.02 0.472 0.162-0.0972 0.193-0.0799 0.165 0.128-0.0701 0.518 0.769 1.07 1.28 0.834 0.136-0.0611 0.286-0.0154 0.463 0.129 0.143 0.125 0.525 0.26 0.847 0.303 0.322 0.0436 0.78 0.109 1.02 0.149 0.238 0.0419 0.552 0.048 0.696 0.0154 0.242-0.0469 0.253 8e-3 0.17 0.734-0.0494 0.432-0.047 1.15 5e-3 1.6l0.0942 0.811-0.478 0.708c-1.09 1.61-2.7 3.01-6.13 5.33-1.2 0.813-2.32 1.63-2.48 1.82-0.165 0.188-0.333 0.339-0.374 0.334zm9.18 0.48c-0.0403-6e-3 -0.228-0.301-0.417-0.656-0.189-0.356-0.704-1.16-1.15-1.8-0.442-0.635-0.895-1.38-1.01-1.66l-0.201-0.507 0.736-0.656c0.809-0.721 2.18-2.27 2.21-2.51 0.0468-0.346 0.291-0.23 0.404 0.193 0.207 0.774 0.878 1.99 1.57 2.86 0.365 0.455 0.653 0.897 0.642 0.983-0.061 0.452-2.54 3.78-2.8 3.75zm7.57 0.137c-0.0428-6e-3 -0.136-0.0978-0.204-0.211-0.0679-0.115-0.873-0.907-1.79-1.77-2.98-2.81-3.97-4.13-4.58-6.08-0.524-1.68-0.56-3.92-0.0606-3.85 0.121 0.0173 0.345-0.0328 0.498-0.113 0.181-0.0947 0.334-0.0955 0.441-8e-3 0.266 0.223 0.666 0.225 1.04 6e-3 0.192-0.113 0.465-0.189 0.605-0.17 0.331 0.0446 1.18-0.519 1.32-0.878 0.0902-0.226 0.176-0.26 0.458-0.178 0.245 0.0736 0.47 0.0238 0.773-0.17 0.234-0.149 0.45-0.265 0.479-0.261 0.13 0.0154 0.962 1.52 1.17 2.1 0.321 0.918 0.444 2.25 0.371 3.99-0.191 4.56-0.398 7.6-0.518 7.59zm-21.9-3.97c-0.104-0.0154 0.28-2.44 0.511-3.22 0.533-1.8 0.565-1.85 1.4-2.15 1.27-0.459 3.43-1.56 4.1-2.09 0.348-0.275 0.666-0.495 0.708-0.489 0.0428 6e-3 -0.0405 0.351-0.186 0.766-0.317 0.905-1.13 4.26-1.25 5.18-0.0869 0.643-0.098 0.656-0.73 0.951-0.974 0.454-2.04 0.743-3.33 0.909-0.643 0.0828-1.19 0.146-1.22 0.143zm-7.4-4.04c-0.227-0.0307 2.83-4.12 3.92-5.24 2.14-2.2 5.1-4.19 7.85-5.25 0.932-0.363 1.39-0.455 1.37-0.278-9e-3 0.0649 0.0877 0.175 0.216 0.235 0.195 0.0926 0.203 0.16 0.0626 0.38-0.249 0.395 0.0209 1.08 0.49 1.24 0.295 0.106 0.348 0.182 0.308 0.476-0.0559 0.414 0.374 0.866 0.778 0.816 0.202-0.0257 0.248 0.03 0.218 0.251-0.0209 0.155 0.0614 0.448 0.181 0.653 0.217 0.367 0.217 0.377-0.0819 0.861-0.442 0.717-2.8 2.52-4.12 3.16-1.27 0.609-3.21 1.3-4.68 1.66-1.2 0.296-6.16 1.09-6.51 1.05zm34 3.73-0.488-0.145c-0.633-0.192-2.28-0.956-2.8-1.31l-0.405-0.273 0.0426-1.41c0.051-1.69-7e-3 -2.67-0.211-3.55-0.0826-0.36-0.148-0.667-0.146-0.685 9e-3 -0.0649 0.232 0.0444 1.24 0.648 0.58 0.345 1.52 0.814 2.1 1.04l1.04 0.414 0.0188 0.528c0.011 0.29-0.0721 1.48-0.187 2.63zm6.62-3.81c-0.0222-4e-3 -1.43-0.423-3.14-0.933-3.42-1.02-4.51-1.43-5.85-2.18-1.48-0.831-1.82-1.12-2.64-2.2-0.754-1-0.767-1.04-0.478-1.14 0.521-0.185 0.925-0.529 0.965-0.823 0.0211-0.156 0.156-0.33 0.3-0.384 0.297-0.111 0.672-0.843 0.669-1.31-1e-3 -0.218 0.113-0.385 0.379-0.556 0.209-0.134 0.442-0.391 0.519-0.572 0.128-0.298 0.175-0.316 0.5-0.176 0.437 0.191 2.76 0.539 3.13 0.476 0.692-0.121 3.05 3.31 4.24 6.17 0.736 1.77 1.45 3.64 1.39 3.63zm-37.2-5.7c-0.0819-0.0115-0.18-0.0379-0.308-0.0674-0.288-0.0795-0.802-0.285-1.14-0.456-0.788-0.397-3-1.9-2.98-2.03 0.0183-0.134 1.74-1.29 2.57-1.73 0.375-0.197 1.05-0.485 1.51-0.64 0.454-0.156 0.841-0.275 0.858-0.261 0.0183 0.0135 0.389 0.204 0.823 0.424 0.948 0.483 2.33 0.91 3.09 0.952 0.305 0.0154 0.537 0.0615 0.514 0.0959-0.0222 0.0369-0.582 0.429-1.24 0.872-1.29 0.863-2.15 1.56-2.97 2.4-0.374 0.382-0.482 0.482-0.728 0.449zm17.8 1.55c-0.153-0.0206-0.333-0.111-0.459-0.258-0.174-0.206-0.222-0.212-0.532-0.0626-0.309 0.148-0.369 0.141-0.687-0.0817-0.192-0.132-0.379-0.314-0.417-0.398-0.0463-0.0991-0.152-0.0736-0.321 0.101-0.197 0.199-0.322 0.227-0.573 0.127-0.293-0.119-0.397-0.311-0.504-0.935-0.0367-0.209-0.0615-0.212-0.432-0.0619-0.536 0.218-0.827-0.0586-0.652-0.638 0.153-0.502 0.0855-0.576-0.373-0.411-0.33 0.117-0.393 0.106-0.542-0.0859-0.189-0.248-0.178-0.598 0.0247-0.752 0.082-0.0684 0.0987-0.182 0.0448-0.303-0.0713-0.158-0.125-0.173-0.265-0.0622-0.306 0.233-0.866 0.0767-0.972-0.273-0.075-0.25-0.0392-0.376 0.177-0.626l0.271-0.313-0.318 0.0498c-0.175 0.0294-0.385 0.0673-0.469 0.0892-0.187 0.0411-0.609-0.485-0.577-0.722 0.0127-0.0913 0.117-0.229 0.231-0.302 0.115-0.0772 0.221-0.241 0.239-0.377 0.0269-0.199-0.0258-0.241-0.283-0.211-0.262 0.0309-0.343-0.0334-0.463-0.37-0.176-0.493-0.0294-0.852 0.4-0.981l0.319-0.0974-0.333-0.268c-0.435-0.352-0.504-0.761-0.177-1.04 0.242-0.203 0.24-0.229-0.0337-0.604-0.335-0.459-0.308-0.93 0.0748-1.29 0.268-0.251 0.269-0.265 0.069-0.628-0.263-0.48-0.0895-0.972 0.361-1.02 0.374-0.0423 0.395-0.0991 0.185-0.505-0.0935-0.181-0.114-0.49-0.0543-0.764 0.088-0.396 0.174-0.487 0.634-0.65 0.461-0.166 0.533-0.24 0.543-0.564 0.0181-0.524 0.632-1.03 1.05-0.867 0.242 0.0989 0.302 0.0678 0.33-0.139 0.0481-0.355 0.677-0.769 1.15-0.752 0.293 0.0135 0.464-0.0845 0.688-0.384 0.403-0.538 0.688-0.688 1.08-0.56 0.225 0.0707 0.34 0.0551 0.356-0.058 0.0626-0.464 1.21-0.641 1.52-0.236 0.0913 0.118 0.231 0.0844 0.556-0.116 0.482-0.305 0.986-0.303 1.06 2e-3 0.0396 0.168 0.0889 0.166 0.332-0.0215l2e-3 -4e-3c0.509-0.389 1.56-0.0795 1.69 0.496 0.0557 0.254 0.0622 0.255 0.392 0.0403 0.465-0.304 0.9-0.162 1.17 0.383 0.122 0.247 0.261 0.392 0.315 0.328 0.133-0.16 0.749-0.0619 0.906 0.149 0.0715 0.0892 0.107 0.329 0.0809 0.524-0.0476 0.351-0.0407 0.355 0.524 0.348 0.382-1e-3 0.627 0.0448 0.737 0.166 0.199 0.215 0.158 0.672-0.0766 0.851-0.132 0.101-0.0683 0.142 0.288 0.19 0.576 0.0778 0.85 0.544 0.652 1.12-0.116 0.337-0.102 0.372 0.142 0.343 0.571-0.0701 1.05 1.2 0.503 1.33-0.308 0.0774-0.254 0.202 0.165 0.389 0.218 0.0957 0.448 0.331 0.527 0.534 0.13 0.334 0.116 0.387-0.19 0.702-0.322 0.332-0.326 0.342-0.0851 0.374 0.296 0.0401 0.492 0.489 0.348 0.795-0.0579 0.125-0.222 0.299-0.367 0.399-0.259 0.178-0.26 0.188-0.0573 0.454 0.113 0.149 0.188 0.398 0.167 0.553-0.0477 0.353-0.44 0.792-0.679 0.759-0.0989-0.0135-0.188 0.0409-0.198 0.114-0.0109 0.078 0.0757 0.116 0.195 0.0795 0.261-0.0576 0.502 0.324 0.451 0.728-0.0207 0.171-0.22 0.424-0.48 0.607-0.386 0.274-0.458 0.4-0.542 0.97-0.104 0.693-0.352 1.04-0.71 0.991-0.163-0.0229-0.213 0.0507-0.199 0.294 0.0214 0.401-0.338 0.729-0.846 0.77-0.341 0.0334-0.378 0.0813-0.444 0.572-0.084 0.622-0.194 0.7-0.979 0.687-0.433-6e-3 -0.568 0.0425-0.563 0.194 2e-3 0.12-0.189 0.366-0.425 0.559-0.322 0.263-0.505 0.325-0.73 0.251-0.22-0.0695-0.359-0.0357-0.53 0.167-0.27 0.311-0.748 0.291-0.999-0.0421-0.156-0.205-0.194-0.203-0.435 0.0208-0.277 0.262-0.849 0.262-1.38-2e-3 -0.203-0.107-0.274-0.0901-0.295 0.0661-0.018 0.13-0.144 0.179-0.296 0.16zm1.67-3.42c0.266 0.01 0.521-0.0728 0.7-0.232 0.177-0.158 0.438-0.27 0.581-0.25 0.357 0.0482 0.991-0.191 1.12-0.423 0.0545-0.0986 0.119-0.298 0.136-0.43 0.0243-0.18 0.12-0.228 0.387-0.192 0.196 0.0265 0.526-0.048 0.735-0.174 0.345-0.203 0.381-0.28 0.412-0.888 0.0245-0.466 0.0842-0.679 0.202-0.707 0.0926-0.0273 0.28-0.202 0.419-0.401 0.303-0.432 0.291-0.94-0.0339-1.4-0.17-0.24-0.184-0.332-0.0552-0.357 0.728-0.139 0.976-0.964 0.461-1.53-0.186-0.205-0.389-0.379-0.447-0.387-0.0586-8e-3 -0.0477-0.207 0.0222-0.438 0.167-0.546-0.0662-1.04-0.584-1.25-0.267-0.102-0.391-0.244-0.392-0.431-7e-3 -0.663-1-1.26-1.68-1.01-0.223 0.089-0.298 0.0526-0.422-0.192-0.0829-0.161-0.264-0.358-0.402-0.436l-2e-3 -2.7e-4c-0.395-0.224-0.908-0.265-1.35-0.103-0.331 0.118-0.468 0.109-0.741-0.0471-0.28-0.157-0.419-0.163-0.837-0.0338-0.277 0.0951-0.572 0.279-0.656 0.416-0.127 0.207-0.226 0.229-0.611 0.123-0.396-0.106-0.522-0.0797-0.907 0.214-0.391 0.297-0.449 0.405-0.449 0.835-4.7e-4 0.425-0.0349 0.494-0.259 0.497-0.144 8e-3 -0.397 0.143-0.563 0.312-0.275 0.282-0.295 0.362-0.225 0.911 0.0635 0.512 0.047 0.614-0.121 0.68-0.107 0.0384-0.287 0.261-0.396 0.486-0.21 0.43-0.165 0.74 0.182 1.27 0.125 0.189 0.125 0.275-2e-3 0.372-0.0913 0.0673-0.195 0.333-0.229 0.586-0.0499 0.37 0.0146 0.547 0.322 0.9 0.296 0.34 0.37 0.536 0.326 0.861-0.0771 0.572 0.248 0.938 0.886 0.997 0.395 0.0407 0.487 0.0922 0.463 0.268-0.0163 0.117 0.0915 0.37 0.24 0.553 0.236 0.292 0.326 0.324 0.703 0.262 0.356-0.0578 0.474-0.0288 0.682 0.198 0.279 0.296 0.959 0.442 1.2 0.255 0.113-0.0907 0.225-0.0624 0.412 0.0669 0.228 0.165 0.507 0.249 0.773 0.253zm-0.205-0.302c-0.363-0.049-0.449-0.127-0.605-0.556-0.174-0.47-0.189-0.482-0.234-0.173-0.027 0.179-0.142 0.383-0.255 0.453-0.413 0.258-1.22-0.337-1.01-0.74 0.1-0.192 0.0898-0.193-0.159-0.0311-0.147 0.0995-0.422 0.192-0.611 0.213-0.278 0.0286-0.375-0.0242-0.509-0.311-0.106-0.225-0.123-0.458-0.0439-0.656 0.11-0.277 0.0973-0.298-0.139-0.211-0.382 0.142-0.975 0.0327-1.13-0.205-0.0947-0.152-0.0817-0.317 0.0421-0.596 0.166-0.371 0.155-0.399-0.299-0.703-0.383-0.257-0.471-0.392-0.457-0.715 0.0163-0.425 0.463-0.86 0.839-0.82 0.107 0.0115-0.041-0.138-0.328-0.329-0.589-0.395-0.676-0.761-0.286-1.21 0.166-0.191 0.356-0.261 0.611-0.226 0.471 0.0636 0.495-0.0907 0.0541-0.329-0.395-0.213-0.511-0.822-0.233-1.21 0.134-0.186 0.293-0.22 0.733-0.161 0.556 0.0749 0.56 0.072 0.406-0.228-0.181-0.349-0.147-0.787 0.0846-1.11 0.198-0.274 0.859-0.214 1.21 0.11 0.235 0.217 0.245 0.21 0.343-0.235 0.0755-0.342 0.189-0.493 0.445-0.593 0.461-0.182 0.974 0.0386 1.07 0.448 0.0915 0.392 0.248 0.451 0.202 0.0805-0.0202-0.164 0.069-0.343 0.237-0.472l2e-3 2.3e-4 2.4e-4 -2e-3c0.325-0.245 0.988-0.186 1.32 0.125 0.129 0.123 0.28 0.389 0.336 0.601l0.102 0.382 0.336-0.257c0.412-0.314 0.846-0.273 1.16 0.117 0.296 0.361 0.273 0.542-0.11 0.913-0.33 0.32-0.248 0.397 0.17 0.161 0.375-0.212 0.927-0.105 1.18 0.226 0.354 0.464 0.132 1.01-0.502 1.24-0.334 0.122-0.327 0.127 0.228 0.202 0.618 0.0836 1.03 0.43 0.981 0.819-0.0403 0.298-0.681 0.656-1.08 0.603-0.179-0.0227-0.411-2e-3 -0.518 0.0494-0.141 0.0605-0.0664 0.129 0.282 0.242 0.587 0.185 0.84 0.462 0.88 0.953 0.0455 0.555-0.332 0.93-0.956 0.945l-0.505 0.0115 0.375 0.255c0.851 0.579 0.171 1.63-0.941 1.46-0.385-0.0611-0.519-0.0438-0.441 0.0598 0.36 0.471-0.239 1.06-0.976 0.962-0.224-0.0304-0.415-4e-3 -0.423 0.0619-0.0337 0.25-0.48 0.45-0.882 0.395zm-15-2.07c-0.572-0.0786-1.19-0.268-1.93-0.556-1.67-0.662-7.65-4.06-7.61-4.33 0.023-0.168 2.55-1.5 3.64-1.91 1.36-0.52 3.46-0.904 5.29-0.968 1.8-0.0642 2.92 0.0941 3.78 0.537 0.354 0.182 1.03 0.466 1.5 0.633 0.98 0.347 1.37 0.767 0.993 1.08-0.261 0.219-0.384 1.08-0.203 1.42 0.0848 0.157 0.0909 0.442 0.0127 0.753-0.0996 0.395-0.0784 0.557 0.0982 0.766l0.224 0.265-0.304 0.313c-0.167 0.173-0.279 0.369-0.248 0.44 0.0316 0.0705-0.252 0.223-0.628 0.339-0.376 0.116-1.2 0.447-1.83 0.734-1.01 0.458-1.83 0.624-2.78 0.492zm30.7 3.33-1.23-1.65c-0.677-0.908-1.23-1.67-1.23-1.7 4e-3 -0.0259 0.0917-0.0407 0.194-0.0269 0.101 0.0154 0.702-0.112 1.33-0.278 0.632-0.166 1.48-0.419 1.9-0.561l0.748-0.257 0.549 0.46c0.656 0.551 2.44 2.43 2.81 2.95 0.221 0.312 0.231 0.385 0.065 0.461-0.451 0.202-2.65 0.518-3.85 0.556zm-5.5-3.83c-0.868-0.144-1.36-0.337-1.67-0.648-0.199-0.201-0.196-0.227 0.0269-0.415 0.32-0.268 0.372-0.769 0.115-1.07-0.206-0.245-0.206-0.252 0.0614-0.454 0.321-0.244 0.501-1.22 0.277-1.49-0.0806-0.0903-0.101-0.3-0.0499-0.455 0.111-0.328-0.0443-1.01-0.255-1.13-0.251-0.14 0.0345-0.756 0.47-1.02 0.226-0.136 0.654-0.299 0.952-0.363 0.664-0.14 3.83 0.193 4.82 0.51 3.42 1.09 4.67 1.55 6.39 2.33 0.754 0.343 1.39 0.646 1.41 0.67 0.02 0.0292-0.549 0.301-1.26 0.611-0.715 0.31-1.92 0.839-2.67 1.17-1.74 0.776-3.88 1.53-5.14 1.81-0.804 0.178-1.25 0.191-2.48 0.0722-0.382-0.0386-0.713-0.0836-1-0.124zm-20-6.35c-0.585-0.079-2.51-1.09-3.48-1.82-1.16-0.88-2.21-2.13-3.14-3.71-1.15-1.96-2.24-4.74-2.26-5.75l2e-3 2.5e-4c-0.0127-0.491-0.152-0.503 1.83 0.154 1.59 0.528 2.57 0.929 4.44 1.82 2.72 1.3 4.38 2.91 4.93 4.78 0.231 0.782 0.233 0.876 0.0307 1.1-0.123 0.132-0.241 0.381-0.265 0.554-0.0312 0.222-0.184 0.381-0.521 0.539-0.262 0.124-0.55 0.358-0.64 0.523-0.161 0.296-0.168 0.859-0.0127 1.12 0.128 0.22-0.563 0.746-0.917 0.698zm-8.18-1.22c-0.337-0.0453-3.09-3.06-3.05-3.34 0.0198-0.147 0.863-0.419 1.85-0.599 0.464-0.0845 1.17-0.158 1.57-0.165l0.724-0.01 0.521 0.868c0.571 0.949 1.56 2.09 2.3 2.65 0.258 0.194 0.461 0.402 0.453 0.46-9e-3 0.0649-0.0523 0.0724-0.0995 0.0396-0.123-0.0963-2.41-0.0745-3.31 0.0327-0.419 0.0494-0.849 0.079-0.954 0.0648zm26.7 0.733-0.251-0.308c-0.139-0.17-0.311-0.319-0.384-0.329-0.073-0.01-0.143-0.202-0.158-0.427-0.0298-0.467-0.393-1.04-0.683-1.08-0.121-0.0154-0.186-0.144-0.171-0.343 0.0386-0.512-0.178-0.735-0.753-0.77-0.473-0.0242-0.519-0.0646-0.587-0.421-0.0448-0.237-0.222-0.491-0.451-0.647l-0.379-0.257 0.456-0.258c0.507-0.288 1.25-1.27 1.72-2.26 0.37-0.782 0.718-1.1 1.52-1.37 1.06-0.368 3.78-0.563 6.39-0.457 2.77 0.112 3.39 0.185 3.36 0.388-0.0388 0.288-1.19 2.38-1.8 3.29-1.37 2.02-2.69 3.44-3.76 4.04-0.651 0.366-0.897 0.43-1.55 0.41-0.898-0.0284-1.77 0.19-2.21 0.552zm8.27 0.236c-0.142-0.029-1.14-0.273-2.22-0.54l-1.96-0.488 0.928-0.712c0.51-0.391 1.31-1.17 1.77-1.74l0.838-1.03 1.61 0.204c1.4 0.176 3.14 0.595 3.3 0.8 0.0285 0.044-0.396 0.567-0.943 1.18-1.07 1.2-2.82 2.42-3.31 2.33zm-23.7-3.63c-0.0888-0.0115-0.199-0.27-0.246-0.571-0.169-1.11-0.951-2.37-2.07-3.35-0.849-0.743-1.14-2.19-0.954-4.74 0.179-2.48 0.21-4.14 0.104-5.52l-2e-3 -2.3e-4c-0.0283-0.379 0.0437-0.347 0.842 0.383 0.372 0.339 1.41 1.08 2.31 1.64 1.88 1.17 3.14 2.14 3.9 2.99 1.03 1.15 1.87 3.39 1.91 5.1 0.011 0.467 0.0759 1.05 0.143 1.31 0.102 0.374 0.0884 0.493-0.0682 0.663-0.134 0.145-0.239 0.164-0.355 0.0711-0.309-0.259-1.16-0.295-1.44-0.0609-0.142 0.12-0.386 0.201-0.541 0.18-0.363-0.0492-1.27 0.598-1.32 0.94-0.0303 0.224-0.0871 0.243-0.397 0.137-0.313-0.109-0.447-0.0569-1.01 0.376-0.354 0.274-0.716 0.488-0.804 0.476zm11.2-1.47c-0.0967-2e-4 -0.168-0.0482-0.288-0.158-0.317-0.293-0.935-0.387-1.29-0.2-0.233 0.128-0.291 0.117-0.468-0.0897-0.191-0.226-0.958-0.429-2.3-0.613-0.433-0.059-0.457-0.0889-0.519-0.627-0.185-1.64 0.198-3.41 1.08-5.03 1.31-2.4 2.76-4.35 4.38-5.88 0.392-0.37 0.987-0.91 1.32-1.2l0.607-0.524 0.0877 0.375c0.678 2.88 0.905 5.64 0.638 7.73-0.354 2.77-1.53 5.29-2.81 6.02-0.224 0.127-0.347 0.19-0.444 0.196zm-14.5-3.43c-0.0163 0.01-0.0699-0.0134-0.167-0.0755-0.842-0.485-2.83-1.46-3.4-1.67-0.811-0.299-0.787-0.199-0.613-2.39l2e-3 2.5e-4c0.0715-0.912 0.172-1.59 0.234-1.57 0.0604 0.0154 0.269 0.103 0.466 0.196 0.196 0.093 0.887 0.35 1.53 0.57 1.68 0.571 1.62 0.504 1.54 1.87-0.0657 1.11 0.105 2.52 0.355 2.93 0.0494 0.0861 0.0688 0.129 0.0526 0.14zm17.7-0.283c-0.0505 0.0198-7.2e-4 -0.171 0.111-0.421 0.315-0.705 0.595-3.15 0.509-4.46l-0.0746-1.14 0.31-0.186c0.4-0.243 1.94-0.508 3.63-0.621 0.738-0.0502 1.47-0.101 1.63-0.113 0.253-0.0192 0.281 0.0325 0.232 0.387-0.184 1.35-1.36 4.44-2.02 5.31-0.32 0.423-0.395 0.452-1.53 0.579-0.974 0.109-1.85 0.315-2.79 0.658z"/>
  </g>
 </g>
</svg>
