<?xml-stylesheet type="text/css" href="../css/app.css"?>
<svg version="1.1" viewBox="0 0 55.67989 294.40158" xmlns="http://www.w3.org/2000/svg" xmlns:xlink="http://www.w3.org/1999/xlink">
 <path id="ww" class="w" d="m48.9 54.7c0.192-0.81-0.353-2.47-0.353-2.47s-1.73 0.495-2.47 0.972c-1.54 0.987-3.97 3.8-3.97 3.8s0.481-3.48 0-5.12c-0.276-0.94-1.59-2.47-1.59-2.47s-1.35 0.984-1.77 1.68c-0.333 0.55-0.304 1.25-0.53 1.85-0.389 1.04-1.41 3-1.41 3s-1.81-3.06-3.27-3.97c-0.744-0.466-1.69-0.515-2.56-0.618-0.468-0.0557-1.41 0-1.41 0s0.452 1.68 0.795 2.47c0.266 0.617 0.674 1.16 0.972 1.77 0.485 0.981 1.32 3 1.32 3s-2.9-0.0819-4.33 0.0883c-1.23 0.146-3.62 0.795-3.62 0.795s1.11 1.26 1.77 1.77c0.459 0.355 0.999 0.593 1.5 0.883 1.08 0.627 3.27 1.85 3.27 1.85s-2.75 0.704-3.89 1.5c-0.991 0.695-2.38 2.74-2.38 2.74s1.53 0.307 2.3 0.442c0.558 0.0977 1.11 0.232 1.68 0.265 1.41 0.0813 4.24-0.177 4.24-0.177s-1.72 1.96-2.03 3.18c-0.305 1.2 0.265 3.71 0.265 3.71s2.04-0.576 2.91-1.15c1.11-0.731 2.83-2.83 2.83-2.83s0.0228 2.85 0.53 4.15c0.407 1.04 1.94 2.74 1.94 2.74s1.69-2.17 2.12-3.44c0.457-1.35 0.442-4.24 0.442-4.24s2.06 2.84 3.44 3.89c0.599 0.452 1.3 0.806 2.03 0.972 0.574 0.13 1.77 0 1.77 0s-0.613-2.39-1.06-3.53c-0.465-1.19-1.68-3.44-1.68-3.44s3.32 1.07 4.95 0.707c1.2-0.269 3.09-2.03 3.09-2.03s-2.05-1.15-3.09-1.68c-1.54-0.78-4.68-2.21-4.68-2.21s2.78-1.34 3.97-2.3c0.88-0.701 2.3-2.47 2.3-2.47s-2.11-0.518-3.18-0.442c-1.59 0.114-4.59 1.32-4.59 1.32s2.98-2.99 3.44-4.95z"/>
 <path id="vv" class="v" d="m36.6 76.6c1.98-2.05 2.53-3.09 2.53-4.73 0-0.661 0.065-0.877 0.265-0.877 0.206 0 0.265 0.233 0.265 1.04 0 0.99 0.0404 1.09 0.821 1.95 0.451 0.502 1.62 1.48 2.61 2.17s1.97 1.42 2.2 1.62l0.417 0.366-0.122-1.32c-0.264-2.86-1.18-6.39-1.78-6.9-0.259-0.215-0.359-0.701-0.144-0.701 0.0628 0 0.481 0.343 0.93 0.763 1.06 0.99 2.13 1.61 3.74 2.16 1.28 0.439 5.26 1.22 5.42 1.06 0.044-0.0439-0.104-0.343-0.329-0.664-1.9-2.71-3.94-4.51-6.38-5.62-0.749-0.34-1.37-0.718-1.37-0.839-0.0086-0.312 0.316-0.27 1.23 0.162 1.06 0.499 2.32 0.498 3.44-0.0028 1.28-0.569 4.68-2.53 4.68-2.7 0-0.242-2.06-1.2-3.23-1.5-0.605-0.156-1.82-0.285-2.69-0.288-1.41-0.0046-1.72 0.0562-2.78 0.545-1.09 0.503-1.19 0.522-1.19 0.218 0-0.224 0.17-0.369 0.521-0.446 0.287-0.063 0.988-0.416 1.56-0.785 1.58-1.02 2.76-2.64 3.65-5.01 0.664-1.76 0.662-1.77-0.8-1.27-3.14 1.07-5.19 2.44-5.85 3.93-0.507 1.14-0.926 0.919-0.483-0.253 0.103-0.274 0.507-0.876 0.897-1.34 0.39-0.463 0.779-1.09 0.866-1.39 0.0865-0.302 0.108-1.68 0.0487-3.06l-0.109-2.51-1.78 1.23c-0.981 0.675-2.04 1.47-2.34 1.76-0.717 0.684-1.4 2.25-1.56 3.54-0.165 1.4-0.53 1.34-0.555-0.0972-0.0221-1.25-0.384-2.21-1.43-3.79-0.839-1.27-3.07-3.64-3.25-3.45-0.207 0.219-0.518 2.56-0.516 3.88 0.0033 1.79 0.601 3.74 1.42 4.62 0.357 0.383 0.452 0.738 0.199 0.738-0.211 0-0.799-0.68-1.33-1.54-0.362-0.584-0.621-0.786-1.21-0.945-0.747-0.201-5.75-0.265-5.94-0.076-0.142 0.142 0.625 1.49 1.6 2.83 1.01 1.38 2.09 2.21 2.87 2.21 0.874 0 1.68 0.34 1.68 0.71 0 0.301-0.0357 0.305-0.546 0.0501-0.619-0.309-1.97-0.224-3.77 0.234-1.45 0.371-4.71 1.67-4.6 1.84 0.116 0.187 3.76 1.72 4.9 2.06 0.652 0.195 1.35 0.248 2.38 0.185 0.802-0.0494 1.46-0.0277 1.46 0.0483 0 0.204-0.443 0.339-1.53 0.467-0.913 0.107-1.01 0.167-1.64 1.02-0.976 1.31-2.85 5.23-2.5 5.23 0.373 0 3.96-1.16 4.9-1.59 0.599-0.271 1.45-0.83 1.9-1.24 0.448-0.413 0.863-0.702 0.922-0.643s-0.0817 0.488-0.313 0.953c-0.399 0.803-0.418 0.992-0.369 3.76 0.0281 1.6 0.109 3.18 0.179 3.51l0.128 0.594z"/>
 <path id="uu" class="u" d="m40.7 69.9c0.0363-0.0588 0.22-0.0729 0.409-0.0315 0.233 0.0513 0.396 0.0119 0.508-0.123 0.115-0.139 0.273-0.175 0.526-0.119 0.319 0.07 0.378 0.0346 0.504-0.299 0.126-0.333 0.187-0.369 0.513-0.304 0.36 0.072 0.368 0.0633 0.289-0.329-0.0763-0.382-0.0625-0.401 0.262-0.363 0.316 0.037 0.34 0.0092 0.31-0.366-0.0292-0.373-2e-3 -0.406 0.336-0.406 0.413 0 0.607-0.201 0.397-0.411-0.223-0.223-0.162-0.339 0.177-0.339 0.352 0 0.544-0.314 0.325-0.533-0.216-0.216-0.169-0.43 0.108-0.502 0.349-0.0912 0.341-0.668-0.0106-0.779l-0.261-0.0827 0.279-0.297c0.227-0.241 0.25-0.331 0.125-0.482-0.122-0.146-0.121-0.276 4e-3 -0.62 0.127-0.352 0.127-0.472-4e-3 -0.629-0.103-0.125-0.132-0.348-0.0807-0.623 0.0682-0.364 0.0406-0.442-0.181-0.512-0.212-0.0674-0.247-0.15-0.183-0.44 0.0908-0.413-0.112-0.871-0.386-0.871-0.104 0-0.272-0.197-0.372-0.437s-0.252-0.444-0.337-0.452c-0.085-0.0079-0.211-0.022-0.279-0.0312-0.0687-0.0093-0.251-0.143-0.406-0.298s-0.391-0.281-0.524-0.281c-0.134 0-0.395-0.141-0.58-0.312-0.185-0.172-0.451-0.312-0.59-0.312s-0.357-0.0946-0.485-0.21c-0.182-0.165-0.305-0.184-0.572-0.0864-0.243 0.0884-0.454 0.0774-0.739-0.0386-0.224-0.091-0.43-0.113-0.468-0.0504-0.0381 0.0616-0.289 0.0824-0.557 0.0464-0.389-0.0522-0.533-0.0135-0.708 0.192-0.164 0.192-0.312 0.239-0.581 0.185-0.275-0.0551-0.404-0.0109-0.542 0.187-0.0997 0.142-0.333 0.277-0.518 0.298-0.241 0.0282-0.358 0.129-0.41 0.352-0.0565 0.244-0.163 0.321-0.487 0.352-0.384 0.0372-0.41 0.0669-0.343 0.398 0.0602 0.301 0.0274 0.364-0.205 0.397-0.22 0.0313-0.284 0.134-0.315 0.508-0.0249 0.301-0.102 0.468-0.214 0.468-0.0965 0-0.241 0.122-0.321 0.271-0.119 0.223-0.107 0.299 0.0686 0.427 0.196 0.143 0.187 0.174-0.109 0.368-0.345 0.226-0.415 0.54-0.176 0.779 0.113 0.113 0.0933 0.206-0.083 0.401-0.224 0.248-0.223 0.262 0.0498 0.552 0.179 0.191 0.231 0.328 0.145 0.381-0.242 0.149-0.141 0.558 0.192 0.776 0.32 0.209 0.321 0.216 0.0625 0.311-0.349 0.129-0.333 0.372 0.0468 0.728 0.171 0.16 0.346 0.481 0.389 0.712 0.0434 0.231 0.181 0.475 0.306 0.542 0.125 0.0668 0.261 0.229 0.303 0.361 0.0418 0.132 0.242 0.298 0.446 0.368 0.23 0.0802 0.37 0.216 0.37 0.36 0 0.327 0.244 0.531 0.635 0.531 0.22 0 0.406 0.108 0.54 0.312 0.137 0.209 0.319 0.312 0.552 0.312 0.191 0 0.416 0.0689 0.5 0.153 0.121 0.121 0.206 0.12 0.405-0.0042 0.138-0.0865 0.32-0.114 0.403-0.0619 0.209 0.132 1.46 0.136 1.55 0.0053z"/>
 <path id="tt" class="t" d="m39.7 67.5c0.114-0.0289 0.172-0.104 0.274-0.356 0.0823-0.203 0.0999-0.231 0.147-0.231 0.0557 0 0.0579 0.0041 0.113 0.216 0.0152 0.0583 0.0549 0.135 0.0884 0.171 0.119 0.128 0.371 0.0708 0.551-0.125 0.0876-0.095 0.0916-0.105 0.079-0.203-0.0258-0.202-0.0253-0.212 0.0121-0.22 0.0198-4e-3 0.0844 0.0234 0.144 0.0609 0.126 0.0799 0.354 0.155 0.47 0.155 0.0605 0 0.0971-0.0159 0.14-0.0607 0.132-0.137 0.165-0.339 0.093-0.564-0.0381-0.119-0.0384-0.13-4e-3 -0.164 0.0344-0.0343 0.0447-0.0343 0.155 5.25e-4 0.249 0.0786 0.579 0.0313 0.688-0.0988 0.0717-0.0852 0.0699-0.141-0.0106-0.342-0.09-0.225-0.0873-0.288 0.0166-0.386 0.0455-0.0429 0.151-0.126 0.234-0.184s0.17-0.137 0.193-0.175c0.051-0.0836 0.0566-0.269 0.0116-0.377-0.0738-0.177-0.29-0.342-0.448-0.344-0.158-0.0011-0.111-0.104 0.123-0.274 0.314-0.226 0.404-0.363 0.354-0.538-0.0344-0.123-0.194-0.304-0.299-0.338-0.0489-0.0162-0.13-0.0204-0.215-0.0113-0.314 0.0337-0.363-0.112-0.0954-0.285 0.0631-0.0406 0.137-0.0974 0.163-0.126 0.165-0.178 0.151-0.538-0.0268-0.677-0.0709-0.0558-0.206-0.0624-0.491-0.024-0.293 0.0394-0.316 0.0042-0.193-0.287 0.0751-0.178 0.0711-0.355-0.0119-0.52-0.0761-0.152-0.148-0.199-0.304-0.198-0.171 9.92e-4 -0.328 0.0585-0.479 0.176-0.0698 0.0542-0.145 0.0985-0.168 0.0985-0.0514 0-0.0913-0.0787-0.14-0.276-0.0498-0.203-0.103-0.285-0.224-0.343-0.292-0.141-0.588-0.0264-0.684 0.266-0.053 0.162-0.0939 0.221-0.154 0.221-0.0613 0-0.0771-0.0368-0.0771-0.18 0-0.183-0.0977-0.309-0.284-0.365-0.125-0.0377-0.227-0.0373-0.373 0.0015-0.28 0.0746-0.425 0.252-0.525 0.642-0.0218 0.085-0.0461 0.162-0.0541 0.171-0.0079 0.0092-0.0883-0.0391-0.179-0.107-0.28-0.211-0.422-0.25-0.607-0.166-0.108 0.049-0.266 0.226-0.3 0.336-0.0309 0.101-0.0026 0.158 0.173 0.351 0.146 0.16 0.173 0.212 0.136 0.257-0.0372 0.0448-0.0739 0.0383-0.263-0.047-0.269-0.121-0.506-0.104-0.688 0.052-0.166 0.142-0.213 0.327-0.127 0.504 0.0591 0.122 0.168 0.211 0.35 0.286 0.135 0.0556 0.2 0.103 0.2 0.144 0 0.034-0.085 0.0611-0.3 0.0957-0.41 0.0659-0.65 0.234-0.65 0.456 0 0.0565 0.0225 0.093 0.108 0.175 0.156 0.15 0.307 0.203 0.601 0.209 0.242 5e-3 0.338 0.0314 0.382 0.106 0.0307 0.051-0.0315 0.106-0.18 0.16-0.374 0.135-0.53 0.255-0.59 0.456-0.0729 0.245-0.0245 0.457 0.134 0.589 0.115 0.0952 0.263 0.136 0.504 0.137 0.11 7.27e-4 0.24 0.0085 0.289 0.0173l0.0883 0.016-0.199 0.135c-0.229 0.156-0.304 0.229-0.352 0.343-0.0688 0.165-0.0179 0.326 0.15 0.473 0.162 0.142 0.287 0.171 0.657 0.152 0.28-0.0144 0.308-0.0124 0.322 0.0226 0.0081 0.0211 2e-3 0.0693-0.0142 0.107-0.0822 0.195-0.0362 0.339 0.145 0.454 0.13 0.0825 0.287 0.116 0.462 0.0978 0.214-0.0219 0.29-6.5e-5 0.339 0.0975 0.0615 0.12 0.193 0.187 0.387 0.195 0.0859 0.0036 0.19-2e-3 0.231-0.0124z"/>
 <path id="ss" class="s" d="m40 8.86c0.291-1.23-0.535-3.74-0.535-3.74s-2.61 0.749-3.74 1.47c-2.34 1.49-6.01 5.75-6.01 5.75s0.728-5.27 0-7.75c-0.418-1.42-2.41-3.74-2.41-3.74s-2.04 1.49-2.67 2.54c-0.504 0.832-0.46 1.9-0.802 2.81-0.588 1.57-2.14 4.54-2.14 4.54s-2.75-4.64-4.94-6.01c-1.13-0.706-2.56-0.778-3.88-0.935-0.708-0.0842-2.14 0-2.14 0s0.684 2.54 1.2 3.74c0.402 0.934 1.02 1.76 1.47 2.67 0.734 1.48 2 4.54 2 4.54s-4.38-0.124-6.55 0.134c-1.86 0.221-5.48 1.2-5.48 1.2s1.68 1.9 2.67 2.67c0.695 0.538 1.51 0.897 2.27 1.34 1.64 0.948 4.94 2.81 4.94 2.81s-4.16 1.07-5.88 2.27c-1.5 1.05-3.61 4.14-3.61 4.14s2.31 0.465 3.47 0.668c0.844 0.148 1.68 0.352 2.54 0.401 2.14 0.123 6.41-0.267 6.41-0.267s-2.61 2.97-3.07 4.81c-0.462 1.82 0.401 5.61 0.401 5.61s3.09-0.871 4.41-1.74c1.69-1.11 4.28-4.28 4.28-4.28s0.0345 4.31 0.802 6.28c0.616 1.58 2.94 4.14 2.94 4.14s2.55-3.28 3.21-5.21c0.692-2.04 0.668-6.41 0.668-6.41s3.12 4.3 5.21 5.88c0.907 0.684 1.97 1.22 3.07 1.47 0.869 0.197 2.67 0 2.67 0s-0.927-3.61-1.6-5.35c-0.703-1.8-2.54-5.21-2.54-5.21s5.02 1.62 7.48 1.07c1.82-0.407 4.68-3.07 4.68-3.07s-3.09-1.74-4.68-2.54c-2.33-1.18-7.08-3.34-7.08-3.34s4.2-2.03 6.01-3.47c1.33-1.06 3.47-3.74 3.47-3.74s-3.2-0.784-4.81-0.668c-2.4 0.172-6.95 2-6.95 2s4.51-4.53 5.21-7.48z"/>
 <path id="rr" class="r" d="m21.4 42c2.99-3.11 3.83-4.68 3.83-7.15 0-1 0.0984-1.33 0.401-1.33 0.311 0 0.401 0.353 0.401 1.57 0 1.5 0.0611 1.64 1.24 2.96 0.683 0.759 2.46 2.24 3.94 3.28 1.49 1.05 2.98 2.15 3.33 2.46l0.631 0.554-0.185-2c-0.4-4.33-1.78-9.67-2.69-10.4-0.391-0.325-0.543-1.06-0.218-1.06 0.095 0 0.728 0.52 1.41 1.15 1.6 1.5 3.22 2.43 5.66 3.27 1.94 0.665 7.96 1.84 8.19 1.61 0.0665-0.0665-0.157-0.519-0.497-1-2.87-4.1-5.96-6.83-9.65-8.5-1.13-0.514-2.07-1.09-2.07-1.27-0.013-0.473 0.478-0.408 1.86 0.245 1.6 0.756 3.51 0.754 5.21-0.0043 1.93-0.86 7.08-3.83 7.08-4.09 0-0.366-3.12-1.82-4.88-2.27-0.915-0.235-2.75-0.431-4.07-0.436-2.14-0.0069-2.61 0.085-4.21 0.825-1.65 0.761-1.8 0.789-1.8 0.33 0-0.339 0.257-0.558 0.789-0.675 0.434-0.0953 1.49-0.629 2.36-1.19 2.4-1.55 4.18-3.99 5.53-7.58 1-2.67 1-2.67-1.21-1.92-4.75 1.62-7.86 3.7-8.85 5.94-0.767 1.72-1.4 1.39-0.731-0.384 0.156-0.414 0.767-1.33 1.36-2.03 0.59-0.701 1.18-1.65 1.31-2.1s0.164-2.54 0.0737-4.63l-0.164-3.8-2.7 1.86c-1.48 1.02-3.08 2.22-3.55 2.66-1.08 1.04-2.12 3.4-2.35 5.36-0.25 2.12-0.802 2.03-0.84-0.147-0.0335-1.89-0.582-3.35-2.16-5.73-1.27-1.92-4.64-5.51-4.91-5.23-0.313 0.332-0.784 3.87-0.78 5.87 5e-3 2.71 0.909 5.65 2.15 6.98 0.54 0.58 0.685 1.12 0.301 1.12-0.319 0-1.21-1.03-2.01-2.33-0.548-0.883-0.94-1.19-1.83-1.43-1.13-0.304-8.71-0.401-8.99-0.115-0.215 0.215 0.945 2.26 2.43 4.28 1.53 2.08 3.16 3.34 4.35 3.34 1.32 0 2.54 0.515 2.54 1.07 0 0.456-0.054 0.461-0.826 0.0757-0.936-0.467-2.99-0.339-5.7 0.355-2.2 0.561-7.12 2.53-6.96 2.78 0.175 0.283 5.69 2.6 7.42 3.11 0.987 0.294 2.04 0.376 3.6 0.28 1.21-0.0748 2.2-0.0419 2.2 0.0731 0 0.309-0.67 0.513-2.32 0.707-1.38 0.162-1.53 0.253-2.49 1.54-1.48 1.98-4.31 7.91-3.78 7.91 0.564 0 5.99-1.76 7.42-2.41 0.906-0.409 2.2-1.26 2.88-1.88 0.678-0.625 1.31-1.06 1.39-0.973 0.0893 0.0893-0.124 0.738-0.473 1.44-0.604 1.22-0.632 1.5-0.558 5.69 0.0425 2.43 0.164 4.81 0.271 5.31l0.193 0.899z"/>
 <path id="qq" class="q" d="m27.7 31.9c0.0549-0.0889 0.333-0.11 0.619-0.0477 0.353 0.0776 0.598 0.018 0.768-0.186 0.174-0.21 0.413-0.264 0.796-0.18 0.482 0.106 0.572 0.0523 0.763-0.452 0.19-0.504 0.282-0.559 0.776-0.46 0.545 0.109 0.556 0.0958 0.438-0.498-0.115-0.577-0.0946-0.607 0.396-0.549 0.478 0.0559 0.514 0.0139 0.47-0.554-0.0441-0.565-3e-3 -0.614 0.509-0.614 0.625 0 0.918-0.303 0.6-0.621-0.337-0.337-0.246-0.513 0.268-0.513 0.532 0 0.822-0.476 0.492-0.806-0.326-0.326-0.256-0.65 0.164-0.76 0.528-0.138 0.516-1.01-0.0161-1.18l-0.394-0.125 0.422-0.449c0.343-0.365 0.378-0.501 0.19-0.729-0.184-0.222-0.183-0.417 6e-3 -0.938 0.193-0.533 0.192-0.714-6e-3 -0.952-0.157-0.189-0.2-0.526-0.122-0.943 0.103-0.55 0.0615-0.668-0.273-0.774-0.321-0.102-0.373-0.226-0.277-0.665 0.137-0.626-0.17-1.32-0.584-1.32-0.158 0-0.411-0.298-0.563-0.661-0.152-0.364-0.382-0.671-0.51-0.683s-0.319-0.0332-0.423-0.0472-0.38-0.217-0.614-0.451-0.591-0.425-0.793-0.425-0.598-0.213-0.878-0.472c-0.28-0.26-0.682-0.472-0.893-0.472s-0.541-0.143-0.734-0.318c-0.276-0.25-0.461-0.278-0.865-0.131-0.367 0.134-0.687 0.117-1.12-0.0583-0.339-0.138-0.65-0.171-0.709-0.0763-0.0576 0.0931-0.437 0.125-0.843 0.0703-0.589-0.079-0.806-0.0204-1.07 0.29-0.249 0.291-0.472 0.362-0.879 0.28-0.417-0.0833-0.611-0.0165-0.82 0.282-0.151 0.215-0.504 0.418-0.784 0.451-0.365 0.0426-0.541 0.194-0.62 0.532-0.0855 0.369-0.247 0.486-0.737 0.533-0.581 0.0562-0.62 0.101-0.519 0.602 0.091 0.455 0.0415 0.551-0.31 0.601-0.333 0.0474-0.43 0.203-0.477 0.768-0.0377 0.455-0.154 0.709-0.324 0.709-0.146 0-0.364 0.185-0.485 0.41-0.18 0.337-0.162 0.453 0.104 0.647 0.297 0.217 0.283 0.263-0.165 0.556-0.521 0.342-0.629 0.817-0.266 1.18 0.17 0.17 0.141 0.312-0.126 0.607-0.339 0.375-0.337 0.396 0.0754 0.835 0.271 0.288 0.35 0.496 0.22 0.576-0.366 0.226-0.213 0.844 0.29 1.17 0.484 0.317 0.485 0.326 0.0945 0.471-0.527 0.195-0.504 0.562 0.0708 1.1 0.258 0.243 0.523 0.728 0.589 1.08 0.0656 0.35 0.274 0.719 0.463 0.82s0.395 0.347 0.458 0.546c0.0633 0.199 0.367 0.45 0.674 0.557 0.348 0.121 0.559 0.327 0.559 0.545 0 0.495 0.369 0.804 0.961 0.804 0.333 0 0.614 0.163 0.817 0.472 0.207 0.316 0.483 0.472 0.834 0.472 0.289 0 0.629 0.104 0.756 0.232 0.183 0.183 0.312 0.181 0.612-0.0064 0.21-0.131 0.484-0.173 0.609-0.0936 0.316 0.2 2.22 0.206 2.34 8e-3z"/>
 <path id="pp" class="p" d="m26.1 28.2c0.173-0.0438 0.26-0.157 0.415-0.538 0.125-0.307 0.151-0.349 0.222-0.349 0.0843 0 0.0876 0.0062 0.171 0.327 0.023 0.0882 0.0831 0.205 0.134 0.259 0.181 0.193 0.561 0.107 0.834-0.19 0.133-0.144 0.139-0.159 0.12-0.307-0.0391-0.305-0.0383-0.321 0.0183-0.332 0.03-6e-3 0.128 0.0354 0.217 0.0922 0.19 0.121 0.535 0.234 0.711 0.234 0.0915 0 0.147-0.024 0.212-0.0919 0.199-0.208 0.25-0.513 0.141-0.853-0.0577-0.18-0.0581-0.197-6e-3 -0.249 0.052-0.052 0.0676-0.0519 0.235 7.94e-4 0.377 0.119 0.876 0.0473 1.04-0.15 0.108-0.129 0.106-0.213-0.0161-0.518-0.136-0.34-0.132-0.436 0.0251-0.584 0.0689-0.065 0.228-0.19 0.353-0.278 0.126-0.0878 0.257-0.207 0.292-0.265 0.0771-0.127 0.0857-0.407 0.0175-0.57-0.112-0.267-0.439-0.518-0.678-0.52-0.239-0.0016-0.168-0.158 0.186-0.414 0.475-0.342 0.611-0.549 0.536-0.814-0.052-0.186-0.294-0.459-0.453-0.512-0.074-0.0244-0.197-0.0309-0.326-0.017-0.476 0.0509-0.55-0.17-0.144-0.431 0.0955-0.0614 0.207-0.147 0.247-0.191 0.249-0.269 0.228-0.814-0.0405-1.02-0.107-0.0844-0.311-0.0944-0.743-0.0363-0.443 0.0596-0.479 0.0064-0.292-0.434 0.114-0.269 0.108-0.536-0.018-0.787-0.115-0.23-0.224-0.301-0.46-0.3-0.259 0.0015-0.496 0.0885-0.725 0.266-0.106 0.082-0.22 0.149-0.254 0.149-0.0778 0-0.138-0.119-0.212-0.418-0.0754-0.307-0.156-0.431-0.338-0.519-0.442-0.214-0.89-0.0399-1.03 0.402-0.0801 0.246-0.142 0.334-0.234 0.334-0.0927 0-0.117-0.0557-0.117-0.272 0-0.277-0.148-0.467-0.429-0.552-0.189-0.057-0.344-0.0564-0.564 0.0023-0.424 0.113-0.644 0.382-0.795 0.972-0.033 0.129-0.0698 0.245-0.0818 0.259-0.0119 0.014-0.134-0.0592-0.27-0.163-0.423-0.32-0.638-0.378-0.919-0.251-0.163 0.0742-0.403 0.343-0.453 0.508-0.0467 0.153-4e-3 0.239 0.262 0.532 0.22 0.242 0.262 0.321 0.206 0.388-0.0563 0.0678-0.112 0.0579-0.397-0.071-0.407-0.184-0.766-0.157-1.04 0.0787-0.251 0.215-0.322 0.495-0.193 0.763 0.0894 0.185 0.254 0.319 0.529 0.433 0.204 0.0842 0.303 0.155 0.303 0.218 0 0.0514-0.129 0.0924-0.454 0.145-0.62 0.0997-0.983 0.355-0.983 0.69 0 0.0855 0.034 0.141 0.163 0.265 0.236 0.227 0.465 0.307 0.909 0.316 0.366 0.0075 0.511 0.0475 0.579 0.16 0.0465 0.0772-0.0476 0.161-0.273 0.242-0.566 0.204-0.802 0.386-0.892 0.689-0.11 0.371-0.0371 0.692 0.203 0.891 0.174 0.144 0.398 0.205 0.762 0.207 0.167 0.0011 0.363 0.0128 0.437 0.0262l0.134 0.0242-0.301 0.204c-0.347 0.235-0.46 0.346-0.533 0.519-0.104 0.249-0.0271 0.493 0.227 0.716 0.244 0.215 0.434 0.259 0.994 0.23 0.423-0.0218 0.466-0.0188 0.487 0.0342 0.0122 0.032 3e-3 0.105-0.0214 0.162-0.124 0.295-0.0548 0.513 0.22 0.687 0.197 0.125 0.434 0.175 0.699 0.148 0.323-0.0331 0.438-9.8e-5 0.514 0.148 0.093 0.182 0.292 0.282 0.585 0.294 0.13 0.0054 0.287-3e-3 0.349-0.0187z"/>
 <path id="oo" class="o" d="m37.1 45c-0.096-0.0134-0.246-0.136-0.47-0.365-0.28-0.287-1.1-0.901-1.83-1.37-0.724-0.464-1.93-1.27-2.68-1.79-0.751-0.522-1.38-0.923-1.4-0.895-0.02 0.0292-0.103 0.245-0.184 0.477-0.0813 0.232-0.469 0.883-0.864 1.45-0.395 0.564-0.927 1.37-1.18 1.78-0.571 0.93-0.626 0.979-0.912 0.872-0.429-0.159-2.43-2.68-2.92-3.68-0.0661-0.136-3.23 2.75-4.22 3.84-0.312 0.347-0.599 0.635-0.638 0.64-0.0403 6e-3 -0.118-0.51-0.174-1.15-0.0568-0.637-0.185-2.03-0.285-3.09-0.1-1.07-0.165-2.05-0.145-2.18 0.0287-0.2-5e-3 -0.221-0.184-0.112-0.835 0.513-2.58 1.29-3.15 1.4l-0.678 0.132-0.235-1.74c-0.129-0.957-0.249-2.16-0.265-2.67l-0.0274-0.928-0.582 0.158c-0.319 0.0962-1.78 0.523-3.25 0.961-1.47 0.438-2.68 0.785-2.7 0.768-0.0186-0.0115 0.122-0.401 0.314-0.859s0.642-1.62 0.999-2.59c0.357-0.967 0.836-2.13 1.07-2.58l0.421-0.823-1.3-0.0434c-1.39-0.0453-3.33-0.376-3.99-0.679l-0.405-0.185 1.12-1.41c0.618-0.773 1.44-1.68 1.82-2.02l0.691-0.614-2.45-1.09c-1.35-0.597-2.57-1.14-2.72-1.2-0.646-0.277-0.592-0.436 0.354-1.02 0.606-0.375 1.81-0.912 4.59-2.06l0.521-0.215-0.917-0.559c-0.93-0.566-1.79-1.4-2.68-2.59-0.45-0.606-0.472-0.669-0.286-0.805 0.453-0.328 2.13-0.809 3.43-0.985 0.755-0.102 1.37-0.224 1.36-0.263-5e-3 -0.039-0.27-0.498-0.587-1.02-0.478-0.781-1.2-2.24-1.5-3.05-0.0579-0.154 0.181-0.209 1.74-0.38 0.995-0.108 2.49-0.192 3.33-0.185 0.836 6e-3 1.54-9.2e-4 1.56-0.0221 0.0203-0.0173-0.105-0.238-0.275-0.484-0.462-0.667-0.983-1.79-1.35-2.92-0.399-1.23-0.718-2.98-0.545-3 1.43-0.154 4.94 0.271 5.75 0.695 0.29 0.153 0.389 0.16 0.411 0.024 0.0163-0.0951 0.0662-0.403 0.111-0.687 0.045-0.284 0.209-1.01 0.364-1.6 0.155-0.596 0.266-1.19 0.248-1.32-0.039-0.289 0.134-0.908 0.259-0.925 0.137-0.0192 2.44 1.81 3.06 2.42 0.301 0.301 0.905 0.974 1.34 1.5 0.462 0.554 0.673 0.825 0.777 0.714l0.37 0.788c0.0292 0.146 0.0726 0.243 0.152 0.304 0.103 0.079 0.138 0.0344 0.116-0.135-0.0557-0.429 0.382-1.6 0.848-2.26l0.453-0.647-9e-3 -0.346 0.363-0.341c4e-3 0.0394 9e-3 0.276 0.0127 0.275 0.0181-2e-3 0.296-0.267 0.62-0.589 0.0553-0.0607 0.122-0.109 0.184-0.163l0.963-0.386c-0.117 0.0953-0.377 0.335-0.769 0.727-2.27 2.27-2.81 3.76-1.91 5.29 0.495 0.84 0.966 1.89 1.2 2.66l0.171 0.567 0.191-0.649c0.491-1.67 1.47-3.11 2.9-4.26 0.434-0.349 0.438-0.363 0.283-0.932-0.194-0.712-0.827-1.99-1.42-2.87-0.213-0.316-0.391-0.541-0.466-0.601l0.269-0.103c0.147 0.138 0.318 0.368 0.608 0.798 0.576 0.856 1.04 1.8 1.23 2.51 0.0897 0.33 0.173 0.6 0.187 0.598 0.194-0.0263 4.14-2.58 4.68-3.03 0.404-0.337 0.797-0.621 0.87-0.631 0.0857-0.0134 0.125 0.151 0.113 0.459-0.0564 1.28-0.041 2.12 0.0637 3.49l0.115 1.49 0.259-0.128c0.221-0.109 0.972-0.359 3.27-1.1l0.408-0.135 0.201 1.89c0.11 1.04 0.232 1.89 0.27 1.88 0.333-0.0484 4.17-1.19 4.26-1.27 0.0684-0.0624 0.216-0.0425 0.326 0.0223 0.171 0.11 0.154 0.205-0.118 0.664-0.175 0.295-0.359 0.868-0.407 1.27-0.0935 0.795-0.7 2.53-1.32 3.78-0.211 0.425-0.381 0.804-0.376 0.842 5e-3 0.039 0.148 0.0463 0.318 0.0232 0.78-0.105 3.66 0.612 3.83 0.953 0.119 0.246-0.741 1.47-1.75 2.5-0.554 0.561-1.01 1.06-1.01 1.1 6.5e-4 0.04 0.368 0.158 0.817 0.257 1.49 0.326 3.62 1.3 5.3 2.43l0.528 0.355-0.268 0.275c-0.455 0.466-2.75 1.94-4.21 2.71-0.764 0.401-1.38 0.764-1.38 0.803 5e-3 0.039 0.302 0.159 0.659 0.269 0.9 0.275 2.12 0.982 3.16 1.83l0.875 0.716-0.398 0.414c-0.604 0.629-2.43 1.81-3.37 2.19-0.463 0.182-0.857 0.346-0.877 0.361-0.0194 0.0154 0.195 0.3 0.478 0.635 1.12 1.33 3.56 4.98 3.43 5.14-0.0688 0.0888-3.76-0.252-5.19-0.479-0.716-0.114-1.8-0.34-2.41-0.505-0.608-0.164-1.11-0.299-1.11-0.299-5e-3 7e-4 0.174 0.589 0.398 1.31 0.256 0.823 0.457 1.77 0.541 2.55l0.135 1.25-0.564 0.0499c-1.22 0.0853-3.1-0.273-4.18-0.806-0.382-0.188-0.706-0.325-0.721-0.304-0.0497 0.073 0.103 3.08 0.196 3.83 0.0906 0.737 0.0908 1.05-0.0668 1.04zm-0.232-0.58c0.086-0.0115-0.197-3.25-0.443-5.05-0.183-1.35-0.786-3.89-1.34-5.65-0.241-0.766-0.473-1.25-0.776-1.6-0.238-0.281-0.567-0.732-0.729-1l-0.295-0.489-0.134 0.42c-0.146 0.461-0.658 0.699-1.02 0.472-0.162-0.0972-0.193-0.0799-0.165 0.128 0.0701 0.518-0.769 1.07-1.28 0.834-0.136-0.0611-0.286-0.0154-0.463 0.129-0.143 0.125-0.525 0.26-0.847 0.303-0.322 0.0436-0.78 0.109-1.02 0.149-0.238 0.0419-0.552 0.048-0.696 0.0154-0.242-0.0469-0.253 8e-3 -0.17 0.734 0.0494 0.432 0.047 1.15-5e-3 1.6l-0.0942 0.811 0.478 0.708c1.09 1.61 2.7 3.01 6.13 5.33 1.2 0.813 2.32 1.63 2.48 1.82 0.165 0.188 0.333 0.339 0.374 0.334zm-9.18 0.48c0.0403-6e-3 0.228-0.301 0.417-0.656 0.189-0.356 0.704-1.16 1.15-1.8 0.442-0.635 0.895-1.38 1.01-1.66l0.201-0.507-0.736-0.656c-0.809-0.721-2.18-2.27-2.21-2.51-0.0468-0.346-0.291-0.23-0.404 0.193-0.207 0.774-0.878 1.99-1.57 2.86-0.365 0.455-0.653 0.897-0.642 0.983 0.061 0.452 2.54 3.78 2.8 3.75zm-7.57 0.137c0.0428-6e-3 0.136-0.0978 0.204-0.211 0.0679-0.115 0.873-0.907 1.79-1.77 2.98-2.81 3.97-4.13 4.58-6.08 0.524-1.68 0.56-3.92 0.0606-3.85-0.121 0.0173-0.345-0.0328-0.498-0.113-0.181-0.0947-0.334-0.0955-0.441-8e-3 -0.266 0.223-0.666 0.225-1.04 6e-3 -0.192-0.113-0.465-0.189-0.605-0.17-0.331 0.0446-1.18-0.519-1.32-0.878-0.0902-0.226-0.176-0.26-0.458-0.178-0.245 0.0736-0.47 0.0238-0.773-0.17-0.234-0.149-0.45-0.265-0.479-0.261-0.13 0.0154-0.962 1.52-1.17 2.1-0.321 0.918-0.444 2.25-0.371 3.99 0.191 4.56 0.398 7.6 0.518 7.59zm21.9-3.97c0.104-0.0154-0.28-2.44-0.511-3.22-0.533-1.8-0.565-1.85-1.4-2.15-1.27-0.459-3.43-1.56-4.1-2.09-0.348-0.275-0.666-0.495-0.708-0.489-0.0428 6e-3 0.0405 0.351 0.186 0.766 0.317 0.905 1.13 4.26 1.25 5.18 0.0869 0.643 0.098 0.656 0.73 0.951 0.974 0.454 2.04 0.743 3.33 0.909 0.643 0.0828 1.19 0.146 1.22 0.143zm7.4-4.04c0.227-0.0307-2.83-4.12-3.92-5.24-2.14-2.2-5.1-4.19-7.85-5.25-0.932-0.363-1.39-0.455-1.37-0.278 9e-3 0.0649-0.0877 0.175-0.216 0.235-0.195 0.0926-0.203 0.16-0.0626 0.38 0.249 0.395-0.0209 1.08-0.49 1.24-0.295 0.106-0.348 0.182-0.308 0.476 0.0559 0.414-0.374 0.866-0.778 0.816-0.202-0.0257-0.248 0.03-0.218 0.251 0.0209 0.155-0.0614 0.448-0.181 0.653-0.217 0.367-0.217 0.377 0.0819 0.861 0.442 0.717 2.8 2.52 4.12 3.16 1.27 0.609 3.21 1.3 4.68 1.66 1.2 0.296 6.16 1.09 6.51 1.05zm-34 3.73 0.488-0.145c0.633-0.192 2.28-0.956 2.8-1.31l0.405-0.273-0.0426-1.41c-0.051-1.69 7e-3 -2.67 0.211-3.55 0.0826-0.36 0.148-0.667 0.146-0.685-9e-3 -0.0649-0.232 0.0444-1.24 0.648-0.58 0.345-1.52 0.814-2.1 1.04l-1.04 0.414-0.0188 0.528c-0.011 0.29 0.0721 1.48 0.187 2.63zm-6.62-3.81c0.0222-4e-3 1.43-0.423 3.14-0.933 3.42-1.02 4.51-1.43 5.85-2.18 1.48-0.831 1.82-1.12 2.64-2.2 0.754-1 0.767-1.04 0.478-1.14-0.521-0.185-0.925-0.529-0.965-0.823-0.0211-0.156-0.156-0.33-0.3-0.384-0.297-0.111-0.672-0.843-0.669-1.31 1e-3 -0.218-0.113-0.385-0.379-0.556-0.209-0.134-0.442-0.391-0.519-0.572-0.128-0.298-0.175-0.316-0.5-0.176-0.437 0.191-2.76 0.539-3.13 0.476-0.692-0.121-3.05 3.31-4.24 6.17-0.736 1.77-1.45 3.64-1.39 3.63zm37.2-5.7c0.0819-0.0115 0.18-0.0379 0.308-0.0674 0.288-0.0795 0.802-0.285 1.14-0.456 0.788-0.397 3-1.9 2.98-2.03-0.0183-0.134-1.74-1.29-2.57-1.73-0.375-0.197-1.05-0.485-1.51-0.64-0.454-0.156-0.841-0.275-0.858-0.261-0.0183 0.0135-0.389 0.204-0.823 0.424-0.948 0.483-2.33 0.91-3.09 0.952-0.305 0.0154-0.537 0.0615-0.514 0.0959 0.0222 0.0369 0.582 0.429 1.24 0.872 1.29 0.863 2.15 1.56 2.97 2.4 0.374 0.382 0.482 0.482 0.728 0.449zm-17.8 1.55c0.153-0.0206 0.333-0.111 0.459-0.258 0.174-0.206 0.222-0.212 0.532-0.0626 0.309 0.148 0.369 0.141 0.687-0.0817 0.192-0.132 0.379-0.314 0.417-0.398 0.0463-0.0991 0.152-0.0736 0.321 0.101 0.197 0.199 0.322 0.227 0.573 0.127 0.293-0.119 0.397-0.311 0.504-0.935 0.0367-0.209 0.0615-0.212 0.432-0.0619 0.536 0.218 0.827-0.0586 0.652-0.638-0.153-0.502-0.0855-0.576 0.373-0.411 0.33 0.117 0.393 0.106 0.542-0.0859 0.189-0.248 0.178-0.598-0.0247-0.752-0.082-0.0684-0.0987-0.182-0.0448-0.303 0.0713-0.158 0.125-0.173 0.265-0.0622 0.306 0.233 0.866 0.0767 0.972-0.273 0.075-0.25 0.0392-0.376-0.177-0.626l-0.271-0.313 0.318 0.0498c0.175 0.0294 0.385 0.0673 0.469 0.0892 0.187 0.0411 0.609-0.485 0.577-0.722-0.0127-0.0913-0.117-0.229-0.231-0.302-0.115-0.0772-0.221-0.241-0.239-0.377-0.0269-0.199 0.0258-0.241 0.283-0.211 0.262 0.0309 0.343-0.0334 0.463-0.37 0.176-0.493 0.0294-0.852-0.4-0.981l-0.319-0.0974 0.333-0.268c0.435-0.352 0.504-0.761 0.177-1.04-0.242-0.203-0.24-0.229 0.0337-0.604 0.335-0.459 0.308-0.93-0.0748-1.29-0.268-0.251-0.269-0.265-0.069-0.628 0.263-0.48 0.0895-0.972-0.361-1.02-0.374-0.0423-0.395-0.0991-0.185-0.505 0.0935-0.181 0.114-0.49 0.0543-0.764-0.088-0.396-0.174-0.487-0.634-0.65-0.461-0.166-0.533-0.24-0.543-0.564-0.0181-0.524-0.632-1.03-1.05-0.867-0.242 0.0989-0.302 0.0678-0.33-0.139-0.0481-0.355-0.677-0.769-1.15-0.752-0.293 0.0135-0.464-0.0845-0.688-0.384-0.403-0.538-0.688-0.688-1.08-0.56-0.225 0.0707-0.34 0.0551-0.356-0.058-0.0626-0.464-1.21-0.641-1.52-0.236-0.0913 0.118-0.231 0.0844-0.556-0.116-0.482-0.305-0.986-0.303-1.06 2e-3 -0.0396 0.168-0.0889 0.166-0.332-0.0215l-2e-3 -4e-3c-0.509-0.389-1.56-0.0795-1.69 0.496-0.0557 0.254-0.0622 0.255-0.392 0.0403-0.465-0.304-0.9-0.162-1.17 0.383-0.122 0.247-0.261 0.392-0.315 0.328-0.133-0.16-0.749-0.0619-0.906 0.149-0.0715 0.0892-0.107 0.329-0.0809 0.524 0.0476 0.351 0.0407 0.355-0.524 0.348-0.382-1e-3 -0.627 0.0448-0.737 0.166-0.199 0.215-0.158 0.672 0.0766 0.851 0.132 0.101 0.0683 0.142-0.288 0.19-0.576 0.0778-0.85 0.544-0.652 1.12 0.116 0.337 0.102 0.372-0.142 0.343-0.571-0.0701-1.05 1.2-0.503 1.33 0.308 0.0774 0.254 0.202-0.165 0.389-0.218 0.0957-0.448 0.331-0.527 0.534-0.13 0.334-0.116 0.387 0.19 0.702 0.322 0.332 0.326 0.342 0.0851 0.374-0.296 0.0401-0.492 0.489-0.348 0.795 0.0579 0.125 0.222 0.299 0.367 0.399 0.259 0.178 0.26 0.188 0.0573 0.454-0.113 0.149-0.188 0.398-0.167 0.553 0.0477 0.353 0.44 0.792 0.679 0.759 0.0989-0.0135 0.188 0.0409 0.198 0.114 0.0109 0.078-0.0757 0.116-0.195 0.0795-0.261-0.0576-0.502 0.324-0.451 0.728 0.0207 0.171 0.22 0.424 0.48 0.607 0.386 0.274 0.458 0.4 0.542 0.97 0.104 0.693 0.352 1.04 0.71 0.991 0.163-0.0229 0.213 0.0507 0.199 0.294-0.0214 0.401 0.338 0.729 0.846 0.77 0.341 0.0334 0.378 0.0813 0.444 0.572 0.084 0.622 0.194 0.7 0.979 0.687 0.433-6e-3 0.568 0.0425 0.563 0.194-2e-3 0.12 0.189 0.366 0.425 0.559 0.322 0.263 0.505 0.325 0.73 0.251 0.22-0.0695 0.359-0.0357 0.53 0.167 0.27 0.311 0.748 0.291 0.999-0.0421 0.156-0.205 0.194-0.203 0.435 0.0208 0.277 0.262 0.849 0.262 1.38-2e-3 0.203-0.107 0.274-0.0901 0.295 0.0661 0.018 0.13 0.144 0.179 0.296 0.16zm-1.67-3.42c-0.266 0.01-0.521-0.0728-0.7-0.232-0.177-0.158-0.438-0.27-0.581-0.25-0.357 0.0482-0.991-0.191-1.12-0.423-0.0545-0.0986-0.119-0.298-0.136-0.43-0.0243-0.18-0.12-0.228-0.387-0.192-0.196 0.0265-0.526-0.048-0.735-0.174-0.345-0.203-0.381-0.28-0.412-0.888-0.0245-0.466-0.0842-0.679-0.202-0.707-0.0926-0.0273-0.28-0.202-0.419-0.401-0.303-0.432-0.291-0.94 0.0339-1.4 0.17-0.24 0.184-0.332 0.0552-0.357-0.728-0.139-0.976-0.964-0.461-1.53 0.186-0.205 0.389-0.379 0.447-0.387 0.0586-8e-3 0.0477-0.207-0.0222-0.438-0.167-0.546 0.0662-1.04 0.584-1.25 0.267-0.102 0.391-0.244 0.392-0.431 7e-3 -0.663 1-1.26 1.68-1.01 0.223 0.089 0.298 0.0526 0.422-0.192 0.0829-0.161 0.264-0.358 0.402-0.436l2e-3 -2.7e-4c0.395-0.224 0.908-0.265 1.35-0.103 0.331 0.118 0.468 0.109 0.741-0.0471 0.28-0.157 0.419-0.163 0.837-0.0338 0.277 0.0951 0.572 0.279 0.656 0.416 0.127 0.207 0.226 0.229 0.611 0.123 0.396-0.106 0.522-0.0797 0.907 0.214 0.391 0.297 0.449 0.405 0.449 0.835 4.7e-4 0.425 0.0349 0.494 0.259 0.497 0.144 8e-3 0.397 0.143 0.563 0.312 0.275 0.282 0.295 0.362 0.225 0.911-0.0635 0.512-0.047 0.614 0.121 0.68 0.107 0.0384 0.287 0.261 0.396 0.486 0.21 0.43 0.165 0.74-0.182 1.27-0.125 0.189-0.125 0.275 2e-3 0.372 0.0913 0.0673 0.195 0.333 0.229 0.586 0.0499 0.37-0.0146 0.547-0.322 0.9-0.296 0.34-0.37 0.536-0.326 0.861 0.0771 0.572-0.248 0.938-0.886 0.997-0.395 0.0407-0.487 0.0922-0.463 0.268 0.0163 0.117-0.0915 0.37-0.24 0.553-0.236 0.292-0.326 0.324-0.703 0.262-0.356-0.0578-0.474-0.0288-0.682 0.198-0.279 0.296-0.959 0.442-1.2 0.255-0.113-0.0907-0.225-0.0624-0.412 0.0669-0.228 0.165-0.507 0.249-0.773 0.253zm0.205-0.302c0.363-0.049 0.449-0.127 0.605-0.556 0.174-0.47 0.189-0.482 0.234-0.173 0.027 0.179 0.142 0.383 0.255 0.453 0.413 0.258 1.22-0.337 1.01-0.74-0.1-0.192-0.0898-0.193 0.159-0.0311 0.147 0.0995 0.422 0.192 0.611 0.213 0.278 0.0286 0.375-0.0242 0.509-0.311 0.106-0.225 0.123-0.458 0.0439-0.656-0.11-0.277-0.0973-0.298 0.139-0.211 0.382 0.142 0.975 0.0327 1.13-0.205 0.0947-0.152 0.0817-0.317-0.0421-0.596-0.166-0.371-0.155-0.399 0.299-0.703 0.383-0.257 0.471-0.392 0.457-0.715-0.0163-0.425-0.463-0.86-0.839-0.82-0.107 0.0115 0.041-0.138 0.328-0.329 0.589-0.395 0.676-0.761 0.286-1.21-0.166-0.191-0.356-0.261-0.611-0.226-0.471 0.0636-0.495-0.0907-0.0541-0.329 0.395-0.213 0.511-0.822 0.233-1.21-0.134-0.186-0.293-0.22-0.733-0.161-0.556 0.0749-0.56 0.072-0.406-0.228 0.181-0.349 0.147-0.787-0.0846-1.11-0.198-0.274-0.859-0.214-1.21 0.11-0.235 0.217-0.245 0.21-0.343-0.235-0.0755-0.342-0.189-0.493-0.445-0.593-0.461-0.182-0.974 0.0386-1.07 0.448-0.0915 0.392-0.248 0.451-0.202 0.0805 0.0202-0.164-0.069-0.343-0.237-0.472l-2e-3 2.3e-4 -2.4e-4 -2e-3c-0.325-0.245-0.988-0.186-1.32 0.125-0.129 0.123-0.28 0.389-0.336 0.601l-0.102 0.382-0.336-0.257c-0.412-0.314-0.846-0.273-1.16 0.117-0.296 0.361-0.273 0.542 0.11 0.913 0.33 0.32 0.248 0.397-0.17 0.161-0.375-0.212-0.927-0.105-1.18 0.226-0.354 0.464-0.132 1.01 0.502 1.24 0.334 0.122 0.327 0.127-0.228 0.202-0.618 0.0836-1.03 0.43-0.981 0.819 0.0403 0.298 0.681 0.656 1.08 0.603 0.179-0.0227 0.411-2e-3 0.518 0.0494 0.141 0.0605 0.0664 0.129-0.282 0.242-0.587 0.185-0.84 0.462-0.88 0.953-0.0455 0.555 0.332 0.93 0.956 0.945l0.505 0.0115-0.375 0.255c-0.851 0.579-0.171 1.63 0.941 1.46 0.385-0.0611 0.519-0.0438 0.441 0.0598-0.36 0.471 0.239 1.06 0.976 0.962 0.224-0.0304 0.415-4e-3 0.423 0.0619 0.0337 0.25 0.48 0.45 0.882 0.395zm15-2.07c0.572-0.0786 1.19-0.268 1.93-0.556 1.67-0.662 7.65-4.06 7.61-4.33-0.023-0.168-2.55-1.5-3.64-1.91-1.36-0.52-3.46-0.904-5.29-0.968-1.8-0.0642-2.92 0.0941-3.78 0.537-0.354 0.182-1.03 0.466-1.5 0.633-0.98 0.347-1.37 0.767-0.993 1.08 0.261 0.219 0.384 1.08 0.203 1.42-0.0848 0.157-0.0909 0.442-0.0127 0.753 0.0996 0.395 0.0784 0.557-0.0982 0.766l-0.224 0.265 0.304 0.313c0.167 0.173 0.279 0.369 0.248 0.44-0.0316 0.0705 0.252 0.223 0.628 0.339s1.2 0.447 1.83 0.734c1.01 0.458 1.83 0.624 2.78 0.492zm-30.7 3.33 1.23-1.65c0.677-0.908 1.23-1.67 1.23-1.7-4e-3 -0.0259-0.0917-0.0407-0.194-0.0269-0.101 0.0154-0.702-0.112-1.33-0.278-0.632-0.166-1.48-0.419-1.9-0.561l-0.748-0.257-0.549 0.46c-0.656 0.551-2.44 2.43-2.81 2.95-0.221 0.312-0.231 0.385-0.065 0.461 0.451 0.202 2.65 0.518 3.85 0.556zm5.5-3.83c0.868-0.144 1.36-0.337 1.67-0.648 0.199-0.201 0.196-0.227-0.0269-0.415-0.32-0.268-0.372-0.769-0.115-1.07 0.206-0.245 0.206-0.252-0.0614-0.454-0.321-0.244-0.501-1.22-0.277-1.49 0.0806-0.0903 0.101-0.3 0.0499-0.455-0.111-0.328 0.0443-1.01 0.255-1.13 0.251-0.14-0.0345-0.756-0.47-1.02-0.226-0.136-0.654-0.299-0.952-0.363-0.664-0.14-3.83 0.193-4.82 0.51-3.42 1.09-4.67 1.55-6.39 2.33-0.754 0.343-1.39 0.646-1.41 0.67-0.02 0.0292 0.549 0.301 1.26 0.611 0.715 0.31 1.92 0.839 2.67 1.17 1.74 0.776 3.88 1.53 5.14 1.81 0.804 0.178 1.25 0.191 2.48 0.0722 0.382-0.0386 0.713-0.0836 1-0.124zm20-6.35c0.585-0.079 2.51-1.09 3.48-1.82 1.16-0.88 2.21-2.13 3.14-3.71 1.15-1.96 2.24-4.74 2.26-5.75l-2e-3 2.5e-4c0.0127-0.491 0.152-0.503-1.83 0.154-1.59 0.528-2.57 0.929-4.44 1.82-2.72 1.3-4.38 2.91-4.93 4.78-0.231 0.782-0.233 0.876-0.0307 1.1 0.123 0.132 0.241 0.381 0.265 0.554 0.0312 0.222 0.184 0.381 0.521 0.539 0.262 0.124 0.55 0.358 0.64 0.523 0.161 0.296 0.168 0.859 0.0127 1.12-0.128 0.22 0.563 0.746 0.917 0.698zm8.18-1.22c0.337-0.0453 3.09-3.06 3.05-3.34-0.0198-0.147-0.863-0.419-1.85-0.599-0.464-0.0845-1.17-0.158-1.57-0.165l-0.724-0.01-0.521 0.868c-0.571 0.949-1.56 2.09-2.3 2.65-0.258 0.194-0.461 0.402-0.453 0.46 9e-3 0.0649 0.0523 0.0724 0.0995 0.0396 0.123-0.0963 2.41-0.0745 3.31 0.0327 0.419 0.0494 0.849 0.079 0.954 0.0648zm-26.7 0.733 0.251-0.308c0.139-0.17 0.311-0.319 0.384-0.329s0.143-0.202 0.158-0.427c0.0298-0.467 0.393-1.04 0.683-1.08 0.121-0.0154 0.186-0.144 0.171-0.343-0.0386-0.512 0.178-0.735 0.753-0.77 0.473-0.0242 0.519-0.0646 0.587-0.421 0.0448-0.237 0.222-0.491 0.451-0.647l0.379-0.257-0.456-0.258c-0.507-0.288-1.25-1.27-1.72-2.26-0.37-0.782-0.718-1.1-1.52-1.37-1.06-0.368-3.78-0.563-6.39-0.457-2.77 0.112-3.39 0.185-3.36 0.388 0.0388 0.288 1.19 2.38 1.8 3.29 1.37 2.02 2.69 3.44 3.76 4.04 0.651 0.366 0.897 0.43 1.55 0.41 0.898-0.0284 1.77 0.19 2.21 0.552zm-8.27 0.236c0.142-0.029 1.14-0.273 2.22-0.54l1.96-0.488-0.928-0.712c-0.51-0.391-1.31-1.17-1.77-1.74l-0.838-1.03-1.61 0.204c-1.4 0.176-3.14 0.595-3.3 0.8-0.0285 0.044 0.396 0.567 0.943 1.18 1.07 1.2 2.82 2.42 3.31 2.33zm23.7-3.63c0.0888-0.0115 0.199-0.27 0.246-0.571 0.169-1.11 0.951-2.37 2.07-3.35 0.849-0.743 1.14-2.19 0.954-4.74-0.179-2.48-0.21-4.14-0.104-5.52l2e-3 -2.3e-4c0.0283-0.379-0.0437-0.347-0.842 0.383-0.372 0.339-1.41 1.08-2.31 1.64-1.88 1.17-3.14 2.14-3.9 2.99-1.03 1.15-1.87 3.39-1.91 5.1-0.011 0.467-0.0759 1.05-0.143 1.31-0.102 0.374-0.0884 0.493 0.0682 0.663 0.134 0.145 0.239 0.164 0.355 0.0711 0.309-0.259 1.16-0.295 1.44-0.0609 0.142 0.12 0.386 0.201 0.541 0.18 0.363-0.0492 1.27 0.598 1.32 0.94 0.0303 0.224 0.0871 0.243 0.397 0.137 0.313-0.109 0.447-0.0569 1.01 0.376 0.354 0.274 0.716 0.488 0.804 0.476zm-11.2-1.47c0.0967-2e-4 0.168-0.0482 0.288-0.158 0.317-0.293 0.935-0.387 1.29-0.2 0.233 0.128 0.291 0.117 0.468-0.0897 0.191-0.226 0.958-0.429 2.3-0.613 0.433-0.059 0.457-0.0889 0.519-0.627 0.185-1.64-0.198-3.41-1.08-5.03-1.31-2.4-2.76-4.35-4.38-5.88-0.392-0.37-0.987-0.91-1.32-1.2l-0.607-0.524-0.0877 0.375c-0.678 2.88-0.905 5.64-0.638 7.73 0.354 2.77 1.53 5.29 2.81 6.02 0.224 0.127 0.347 0.19 0.444 0.196zm14.5-3.43c0.0163 0.01 0.0699-0.0134 0.167-0.0755 0.842-0.485 2.83-1.46 3.4-1.67 0.811-0.299 0.787-0.199 0.613-2.39l-2e-3 2.5e-4c-0.0715-0.912-0.172-1.59-0.234-1.57-0.0604 0.0154-0.269 0.103-0.466 0.196-0.196 0.093-0.887 0.35-1.53 0.57-1.68 0.571-1.62 0.504-1.54 1.87 0.0657 1.11-0.105 2.52-0.355 2.93-0.0494 0.0861-0.0688 0.129-0.0526 0.14zm-17.7-0.283c0.0505 0.0198 7.2e-4 -0.171-0.111-0.421-0.315-0.705-0.595-3.15-0.509-4.46l0.0746-1.14-0.31-0.186c-0.4-0.243-1.94-0.508-3.63-0.621-0.738-0.0502-1.47-0.101-1.63-0.113-0.253-0.0192-0.281 0.0325-0.232 0.387 0.184 1.35 1.36 4.44 2.02 5.31 0.32 0.423 0.395 0.452 1.53 0.579 0.974 0.109 1.85 0.315 2.79 0.658z"/>
 <path id="nn" class="n" d="m45.8 78.7c-0.0634-0.0089-0.163-0.0902-0.311-0.241-0.185-0.19-0.728-0.596-1.21-0.903-0.479-0.307-1.28-0.84-1.77-1.18-0.497-0.345-0.915-0.61-0.927-0.592-0.0132 0.0193-0.0678 0.162-0.121 0.315-0.0537 0.154-0.31 0.583-0.571 0.956s-0.613 0.904-0.782 1.18c-0.378 0.614-0.414 0.647-0.603 0.577-0.283-0.105-1.61-1.77-1.93-2.43-0.0437-0.0897-2.13 1.82-2.79 2.54-0.206 0.229-0.396 0.42-0.422 0.423-0.0266 4e-3 -0.078-0.337-0.115-0.758-0.0375-0.421-0.122-1.34-0.189-2.05-0.0662-0.704-0.109-1.35-0.0959-1.44 0.019-0.132-0.0033-0.146-0.122-0.0738-0.552 0.339-1.71 0.851-2.08 0.923l-0.448 0.087-0.155-1.15c-0.0854-0.633-0.165-1.43-0.175-1.76l-0.0181-0.614-0.385 0.105c-0.211 0.0636-1.18 0.346-2.15 0.635-0.969 0.29-1.77 0.519-1.78 0.507-0.0123-0.0076 0.0808-0.265 0.208-0.568 0.127-0.303 0.425-1.07 0.66-1.71 0.236-0.639 0.553-1.41 0.706-1.71l0.278-0.544-0.858-0.0287c-0.919-0.0299-2.2-0.248-2.64-0.449l-0.268-0.122 0.743-0.93c0.409-0.511 0.949-1.11 1.2-1.33l0.457-0.406-1.62-0.717c-0.891-0.395-1.7-0.752-1.8-0.794-0.427-0.183-0.391-0.288 0.234-0.675 0.401-0.248 1.19-0.603 3.03-1.36l0.344-0.142-0.606-0.369c-0.615-0.374-1.18-0.925-1.77-1.71-0.298-0.401-0.312-0.442-0.189-0.532 0.299-0.217 1.41-0.535 2.27-0.651 0.499-0.0674 0.903-0.148 0.9-0.174-0.0033-0.0258-0.178-0.329-0.388-0.673-0.316-0.516-0.79-1.48-0.992-2.02-0.0383-0.102 0.119-0.138 1.15-0.251 0.658-0.0715 1.65-0.127 2.2-0.122 0.553 4e-3 1.02-6.08e-4 1.03-0.0146 0.0134-0.0114-0.0695-0.157-0.182-0.32-0.305-0.441-0.649-1.19-0.892-1.93-0.264-0.81-0.474-1.97-0.361-1.98 0.946-0.101 3.27 0.179 3.8 0.459 0.192 0.101 0.257 0.106 0.271 0.0159 0.0108-0.0629 0.0438-0.266 0.0733-0.454 0.0297-0.188 0.138-0.665 0.241-1.06 0.102-0.394 0.176-0.788 0.164-0.876-0.0258-0.191 0.0889-0.6 0.171-0.611 0.0906-0.0127 1.61 1.2 2.02 1.6 0.199 0.199 0.598 0.644 0.887 0.99 0.306 0.366 0.445 0.545 0.513 0.472l0.244 0.521c0.0193 0.0964 0.048 0.161 0.101 0.201 0.0684 0.0522 0.0915 0.0227 0.0769-0.0892-0.0368-0.283 0.253-1.05 0.56-1.49l0.299-0.428-0.0059-0.229 0.24-0.225c0.0026 0.026 0.0059 0.182 0.0084 0.182 0.012-0.0013 0.196-0.176 0.41-0.389 0.0366-0.0401 0.0807-0.0723 0.121-0.108l0.636-0.255c-0.0774 0.063-0.249 0.221-0.508 0.48-1.5 1.5-1.85 2.49-1.26 3.49 0.327 0.555 0.639 1.25 0.793 1.76l0.113 0.375 0.126-0.429c0.325-1.1 0.971-2.05 1.92-2.82 0.287-0.231 0.29-0.24 0.187-0.616-0.128-0.471-0.546-1.31-0.941-1.9-0.141-0.209-0.258-0.358-0.308-0.397l0.178-0.0678c0.0973 0.091 0.21 0.243 0.402 0.528 0.38 0.565 0.686 1.19 0.815 1.66 0.0593 0.218 0.114 0.396 0.123 0.395 0.128-0.0174 2.74-1.71 3.09-2 0.267-0.223 0.527-0.41 0.575-0.417 0.0566-0.0089 0.0828 0.1 0.0744 0.304-0.0373 0.845-0.0271 1.4 0.0421 2.3l0.0757 0.982 0.171-0.0846c0.146-0.0723 0.642-0.237 2.16-0.73l0.27-0.089 0.133 1.25c0.0727 0.688 0.153 1.25 0.178 1.24 0.22-0.032 2.75-0.786 2.82-0.839 0.0452-0.0412 0.143-0.0281 0.215 0.0147 0.113 0.0724 0.101 0.135-0.078 0.439-0.116 0.195-0.237 0.574-0.269 0.842-0.0618 0.525-0.463 1.67-0.872 2.5-0.14 0.281-0.252 0.532-0.249 0.557 0.0033 0.0258 0.0979 0.0306 0.21 0.0153 0.516-0.0697 2.42 0.405 2.53 0.63 0.0789 0.163-0.49 0.974-1.16 1.65-0.366 0.371-0.667 0.698-0.665 0.726 4.3e-4 0.0264 0.244 0.105 0.54 0.17 0.987 0.215 2.39 0.86 3.5 1.61l0.349 0.235-0.177 0.182c-0.301 0.308-1.82 1.28-2.78 1.79-0.505 0.265-0.915 0.505-0.912 0.531 0.0033 0.0258 0.2 0.105 0.436 0.178 0.595 0.182 1.4 0.649 2.09 1.21l0.578 0.473-0.263 0.274c-0.399 0.416-1.6 1.2-2.23 1.45-0.306 0.12-0.567 0.229-0.58 0.239-0.0128 0.0102 0.129 0.198 0.316 0.42 0.739 0.876 2.35 3.29 2.27 3.4-0.0455 0.0587-2.48-0.166-3.43-0.317-0.473-0.0753-1.19-0.225-1.59-0.334-0.402-0.109-0.734-0.198-0.737-0.198-0.0033 4.62e-4 0.115 0.389 0.263 0.864 0.169 0.544 0.302 1.17 0.358 1.69l0.0894 0.824-0.373 0.033c-0.806 0.0564-2.05-0.181-2.76-0.533-0.253-0.124-0.466-0.215-0.477-0.201-0.0328 0.0482 0.0681 2.04 0.13 2.53 0.0599 0.487 0.06 0.697-0.0442 0.689zm-0.153-0.383c0.0568-0.0076-0.13-2.15-0.293-3.34-0.121-0.891-0.519-2.57-0.887-3.74-0.159-0.506-0.313-0.824-0.513-1.06-0.157-0.186-0.375-0.484-0.482-0.661l-0.195-0.323-0.0883 0.277c-0.0963 0.305-0.435 0.462-0.674 0.312-0.107-0.0642-0.128-0.0528-0.109 0.0848 0.0463 0.342-0.509 0.705-0.844 0.551-0.0896-0.0404-0.189-0.0102-0.306 0.0852-0.0945 0.0829-0.347 0.172-0.56 0.2-0.213 0.0288-0.515 0.0721-0.673 0.0982-0.157 0.0277-0.365 0.0317-0.46 0.0102-0.16-0.031-0.167 0.0053-0.112 0.485 0.0326 0.286 0.0311 0.762-0.0033 1.06l-0.0623 0.536 0.316 0.468c0.721 1.07 1.78 1.99 4.05 3.53 0.795 0.538 1.53 1.08 1.64 1.2 0.109 0.125 0.22 0.224 0.247 0.221zm-6.07 0.317c0.0266-4e-3 0.151-0.199 0.276-0.433 0.125-0.235 0.466-0.77 0.758-1.19s0.592-0.913 0.665-1.1l0.133-0.335-0.487-0.434c-0.535-0.476-1.44-1.5-1.46-1.66-0.0309-0.229-0.192-0.152-0.267 0.127-0.137 0.512-0.58 1.32-1.04 1.89-0.241 0.301-0.432 0.593-0.424 0.65 0.0403 0.299 1.68 2.5 1.85 2.48zm-5 0.0907c0.0283-4e-3 0.0896-0.0646 0.135-0.139 0.0449-0.0762 0.577-0.599 1.18-1.17 1.97-1.86 2.62-2.73 3.03-4.02 0.347-1.11 0.37-2.59 0.0401-2.54-0.0799 0.0114-0.228-0.0217-0.329-0.0748-0.119-0.0626-0.221-0.0631-0.292-0.0053-0.176 0.147-0.44 0.149-0.687 4e-3 -0.127-0.0748-0.307-0.125-0.4-0.112-0.218 0.0295-0.777-0.343-0.872-0.581-0.0596-0.15-0.117-0.172-0.303-0.118-0.162 0.0486-0.311 0.0157-0.511-0.112-0.155-0.0983-0.297-0.175-0.317-0.173-0.0861 0.0102-0.636 1-0.77 1.39-0.212 0.607-0.293 1.49-0.245 2.64 0.126 3.02 0.263 5.03 0.342 5.02zm14.5-2.63c0.0687-0.0102-0.185-1.62-0.338-2.13-0.353-1.19-0.373-1.22-0.926-1.42-0.841-0.304-2.27-1.03-2.71-1.38-0.23-0.182-0.44-0.327-0.468-0.323-0.0283 4e-3 0.0268 0.232 0.123 0.507 0.21 0.598 0.747 2.82 0.829 3.43 0.0574 0.425 0.0648 0.434 0.483 0.629 0.644 0.3 1.35 0.491 2.2 0.601 0.425 0.0547 0.789 0.0966 0.808 0.0942zm4.89-2.67c0.15-0.0203-1.87-2.72-2.59-3.47-1.41-1.46-3.37-2.77-5.19-3.47-0.616-0.24-0.92-0.301-0.904-0.184 0.0059 0.0429-0.058 0.116-0.143 0.155-0.129 0.0612-0.134 0.106-0.0414 0.251 0.164 0.261-0.0138 0.711-0.324 0.818-0.195 0.0702-0.23 0.121-0.204 0.315 0.037 0.274-0.247 0.572-0.514 0.539-0.133-0.017-0.164 0.0198-0.144 0.166 0.0138 0.102-0.0406 0.296-0.119 0.431-0.143 0.243-0.143 0.249 0.0541 0.569 0.292 0.474 1.85 1.67 2.73 2.09 0.838 0.403 2.12 0.859 3.09 1.1 0.796 0.196 4.07 0.722 4.3 0.691zm-22.5 2.47 0.322-0.0961c0.418-0.127 1.51-0.632 1.85-0.863l0.268-0.181-0.0282-0.932c-0.0337-1.12 0.0046-1.76 0.139-2.34 0.0546-0.238 0.0979-0.441 0.0963-0.453-0.0059-0.0429-0.153 0.0294-0.821 0.428-0.383 0.228-1.01 0.538-1.39 0.689l-0.688 0.274-0.0124 0.349c-0.0073 0.192 0.0477 0.975 0.123 1.74zm-4.37-2.52c0.0147-0.0026 0.946-0.279 2.07-0.616 2.26-0.677 2.98-0.947 3.86-1.44 0.976-0.549 1.21-0.74 1.74-1.45 0.498-0.663 0.507-0.686 0.316-0.754-0.344-0.123-0.611-0.349-0.638-0.544-0.014-0.103-0.103-0.218-0.198-0.254-0.196-0.0733-0.444-0.557-0.442-0.865 6.61e-4 -0.144-0.0747-0.255-0.25-0.368-0.138-0.0883-0.292-0.258-0.343-0.378-0.0845-0.197-0.116-0.209-0.331-0.116-0.289 0.126-1.83 0.356-2.07 0.315-0.458-0.0801-2.01 2.19-2.8 4.08-0.486 1.17-0.961 2.41-0.922 2.4zm24.6-3.77c0.0541-0.0076 0.119-0.025 0.204-0.0446 0.19-0.0526 0.53-0.188 0.754-0.302 0.521-0.262 1.98-1.26 1.97-1.34-0.0121-0.0886-1.15-0.854-1.7-1.14-0.248-0.13-0.696-0.32-0.996-0.423s-0.556-0.182-0.567-0.172c-0.0121 0.0089-0.257 0.135-0.544 0.28-0.627 0.319-1.54 0.602-2.04 0.629-0.201 0.0102-0.355 0.0406-0.339 0.0634 0.0147 0.0244 0.385 0.284 0.821 0.576 0.851 0.57 1.42 1.03 1.96 1.58 0.247 0.252 0.318 0.319 0.481 0.297zm-11.8 1.02c0.101-0.0136 0.22-0.0735 0.303-0.171 0.115-0.136 0.147-0.14 0.351-0.0414 0.204 0.0976 0.244 0.0932 0.454-0.054 0.127-0.0872 0.251-0.207 0.276-0.263 0.0306-0.0655 0.1-0.0486 0.212 0.0668 0.13 0.131 0.213 0.15 0.378 0.0837 0.194-0.0787 0.263-0.205 0.333-0.618 0.0243-0.138 0.0406-0.14 0.285-0.0409 0.354 0.144 0.547-0.0387 0.431-0.422-0.101-0.332-0.0565-0.381 0.247-0.272 0.218 0.0773 0.26 0.0702 0.358-0.0568 0.125-0.164 0.118-0.395-0.0163-0.497-0.0542-0.0452-0.0652-0.12-0.0296-0.2 0.0471-0.105 0.0823-0.114 0.175-0.0411 0.202 0.154 0.573 0.0507 0.643-0.181 0.0496-0.165 0.0259-0.249-0.117-0.414l-0.179-0.207 0.21 0.0329c0.116 0.0194 0.254 0.0445 0.31 0.059 0.123 0.0272 0.403-0.321 0.381-0.477-0.0084-0.0604-0.0774-0.152-0.153-0.199-0.0762-0.051-0.146-0.159-0.158-0.249-0.0178-0.132 0.017-0.159 0.187-0.139 0.173 0.0204 0.227-0.0221 0.306-0.245 0.116-0.326 0.0194-0.563-0.264-0.649l-0.211-0.0644 0.22-0.177c0.288-0.233 0.333-0.503 0.117-0.685-0.16-0.134-0.159-0.151 0.0223-0.399 0.221-0.303 0.203-0.615-0.0494-0.852-0.177-0.166-0.178-0.175-0.0456-0.415 0.174-0.317 0.0592-0.642-0.239-0.676-0.247-0.028-0.261-0.0655-0.122-0.334 0.0618-0.12 0.0751-0.324 0.0359-0.505-0.0582-0.262-0.115-0.322-0.419-0.43-0.304-0.11-0.352-0.158-0.359-0.373-0.012-0.346-0.418-0.683-0.692-0.573-0.16 0.0654-0.2 0.0448-0.218-0.0916-0.0318-0.235-0.447-0.508-0.757-0.497-0.193 0.0089-0.307-0.0558-0.455-0.254-0.266-0.356-0.455-0.455-0.717-0.37-0.149 0.0467-0.225 0.0364-0.235-0.0383-0.0414-0.306-0.801-0.424-1-0.156-0.0604 0.0782-0.153 0.0558-0.367-0.0766-0.318-0.201-0.652-0.2-0.7 0.0013-0.0262 0.111-0.0588 0.11-0.219-0.0142l-0.0013-0.0026c-0.337-0.257-1.03-0.0526-1.12 0.328-0.0368 0.168-0.0411 0.169-0.259 0.0266-0.307-0.201-0.595-0.107-0.772 0.253-0.0805 0.163-0.173 0.259-0.208 0.217-0.0878-0.106-0.495-0.0409-0.599 0.0983-0.0473 0.059-0.071 0.217-0.0535 0.346 0.0315 0.232 0.0269 0.235-0.346 0.23-0.253-6.61e-4 -0.414 0.0296-0.487 0.11-0.131 0.142-0.104 0.444 0.0506 0.563 0.0871 0.067 0.0452 0.0937-0.19 0.126-0.381 0.0514-0.562 0.36-0.431 0.738 0.0765 0.223 0.0674 0.246-0.0939 0.226-0.377-0.0463-0.695 0.792-0.332 0.878 0.204 0.0512 0.168 0.133-0.109 0.257-0.144 0.0633-0.296 0.219-0.349 0.353-0.0861 0.221-0.0768 0.256 0.126 0.464 0.213 0.219 0.215 0.226 0.0562 0.247-0.195 0.0265-0.325 0.323-0.23 0.525 0.0383 0.0825 0.147 0.197 0.243 0.263 0.171 0.118 0.172 0.124 0.0379 0.3-0.0749 0.0987-0.124 0.263-0.111 0.365 0.0315 0.233 0.291 0.523 0.449 0.502 0.0654-0.0089 0.124 0.027 0.131 0.0752 0.0072 0.0516-0.05 0.077-0.129 0.0526-0.172-0.0381-0.332 0.214-0.298 0.481 0.0137 0.113 0.145 0.28 0.317 0.401 0.255 0.181 0.303 0.264 0.358 0.641 0.0687 0.458 0.233 0.687 0.47 0.655 0.108-0.0151 0.141 0.0335 0.132 0.194-0.0142 0.265 0.224 0.482 0.559 0.509 0.226 0.0221 0.25 0.0537 0.294 0.378 0.0555 0.411 0.128 0.463 0.647 0.454 0.286-4e-3 0.375 0.0281 0.372 0.129-0.0013 0.0791 0.125 0.242 0.281 0.37 0.213 0.174 0.334 0.215 0.482 0.166 0.145-0.0459 0.238-0.0236 0.35 0.11 0.178 0.206 0.494 0.193 0.661-0.0278 0.103-0.136 0.128-0.134 0.288 0.0138 0.183 0.173 0.561 0.173 0.911-0.0013 0.134-0.0707 0.181-0.0596 0.195 0.0437 0.0119 0.086 0.0949 0.118 0.196 0.106zm-1.11-2.26c-0.176 0.0066-0.344-0.0481-0.463-0.153-0.117-0.104-0.289-0.178-0.384-0.165-0.236 0.0319-0.655-0.126-0.739-0.28-0.036-0.0652-0.0783-0.197-0.0901-0.284-0.0161-0.119-0.0791-0.151-0.256-0.127-0.13 0.0175-0.348-0.0317-0.486-0.115-0.228-0.134-0.252-0.185-0.272-0.587-0.0162-0.308-0.0556-0.449-0.133-0.467-0.0612-0.018-0.185-0.134-0.277-0.265-0.2-0.286-0.192-0.622 0.0224-0.925 0.113-0.159 0.122-0.22 0.0365-0.236-0.481-0.0918-0.645-0.637-0.305-1.01 0.123-0.136 0.257-0.25 0.296-0.256 0.0387-0.0053 0.0315-0.137-0.0147-0.29-0.11-0.361 0.0438-0.69 0.386-0.829 0.177-0.0677 0.258-0.161 0.259-0.285 0.0046-0.438 0.663-0.832 1.11-0.664 0.148 0.0588 0.197 0.0348 0.279-0.127 0.0548-0.106 0.174-0.237 0.266-0.288l0.0013-1.79e-4c0.261-0.148 0.6-0.175 0.893-0.0681 0.219 0.0782 0.309 0.0721 0.49-0.0311 0.185-0.104 0.277-0.107 0.553-0.0223 0.183 0.0629 0.378 0.185 0.434 0.275 0.0842 0.137 0.149 0.152 0.404 0.0813 0.262-0.0704 0.345-0.0527 0.6 0.142 0.258 0.196 0.297 0.268 0.297 0.552 3.1e-4 0.281 0.0231 0.326 0.171 0.328 0.0949 0.0053 0.262 0.0944 0.372 0.206 0.182 0.187 0.195 0.239 0.149 0.602-0.042 0.339-0.0311 0.406 0.08 0.449 0.0709 0.0254 0.189 0.172 0.262 0.321 0.139 0.284 0.109 0.489-0.121 0.837-0.0824 0.125-0.0827 0.182 0.0013 0.246 0.0604 0.0445 0.129 0.22 0.151 0.387 0.033 0.244-0.0097 0.361-0.213 0.595-0.196 0.224-0.244 0.355-0.215 0.569 0.051 0.378-0.164 0.62-0.586 0.659-0.261 0.0269-0.322 0.0609-0.306 0.177 0.0108 0.0773-0.0605 0.245-0.159 0.366-0.156 0.193-0.216 0.214-0.464 0.173-0.236-0.0382-0.313-0.019-0.451 0.131-0.184 0.196-0.634 0.292-0.794 0.169-0.0747-0.06-0.149-0.0412-0.272 0.0442-0.151 0.109-0.335 0.164-0.511 0.167zm0.136-0.2c0.24-0.0324 0.296-0.0839 0.4-0.368 0.115-0.311 0.125-0.318 0.155-0.115 0.0178 0.118 0.0938 0.253 0.169 0.3 0.273 0.171 0.81-0.222 0.669-0.489-0.0662-0.127-0.0594-0.128 0.105-0.0206 0.0972 0.0658 0.279 0.127 0.404 0.141 0.184 0.0189 0.248-0.016 0.337-0.206 0.0702-0.149 0.0815-0.303 0.029-0.433-0.073-0.183-0.0643-0.197 0.0917-0.139 0.252 0.0938 0.644 0.0216 0.745-0.136 0.0626-0.1 0.054-0.21-0.0278-0.394-0.109-0.245-0.102-0.264 0.198-0.465 0.253-0.17 0.311-0.259 0.302-0.473-0.0108-0.281-0.306-0.569-0.555-0.542-0.0709 0.0076 0.0271-0.0913 0.217-0.218 0.39-0.261 0.447-0.503 0.189-0.8-0.109-0.126-0.235-0.172-0.404-0.15-0.311 0.042-0.327-0.06-0.0358-0.218 0.261-0.14 0.338-0.543 0.154-0.798-0.0884-0.123-0.193-0.146-0.484-0.106-0.367 0.0495-0.37 0.0476-0.268-0.15 0.119-0.231 0.0971-0.52-0.0559-0.732-0.131-0.181-0.568-0.141-0.801 0.0729-0.156 0.144-0.162 0.139-0.227-0.155-0.0499-0.226-0.125-0.326-0.294-0.392-0.305-0.12-0.644 0.0255-0.708 0.296-0.0605 0.259-0.164 0.298-0.134 0.0532 0.0134-0.109-0.0456-0.227-0.156-0.312l-0.0013 1.52e-4 -1.59e-4 -0.0013c-0.215-0.162-0.653-0.123-0.872 0.0827-0.0851 0.0815-0.185 0.257-0.222 0.397l-0.0676 0.253-0.222-0.17c-0.272-0.208-0.559-0.18-0.767 0.0772-0.196 0.239-0.181 0.358 0.0728 0.604 0.218 0.211 0.164 0.263-0.113 0.106-0.248-0.14-0.613-0.0697-0.78 0.149-0.234 0.307-0.0876 0.666 0.332 0.819 0.221 0.0806 0.216 0.0838-0.151 0.133-0.409 0.0553-0.683 0.284-0.648 0.542 0.0266 0.197 0.45 0.433 0.714 0.399 0.118-0.015 0.272-0.0013 0.342 0.0326 0.0932 0.04 0.0439 0.0853-0.187 0.16-0.388 0.123-0.555 0.305-0.582 0.63-0.0301 0.367 0.22 0.614 0.632 0.624l0.334 0.0076-0.248 0.168c-0.563 0.383-0.113 1.08 0.622 0.964 0.255-0.0404 0.343-0.029 0.291 0.0395-0.238 0.312 0.158 0.702 0.645 0.636 0.148-0.0201 0.274-0.0026 0.28 0.0409 0.0223 0.165 0.317 0.297 0.583 0.261zm9.93-1.37c0.378-0.052 0.787-0.177 1.27-0.367 1.1-0.438 5.05-2.69 5.03-2.86-0.0152-0.111-1.69-0.989-2.41-1.27-0.899-0.344-2.29-0.598-3.5-0.64-1.19-0.0424-1.93 0.0622-2.5 0.355-0.234 0.12-0.679 0.308-0.989 0.418-0.647 0.229-0.903 0.507-0.657 0.715 0.172 0.145 0.254 0.715 0.134 0.936-0.056 0.104-0.0601 0.292-0.0084 0.498 0.0658 0.261 0.0518 0.368-0.0649 0.506l-0.148 0.175 0.201 0.207c0.11 0.114 0.184 0.244 0.164 0.291-0.0209 0.0466 0.166 0.148 0.415 0.224 0.249 0.0768 0.794 0.296 1.21 0.485 0.667 0.302 1.21 0.412 1.84 0.325zm-20.3 2.2 0.813-1.09c0.447-0.6 0.812-1.11 0.81-1.12-0.0026-0.0171-0.0606-0.0269-0.128-0.0178-0.0671 0.0102-0.464-0.074-0.882-0.184s-0.981-0.277-1.25-0.371l-0.494-0.17-0.363 0.304c-0.434 0.364-1.62 1.6-1.86 1.95-0.146 0.206-0.153 0.255-0.043 0.305 0.298 0.133 1.75 0.342 2.55 0.368zm3.64-2.53c0.574-0.095 0.897-0.223 1.1-0.428 0.131-0.133 0.13-0.15-0.0178-0.274-0.212-0.177-0.246-0.508-0.0758-0.71 0.136-0.162 0.136-0.166-0.0406-0.3-0.212-0.162-0.331-0.805-0.183-0.986 0.0533-0.0597 0.0666-0.198 0.033-0.301-0.0732-0.217 0.0293-0.669 0.169-0.746 0.166-0.0924-0.0228-0.5-0.311-0.675-0.149-0.0902-0.432-0.198-0.629-0.24-0.439-0.0923-2.53 0.127-3.19 0.337-2.26 0.719-3.09 1.02-4.23 1.54-0.498 0.227-0.917 0.427-0.93 0.443-0.0132 0.0193 0.363 0.199 0.836 0.404s1.27 0.554 1.76 0.775c1.15 0.513 2.57 1.01 3.4 1.19 0.532 0.117 0.823 0.126 1.64 0.0477 0.252-0.0255 0.472-0.0553 0.663-0.0823zm13.2-4.2c0.387-0.0522 1.66-0.719 2.3-1.21 0.766-0.582 1.46-1.4 2.07-2.45 0.757-1.3 1.48-3.13 1.49-3.8l-0.0013 1.65e-4c0.0084-0.324 0.1-0.333-1.21 0.102-1.05 0.349-1.7 0.614-2.93 1.21-1.8 0.86-2.9 1.92-3.26 3.16-0.152 0.517-0.154 0.579-0.0203 0.724 0.081 0.0874 0.159 0.252 0.175 0.366 0.0206 0.147 0.122 0.252 0.344 0.357 0.173 0.0818 0.364 0.237 0.423 0.346 0.106 0.196 0.111 0.568 0.0084 0.743-0.0846 0.145 0.372 0.493 0.606 0.461zm5.4-0.809c0.223-0.0299 2.04-2.02 2.02-2.21-0.0131-0.0973-0.57-0.277-1.22-0.396-0.307-0.0558-0.772-0.104-1.03-0.109l-0.478-0.0066-0.344 0.574c-0.377 0.628-1.03 1.38-1.52 1.75-0.17 0.128-0.305 0.265-0.299 0.304 0.0059 0.0429 0.0346 0.0478 0.0658 0.0262 0.0811-0.0636 1.59-0.0492 2.19 0.0216 0.277 0.0326 0.561 0.0522 0.631 0.0428zm-17.6 0.485 0.166-0.204c0.0918-0.112 0.206-0.211 0.254-0.217 0.0482-0.0066 0.0947-0.134 0.104-0.282 0.0197-0.308 0.26-0.687 0.451-0.713 0.0799-0.0102 0.123-0.0955 0.113-0.226-0.0255-0.338 0.118-0.486 0.498-0.509 0.312-0.016 0.343-0.0427 0.388-0.278 0.0296-0.156 0.147-0.325 0.298-0.428l0.25-0.17-0.301-0.17c-0.335-0.19-0.827-0.838-1.14-1.5-0.245-0.517-0.474-0.725-1-0.909-0.698-0.243-2.5-0.372-4.22-0.302-1.83 0.0738-2.24 0.122-2.22 0.257 0.0256 0.19 0.784 1.57 1.19 2.18 0.906 1.33 1.78 2.28 2.49 2.67 0.43 0.242 0.593 0.284 1.03 0.271 0.593-0.0188 1.17 0.125 1.46 0.365zm-5.47 0.156c0.0937-0.0192 0.753-0.18 1.47-0.357l1.3-0.322-0.614-0.471c-0.337-0.259-0.864-0.775-1.17-1.15l-0.554-0.679-1.06 0.135c-0.926 0.116-2.07 0.393-2.18 0.529-0.0188 0.0291 0.261 0.375 0.623 0.778 0.709 0.79 1.86 1.6 2.19 1.54zm15.7-2.4c0.0587-0.0076 0.132-0.178 0.162-0.378 0.112-0.731 0.629-1.57 1.37-2.22 0.561-0.491 0.753-1.44 0.631-3.14-0.118-1.64-0.139-2.73-0.069-3.65l0.0013-1.52e-4c0.0187-0.251-0.0289-0.229-0.557 0.253-0.246 0.224-0.933 0.712-1.53 1.08-1.24 0.774-2.08 1.42-2.58 1.98-0.678 0.758-1.23 2.24-1.26 3.37-0.0073 0.309-0.0502 0.696-0.0943 0.863-0.0673 0.247-0.0584 0.326 0.0451 0.438 0.0883 0.0959 0.158 0.108 0.235 0.047 0.204-0.171 0.769-0.195 0.952-0.0402 0.0939 0.0792 0.255 0.133 0.358 0.119 0.24-0.0325 0.842 0.395 0.873 0.622 0.02 0.148 0.0576 0.16 0.263 0.0907 0.207-0.0718 0.296-0.0376 0.665 0.248 0.234 0.181 0.473 0.323 0.532 0.315zm-7.38-0.968c0.0639-1.32e-4 0.111-0.0319 0.19-0.105 0.209-0.194 0.618-0.256 0.85-0.132 0.154 0.0843 0.192 0.0773 0.31-0.0593 0.126-0.149 0.633-0.284 1.52-0.405 0.287-0.039 0.302-0.0588 0.343-0.414 0.122-1.08-0.131-2.26-0.715-3.32-0.868-1.59-1.83-2.87-2.9-3.88-0.259-0.244-0.653-0.601-0.873-0.792l-0.401-0.346-0.058 0.248c-0.448 1.91-0.598 3.73-0.421 5.11 0.234 1.83 1.01 3.5 1.86 3.98 0.148 0.0842 0.229 0.126 0.293 0.13zm9.6-2.27c0.0108 0.0066 0.0462-0.0089 0.11-0.0499 0.556-0.32 1.87-0.967 2.25-1.11 0.536-0.198 0.52-0.131 0.405-1.58l-0.0013 1.65e-4c-0.0473-0.603-0.114-1.05-0.154-1.04-0.0399 0.0102-0.178 0.0678-0.308 0.129-0.13 0.0615-0.586 0.232-1.01 0.377-1.11 0.378-1.07 0.333-1.02 1.24 0.0434 0.736-0.0691 1.67-0.235 1.94-0.0326 0.0569-0.0455 0.0851-0.0348 0.0923zm-11.7-0.187c0.0334 0.0131 4.75e-4 -0.113-0.0735-0.278-0.208-0.466-0.393-2.08-0.336-2.94l0.0493-0.754-0.205-0.123c-0.264-0.161-1.28-0.336-2.4-0.411-0.488-0.0332-0.973-0.0667-1.08-0.0744-0.167-0.0127-0.185 0.0215-0.154 0.256 0.122 0.89 0.9 2.94 1.34 3.51 0.212 0.28 0.261 0.299 1.01 0.383 0.643 0.0717 1.22 0.208 1.85 0.435z"/>
 <path id="mm" class="m" d="m11.6 89.1c0.377-0.554-0.222-1.37-0.62-1.91-0.338-0.458-0.898-0.706-1.4-0.982-0.425-0.236-0.881-0.417-1.34-0.568-0.639-0.209-1.96-0.465-1.96-0.465s0.21 1.64 0.62 2.33c0.218 0.366 0.6 0.608 0.93 0.879 0.392 0.321 0.753 0.74 1.24 0.878 0.813 0.232 2.06 0.544 2.53-0.155z"/>
 <path id="ll" class="l" d="m11.9 81c0.536 0.254 0.721 0.862 0.431 1.53-0.355 0.814-1.41 1.94-2.34 2.49-1.36 0.811-2.16 0.807-2.3-0.0119-0.134-0.785 0.901-2.08 2.15-2.68 0.435-0.21 0.384-0.148-0.33 0.407-1.42 1.11-2.05 2.27-1.43 2.65 0.374 0.233 1.57-0.274 2.54-1.08 0.839-0.696 1.59-1.88 1.54-2.43-0.0698-0.87-1.2-1-2.69-0.312-1.38 0.633-2.08 1.38-2.58 2.71-0.328 0.884-0.358 1.14-0.226 1.95 0.0838 0.511 0.243 1.13 0.353 1.38l0.2 0.453 0.345-0.21c0.198-0.121 0.461-0.475 0.617-0.833 0.235-0.538 0.235-0.648 0.0024-0.817-0.148-0.107 0.32 0.0773 1.04 0.411 1.5 0.694 2.11 1.26 2.5 2.29 0.423 1.12 0.194 1.42-1.15 1.47-0.34 0.0139-0.804-0.138-1.58-0.516-0.927-0.45-1.2-0.657-1.73-1.3-1.25-1.53-1.42-3.34-0.477-5.06 0.563-1.02 1.23-1.62 2.4-2.15 1.04-0.471 1.76-0.595 2.48-0.428 0.0905 0.0209 0.174 0.0498 0.25 0.0861zm-7.29 1.35c0.0832 0.0369 0.161 0.113 0.194 0.196 0.0554 0.141-0.0038 0.136-0.199-0.0176-0.158-0.125-0.192-0.211-0.0783-0.201 0.0272 0.0026 0.0551 0.011 0.0829 0.0232zm-0.557-0.201c0.0501 0.0209 0.0637 0.0848 0.0284 0.166-0.0471 0.108 0.0064 0.269 0.119 0.358l3.54e-4 -8.11e-4c0.173 0.136 0.17 0.15-0.0173 0.0836-0.287-0.102-0.437-0.577-0.192-0.612 0.0245-0.0042 0.045-0.0012 0.0618 0.0058zm0.917 0.653c0.0096-0.0032 0.046 0.0594 0.115 0.187 0.0837 0.155 0.142 0.305 0.13 0.332-0.0474 0.109-0.125-0.0082-0.201-0.304-0.0365-0.141-0.0538-0.212-0.044-0.216zm0.17 0.861c0.219 0.0954 0.797 1.25 0.718 1.43l8.08e-4 3.52e-4c-0.134 0.307-0.908-0.455-1.02-1-0.0598-0.301 0.0915-0.519 0.298-0.429zm-1.44-0.45c0.0466 0.0185 0.0954 0.049 0.135 0.0894 0.087 0.0882 0.042 0.106-0.115 0.045-0.142-0.0545-0.206-0.12-0.143-0.145 0.0317-0.0127 0.0762-0.0076 0.123 0.0104zm-0.436-0.19c0.0547 0.0235 0.095 0.0544 0.108 0.0873 0.0257 0.065-0.0228 0.0879-0.108 0.0509-0.0848-0.037-0.183-0.0021-0.218 0.0783-0.0354 0.0811 0.0404 0.151 0.168 0.157 0.127 0.0058 0.206 0.0684 0.175 0.139-0.0858 0.197-0.41 2e-3 -0.497-0.298-0.0627-0.217-0.029-0.266 0.178-0.257 0.0702 0.0032 0.139 0.0199 0.194 0.0434zm5.55 3.51c-0.228-0.099-0.262-0.052-0.263 0.139-0.0024 0.705-0.237 1.14-0.745 1.4l-0.506 0.251 0.626 0.538c0.344 0.296 0.794 0.611 0.997 0.7 0.949 0.414 2.25-1.12 1.61-1.91-0.494-0.608-0.641-0.59-0.744 0.0918-0.0776 0.512-0.16 0.654-0.564 0.973-0.3 0.237-0.592 0.341-0.8 0.283l-0.328-0.0911 0.39-0.153c0.476-0.187 0.763-0.543 1-1.25 0.18-0.526 0.174-0.539-0.378-0.829-0.125-0.0657-0.223-0.114-0.299-0.147zm-1.42-0.612c0.0466 0.0185 0.0954 0.049 0.135 0.0894 0.087 0.0883 0.042 0.106-0.115 0.045-0.142-0.0545-0.206-0.12-0.143-0.145 0.0317-0.0127 0.0762-0.0076 0.123 0.0104zm3.61 2.1-0.0658 0.443c-0.11 0.741-0.399 1.2-0.83 1.32-0.498 0.138-0.232 0.271 0.477 0.238 0.866-0.0406 1.06-0.512 0.628-1.52z"/>
 <path id="kk" class="k" d="m40.8 103c0.697-1.29 1-2.8 0.867-4.26-0.136-1.46-0.713-2.88-1.64-4.03-1.24-1.53-3.14-2.56-5.11-2.58-0.985-0.0104-1.97 0.225-2.84 0.698-0.864 0.473-1.6 1.18-2.08 2.04-0.259 0.462-0.446 0.967-0.519 1.49-0.0735 0.524-0.0314 1.07 0.151 1.57 0.182 0.497 0.507 0.946 0.94 1.25s0.976 0.457 1.5 0.396c0.375-0.0434 0.736-0.194 1.04-0.423 0.3-0.229 0.54-0.536 0.697-0.88 0.234-0.51 0.284-1.1 0.18-1.65-0.104-0.552-0.357-1.07-0.696-1.52-0.679-0.894-1.68-1.49-2.69-1.98-2.66-1.28-5.56-1.96-8.3-3.04-1.66-0.659-3.31-1.5-4.49-2.84-0.592-0.67-1.06-1.46-1.3-2.32-0.242-0.861-0.252-1.79 0.03-2.64s0.857-1.6 1.61-2.09c0.748-0.493 1.66-0.727 2.56-0.652"/>
 <g stroke-width=".2">
  <use id="jj" transform="translate(-1.24,107)" width="100%" height="100%" stroke-width=".2" xlink:href="#ww"/>
  <use id="ii" transform="translate(-1.24,107)" width="100%" height="100%" stroke-width=".2" xlink:href="#vv"/>
  <use id="hh" transform="translate(-1.24,107)" width="100%" height="100%" stroke-width=".2" xlink:href="#uu"/>
  <use id="gg" transform="translate(-1.24,107)" width="100%" height="100%" stroke-width=".2" xlink:href="#tt"/>
  <use id="ff" transform="translate(-1.24,107)" width="100%" height="100%" stroke-width=".2" xlink:href="#ss"/>
  <use id="ee" transform="translate(-1.24,107)" width="100%" height="100%" stroke-width=".2" xlink:href="#rr"/>
  <use id="dd" transform="translate(-1.24,107)" width="100%" height="100%" stroke-width=".2" xlink:href="#qq"/>
  <use id="cc" transform="translate(-1.24,107)" width="100%" height="100%" stroke-width=".2" xlink:href="#pp"/>
  <use id="bb" transform="translate(-1.24,107)" width="100%" height="100%" stroke-width=".2" xlink:href="#oo"/>
  <use id="aa" transform="translate(-1.24,107)" width="100%" height="100%" stroke-width=".2" xlink:href="#nn"/>
  <use transform="translate(-1.24,107)" width="100%" height="100%" xlink:href="#mm"/>
  <use transform="translate(-1.24,107)" width="100%" height="100%" xlink:href="#ll"/>
  <use transform="translate(-1.24,107)" width="100%" height="100%" xlink:href="#kk"/>
  <use transform="translate(-1.65,108)" width="100%" height="100%" xlink:href="#jj"/>
  <use transform="translate(-1.65,108)" width="100%" height="100%" xlink:href="#ii"/>
  <use transform="translate(-1.65,108)" width="100%" height="100%" xlink:href="#hh"/>
  <use transform="translate(-1.65,108)" width="100%" height="100%" xlink:href="#gg"/>
  <use transform="translate(-1.65,108)" width="100%" height="100%" xlink:href="#ff"/>
  <use transform="translate(-1.65,108)" width="100%" height="100%" xlink:href="#ee"/>
  <use transform="translate(-1.65,108)" width="100%" height="100%" xlink:href="#dd"/>
  <use transform="translate(-1.65,108)" width="100%" height="100%" xlink:href="#cc"/>
  <use transform="translate(-1.65,108)" width="100%" height="100%" xlink:href="#bb"/>
  <use transform="translate(-1.65,108)" width="100%" height="100%" xlink:href="#aa"/>
 </g>
</svg>
