<?xml-stylesheet type="text/css" href="../css/app.css"?>
<svg class="postOne" version="1.1" viewBox="0 0 37.482758 89.996971" preserveAspectRatio="xMidYMid meet" xmlns="http://www.w3.org/2000/svg" xmlns:xlink="http://www.w3.org/1999/xlink">
 <g transform="translate(-.551 -207)">
  <g>
   <path class="postOneBottom" d="m24.1 277c-2.07 0.517-4.25 0.653-6.38 0.461-1.08-0.0355-2.29-0.505-3.29-0.135 1.22 1.32 1.63 3.26 1.31 5.01-3.45 0.449-7.05 1.39-9.65 3.82-1.37 1.24-2.03 3.37-1.06 5.05 1.43 2.48 4.24 3.68 6.87 4.47 4.96 1.34 10.3 1.3 15.2-0.237 2.46-0.843 5.13-2.11 6.27-4.6 0.821-1.82-0.16-3.88-1.61-5.05-2.5-2.09-5.77-2.98-8.94-3.42-0.255-1.81 0.385-3.62 1.15-5.23zm-1.36 1.68c-0.35 1.47-1.25 2.94-0.785 4.48-0.0625 1.4 1.46 1.68 2.08 2.67 0.523 1.26-0.978 2.15-1.99 2.45-2.17 0.644-4.72 0.609-6.68-0.635-1.38-0.762-0.681-2.28 0.406-2.91 1.23-1.66 1.45-4.22 6.61e-4 -5.83 1.41-0.407 2.88 0.374 4.33 0.108 0.886-0.0495 1.78-0.1 2.64-0.345zm-7.61 4.85c-1.26 0.541-2.7 1.75-2.28 3.28 0.671 1.8 2.73 2.5 4.46 2.85 2.66 0.429 5.66 0.184 7.84-1.54 0.983-0.738 1.32-2.26 0.462-3.22-0.346-0.639-2.17-1.45-0.588-0.946 2.37 0.669 4.99 1.69 6.21 3.99 0.834 1.62-0.145 3.49-1.5 4.47-2.94 2.2-6.74 2.83-10.3 2.92-3.75 4e-3 -7.7-0.582-10.8-2.78-1.38-0.958-2.49-2.78-1.73-4.46 1.07-2.26 3.56-3.31 5.81-4.01 0.811-0.236 1.64-0.418 2.47-0.552z"/>
   <rect class="postOneBoard" x=".551" y="240" width="37" height="37" ry="5.39"/>
   <g transform="translate(-24.9 59.2)">
    <path class="postTop" d="m44.3 157c-5.12 0.0723-10.4 0.502-15.1 2.65-1.49 0.686-3.15 2.01-2.85 3.83 1.05 1.64 3.12 2.16 4.83 2.86 1.23 0.487 3.74 1.1 4.26 1.34 2.59 1.62 3.58 4.74 3.77 7.63 0.595 1.84-1 4.2 0.738 5.56 2.3 1.53 5.47 1.55 7.94 0.397 2.37-0.959 1.18-3.71 1.52-5.61 0.212-3.1 1.76-6.27 4.42-7.98 2.75-1.17 6.14-1.46 8.16-3.88 1.16-1.62-0.648-3.26-2.04-3.93-4.61-2.28-9.87-2.72-14.9-2.85-0.232-3e-3 -0.465-4e-3 -0.697-3e-3zm0.0062 1.61c4.84 0.0624 9.81 0.315 14.4 2.05 1.38 0.33 3.23 2.13 1.48 3.28-2.75 1.82-6.16 2.13-9.35 2.57-6.31 0.576-12.8 0.497-18.9-1.09-1.46-0.508-3.38-0.908-4.03-2.48 0.0046-1.73 2.16-2.23 3.48-2.75 4.2-1.25 8.63-1.55 13-1.58zm-4.79 10.7c2.56 1.16 5.53 0.87 8.23 0.447 0.894-0.194 1.81-0.693 1.04 0.52-0.833 2.81-0.898 5.77-0.966 8.67-2.14 1.29-4.88 0.93-7.12 0.0956-0.916-3.15-0.592-6.52-1.18-9.74z"/>
    <g transform="matrix(1.08 0 0 1.08 -2.57 -14)">
     <path class="ribbonFill" d="m32.7 150c-1.24-0.216-1.87 0.891-0.57 1.46 1.21 1.71 0.21 3.81-0.771 5.36-0.938 1.59-1.8 3.55-1.16 5.4 0.746 1.67 2.82 1.33 4.26 1.02 2.96-0.707 5.53-2.44 8.05-4.08 0.803 0.669 2.32 2.99 3.14 1.41 0.749-1.45 2.24 1.05 3.32 1.28 2.59 1.6 5.66 3.2 8.8 2.52 1.53-0.703 0.55-2.56 0.0352-3.63-0.681-1.45 0.351-2.78 0.921-4.05 0.617-1.57 0.774-3.66-0.422-5-1.61-1.37-4-0.453-5.54 0.582-1.86 1.22-3.41 2.83-5.14 4.2-0.58 0.379-0.993 3.29-1.3 1.59 0.536-1.03-0.0306-2.02-1.08-1.72-0.875-1.1-2.49-0.438-2.89 0.231-2.75-2.31-5.18-5.26-8.69-6.43-0.317-0.0854-0.641-0.142-0.969-0.163zm-2.28 1.55c-0.78 1.3 1.13 2.71 0.399 4.22 0.109 1.24 1.39-1.54 1.16-2.29-0.0157-0.825 0.175-1.74-0.967-1.8-0.193-0.0675-0.392-0.119-0.597-0.136z"/>
     <path class="ribbonLine" d="m32.2 150c-1.21-0.239-2.58 1.16-0.941 1.82 0.93 1.02-2.25-1.4-2.06 0.517 0.633 1.44 1.17 2.92 0.751 4.53-0.196 1.11-0.216 1.6 0.355 0.443 0.452-0.766 0.904-1.53 1.36-2.3-0.746 1.88-2.34 3.4-2.48 5.52-0.42 1.65 0.574 3.61 2.41 3.62 3.07 0.112 5.84-1.54 8.41-3.02 0.885-0.192 1.74-1.99 2.41-0.788 0.683 0.648 1.36 1.58 2.4 1.54 0.671-0.47 0.471-1.89 1.38-0.847 1.42 0.955 2.77 2.04 4.38 2.68 1.25 0.649 2.53 1.24 3.95 1.36 1.32 0.194 3.5 0.401 3.84-1.33 0.264-1.61-1.58-2.85-0.97-4.45 0.533-1.36 1.53-2.57 1.54-4.11 0.217-1.65-0.455-3.71-2.28-4.09-2.57-0.596-5.42 0.701-6.8 2.93-0.894 1.24-2.21 2.1-3.37 3.01-0.206 0.648-0.412 1.3-0.619 1.94 0.222-0.68 0.236-1.49 0.593-2.09-0.612-0.957-1.69 0.146-2.26-0.857-0.986-0.801-2.29-0.0728-2.3 0.748-2.48-2.53-5.09-5.16-8.42-6.53-0.411-0.143-0.84-0.25-1.28-0.266zm-0.591 2.29c0.428 0.422 0.227 2.84 0.0902 2.31-0.03-0.771-0.0601-1.54-0.0902-2.31z"/>
    </g>
   </g>
   <text class="postText" x="9.5759974" y="269.88544"><tspan x="9.5759974" y="269.88544">11H</tspan></text>
  </g>
  <path transform="scale(.265)" d="m334 656a27 14.1 75.3 0 1 0.752 0.516l0.109-0.365a68 21.6 0 0 1 -0.861 -0.15z" stroke-width=".3"/>
 </g>
</svg>
