<?xml version="1.0" encoding="UTF-8" standalone="no"?>
<!-- Created with Inkscape (http://www.inkscape.org/) -->

<svg
   xmlns:dc="http://purl.org/dc/elements/1.1/"
   xmlns:cc="http://creativecommons.org/ns#"
   xmlns:rdf="http://www.w3.org/1999/02/22-rdf-syntax-ns#"
   xmlns:svg="http://www.w3.org/2000/svg"
   xmlns="http://www.w3.org/2000/svg"
   xmlns:sodipodi="http://sodipodi.sourceforge.net/DTD/sodipodi-0.dtd"
   xmlns:inkscape="http://www.inkscape.org/namespaces/inkscape"
   width="37.482758mm"
   height="89.996971mm"
   viewBox="0 0 37.482758 89.996971"
   version="1.1"
   id="svg3834"
   inkscape:version="0.92.3 (2405546, 2018-03-11)"
   sodipodi:docname="whole_post_ONE.svg">
  <defs
     id="defs3828">
    <inkscape:path-effect
       effect="spiro"
       id="path-effect4447"
       is_visible="true" />
  </defs>
  <sodipodi:namedview
     id="base"
     pagecolor="#ffffff"
     bordercolor="#666666"
     borderopacity="1.0"
     inkscape:pageopacity="0.0"
     inkscape:pageshadow="2"
     inkscape:zoom="0.98994949"
     inkscape:cx="89.908148"
     inkscape:cy="252.03456"
     inkscape:document-units="mm"
     inkscape:current-layer="layer1"
     showgrid="false"
     inkscape:snap-global="false"
     fit-margin-top="0"
     fit-margin-left="0"
     fit-margin-right="0"
     fit-margin-bottom="0"
     inkscape:window-width="1366"
     inkscape:window-height="704"
     inkscape:window-x="0"
     inkscape:window-y="27"
     inkscape:window-maximized="1" />
  <metadata
     id="metadata3831">
    <rdf:RDF>
      <cc:Work
         rdf:about="">
        <dc:format>image/svg+xml</dc:format>
        <dc:type
           rdf:resource="http://purl.org/dc/dcmitype/StillImage" />
        <dc:title></dc:title>
      </cc:Work>
    </rdf:RDF>
  </metadata>
  <g
     inkscape:label="Layer 1"
     inkscape:groupmode="layer"
     id="layer1"
     transform="translate(-0.55058765,-206.96331)">
    <path
       style="opacity:0.997;fill:none;fill-opacity:1;fill-rule:nonzero;stroke:none;stroke-width:0.07937501;stroke-miterlimit:4;stroke-dasharray:none;stroke-dashoffset:0;stroke-opacity:1;paint-order:markers fill stroke"
       d="m 24.109678,277.32561 c -2.073492,0.51734 -4.253909,0.65348 -6.378097,0.46149 -1.075174,-0.0355 -2.287146,-0.50478 -3.288313,-0.13534 1.220378,1.32461 1.63334,3.2589 1.3114,5.00531 -3.445686,0.4494 -7.0528646,1.38606 -9.6487806,3.82164 -1.367207,1.23867 -2.031145,3.37187 -1.058196,5.04735 1.425898,2.48287 4.244007,3.68188 6.8719356,4.46964 4.962717,1.34459 10.333026,1.29971 15.246839,-0.23695 2.462143,-0.84304 5.125096,-2.11307 6.267854,-4.59835 0.82112,-1.8165 -0.159747,-3.87929 -1.614196,-5.04703 -2.504316,-2.09053 -5.7677,-2.97756 -8.942416,-3.42173 -0.25538,-1.81057 0.384843,-3.61873 1.146921,-5.23297 z m -1.36016,1.67752 c -0.349935,1.47334 -1.246698,2.93692 -0.78522,4.48375 -0.06249,1.39741 1.462291,1.67797 2.080292,2.67004 0.522921,1.2626 -0.977723,2.14831 -1.993289,2.45424 -2.171479,0.64354 -4.720172,0.60933 -6.675669,-0.63547 -1.376517,-0.7618 -0.681229,-2.28388 0.406116,-2.90798 1.232936,-1.65897 1.451078,-4.22405 6.61e-4,-5.8267 1.41027,-0.40681 2.881534,0.37379 4.32616,0.10751 0.886312,-0.0495 1.782805,-0.10037 2.640949,-0.34539 z m -7.60512,4.85016 c -1.263982,0.54096 -2.699293,1.75138 -2.27918,3.2821 0.670775,1.80457 2.725427,2.50255 4.463583,2.84832 2.660782,0.42867 5.662171,0.18386 7.841893,-1.5424 0.982733,-0.7375 1.321428,-2.25574 0.461519,-3.21853 -0.345574,-0.63943 -2.167189,-1.44503 -0.587525,-0.94639 2.372078,0.66929 4.98696,1.69457 6.209614,3.99197 0.834493,1.62059 -0.144566,3.49113 -1.49734,4.47218 -2.944324,2.19854 -6.738699,2.83068 -10.333774,2.91972 -3.746273,0.004 -7.704855,-0.58166 -10.8307416,-2.78469 -1.38231,-0.95804 -2.494783,-2.77632 -1.733394,-4.46332 1.068002,-2.2556 3.5642036,-3.30999 5.8136676,-4.00742 0.810896,-0.23588 1.639155,-0.41797 2.471678,-0.55154 z"
       id="path13513"
       inkscape:connector-curvature="0" />
    <rect
       ry="5.3944221"
       y="240.29703"
       x="0.55058765"
       height="37.482754"
       width="37.482758"
       id="rect13515"
       style="opacity:0.997;fill:none;fill-opacity:1;fill-rule:nonzero;stroke:none;stroke-width:1.10117531;stroke-miterlimit:4;stroke-dasharray:none;stroke-dashoffset:0;stroke-opacity:1;paint-order:markers fill stroke" />
    <g
       id="g4443"
       transform="translate(-24.90832,59.161704)"
       style="fill:none;stroke:none">
      <path
         style="opacity:0.997;fill:none;fill-opacity:1;fill-rule:nonzero;stroke:none;stroke-width:0.07937501;stroke-miterlimit:4;stroke-dasharray:none;stroke-dashoffset:0;stroke-opacity:1;paint-order:markers fill stroke"
         d="m 44.271715,157.21831 c -5.122854,0.0723 -10.410396,0.50213 -15.128427,2.64875 -1.490517,0.68592 -3.148772,2.01438 -2.845178,3.8303 1.047006,1.64265 3.118873,2.1556 4.825777,2.86007 1.228545,0.48694 3.737295,1.09923 4.262067,1.33516 2.587673,1.62002 3.57695,4.73601 3.772673,7.6301 0.594915,1.84319 -1.000329,4.19932 0.737589,5.55992 2.303656,1.53412 5.471533,1.54588 7.941278,0.39718 2.374453,-0.9586 1.178917,-3.70967 1.521619,-5.61313 0.211614,-3.10449 1.755203,-6.27346 4.423807,-7.9833 2.747004,-1.17199 6.137772,-1.45512 8.161697,-3.87828 1.158602,-1.61604 -0.647914,-3.26233 -2.035368,-3.93465 -4.610468,-2.27587 -9.870776,-2.71711 -14.940746,-2.84865 -0.232254,-0.003 -0.464521,-0.004 -0.696788,-0.003 z m 0.0062,1.60662 c 4.838094,0.0624 9.805611,0.31519 14.3706,2.05061 1.381797,0.33006 3.231991,2.12876 1.4825,3.28263 -2.746304,1.81522 -6.164212,2.13079 -9.347973,2.56559 -6.308918,0.57554 -12.777422,0.49701 -18.941462,-1.09109 -1.455693,-0.50757 -3.375814,-0.90842 -4.028721,-2.47564 0.0046,-1.72812 2.156783,-2.23439 3.477694,-2.75039 4.19635,-1.25227 8.628563,-1.54691 12.987362,-1.58171 z m -4.78834,10.66653 c 2.557881,1.16084 5.52636,0.87045 8.227121,0.44725 0.893985,-0.19425 1.810261,-0.6926 1.040487,0.52043 -0.833339,2.80583 -0.898292,5.76784 -0.965787,8.67359 -2.142559,1.28684 -4.875922,0.92979 -7.117913,0.0956 -0.916017,-3.15488 -0.592268,-6.52472 -1.183908,-9.73687 z"
         id="path13517"
         inkscape:connector-curvature="0" />
      <g
         transform="matrix(1.079616,0,0,1.079616,-2.5689713,-14.009649)"
         id="g4427"
         style="fill:none;stroke:none">
        <path
           style="opacity:0.997;fill:none;fill-opacity:1;fill-rule:nonzero;stroke:none;stroke-width:0.05711926;stroke-miterlimit:4;stroke-dasharray:none;stroke-dashoffset:0;stroke-opacity:1;paint-order:markers fill stroke"
           d="m 32.666956,150.14711 c -1.242202,-0.21616 -1.873362,0.89139 -0.569726,1.4638 1.207542,1.71471 0.210243,3.80632 -0.771195,5.36324 -0.937657,1.59435 -1.799516,3.54688 -1.158596,5.3983 0.745547,1.66509 2.820914,1.33367 4.262036,1.02457 2.962244,-0.70664 5.533398,-2.4364 8.049482,-4.07797 0.802675,0.66886 2.32005,2.98845 3.137143,1.4104 0.748722,-1.44804 2.238423,1.04987 3.323877,1.27984 2.59112,1.60226 5.662255,3.19928 8.795438,2.5217 1.531713,-0.70285 0.549952,-2.55518 0.03517,-3.63163 -0.680562,-1.449 0.351148,-2.78028 0.920715,-4.0478 0.616652,-1.57324 0.774343,-3.6561 -0.421764,-5.00104 -1.613032,-1.36966 -3.995791,-0.45326 -5.543856,0.58247 -1.855194,1.22458 -3.408901,2.82505 -5.137757,4.204 -0.579805,0.37879 -0.992642,3.28593 -1.298366,1.59231 0.535652,-1.03439 -0.03055,-2.0247 -1.078858,-1.721 -0.875052,-1.10194 -2.486798,-0.43833 -2.888868,0.23124 -2.753324,-2.30623 -5.175453,-5.25509 -8.686185,-6.42925 -0.316602,-0.0854 -0.641389,-0.14193 -0.968694,-0.16318 z m -2.275969,1.55284 c -0.780378,1.29633 1.125328,2.70878 0.399296,4.22135 0.108622,1.2405 1.389622,-1.54188 1.164059,-2.28752 -0.01572,-0.82542 0.175202,-1.74363 -0.966832,-1.7977 -0.192761,-0.0675 -0.392465,-0.11879 -0.596523,-0.13613 z"
           id="path13519"
           inkscape:connector-curvature="0" />
        <path
           style="fill:none;stroke:none;stroke-width:0.38699999;stroke-linecap:butt;stroke-linejoin:miter;stroke-miterlimit:4;stroke-dasharray:none;stroke-opacity:1"
           d="m 32.175658,149.90561 c -1.21259,-0.2386 -2.581881,1.15977 -0.940711,1.82149 0.930437,1.02486 -2.248164,-1.39864 -2.055317,0.51686 0.633339,1.43572 1.167902,2.92262 0.750778,4.52899 -0.195502,1.112 -0.21617,1.60454 0.35471,0.44264 0.452087,-0.76593 0.904173,-1.53187 1.35626,-2.2978 -0.746122,1.87548 -2.34127,3.4039 -2.48451,5.5151 -0.419518,1.64535 0.574092,3.61321 2.409134,3.6186 3.066559,0.11246 5.844344,-1.53834 8.413511,-3.02166 0.88476,-0.19216 1.742795,-1.98734 2.405861,-0.78794 0.683416,0.64841 1.358729,1.58151 2.395244,1.54064 0.670688,-0.4699 0.47103,-1.89075 1.377999,-0.84711 1.424112,0.95541 2.774044,2.03848 4.377817,2.6847 1.245234,0.6494 2.529011,1.23858 3.950874,1.36268 1.323973,0.19428 3.504755,0.40118 3.8423,-1.32742 0.26354,-1.61466 -1.580387,-2.85065 -0.969662,-4.45325 0.532728,-1.36205 1.53175,-2.56943 1.544678,-4.10555 0.216942,-1.64924 -0.455123,-3.70541 -2.275877,-4.08847 -2.574634,-0.59629 -5.42113,0.70096 -6.796312,2.93332 -0.894036,1.24093 -2.211961,2.10166 -3.370055,3.01341 -0.206228,0.64805 -0.412455,1.29611 -0.618682,1.94416 0.222112,-0.68025 0.235754,-1.48826 0.59317,-2.08559 -0.612358,-0.95728 -1.690145,0.14616 -2.261723,-0.85678 -0.985927,-0.80052 -2.287838,-0.0728 -2.300353,0.74777 -2.484808,-2.52906 -5.090529,-5.16375 -8.423587,-6.53264 -0.410979,-0.1427 -0.839713,-0.25021 -1.275547,-0.26615 z m -0.59092,2.29034 c 0.427746,0.42237 0.227155,2.84274 0.09015,2.31405 -0.03005,-0.77135 -0.0601,-1.5427 -0.09015,-2.31405 z"
           id="path13521"
           inkscape:connector-curvature="0" />
      </g>
    </g>
    <text
       id="text13529"
       y="269.88544"
       x="9.5759974"
       style="font-style:normal;font-variant:normal;font-weight:normal;font-stretch:normal;font-size:21.58167458px;line-height:1.25;font-family:'Fira Sans';-inkscape-font-specification:'Fira Sans';letter-spacing:0px;word-spacing:0.01618626px;fill:none;fill-opacity:1;stroke:none;stroke-width:0.53954184"
       xml:space="preserve"><tspan
         style="font-style:normal;font-variant:normal;font-weight:normal;font-stretch:normal;font-size:28.77556801px;font-family:Amatic;-inkscape-font-specification:Amatic;fill:none;stroke:none;stroke-width:0.53954184"
         y="269.88544"
         x="9.5759974"
         id="tspan13527"
         sodipodi:role="line">11H</tspan></text>
    <path
       style="opacity:0.997;fill:#613934;fill-opacity:1;fill-rule:nonzero;stroke:#000000;stroke-width:0.30000004;stroke-miterlimit:4;stroke-dasharray:none;stroke-dashoffset:0;stroke-opacity:1;paint-order:markers fill stroke"
       d="m 334.03711,655.60156 a 27.004082,14.146364 75.334686 0 1 0.75195,0.51563 l 0.10938,-0.36524 a 68.020014,21.610613 0 0 1 -0.86133,-0.15039 z"
       transform="scale(0.26458333)"
       id="path4449"
       inkscape:connector-curvature="0" />
  </g>
</svg>
